G04*
G04 #@! TF.GenerationSoftware,Altium Limited,Altium Designer,22.4.2 (48)*
G04*
G04 Layer_Color=32896*
%FSLAX25Y25*%
%MOIN*%
G70*
G04*
G04 #@! TF.SameCoordinates,E734F9EE-B4DD-4720-9605-9BBB33E3B1F9*
G04*
G04*
G04 #@! TF.FilePolarity,Positive*
G04*
G01*
G75*
%ADD12C,0.00787*%
%ADD14C,0.00500*%
G36*
X292413Y54385D02*
X289289D01*
Y54726D01*
X292413D01*
Y54385D01*
D02*
G37*
G36*
X294535Y53719D02*
X294639Y53711D01*
X294738Y53694D01*
X294834Y53673D01*
X294926Y53648D01*
X295009Y53619D01*
X295084Y53590D01*
X295154Y53561D01*
X295221Y53532D01*
X295275Y53503D01*
X295325Y53474D01*
X295362Y53449D01*
X295396Y53428D01*
X295416Y53411D01*
X295433Y53403D01*
X295437Y53399D01*
X295512Y53332D01*
X295583Y53261D01*
X295645Y53187D01*
X295704Y53112D01*
X295758Y53033D01*
X295803Y52949D01*
X295845Y52875D01*
X295882Y52795D01*
X295916Y52725D01*
X295941Y52658D01*
X295966Y52596D01*
X295982Y52546D01*
X295999Y52500D01*
X296007Y52471D01*
X296016Y52450D01*
Y52442D01*
X295508Y52313D01*
X295487Y52400D01*
X295458Y52483D01*
X295429Y52563D01*
X295400Y52633D01*
X295367Y52700D01*
X295333Y52758D01*
X295300Y52812D01*
X295267Y52862D01*
X295233Y52904D01*
X295204Y52941D01*
X295175Y52974D01*
X295154Y52999D01*
X295134Y53020D01*
X295117Y53033D01*
X295109Y53041D01*
X295105Y53045D01*
X295046Y53087D01*
X294988Y53124D01*
X294930Y53157D01*
X294867Y53187D01*
X294805Y53211D01*
X294747Y53232D01*
X294630Y53261D01*
X294580Y53270D01*
X294530Y53278D01*
X294489Y53282D01*
X294451Y53286D01*
X294422Y53291D01*
X294381D01*
X294314Y53286D01*
X294252Y53282D01*
X294131Y53261D01*
X294019Y53232D01*
X293923Y53199D01*
X293882Y53182D01*
X293844Y53170D01*
X293811Y53153D01*
X293782Y53141D01*
X293757Y53128D01*
X293740Y53120D01*
X293732Y53112D01*
X293728D01*
X293673Y53074D01*
X293624Y53037D01*
X293532Y52949D01*
X293457Y52862D01*
X293395Y52771D01*
X293349Y52692D01*
X293328Y52658D01*
X293312Y52625D01*
X293303Y52600D01*
X293295Y52583D01*
X293287Y52571D01*
Y52567D01*
X293241Y52425D01*
X293203Y52280D01*
X293178Y52134D01*
X293170Y52068D01*
X293162Y52001D01*
X293158Y51939D01*
X293154Y51885D01*
X293149Y51835D01*
Y51793D01*
X293145Y51755D01*
Y51731D01*
Y51714D01*
Y51710D01*
X293149Y51568D01*
X293162Y51435D01*
X293183Y51310D01*
X293191Y51252D01*
X293203Y51198D01*
X293216Y51152D01*
X293224Y51107D01*
X293237Y51069D01*
X293245Y51036D01*
X293249Y51011D01*
X293257Y50990D01*
X293262Y50978D01*
Y50973D01*
X293316Y50845D01*
X293378Y50732D01*
X293445Y50637D01*
X293482Y50595D01*
X293515Y50553D01*
X293549Y50520D01*
X293578Y50491D01*
X293607Y50462D01*
X293628Y50441D01*
X293649Y50424D01*
X293665Y50412D01*
X293673Y50408D01*
X293678Y50403D01*
X293736Y50366D01*
X293794Y50333D01*
X293857Y50304D01*
X293919Y50279D01*
X294044Y50241D01*
X294164Y50212D01*
X294214Y50204D01*
X294264Y50200D01*
X294310Y50195D01*
X294347Y50191D01*
X294381Y50187D01*
X294493D01*
X294560Y50195D01*
X294684Y50216D01*
X294793Y50250D01*
X294838Y50266D01*
X294884Y50283D01*
X294926Y50300D01*
X294959Y50316D01*
X294988Y50333D01*
X295013Y50349D01*
X295034Y50362D01*
X295046Y50370D01*
X295055Y50374D01*
X295059Y50379D01*
X295105Y50416D01*
X295150Y50458D01*
X295225Y50553D01*
X295296Y50657D01*
X295350Y50757D01*
X295392Y50849D01*
X295412Y50886D01*
X295425Y50919D01*
X295437Y50949D01*
X295442Y50973D01*
X295450Y50986D01*
Y50990D01*
X295949Y50874D01*
X295916Y50778D01*
X295878Y50686D01*
X295841Y50599D01*
X295795Y50520D01*
X295754Y50445D01*
X295708Y50379D01*
X295662Y50316D01*
X295616Y50262D01*
X295570Y50212D01*
X295533Y50171D01*
X295496Y50133D01*
X295462Y50104D01*
X295437Y50079D01*
X295416Y50062D01*
X295404Y50054D01*
X295400Y50050D01*
X295325Y49996D01*
X295246Y49954D01*
X295167Y49913D01*
X295084Y49879D01*
X295001Y49850D01*
X294921Y49825D01*
X294842Y49809D01*
X294768Y49792D01*
X294697Y49779D01*
X294634Y49771D01*
X294576Y49763D01*
X294526Y49759D01*
X294485Y49755D01*
X294431D01*
X294335Y49759D01*
X294243Y49763D01*
X294073Y49792D01*
X293990Y49809D01*
X293915Y49829D01*
X293840Y49850D01*
X293773Y49871D01*
X293715Y49892D01*
X293661Y49913D01*
X293611Y49933D01*
X293574Y49950D01*
X293540Y49967D01*
X293520Y49979D01*
X293503Y49983D01*
X293499Y49988D01*
X293424Y50033D01*
X293349Y50083D01*
X293282Y50137D01*
X293220Y50191D01*
X293162Y50250D01*
X293108Y50304D01*
X293062Y50362D01*
X293016Y50412D01*
X292979Y50466D01*
X292946Y50512D01*
X292916Y50553D01*
X292891Y50591D01*
X292875Y50624D01*
X292862Y50645D01*
X292854Y50661D01*
X292850Y50666D01*
X292808Y50749D01*
X292775Y50840D01*
X292746Y50928D01*
X292717Y51015D01*
X292675Y51194D01*
X292663Y51277D01*
X292650Y51356D01*
X292642Y51431D01*
X292634Y51498D01*
X292629Y51560D01*
X292625Y51614D01*
X292621Y51656D01*
Y51689D01*
Y51706D01*
Y51714D01*
X292625Y51814D01*
X292629Y51914D01*
X292654Y52105D01*
X292667Y52197D01*
X292683Y52280D01*
X292704Y52359D01*
X292721Y52434D01*
X292742Y52500D01*
X292758Y52563D01*
X292775Y52613D01*
X292792Y52658D01*
X292804Y52692D01*
X292812Y52721D01*
X292816Y52737D01*
X292821Y52741D01*
X292862Y52829D01*
X292904Y52912D01*
X292950Y52987D01*
X293000Y53058D01*
X293050Y53124D01*
X293095Y53182D01*
X293145Y53237D01*
X293191Y53286D01*
X293237Y53332D01*
X293278Y53370D01*
X293316Y53399D01*
X293349Y53428D01*
X293374Y53449D01*
X293395Y53461D01*
X293407Y53469D01*
X293411Y53474D01*
X293486Y53519D01*
X293565Y53557D01*
X293649Y53590D01*
X293736Y53619D01*
X293819Y53640D01*
X293902Y53661D01*
X293986Y53677D01*
X294064Y53690D01*
X294139Y53702D01*
X294206Y53711D01*
X294268Y53715D01*
X294318Y53719D01*
X294364Y53723D01*
X294422D01*
X294535Y53719D01*
D02*
G37*
G36*
X288594Y52741D02*
X289114D01*
Y52309D01*
X288594D01*
Y49821D01*
X288207D01*
X286452Y52309D01*
Y52741D01*
X288124D01*
Y53661D01*
X288594D01*
Y52741D01*
D02*
G37*
G36*
X285016Y53719D02*
X285129Y53702D01*
X285229Y53682D01*
X285316Y53653D01*
X285353Y53640D01*
X285387Y53628D01*
X285416Y53619D01*
X285437Y53607D01*
X285457Y53598D01*
X285470Y53590D01*
X285478Y53586D01*
X285482D01*
X285570Y53528D01*
X285649Y53465D01*
X285711Y53399D01*
X285761Y53336D01*
X285803Y53278D01*
X285832Y53228D01*
X285840Y53211D01*
X285848Y53199D01*
X285853Y53191D01*
Y53187D01*
X285874Y53132D01*
X285894Y53078D01*
X285923Y52958D01*
X285944Y52833D01*
X285957Y52712D01*
X285965Y52658D01*
X285969Y52604D01*
Y52558D01*
X285973Y52517D01*
Y52483D01*
Y52459D01*
Y52442D01*
Y52438D01*
Y49821D01*
X285466D01*
Y52467D01*
Y52525D01*
X285462Y52583D01*
X285457Y52679D01*
X285449Y52762D01*
X285441Y52829D01*
X285428Y52879D01*
X285420Y52916D01*
X285416Y52937D01*
X285412Y52945D01*
X285387Y52999D01*
X285358Y53045D01*
X285324Y53087D01*
X285295Y53120D01*
X285262Y53145D01*
X285241Y53166D01*
X285225Y53178D01*
X285216Y53182D01*
X285162Y53211D01*
X285108Y53232D01*
X285054Y53249D01*
X285000Y53257D01*
X284954Y53266D01*
X284921Y53270D01*
X284888D01*
X284796Y53261D01*
X284717Y53245D01*
X284646Y53220D01*
X284588Y53191D01*
X284542Y53162D01*
X284509Y53137D01*
X284488Y53120D01*
X284480Y53112D01*
X284455Y53078D01*
X284430Y53041D01*
X284409Y52995D01*
X284392Y52949D01*
X284363Y52850D01*
X284343Y52750D01*
X284330Y52658D01*
X284326Y52617D01*
X284322Y52579D01*
Y52550D01*
X284318Y52529D01*
Y52513D01*
Y52508D01*
X283860Y52575D01*
Y52679D01*
X283868Y52775D01*
X283881Y52866D01*
X283893Y52949D01*
X283914Y53029D01*
X283935Y53099D01*
X283960Y53162D01*
X283981Y53220D01*
X284006Y53270D01*
X284031Y53316D01*
X284051Y53353D01*
X284072Y53382D01*
X284089Y53407D01*
X284101Y53424D01*
X284110Y53432D01*
X284114Y53436D01*
X284168Y53486D01*
X284226Y53532D01*
X284284Y53569D01*
X284351Y53603D01*
X284413Y53632D01*
X284480Y53653D01*
X284542Y53673D01*
X284605Y53686D01*
X284663Y53698D01*
X284717Y53707D01*
X284767Y53715D01*
X284808Y53719D01*
X284842Y53723D01*
X284892D01*
X285016Y53719D01*
D02*
G37*
G36*
X106274Y55385D02*
X103149D01*
Y55726D01*
X106274D01*
Y55385D01*
D02*
G37*
G36*
X108395Y54719D02*
X108499Y54711D01*
X108599Y54694D01*
X108695Y54673D01*
X108786Y54648D01*
X108870Y54619D01*
X108944Y54590D01*
X109015Y54561D01*
X109082Y54532D01*
X109136Y54503D01*
X109186Y54474D01*
X109223Y54449D01*
X109256Y54428D01*
X109277Y54411D01*
X109294Y54403D01*
X109298Y54399D01*
X109373Y54332D01*
X109443Y54261D01*
X109506Y54187D01*
X109564Y54112D01*
X109618Y54033D01*
X109664Y53949D01*
X109706Y53875D01*
X109743Y53795D01*
X109776Y53725D01*
X109801Y53658D01*
X109826Y53596D01*
X109843Y53546D01*
X109860Y53500D01*
X109868Y53471D01*
X109876Y53450D01*
Y53442D01*
X109369Y53313D01*
X109348Y53400D01*
X109319Y53483D01*
X109290Y53563D01*
X109260Y53633D01*
X109227Y53700D01*
X109194Y53758D01*
X109161Y53812D01*
X109127Y53862D01*
X109094Y53904D01*
X109065Y53941D01*
X109036Y53974D01*
X109015Y53999D01*
X108994Y54020D01*
X108978Y54033D01*
X108969Y54041D01*
X108965Y54045D01*
X108907Y54087D01*
X108849Y54124D01*
X108790Y54157D01*
X108728Y54187D01*
X108666Y54211D01*
X108607Y54232D01*
X108491Y54261D01*
X108441Y54270D01*
X108391Y54278D01*
X108350Y54282D01*
X108312Y54286D01*
X108283Y54291D01*
X108241D01*
X108175Y54286D01*
X108112Y54282D01*
X107992Y54261D01*
X107879Y54232D01*
X107784Y54199D01*
X107742Y54182D01*
X107705Y54170D01*
X107671Y54153D01*
X107642Y54141D01*
X107617Y54128D01*
X107601Y54120D01*
X107592Y54112D01*
X107588D01*
X107534Y54074D01*
X107484Y54037D01*
X107393Y53949D01*
X107318Y53862D01*
X107255Y53771D01*
X107210Y53692D01*
X107189Y53658D01*
X107172Y53625D01*
X107164Y53600D01*
X107156Y53583D01*
X107147Y53571D01*
Y53567D01*
X107101Y53425D01*
X107064Y53280D01*
X107039Y53134D01*
X107031Y53067D01*
X107022Y53001D01*
X107018Y52939D01*
X107014Y52885D01*
X107010Y52835D01*
Y52793D01*
X107006Y52755D01*
Y52731D01*
Y52714D01*
Y52710D01*
X107010Y52568D01*
X107022Y52435D01*
X107043Y52310D01*
X107052Y52252D01*
X107064Y52198D01*
X107077Y52152D01*
X107085Y52107D01*
X107097Y52069D01*
X107106Y52036D01*
X107110Y52011D01*
X107118Y51990D01*
X107122Y51978D01*
Y51973D01*
X107176Y51845D01*
X107239Y51732D01*
X107305Y51636D01*
X107343Y51595D01*
X107376Y51553D01*
X107409Y51520D01*
X107438Y51491D01*
X107467Y51462D01*
X107488Y51441D01*
X107509Y51424D01*
X107526Y51412D01*
X107534Y51408D01*
X107538Y51403D01*
X107597Y51366D01*
X107655Y51333D01*
X107717Y51304D01*
X107780Y51279D01*
X107904Y51241D01*
X108025Y51212D01*
X108075Y51204D01*
X108125Y51200D01*
X108171Y51196D01*
X108208Y51191D01*
X108241Y51187D01*
X108354D01*
X108420Y51196D01*
X108545Y51216D01*
X108653Y51250D01*
X108699Y51266D01*
X108745Y51283D01*
X108786Y51300D01*
X108819Y51316D01*
X108849Y51333D01*
X108874Y51349D01*
X108894Y51362D01*
X108907Y51370D01*
X108915Y51374D01*
X108919Y51379D01*
X108965Y51416D01*
X109011Y51458D01*
X109086Y51553D01*
X109157Y51657D01*
X109211Y51757D01*
X109252Y51849D01*
X109273Y51886D01*
X109285Y51919D01*
X109298Y51948D01*
X109302Y51973D01*
X109310Y51986D01*
Y51990D01*
X109810Y51874D01*
X109776Y51778D01*
X109739Y51686D01*
X109701Y51599D01*
X109656Y51520D01*
X109614Y51445D01*
X109568Y51379D01*
X109523Y51316D01*
X109477Y51262D01*
X109431Y51212D01*
X109394Y51171D01*
X109356Y51133D01*
X109323Y51104D01*
X109298Y51079D01*
X109277Y51062D01*
X109265Y51054D01*
X109260Y51050D01*
X109186Y50996D01*
X109107Y50954D01*
X109028Y50913D01*
X108944Y50879D01*
X108861Y50850D01*
X108782Y50825D01*
X108703Y50809D01*
X108628Y50792D01*
X108557Y50779D01*
X108495Y50771D01*
X108437Y50763D01*
X108387Y50759D01*
X108345Y50755D01*
X108291D01*
X108195Y50759D01*
X108104Y50763D01*
X107933Y50792D01*
X107850Y50809D01*
X107775Y50829D01*
X107701Y50850D01*
X107634Y50871D01*
X107576Y50892D01*
X107522Y50913D01*
X107472Y50933D01*
X107434Y50950D01*
X107401Y50967D01*
X107380Y50979D01*
X107363Y50983D01*
X107359Y50987D01*
X107284Y51033D01*
X107210Y51083D01*
X107143Y51137D01*
X107081Y51191D01*
X107022Y51250D01*
X106968Y51304D01*
X106923Y51362D01*
X106877Y51412D01*
X106839Y51466D01*
X106806Y51512D01*
X106777Y51553D01*
X106752Y51591D01*
X106735Y51624D01*
X106723Y51645D01*
X106715Y51661D01*
X106710Y51666D01*
X106669Y51749D01*
X106635Y51840D01*
X106606Y51928D01*
X106577Y52015D01*
X106536Y52194D01*
X106523Y52277D01*
X106511Y52356D01*
X106502Y52431D01*
X106494Y52498D01*
X106490Y52560D01*
X106486Y52614D01*
X106482Y52656D01*
Y52689D01*
Y52706D01*
Y52714D01*
X106486Y52814D01*
X106490Y52914D01*
X106515Y53105D01*
X106527Y53197D01*
X106544Y53280D01*
X106565Y53359D01*
X106581Y53434D01*
X106602Y53500D01*
X106619Y53563D01*
X106635Y53613D01*
X106652Y53658D01*
X106665Y53692D01*
X106673Y53721D01*
X106677Y53737D01*
X106681Y53741D01*
X106723Y53829D01*
X106764Y53912D01*
X106810Y53987D01*
X106860Y54058D01*
X106910Y54124D01*
X106956Y54182D01*
X107006Y54237D01*
X107052Y54286D01*
X107097Y54332D01*
X107139Y54370D01*
X107176Y54399D01*
X107210Y54428D01*
X107235Y54449D01*
X107255Y54461D01*
X107268Y54469D01*
X107272Y54474D01*
X107347Y54519D01*
X107426Y54557D01*
X107509Y54590D01*
X107597Y54619D01*
X107680Y54640D01*
X107763Y54661D01*
X107846Y54677D01*
X107925Y54690D01*
X108000Y54702D01*
X108067Y54711D01*
X108129Y54715D01*
X108179Y54719D01*
X108225Y54723D01*
X108283D01*
X108395Y54719D01*
D02*
G37*
G36*
X101797Y54723D02*
X101893Y54711D01*
X101985Y54694D01*
X102072Y54673D01*
X102155Y54648D01*
X102230Y54619D01*
X102301Y54586D01*
X102363Y54553D01*
X102421Y54523D01*
X102471Y54490D01*
X102517Y54461D01*
X102550Y54436D01*
X102579Y54415D01*
X102600Y54399D01*
X102613Y54386D01*
X102617Y54382D01*
X102683Y54316D01*
X102738Y54245D01*
X102787Y54174D01*
X102829Y54099D01*
X102867Y54028D01*
X102896Y53958D01*
X102921Y53891D01*
X102942Y53825D01*
X102958Y53762D01*
X102966Y53708D01*
X102975Y53658D01*
X102983Y53613D01*
Y53579D01*
X102987Y53550D01*
Y53533D01*
Y53529D01*
Y53463D01*
X102979Y53396D01*
X102958Y53276D01*
X102925Y53171D01*
X102908Y53126D01*
X102892Y53084D01*
X102875Y53043D01*
X102858Y53009D01*
X102842Y52980D01*
X102825Y52959D01*
X102813Y52939D01*
X102804Y52926D01*
X102800Y52918D01*
X102796Y52914D01*
X102721Y52826D01*
X102634Y52755D01*
X102546Y52701D01*
X102463Y52656D01*
X102384Y52622D01*
X102351Y52610D01*
X102326Y52602D01*
X102301Y52593D01*
X102284Y52589D01*
X102272Y52585D01*
X102268D01*
X102359Y52535D01*
X102438Y52485D01*
X102509Y52431D01*
X102563Y52377D01*
X102609Y52331D01*
X102638Y52294D01*
X102659Y52269D01*
X102663Y52265D01*
Y52261D01*
X102708Y52181D01*
X102742Y52102D01*
X102767Y52027D01*
X102783Y51957D01*
X102792Y51899D01*
X102800Y51849D01*
Y51832D01*
Y51819D01*
Y51811D01*
Y51807D01*
X102796Y51711D01*
X102779Y51620D01*
X102754Y51537D01*
X102729Y51462D01*
X102704Y51399D01*
X102692Y51374D01*
X102679Y51354D01*
X102671Y51337D01*
X102663Y51320D01*
X102659Y51316D01*
Y51312D01*
X102600Y51229D01*
X102534Y51158D01*
X102467Y51096D01*
X102401Y51042D01*
X102342Y51000D01*
X102297Y50971D01*
X102276Y50958D01*
X102263Y50950D01*
X102255Y50946D01*
X102251D01*
X102151Y50900D01*
X102051Y50867D01*
X101951Y50842D01*
X101864Y50825D01*
X101785Y50817D01*
X101756Y50813D01*
X101727Y50809D01*
X101673D01*
X101589Y50813D01*
X101510Y50821D01*
X101435Y50834D01*
X101361Y50850D01*
X101294Y50871D01*
X101232Y50892D01*
X101173Y50917D01*
X101123Y50938D01*
X101074Y50963D01*
X101032Y50987D01*
X100999Y51008D01*
X100965Y51029D01*
X100945Y51046D01*
X100924Y51058D01*
X100916Y51067D01*
X100911Y51071D01*
X100857Y51121D01*
X100807Y51179D01*
X100762Y51237D01*
X100720Y51295D01*
X100683Y51358D01*
X100653Y51416D01*
X100599Y51537D01*
X100579Y51591D01*
X100562Y51641D01*
X100549Y51686D01*
X100537Y51724D01*
X100529Y51757D01*
X100524Y51782D01*
X100520Y51799D01*
Y51803D01*
X100990Y51886D01*
X101015Y51765D01*
X101049Y51661D01*
X101086Y51570D01*
X101128Y51499D01*
X101161Y51441D01*
X101194Y51403D01*
X101215Y51379D01*
X101223Y51370D01*
X101298Y51312D01*
X101373Y51270D01*
X101452Y51237D01*
X101523Y51216D01*
X101589Y51204D01*
X101614Y51200D01*
X101639D01*
X101660Y51196D01*
X101685D01*
X101785Y51204D01*
X101872Y51221D01*
X101951Y51250D01*
X102018Y51279D01*
X102068Y51312D01*
X102105Y51341D01*
X102130Y51358D01*
X102139Y51366D01*
X102172Y51399D01*
X102197Y51433D01*
X102243Y51508D01*
X102276Y51578D01*
X102297Y51645D01*
X102309Y51707D01*
X102313Y51753D01*
X102317Y51774D01*
Y51786D01*
Y51795D01*
Y51799D01*
X102313Y51857D01*
X102305Y51911D01*
X102297Y51965D01*
X102280Y52011D01*
X102238Y52094D01*
X102197Y52161D01*
X102151Y52215D01*
X102110Y52252D01*
X102093Y52265D01*
X102085Y52273D01*
X102076Y52281D01*
X102072D01*
X101980Y52335D01*
X101885Y52373D01*
X101793Y52402D01*
X101710Y52419D01*
X101639Y52431D01*
X101610Y52435D01*
X101581D01*
X101560Y52439D01*
X101506D01*
X101481Y52435D01*
X101461Y52431D01*
X101452D01*
X101402Y52843D01*
X101473Y52826D01*
X101540Y52814D01*
X101594Y52805D01*
X101644Y52797D01*
X101681D01*
X101710Y52793D01*
X101735D01*
X101793Y52797D01*
X101851Y52801D01*
X101955Y52826D01*
X102047Y52859D01*
X102126Y52897D01*
X102189Y52939D01*
X102214Y52955D01*
X102234Y52972D01*
X102251Y52984D01*
X102263Y52997D01*
X102268Y53001D01*
X102272Y53005D01*
X102309Y53047D01*
X102342Y53088D01*
X102372Y53130D01*
X102397Y53176D01*
X102434Y53263D01*
X102463Y53350D01*
X102476Y53425D01*
X102480Y53454D01*
X102484Y53483D01*
X102488Y53504D01*
Y53525D01*
Y53533D01*
Y53538D01*
X102484Y53600D01*
X102480Y53658D01*
X102451Y53771D01*
X102417Y53866D01*
X102376Y53949D01*
X102351Y53987D01*
X102330Y54016D01*
X102313Y54045D01*
X102297Y54066D01*
X102280Y54083D01*
X102268Y54095D01*
X102263Y54103D01*
X102259Y54107D01*
X102214Y54149D01*
X102168Y54182D01*
X102122Y54211D01*
X102076Y54241D01*
X101980Y54282D01*
X101889Y54307D01*
X101814Y54324D01*
X101777Y54328D01*
X101752Y54332D01*
X101727Y54336D01*
X101693D01*
X101594Y54328D01*
X101498Y54307D01*
X101419Y54282D01*
X101348Y54249D01*
X101290Y54216D01*
X101248Y54191D01*
X101236Y54178D01*
X101223Y54170D01*
X101219Y54162D01*
X101215D01*
X101182Y54124D01*
X101148Y54087D01*
X101090Y53999D01*
X101044Y53904D01*
X101007Y53808D01*
X100978Y53721D01*
X100970Y53683D01*
X100961Y53650D01*
X100953Y53621D01*
X100949Y53600D01*
X100945Y53588D01*
Y53583D01*
X100475Y53646D01*
X100487Y53733D01*
X100504Y53816D01*
X100529Y53895D01*
X100554Y53970D01*
X100583Y54041D01*
X100616Y54103D01*
X100649Y54166D01*
X100683Y54216D01*
X100716Y54266D01*
X100745Y54307D01*
X100774Y54345D01*
X100799Y54374D01*
X100824Y54399D01*
X100841Y54415D01*
X100849Y54424D01*
X100853Y54428D01*
X100916Y54482D01*
X100986Y54528D01*
X101053Y54565D01*
X101123Y54603D01*
X101194Y54632D01*
X101265Y54653D01*
X101331Y54673D01*
X101398Y54690D01*
X101461Y54702D01*
X101515Y54711D01*
X101565Y54719D01*
X101610Y54723D01*
X101644D01*
X101673Y54727D01*
X101693D01*
X101797Y54723D01*
D02*
G37*
G36*
X98877Y54719D02*
X98989Y54702D01*
X99089Y54682D01*
X99177Y54653D01*
X99214Y54640D01*
X99247Y54628D01*
X99277Y54619D01*
X99297Y54607D01*
X99318Y54598D01*
X99331Y54590D01*
X99339Y54586D01*
X99343D01*
X99430Y54528D01*
X99510Y54465D01*
X99572Y54399D01*
X99622Y54336D01*
X99663Y54278D01*
X99692Y54228D01*
X99701Y54211D01*
X99709Y54199D01*
X99713Y54191D01*
Y54187D01*
X99734Y54132D01*
X99755Y54078D01*
X99784Y53958D01*
X99805Y53833D01*
X99817Y53712D01*
X99826Y53658D01*
X99830Y53604D01*
Y53558D01*
X99834Y53517D01*
Y53483D01*
Y53459D01*
Y53442D01*
Y53438D01*
Y50821D01*
X99326D01*
Y53467D01*
Y53525D01*
X99322Y53583D01*
X99318Y53679D01*
X99310Y53762D01*
X99301Y53829D01*
X99289Y53879D01*
X99281Y53916D01*
X99277Y53937D01*
X99272Y53945D01*
X99247Y53999D01*
X99218Y54045D01*
X99185Y54087D01*
X99156Y54120D01*
X99123Y54145D01*
X99102Y54166D01*
X99085Y54178D01*
X99077Y54182D01*
X99023Y54211D01*
X98969Y54232D01*
X98915Y54249D01*
X98861Y54257D01*
X98815Y54266D01*
X98781Y54270D01*
X98748D01*
X98657Y54261D01*
X98578Y54245D01*
X98507Y54220D01*
X98449Y54191D01*
X98403Y54162D01*
X98370Y54137D01*
X98349Y54120D01*
X98340Y54112D01*
X98316Y54078D01*
X98291Y54041D01*
X98270Y53995D01*
X98253Y53949D01*
X98224Y53850D01*
X98203Y53750D01*
X98191Y53658D01*
X98187Y53617D01*
X98182Y53579D01*
Y53550D01*
X98178Y53529D01*
Y53513D01*
Y53509D01*
X97721Y53575D01*
Y53679D01*
X97729Y53775D01*
X97741Y53866D01*
X97754Y53949D01*
X97775Y54028D01*
X97795Y54099D01*
X97821Y54162D01*
X97841Y54220D01*
X97866Y54270D01*
X97891Y54316D01*
X97912Y54353D01*
X97933Y54382D01*
X97949Y54407D01*
X97962Y54424D01*
X97970Y54432D01*
X97974Y54436D01*
X98028Y54486D01*
X98087Y54532D01*
X98145Y54569D01*
X98211Y54603D01*
X98274Y54632D01*
X98340Y54653D01*
X98403Y54673D01*
X98465Y54686D01*
X98523Y54698D01*
X98578Y54707D01*
X98628Y54715D01*
X98669Y54719D01*
X98702Y54723D01*
X98752D01*
X98877Y54719D01*
D02*
G37*
%LPC*%
G36*
X288124Y52309D02*
X286913D01*
X288124Y50578D01*
Y52309D01*
D02*
G37*
%LPD*%
D12*
X279194Y67500D02*
G03*
X279194Y67500I-394J0D01*
G01*
X116094Y89500D02*
G03*
X116094Y89500I-394J0D01*
G01*
D14*
X296800Y89110D02*
Y93000D01*
X280800Y64000D02*
X296800D01*
X280800D02*
Y67890D01*
X296800Y64000D02*
Y67890D01*
X280800Y93000D02*
X296800D01*
X280800Y89110D02*
Y93000D01*
X97700Y64000D02*
Y67890D01*
Y93000D02*
X113700D01*
Y89110D02*
Y93000D01*
X97700Y89110D02*
Y93000D01*
Y64000D02*
X113700D01*
Y67890D01*
M02*
