G04*
G04 #@! TF.GenerationSoftware,Altium Limited,Altium Designer,22.4.2 (48)*
G04*
G04 Layer_Color=65535*
%FSLAX25Y25*%
%MOIN*%
G70*
G04*
G04 #@! TF.SameCoordinates,E734F9EE-B4DD-4720-9605-9BBB33E3B1F9*
G04*
G04*
G04 #@! TF.FilePolarity,Positive*
G04*
G01*
G75*
%ADD10C,0.00984*%
%ADD11C,0.00100*%
%ADD12C,0.00787*%
%ADD13C,0.00600*%
%ADD14C,0.00500*%
G36*
X268042Y106025D02*
X268092Y106021D01*
X268150Y106012D01*
X268213Y106004D01*
X268284Y105991D01*
X268358Y105975D01*
X268438Y105958D01*
X268517Y105933D01*
X268600Y105904D01*
X268683Y105871D01*
X268762Y105829D01*
X268841Y105788D01*
X268916Y105734D01*
X268920Y105729D01*
X268933Y105721D01*
X268953Y105704D01*
X268978Y105680D01*
X269012Y105650D01*
X269049Y105613D01*
X269087Y105571D01*
X269132Y105521D01*
X269178Y105467D01*
X269224Y105405D01*
X269270Y105338D01*
X269311Y105263D01*
X269357Y105184D01*
X269394Y105097D01*
X269432Y105006D01*
X269465Y104910D01*
X268966Y104793D01*
Y104798D01*
X268958Y104810D01*
X268953Y104835D01*
X268941Y104864D01*
X268929Y104897D01*
X268908Y104935D01*
X268866Y105026D01*
X268812Y105126D01*
X268741Y105230D01*
X268666Y105326D01*
X268621Y105368D01*
X268575Y105405D01*
X268571Y105409D01*
X268562Y105413D01*
X268550Y105422D01*
X268529Y105434D01*
X268504Y105451D01*
X268475Y105467D01*
X268442Y105484D01*
X268400Y105501D01*
X268354Y105517D01*
X268309Y105534D01*
X268200Y105567D01*
X268076Y105588D01*
X268009Y105596D01*
X267897D01*
X267863Y105592D01*
X267826Y105588D01*
X267780Y105584D01*
X267730Y105580D01*
X267681Y105571D01*
X267560Y105542D01*
X267435Y105505D01*
X267373Y105480D01*
X267310Y105451D01*
X267252Y105417D01*
X267194Y105380D01*
X267190Y105376D01*
X267181Y105372D01*
X267165Y105359D01*
X267144Y105342D01*
X267123Y105322D01*
X267094Y105293D01*
X267065Y105263D01*
X267032Y105230D01*
X266998Y105189D01*
X266961Y105147D01*
X266894Y105051D01*
X266832Y104939D01*
X266778Y104810D01*
Y104806D01*
X266774Y104793D01*
X266765Y104773D01*
X266761Y104748D01*
X266753Y104714D01*
X266740Y104677D01*
X266732Y104631D01*
X266720Y104585D01*
X266707Y104531D01*
X266699Y104473D01*
X266678Y104348D01*
X266665Y104215D01*
X266661Y104074D01*
Y104070D01*
Y104053D01*
Y104028D01*
X266665Y103990D01*
Y103949D01*
X266670Y103899D01*
X266674Y103845D01*
X266678Y103782D01*
X266686Y103716D01*
X266694Y103649D01*
X266720Y103504D01*
X266757Y103358D01*
X266803Y103217D01*
Y103213D01*
X266811Y103200D01*
X266819Y103183D01*
X266828Y103158D01*
X266844Y103125D01*
X266865Y103092D01*
X266911Y103013D01*
X266973Y102921D01*
X267048Y102834D01*
X267140Y102747D01*
X267190Y102709D01*
X267244Y102672D01*
X267248D01*
X267256Y102664D01*
X267273Y102655D01*
X267298Y102643D01*
X267327Y102630D01*
X267360Y102614D01*
X267398Y102601D01*
X267439Y102584D01*
X267535Y102551D01*
X267647Y102522D01*
X267768Y102501D01*
X267830Y102497D01*
X267897Y102493D01*
X267938D01*
X267968Y102497D01*
X268005Y102501D01*
X268046Y102505D01*
X268096Y102514D01*
X268146Y102522D01*
X268263Y102551D01*
X268321Y102572D01*
X268384Y102597D01*
X268446Y102626D01*
X268504Y102659D01*
X268562Y102697D01*
X268621Y102738D01*
X268625Y102743D01*
X268633Y102751D01*
X268650Y102763D01*
X268671Y102784D01*
X268691Y102809D01*
X268720Y102842D01*
X268750Y102880D01*
X268783Y102921D01*
X268816Y102971D01*
X268849Y103025D01*
X268883Y103084D01*
X268916Y103150D01*
X268945Y103221D01*
X268974Y103300D01*
X269003Y103383D01*
X269024Y103471D01*
X269532Y103342D01*
Y103333D01*
X269523Y103312D01*
X269515Y103283D01*
X269498Y103238D01*
X269482Y103188D01*
X269457Y103125D01*
X269432Y103059D01*
X269398Y102988D01*
X269361Y102909D01*
X269320Y102834D01*
X269274Y102751D01*
X269220Y102672D01*
X269161Y102597D01*
X269099Y102522D01*
X269028Y102451D01*
X268953Y102385D01*
X268949Y102381D01*
X268933Y102372D01*
X268912Y102356D01*
X268879Y102335D01*
X268841Y102310D01*
X268791Y102281D01*
X268737Y102252D01*
X268671Y102223D01*
X268600Y102193D01*
X268525Y102164D01*
X268442Y102135D01*
X268350Y102110D01*
X268254Y102089D01*
X268155Y102073D01*
X268051Y102064D01*
X267938Y102060D01*
X267880D01*
X267834Y102064D01*
X267785Y102069D01*
X267722Y102073D01*
X267655Y102081D01*
X267581Y102094D01*
X267502Y102106D01*
X267418Y102123D01*
X267335Y102144D01*
X267252Y102164D01*
X267165Y102193D01*
X267081Y102227D01*
X267002Y102264D01*
X266928Y102310D01*
X266923Y102314D01*
X266911Y102322D01*
X266890Y102335D01*
X266865Y102356D01*
X266832Y102385D01*
X266794Y102414D01*
X266753Y102451D01*
X266707Y102497D01*
X266661Y102547D01*
X266611Y102601D01*
X266566Y102659D01*
X266516Y102726D01*
X266466Y102797D01*
X266420Y102872D01*
X266378Y102955D01*
X266337Y103042D01*
X266333Y103046D01*
X266329Y103063D01*
X266320Y103092D01*
X266308Y103125D01*
X266291Y103171D01*
X266274Y103221D01*
X266258Y103283D01*
X266237Y103350D01*
X266220Y103425D01*
X266199Y103504D01*
X266183Y103587D01*
X266170Y103679D01*
X266145Y103870D01*
X266141Y103970D01*
X266137Y104070D01*
Y104078D01*
Y104095D01*
Y104128D01*
X266141Y104169D01*
X266145Y104224D01*
X266150Y104286D01*
X266158Y104352D01*
X266166Y104427D01*
X266179Y104506D01*
X266191Y104590D01*
X266233Y104768D01*
X266262Y104856D01*
X266291Y104943D01*
X266324Y105035D01*
X266366Y105118D01*
X266370Y105122D01*
X266378Y105139D01*
X266391Y105159D01*
X266407Y105193D01*
X266432Y105230D01*
X266462Y105272D01*
X266495Y105318D01*
X266532Y105372D01*
X266578Y105422D01*
X266624Y105480D01*
X266678Y105534D01*
X266736Y105592D01*
X266798Y105646D01*
X266865Y105700D01*
X266940Y105750D01*
X267015Y105796D01*
X267019Y105800D01*
X267036Y105804D01*
X267056Y105817D01*
X267090Y105833D01*
X267127Y105850D01*
X267177Y105871D01*
X267231Y105892D01*
X267289Y105912D01*
X267356Y105933D01*
X267431Y105954D01*
X267506Y105975D01*
X267589Y105991D01*
X267759Y106021D01*
X267851Y106025D01*
X267947Y106029D01*
X268001D01*
X268042Y106025D01*
D02*
G37*
G36*
X259473Y103745D02*
Y103737D01*
Y103720D01*
Y103691D01*
Y103649D01*
X259469Y103600D01*
X259464Y103545D01*
X259460Y103483D01*
X259456Y103412D01*
X259439Y103267D01*
X259419Y103113D01*
X259385Y102963D01*
X259365Y102892D01*
X259340Y102826D01*
Y102822D01*
X259335Y102809D01*
X259327Y102792D01*
X259315Y102768D01*
X259298Y102738D01*
X259281Y102705D01*
X259231Y102630D01*
X259202Y102584D01*
X259169Y102543D01*
X259127Y102493D01*
X259086Y102447D01*
X259036Y102401D01*
X258986Y102356D01*
X258928Y102314D01*
X258865Y102272D01*
X258861Y102268D01*
X258849Y102264D01*
X258832Y102252D01*
X258803Y102239D01*
X258770Y102223D01*
X258728Y102206D01*
X258682Y102185D01*
X258624Y102168D01*
X258566Y102148D01*
X258499Y102127D01*
X258424Y102110D01*
X258345Y102094D01*
X258258Y102081D01*
X258167Y102069D01*
X258071Y102064D01*
X257971Y102060D01*
X257917D01*
X257879Y102064D01*
X257834D01*
X257784Y102069D01*
X257721Y102077D01*
X257659Y102085D01*
X257518Y102106D01*
X257368Y102139D01*
X257222Y102185D01*
X257152Y102210D01*
X257085Y102243D01*
X257081Y102248D01*
X257068Y102252D01*
X257052Y102264D01*
X257031Y102277D01*
X257002Y102297D01*
X256968Y102322D01*
X256935Y102347D01*
X256898Y102381D01*
X256815Y102455D01*
X256735Y102547D01*
X256661Y102655D01*
X256627Y102718D01*
X256598Y102780D01*
Y102784D01*
X256594Y102797D01*
X256586Y102817D01*
X256577Y102847D01*
X256565Y102880D01*
X256552Y102926D01*
X256540Y102975D01*
X256527Y103034D01*
X256511Y103100D01*
X256498Y103171D01*
X256486Y103250D01*
X256478Y103337D01*
X256465Y103429D01*
X256461Y103529D01*
X256453Y103633D01*
Y103745D01*
Y105962D01*
X256960D01*
Y103745D01*
Y103741D01*
Y103724D01*
Y103699D01*
Y103662D01*
X256964Y103620D01*
Y103575D01*
X256968Y103520D01*
X256973Y103466D01*
X256981Y103346D01*
X256998Y103225D01*
X257023Y103109D01*
X257035Y103054D01*
X257052Y103009D01*
Y103005D01*
X257056Y103000D01*
X257060Y102988D01*
X257068Y102971D01*
X257093Y102926D01*
X257126Y102876D01*
X257168Y102813D01*
X257222Y102755D01*
X257289Y102697D01*
X257368Y102643D01*
X257372D01*
X257380Y102638D01*
X257393Y102630D01*
X257409Y102622D01*
X257430Y102614D01*
X257459Y102605D01*
X257488Y102593D01*
X257522Y102580D01*
X257605Y102559D01*
X257701Y102539D01*
X257809Y102522D01*
X257925Y102518D01*
X257979D01*
X258017Y102522D01*
X258063Y102526D01*
X258117Y102530D01*
X258175Y102539D01*
X258237Y102551D01*
X258366Y102580D01*
X258433Y102601D01*
X258499Y102626D01*
X258562Y102655D01*
X258620Y102688D01*
X258674Y102726D01*
X258724Y102772D01*
X258728Y102776D01*
X258736Y102784D01*
X258745Y102801D01*
X258761Y102822D01*
X258778Y102851D01*
X258799Y102888D01*
X258824Y102934D01*
X258845Y102988D01*
X258865Y103050D01*
X258890Y103121D01*
X258911Y103200D01*
X258928Y103287D01*
X258945Y103387D01*
X258957Y103496D01*
X258961Y103616D01*
X258965Y103745D01*
Y105962D01*
X259473D01*
Y103745D01*
D02*
G37*
G36*
X261902Y102123D02*
X261432D01*
Y105122D01*
X261424Y105114D01*
X261403Y105093D01*
X261366Y105064D01*
X261312Y105022D01*
X261249Y104972D01*
X261170Y104918D01*
X261083Y104860D01*
X260983Y104798D01*
X260979D01*
X260970Y104789D01*
X260958Y104781D01*
X260937Y104773D01*
X260912Y104756D01*
X260883Y104744D01*
X260816Y104706D01*
X260742Y104669D01*
X260658Y104627D01*
X260571Y104590D01*
X260488Y104556D01*
Y105010D01*
X260492Y105014D01*
X260504Y105018D01*
X260525Y105031D01*
X260554Y105043D01*
X260588Y105060D01*
X260629Y105085D01*
X260675Y105110D01*
X260721Y105134D01*
X260829Y105201D01*
X260945Y105280D01*
X261066Y105363D01*
X261178Y105459D01*
X261182Y105463D01*
X261191Y105472D01*
X261208Y105484D01*
X261228Y105505D01*
X261249Y105530D01*
X261278Y105555D01*
X261341Y105625D01*
X261411Y105700D01*
X261482Y105788D01*
X261544Y105879D01*
X261598Y105975D01*
X261902D01*
Y102123D01*
D02*
G37*
G36*
X265929Y101058D02*
X262805D01*
Y101399D01*
X265929D01*
Y101058D01*
D02*
G37*
G36*
X221296Y124902D02*
X221346Y124898D01*
X221404Y124890D01*
X221467Y124881D01*
X221537Y124869D01*
X221612Y124852D01*
X221691Y124836D01*
X221770Y124811D01*
X221853Y124781D01*
X221937Y124748D01*
X222016Y124707D01*
X222095Y124665D01*
X222170Y124611D01*
X222174Y124607D01*
X222186Y124598D01*
X222207Y124582D01*
X222232Y124557D01*
X222265Y124528D01*
X222303Y124490D01*
X222340Y124449D01*
X222386Y124399D01*
X222432Y124345D01*
X222477Y124282D01*
X222523Y124216D01*
X222565Y124141D01*
X222611Y124062D01*
X222648Y123974D01*
X222685Y123883D01*
X222719Y123787D01*
X222219Y123671D01*
Y123675D01*
X222211Y123687D01*
X222207Y123712D01*
X222195Y123741D01*
X222182Y123775D01*
X222161Y123812D01*
X222120Y123904D01*
X222066Y124004D01*
X221995Y124108D01*
X221920Y124203D01*
X221874Y124245D01*
X221829Y124282D01*
X221824Y124286D01*
X221816Y124291D01*
X221803Y124299D01*
X221783Y124311D01*
X221758Y124328D01*
X221729Y124345D01*
X221695Y124361D01*
X221654Y124378D01*
X221608Y124395D01*
X221562Y124411D01*
X221454Y124444D01*
X221329Y124465D01*
X221263Y124474D01*
X221150D01*
X221117Y124469D01*
X221080Y124465D01*
X221034Y124461D01*
X220984Y124457D01*
X220934Y124449D01*
X220813Y124419D01*
X220689Y124382D01*
X220626Y124357D01*
X220564Y124328D01*
X220506Y124295D01*
X220447Y124257D01*
X220443Y124253D01*
X220435Y124249D01*
X220418Y124237D01*
X220397Y124220D01*
X220377Y124199D01*
X220347Y124170D01*
X220318Y124141D01*
X220285Y124108D01*
X220252Y124066D01*
X220214Y124024D01*
X220148Y123929D01*
X220085Y123816D01*
X220031Y123687D01*
Y123683D01*
X220027Y123671D01*
X220019Y123650D01*
X220015Y123625D01*
X220006Y123592D01*
X219994Y123554D01*
X219986Y123509D01*
X219973Y123463D01*
X219961Y123409D01*
X219952Y123350D01*
X219932Y123226D01*
X219919Y123092D01*
X219915Y122951D01*
Y122947D01*
Y122930D01*
Y122905D01*
X219919Y122868D01*
Y122826D01*
X219923Y122776D01*
X219927Y122722D01*
X219932Y122660D01*
X219940Y122593D01*
X219948Y122527D01*
X219973Y122381D01*
X220011Y122236D01*
X220056Y122094D01*
Y122090D01*
X220065Y122077D01*
X220073Y122061D01*
X220081Y122036D01*
X220098Y122003D01*
X220119Y121969D01*
X220164Y121890D01*
X220227Y121799D01*
X220302Y121711D01*
X220393Y121624D01*
X220443Y121587D01*
X220497Y121549D01*
X220501D01*
X220510Y121541D01*
X220526Y121532D01*
X220551Y121520D01*
X220581Y121508D01*
X220614Y121491D01*
X220651Y121478D01*
X220693Y121462D01*
X220789Y121429D01*
X220901Y121399D01*
X221021Y121379D01*
X221084Y121374D01*
X221150Y121370D01*
X221192D01*
X221221Y121374D01*
X221259Y121379D01*
X221300Y121383D01*
X221350Y121391D01*
X221400Y121399D01*
X221516Y121429D01*
X221575Y121449D01*
X221637Y121474D01*
X221700Y121503D01*
X221758Y121537D01*
X221816Y121574D01*
X221874Y121616D01*
X221878Y121620D01*
X221887Y121628D01*
X221903Y121641D01*
X221924Y121661D01*
X221945Y121686D01*
X221974Y121720D01*
X222003Y121757D01*
X222037Y121799D01*
X222070Y121849D01*
X222103Y121903D01*
X222136Y121961D01*
X222170Y122028D01*
X222199Y122098D01*
X222228Y122177D01*
X222257Y122260D01*
X222278Y122348D01*
X222785Y122219D01*
Y122211D01*
X222777Y122190D01*
X222769Y122161D01*
X222752Y122115D01*
X222735Y122065D01*
X222710Y122003D01*
X222685Y121936D01*
X222652Y121865D01*
X222615Y121786D01*
X222573Y121711D01*
X222527Y121628D01*
X222473Y121549D01*
X222415Y121474D01*
X222353Y121399D01*
X222282Y121329D01*
X222207Y121262D01*
X222203Y121258D01*
X222186Y121250D01*
X222165Y121233D01*
X222132Y121212D01*
X222095Y121187D01*
X222045Y121158D01*
X221991Y121129D01*
X221924Y121100D01*
X221853Y121071D01*
X221779Y121042D01*
X221695Y121012D01*
X221604Y120987D01*
X221508Y120967D01*
X221408Y120950D01*
X221304Y120942D01*
X221192Y120938D01*
X221134D01*
X221088Y120942D01*
X221038Y120946D01*
X220976Y120950D01*
X220909Y120958D01*
X220834Y120971D01*
X220755Y120983D01*
X220672Y121000D01*
X220589Y121021D01*
X220506Y121042D01*
X220418Y121071D01*
X220335Y121104D01*
X220256Y121141D01*
X220181Y121187D01*
X220177Y121191D01*
X220164Y121200D01*
X220144Y121212D01*
X220119Y121233D01*
X220085Y121262D01*
X220048Y121291D01*
X220006Y121329D01*
X219961Y121374D01*
X219915Y121424D01*
X219865Y121478D01*
X219819Y121537D01*
X219769Y121603D01*
X219719Y121674D01*
X219674Y121749D01*
X219632Y121832D01*
X219590Y121919D01*
X219586Y121923D01*
X219582Y121940D01*
X219574Y121969D01*
X219561Y122003D01*
X219545Y122048D01*
X219528Y122098D01*
X219511Y122161D01*
X219491Y122227D01*
X219474Y122302D01*
X219453Y122381D01*
X219437Y122464D01*
X219424Y122556D01*
X219399Y122747D01*
X219395Y122847D01*
X219391Y122947D01*
Y122955D01*
Y122972D01*
Y123005D01*
X219395Y123047D01*
X219399Y123101D01*
X219403Y123163D01*
X219411Y123230D01*
X219420Y123305D01*
X219432Y123384D01*
X219445Y123467D01*
X219486Y123646D01*
X219515Y123733D01*
X219545Y123820D01*
X219578Y123912D01*
X219619Y123995D01*
X219624Y123999D01*
X219632Y124016D01*
X219644Y124037D01*
X219661Y124070D01*
X219686Y124108D01*
X219715Y124149D01*
X219748Y124195D01*
X219786Y124249D01*
X219832Y124299D01*
X219877Y124357D01*
X219932Y124411D01*
X219990Y124469D01*
X220052Y124523D01*
X220119Y124578D01*
X220194Y124627D01*
X220269Y124673D01*
X220273Y124677D01*
X220289Y124682D01*
X220310Y124694D01*
X220343Y124711D01*
X220381Y124727D01*
X220431Y124748D01*
X220485Y124769D01*
X220543Y124790D01*
X220610Y124811D01*
X220685Y124831D01*
X220759Y124852D01*
X220843Y124869D01*
X221013Y124898D01*
X221105Y124902D01*
X221200Y124906D01*
X221254D01*
X221296Y124902D01*
D02*
G37*
G36*
X230639Y121000D02*
X230149D01*
Y124216D01*
X229025Y121000D01*
X228568D01*
X227461Y124270D01*
Y121000D01*
X226970D01*
Y124840D01*
X227731D01*
X228643Y122119D01*
Y122115D01*
X228647Y122102D01*
X228655Y122082D01*
X228663Y122057D01*
X228672Y122028D01*
X228684Y121990D01*
X228713Y121907D01*
X228742Y121815D01*
X228771Y121720D01*
X228801Y121632D01*
X228813Y121591D01*
X228826Y121553D01*
Y121557D01*
X228830Y121562D01*
X228834Y121574D01*
X228838Y121591D01*
X228846Y121616D01*
X228855Y121641D01*
X228863Y121674D01*
X228875Y121707D01*
X228888Y121749D01*
X228905Y121795D01*
X228921Y121844D01*
X228938Y121903D01*
X228959Y121961D01*
X228979Y122028D01*
X229005Y122094D01*
X229029Y122169D01*
X229953Y124840D01*
X230639D01*
Y121000D01*
D02*
G37*
G36*
X215726Y122223D02*
Y122219D01*
Y122202D01*
Y122177D01*
Y122144D01*
X215722Y122102D01*
Y122057D01*
X215717Y122003D01*
X215709Y121949D01*
X215697Y121828D01*
X215676Y121703D01*
X215647Y121582D01*
X215626Y121528D01*
X215605Y121474D01*
Y121470D01*
X215601Y121462D01*
X215593Y121449D01*
X215584Y121433D01*
X215555Y121383D01*
X215514Y121325D01*
X215464Y121262D01*
X215401Y121195D01*
X215322Y121133D01*
X215235Y121075D01*
X215231D01*
X215222Y121071D01*
X215210Y121062D01*
X215189Y121054D01*
X215168Y121042D01*
X215139Y121033D01*
X215106Y121021D01*
X215069Y121008D01*
X214981Y120979D01*
X214881Y120958D01*
X214769Y120942D01*
X214644Y120938D01*
X214594D01*
X214561Y120942D01*
X214519Y120946D01*
X214469Y120954D01*
X214415Y120963D01*
X214357Y120975D01*
X214295Y120987D01*
X214232Y121008D01*
X214166Y121029D01*
X214103Y121058D01*
X214037Y121091D01*
X213979Y121129D01*
X213920Y121175D01*
X213866Y121225D01*
X213862Y121229D01*
X213854Y121237D01*
X213841Y121254D01*
X213825Y121279D01*
X213804Y121308D01*
X213783Y121345D01*
X213758Y121391D01*
X213733Y121441D01*
X213712Y121499D01*
X213687Y121562D01*
X213667Y121632D01*
X213646Y121711D01*
X213633Y121795D01*
X213621Y121886D01*
X213613Y121982D01*
Y122086D01*
X214070Y122152D01*
Y122148D01*
Y122132D01*
X214074Y122111D01*
Y122082D01*
X214078Y122044D01*
X214083Y122003D01*
X214095Y121911D01*
X214116Y121811D01*
X214145Y121711D01*
X214162Y121666D01*
X214182Y121620D01*
X214207Y121582D01*
X214232Y121549D01*
X214241Y121541D01*
X214261Y121524D01*
X214295Y121499D01*
X214340Y121470D01*
X214399Y121441D01*
X214469Y121416D01*
X214548Y121399D01*
X214640Y121391D01*
X214673D01*
X214707Y121395D01*
X214752Y121404D01*
X214806Y121412D01*
X214861Y121429D01*
X214915Y121449D01*
X214969Y121478D01*
X214977Y121483D01*
X214994Y121495D01*
X215014Y121516D01*
X215048Y121541D01*
X215077Y121574D01*
X215110Y121616D01*
X215139Y121661D01*
X215164Y121715D01*
X215168Y121724D01*
X215173Y121745D01*
X215181Y121782D01*
X215193Y121832D01*
X215202Y121899D01*
X215210Y121982D01*
X215214Y122077D01*
X215218Y122136D01*
Y122194D01*
Y124840D01*
X215726D01*
Y122223D01*
D02*
G37*
G36*
X226583Y121000D02*
X226005D01*
X225560Y122161D01*
X223946D01*
X223530Y121000D01*
X222993D01*
X224462Y124840D01*
X225011D01*
X226583Y121000D01*
D02*
G37*
G36*
X219183Y119935D02*
X216059D01*
Y120276D01*
X219183D01*
Y119935D01*
D02*
G37*
G36*
X245144Y124302D02*
X245194Y124298D01*
X245252Y124290D01*
X245314Y124281D01*
X245385Y124269D01*
X245460Y124252D01*
X245539Y124235D01*
X245618Y124211D01*
X245701Y124181D01*
X245784Y124148D01*
X245863Y124107D01*
X245942Y124065D01*
X246017Y124011D01*
X246021Y124007D01*
X246034Y123998D01*
X246055Y123982D01*
X246080Y123957D01*
X246113Y123928D01*
X246150Y123890D01*
X246188Y123849D01*
X246234Y123799D01*
X246279Y123745D01*
X246325Y123682D01*
X246371Y123616D01*
X246412Y123541D01*
X246458Y123462D01*
X246496Y123374D01*
X246533Y123283D01*
X246566Y123187D01*
X246067Y123071D01*
Y123075D01*
X246059Y123087D01*
X246055Y123112D01*
X246042Y123141D01*
X246030Y123175D01*
X246009Y123212D01*
X245967Y123304D01*
X245913Y123404D01*
X245843Y123507D01*
X245768Y123603D01*
X245722Y123645D01*
X245676Y123682D01*
X245672Y123686D01*
X245664Y123691D01*
X245651Y123699D01*
X245630Y123711D01*
X245605Y123728D01*
X245576Y123745D01*
X245543Y123761D01*
X245501Y123778D01*
X245456Y123795D01*
X245410Y123811D01*
X245302Y123845D01*
X245177Y123865D01*
X245110Y123874D01*
X244998D01*
X244965Y123869D01*
X244927Y123865D01*
X244882Y123861D01*
X244832Y123857D01*
X244782Y123849D01*
X244661Y123819D01*
X244536Y123782D01*
X244474Y123757D01*
X244411Y123728D01*
X244353Y123695D01*
X244295Y123657D01*
X244291Y123653D01*
X244283Y123649D01*
X244266Y123636D01*
X244245Y123620D01*
X244224Y123599D01*
X244195Y123570D01*
X244166Y123541D01*
X244133Y123507D01*
X244099Y123466D01*
X244062Y123424D01*
X243995Y123329D01*
X243933Y123216D01*
X243879Y123087D01*
Y123083D01*
X243875Y123071D01*
X243867Y123050D01*
X243862Y123025D01*
X243854Y122992D01*
X243842Y122954D01*
X243833Y122908D01*
X243821Y122863D01*
X243808Y122809D01*
X243800Y122750D01*
X243779Y122626D01*
X243767Y122493D01*
X243763Y122351D01*
Y122347D01*
Y122330D01*
Y122305D01*
X243767Y122268D01*
Y122226D01*
X243771Y122176D01*
X243775Y122122D01*
X243779Y122060D01*
X243788Y121993D01*
X243796Y121927D01*
X243821Y121781D01*
X243858Y121635D01*
X243904Y121494D01*
Y121490D01*
X243912Y121477D01*
X243921Y121461D01*
X243929Y121436D01*
X243946Y121403D01*
X243966Y121369D01*
X244012Y121290D01*
X244075Y121199D01*
X244149Y121111D01*
X244241Y121024D01*
X244291Y120987D01*
X244345Y120949D01*
X244349D01*
X244357Y120941D01*
X244374Y120932D01*
X244399Y120920D01*
X244428Y120907D01*
X244461Y120891D01*
X244499Y120878D01*
X244541Y120862D01*
X244636Y120828D01*
X244748Y120799D01*
X244869Y120779D01*
X244932Y120774D01*
X244998Y120770D01*
X245040D01*
X245069Y120774D01*
X245106Y120779D01*
X245148Y120783D01*
X245198Y120791D01*
X245248Y120799D01*
X245364Y120828D01*
X245422Y120849D01*
X245485Y120874D01*
X245547Y120903D01*
X245605Y120937D01*
X245664Y120974D01*
X245722Y121016D01*
X245726Y121020D01*
X245734Y121028D01*
X245751Y121041D01*
X245772Y121061D01*
X245793Y121086D01*
X245822Y121120D01*
X245851Y121157D01*
X245884Y121199D01*
X245917Y121249D01*
X245951Y121303D01*
X245984Y121361D01*
X246017Y121428D01*
X246046Y121498D01*
X246076Y121577D01*
X246105Y121660D01*
X246125Y121748D01*
X246633Y121619D01*
Y121611D01*
X246625Y121590D01*
X246616Y121561D01*
X246600Y121515D01*
X246583Y121465D01*
X246558Y121403D01*
X246533Y121336D01*
X246500Y121265D01*
X246462Y121186D01*
X246421Y121111D01*
X246375Y121028D01*
X246321Y120949D01*
X246263Y120874D01*
X246200Y120799D01*
X246130Y120729D01*
X246055Y120662D01*
X246051Y120658D01*
X246034Y120650D01*
X246013Y120633D01*
X245980Y120612D01*
X245942Y120587D01*
X245893Y120558D01*
X245838Y120529D01*
X245772Y120500D01*
X245701Y120471D01*
X245626Y120442D01*
X245543Y120413D01*
X245451Y120387D01*
X245356Y120367D01*
X245256Y120350D01*
X245152Y120342D01*
X245040Y120338D01*
X244981D01*
X244936Y120342D01*
X244886Y120346D01*
X244823Y120350D01*
X244757Y120358D01*
X244682Y120371D01*
X244603Y120383D01*
X244520Y120400D01*
X244437Y120421D01*
X244353Y120442D01*
X244266Y120471D01*
X244183Y120504D01*
X244104Y120541D01*
X244029Y120587D01*
X244025Y120591D01*
X244012Y120600D01*
X243991Y120612D01*
X243966Y120633D01*
X243933Y120662D01*
X243896Y120691D01*
X243854Y120729D01*
X243808Y120774D01*
X243763Y120824D01*
X243713Y120878D01*
X243667Y120937D01*
X243617Y121003D01*
X243567Y121074D01*
X243521Y121149D01*
X243480Y121232D01*
X243438Y121319D01*
X243434Y121324D01*
X243430Y121340D01*
X243421Y121369D01*
X243409Y121403D01*
X243392Y121448D01*
X243376Y121498D01*
X243359Y121561D01*
X243338Y121627D01*
X243322Y121702D01*
X243301Y121781D01*
X243284Y121864D01*
X243272Y121956D01*
X243247Y122147D01*
X243243Y122247D01*
X243238Y122347D01*
Y122355D01*
Y122372D01*
Y122405D01*
X243243Y122447D01*
X243247Y122501D01*
X243251Y122563D01*
X243259Y122630D01*
X243267Y122705D01*
X243280Y122784D01*
X243292Y122867D01*
X243334Y123046D01*
X243363Y123133D01*
X243392Y123221D01*
X243426Y123312D01*
X243467Y123395D01*
X243471Y123399D01*
X243480Y123416D01*
X243492Y123437D01*
X243509Y123470D01*
X243534Y123507D01*
X243563Y123549D01*
X243596Y123595D01*
X243634Y123649D01*
X243679Y123699D01*
X243725Y123757D01*
X243779Y123811D01*
X243837Y123869D01*
X243900Y123924D01*
X243966Y123978D01*
X244041Y124028D01*
X244116Y124073D01*
X244120Y124077D01*
X244137Y124082D01*
X244158Y124094D01*
X244191Y124111D01*
X244229Y124127D01*
X244278Y124148D01*
X244333Y124169D01*
X244391Y124190D01*
X244457Y124211D01*
X244532Y124231D01*
X244607Y124252D01*
X244690Y124269D01*
X244861Y124298D01*
X244952Y124302D01*
X245048Y124306D01*
X245102D01*
X245144Y124302D01*
D02*
G37*
G36*
X235305D02*
X235355Y124298D01*
X235413Y124290D01*
X235476Y124281D01*
X235547Y124269D01*
X235621Y124252D01*
X235700Y124235D01*
X235780Y124211D01*
X235863Y124181D01*
X235946Y124148D01*
X236025Y124107D01*
X236104Y124065D01*
X236179Y124011D01*
X236183Y124007D01*
X236195Y123998D01*
X236216Y123982D01*
X236241Y123957D01*
X236275Y123928D01*
X236312Y123890D01*
X236349Y123849D01*
X236395Y123799D01*
X236441Y123745D01*
X236487Y123682D01*
X236532Y123616D01*
X236574Y123541D01*
X236620Y123462D01*
X236657Y123374D01*
X236695Y123283D01*
X236728Y123187D01*
X236229Y123071D01*
Y123075D01*
X236221Y123087D01*
X236216Y123112D01*
X236204Y123141D01*
X236191Y123175D01*
X236171Y123212D01*
X236129Y123304D01*
X236075Y123404D01*
X236004Y123507D01*
X235929Y123603D01*
X235883Y123645D01*
X235838Y123682D01*
X235834Y123686D01*
X235825Y123691D01*
X235813Y123699D01*
X235792Y123711D01*
X235767Y123728D01*
X235738Y123745D01*
X235705Y123761D01*
X235663Y123778D01*
X235617Y123795D01*
X235572Y123811D01*
X235463Y123845D01*
X235339Y123865D01*
X235272Y123874D01*
X235160D01*
X235126Y123869D01*
X235089Y123865D01*
X235043Y123861D01*
X234993Y123857D01*
X234943Y123849D01*
X234823Y123819D01*
X234698Y123782D01*
X234635Y123757D01*
X234573Y123728D01*
X234515Y123695D01*
X234457Y123657D01*
X234453Y123653D01*
X234444Y123649D01*
X234427Y123636D01*
X234407Y123620D01*
X234386Y123599D01*
X234357Y123570D01*
X234328Y123541D01*
X234294Y123507D01*
X234261Y123466D01*
X234224Y123424D01*
X234157Y123329D01*
X234095Y123216D01*
X234041Y123087D01*
Y123083D01*
X234036Y123071D01*
X234028Y123050D01*
X234024Y123025D01*
X234016Y122992D01*
X234003Y122954D01*
X233995Y122908D01*
X233982Y122863D01*
X233970Y122809D01*
X233962Y122750D01*
X233941Y122626D01*
X233928Y122493D01*
X233924Y122351D01*
Y122347D01*
Y122330D01*
Y122305D01*
X233928Y122268D01*
Y122226D01*
X233932Y122176D01*
X233937Y122122D01*
X233941Y122060D01*
X233949Y121993D01*
X233957Y121927D01*
X233982Y121781D01*
X234020Y121635D01*
X234066Y121494D01*
Y121490D01*
X234074Y121477D01*
X234082Y121461D01*
X234091Y121436D01*
X234107Y121403D01*
X234128Y121369D01*
X234174Y121290D01*
X234236Y121199D01*
X234311Y121111D01*
X234403Y121024D01*
X234453Y120987D01*
X234507Y120949D01*
X234511D01*
X234519Y120941D01*
X234536Y120932D01*
X234561Y120920D01*
X234590Y120907D01*
X234623Y120891D01*
X234661Y120878D01*
X234702Y120862D01*
X234798Y120828D01*
X234910Y120799D01*
X235031Y120779D01*
X235093Y120774D01*
X235160Y120770D01*
X235201D01*
X235230Y120774D01*
X235268Y120779D01*
X235309Y120783D01*
X235359Y120791D01*
X235409Y120799D01*
X235526Y120828D01*
X235584Y120849D01*
X235646Y120874D01*
X235709Y120903D01*
X235767Y120937D01*
X235825Y120974D01*
X235883Y121016D01*
X235888Y121020D01*
X235896Y121028D01*
X235913Y121041D01*
X235933Y121061D01*
X235954Y121086D01*
X235983Y121120D01*
X236013Y121157D01*
X236046Y121199D01*
X236079Y121249D01*
X236112Y121303D01*
X236146Y121361D01*
X236179Y121428D01*
X236208Y121498D01*
X236237Y121577D01*
X236266Y121660D01*
X236287Y121748D01*
X236795Y121619D01*
Y121611D01*
X236786Y121590D01*
X236778Y121561D01*
X236761Y121515D01*
X236745Y121465D01*
X236720Y121403D01*
X236695Y121336D01*
X236661Y121265D01*
X236624Y121186D01*
X236582Y121111D01*
X236537Y121028D01*
X236483Y120949D01*
X236424Y120874D01*
X236362Y120799D01*
X236291Y120729D01*
X236216Y120662D01*
X236212Y120658D01*
X236195Y120650D01*
X236175Y120633D01*
X236141Y120612D01*
X236104Y120587D01*
X236054Y120558D01*
X236000Y120529D01*
X235933Y120500D01*
X235863Y120471D01*
X235788Y120442D01*
X235705Y120413D01*
X235613Y120387D01*
X235517Y120367D01*
X235418Y120350D01*
X235314Y120342D01*
X235201Y120338D01*
X235143D01*
X235097Y120342D01*
X235047Y120346D01*
X234985Y120350D01*
X234918Y120358D01*
X234843Y120371D01*
X234765Y120383D01*
X234681Y120400D01*
X234598Y120421D01*
X234515Y120442D01*
X234427Y120471D01*
X234344Y120504D01*
X234265Y120541D01*
X234190Y120587D01*
X234186Y120591D01*
X234174Y120600D01*
X234153Y120612D01*
X234128Y120633D01*
X234095Y120662D01*
X234057Y120691D01*
X234016Y120729D01*
X233970Y120774D01*
X233924Y120824D01*
X233874Y120878D01*
X233828Y120937D01*
X233779Y121003D01*
X233729Y121074D01*
X233683Y121149D01*
X233641Y121232D01*
X233600Y121319D01*
X233595Y121324D01*
X233591Y121340D01*
X233583Y121369D01*
X233571Y121403D01*
X233554Y121448D01*
X233537Y121498D01*
X233521Y121561D01*
X233500Y121627D01*
X233483Y121702D01*
X233462Y121781D01*
X233446Y121864D01*
X233433Y121956D01*
X233408Y122147D01*
X233404Y122247D01*
X233400Y122347D01*
Y122355D01*
Y122372D01*
Y122405D01*
X233404Y122447D01*
X233408Y122501D01*
X233413Y122563D01*
X233421Y122630D01*
X233429Y122705D01*
X233442Y122784D01*
X233454Y122867D01*
X233496Y123046D01*
X233525Y123133D01*
X233554Y123221D01*
X233587Y123312D01*
X233629Y123395D01*
X233633Y123399D01*
X233641Y123416D01*
X233654Y123437D01*
X233670Y123470D01*
X233695Y123507D01*
X233724Y123549D01*
X233758Y123595D01*
X233795Y123649D01*
X233841Y123699D01*
X233887Y123757D01*
X233941Y123811D01*
X233999Y123869D01*
X234061Y123924D01*
X234128Y123978D01*
X234203Y124028D01*
X234278Y124073D01*
X234282Y124077D01*
X234299Y124082D01*
X234319Y124094D01*
X234353Y124111D01*
X234390Y124127D01*
X234440Y124148D01*
X234494Y124169D01*
X234552Y124190D01*
X234619Y124211D01*
X234694Y124231D01*
X234769Y124252D01*
X234852Y124269D01*
X235022Y124298D01*
X235114Y124302D01*
X235210Y124306D01*
X235264D01*
X235305Y124302D01*
D02*
G37*
G36*
X238592Y124248D02*
X238637Y124244D01*
X238691Y124235D01*
X238754Y124227D01*
X238816Y124215D01*
X238887Y124198D01*
X238958Y124177D01*
X239033Y124152D01*
X239103Y124123D01*
X239178Y124086D01*
X239249Y124044D01*
X239316Y123998D01*
X239378Y123944D01*
X239382Y123940D01*
X239390Y123932D01*
X239407Y123911D01*
X239428Y123890D01*
X239453Y123861D01*
X239482Y123824D01*
X239511Y123782D01*
X239540Y123732D01*
X239569Y123682D01*
X239598Y123624D01*
X239628Y123562D01*
X239652Y123495D01*
X239673Y123420D01*
X239690Y123345D01*
X239698Y123266D01*
X239702Y123183D01*
Y123179D01*
Y123175D01*
Y123162D01*
Y123146D01*
X239698Y123100D01*
X239690Y123042D01*
X239677Y122971D01*
X239661Y122896D01*
X239640Y122813D01*
X239607Y122730D01*
Y122725D01*
X239603Y122721D01*
X239598Y122709D01*
X239590Y122692D01*
X239565Y122646D01*
X239532Y122588D01*
X239486Y122517D01*
X239432Y122438D01*
X239370Y122355D01*
X239291Y122264D01*
X239286Y122259D01*
X239282Y122251D01*
X239266Y122239D01*
X239249Y122218D01*
X239224Y122193D01*
X239195Y122164D01*
X239162Y122126D01*
X239120Y122089D01*
X239070Y122043D01*
X239016Y121993D01*
X238958Y121935D01*
X238891Y121877D01*
X238821Y121810D01*
X238741Y121744D01*
X238654Y121669D01*
X238563Y121590D01*
X238558Y121586D01*
X238546Y121573D01*
X238521Y121556D01*
X238496Y121531D01*
X238459Y121502D01*
X238421Y121469D01*
X238334Y121394D01*
X238242Y121315D01*
X238155Y121232D01*
X238113Y121195D01*
X238076Y121161D01*
X238043Y121128D01*
X238018Y121103D01*
X238013Y121099D01*
X237997Y121082D01*
X237976Y121057D01*
X237947Y121024D01*
X237914Y120987D01*
X237880Y120945D01*
X237814Y120853D01*
X239707D01*
Y120400D01*
X237165D01*
Y120408D01*
Y120429D01*
Y120462D01*
X237169Y120504D01*
X237173Y120554D01*
X237186Y120608D01*
X237198Y120666D01*
X237219Y120724D01*
Y120729D01*
X237223Y120737D01*
X237227Y120749D01*
X237235Y120770D01*
X237248Y120791D01*
X237261Y120820D01*
X237294Y120887D01*
X237335Y120966D01*
X237389Y121053D01*
X237452Y121145D01*
X237527Y121236D01*
X237531Y121240D01*
X237535Y121249D01*
X237547Y121261D01*
X237568Y121282D01*
X237589Y121303D01*
X237618Y121332D01*
X237647Y121365D01*
X237685Y121403D01*
X237726Y121444D01*
X237772Y121486D01*
X237822Y121536D01*
X237880Y121586D01*
X237939Y121640D01*
X238005Y121694D01*
X238072Y121752D01*
X238147Y121814D01*
X238155Y121819D01*
X238176Y121839D01*
X238205Y121864D01*
X238246Y121902D01*
X238296Y121943D01*
X238355Y121993D01*
X238421Y122047D01*
X238488Y122110D01*
X238629Y122239D01*
X238766Y122376D01*
X238833Y122443D01*
X238895Y122509D01*
X238949Y122572D01*
X238995Y122630D01*
X238999Y122634D01*
X239003Y122642D01*
X239016Y122659D01*
X239029Y122680D01*
X239049Y122709D01*
X239066Y122738D01*
X239107Y122813D01*
X239149Y122900D01*
X239187Y122996D01*
X239212Y123096D01*
X239216Y123146D01*
X239220Y123196D01*
Y123200D01*
Y123208D01*
Y123225D01*
X239216Y123241D01*
Y123266D01*
X239207Y123295D01*
X239195Y123358D01*
X239170Y123433D01*
X239132Y123512D01*
X239112Y123553D01*
X239083Y123591D01*
X239053Y123628D01*
X239016Y123666D01*
X239012Y123670D01*
X239008Y123674D01*
X238995Y123682D01*
X238979Y123695D01*
X238958Y123711D01*
X238933Y123728D01*
X238875Y123765D01*
X238795Y123799D01*
X238708Y123832D01*
X238604Y123853D01*
X238546Y123861D01*
X238454D01*
X238429Y123857D01*
X238400D01*
X238367Y123849D01*
X238292Y123836D01*
X238205Y123811D01*
X238113Y123774D01*
X238068Y123749D01*
X238022Y123724D01*
X237980Y123691D01*
X237939Y123653D01*
X237934Y123649D01*
X237930Y123645D01*
X237922Y123632D01*
X237905Y123616D01*
X237893Y123595D01*
X237876Y123570D01*
X237855Y123541D01*
X237839Y123507D01*
X237818Y123470D01*
X237801Y123428D01*
X237768Y123329D01*
X237743Y123221D01*
X237739Y123158D01*
X237735Y123091D01*
X237252Y123141D01*
Y123150D01*
X237256Y123166D01*
X237261Y123191D01*
X237265Y123229D01*
X237273Y123275D01*
X237285Y123329D01*
X237298Y123387D01*
X237319Y123449D01*
X237339Y123512D01*
X237365Y123582D01*
X237398Y123649D01*
X237431Y123715D01*
X237473Y123786D01*
X237518Y123849D01*
X237568Y123911D01*
X237627Y123965D01*
X237631Y123969D01*
X237643Y123978D01*
X237660Y123990D01*
X237685Y124011D01*
X237718Y124032D01*
X237760Y124057D01*
X237805Y124082D01*
X237860Y124111D01*
X237918Y124136D01*
X237984Y124161D01*
X238055Y124186D01*
X238134Y124206D01*
X238217Y124227D01*
X238305Y124240D01*
X238400Y124248D01*
X238500Y124252D01*
X238554D01*
X238592Y124248D01*
D02*
G37*
G36*
X243030Y119335D02*
X239906D01*
Y119676D01*
X243030D01*
Y119335D01*
D02*
G37*
G36*
X268844Y123102D02*
X268894Y123098D01*
X268952Y123090D01*
X269014Y123081D01*
X269085Y123069D01*
X269160Y123052D01*
X269239Y123036D01*
X269318Y123011D01*
X269401Y122981D01*
X269484Y122948D01*
X269563Y122907D01*
X269642Y122865D01*
X269717Y122811D01*
X269721Y122807D01*
X269734Y122798D01*
X269755Y122782D01*
X269780Y122757D01*
X269813Y122728D01*
X269850Y122690D01*
X269888Y122649D01*
X269934Y122599D01*
X269979Y122545D01*
X270025Y122482D01*
X270071Y122416D01*
X270112Y122341D01*
X270158Y122262D01*
X270196Y122174D01*
X270233Y122083D01*
X270266Y121987D01*
X269767Y121871D01*
Y121875D01*
X269759Y121887D01*
X269755Y121912D01*
X269742Y121941D01*
X269730Y121975D01*
X269709Y122012D01*
X269667Y122104D01*
X269613Y122204D01*
X269543Y122308D01*
X269468Y122403D01*
X269422Y122445D01*
X269376Y122482D01*
X269372Y122486D01*
X269364Y122491D01*
X269351Y122499D01*
X269330Y122511D01*
X269305Y122528D01*
X269276Y122545D01*
X269243Y122561D01*
X269201Y122578D01*
X269156Y122595D01*
X269110Y122611D01*
X269002Y122644D01*
X268877Y122665D01*
X268810Y122674D01*
X268698D01*
X268665Y122669D01*
X268627Y122665D01*
X268582Y122661D01*
X268532Y122657D01*
X268482Y122649D01*
X268361Y122619D01*
X268236Y122582D01*
X268174Y122557D01*
X268111Y122528D01*
X268053Y122495D01*
X267995Y122457D01*
X267991Y122453D01*
X267983Y122449D01*
X267966Y122436D01*
X267945Y122420D01*
X267924Y122399D01*
X267895Y122370D01*
X267866Y122341D01*
X267833Y122308D01*
X267799Y122266D01*
X267762Y122224D01*
X267695Y122129D01*
X267633Y122016D01*
X267579Y121887D01*
Y121883D01*
X267575Y121871D01*
X267567Y121850D01*
X267562Y121825D01*
X267554Y121792D01*
X267542Y121754D01*
X267533Y121709D01*
X267521Y121663D01*
X267508Y121609D01*
X267500Y121550D01*
X267479Y121426D01*
X267467Y121292D01*
X267463Y121151D01*
Y121147D01*
Y121130D01*
Y121105D01*
X267467Y121068D01*
Y121026D01*
X267471Y120976D01*
X267475Y120922D01*
X267479Y120860D01*
X267488Y120793D01*
X267496Y120727D01*
X267521Y120581D01*
X267558Y120436D01*
X267604Y120294D01*
Y120290D01*
X267612Y120277D01*
X267621Y120261D01*
X267629Y120236D01*
X267646Y120203D01*
X267666Y120169D01*
X267712Y120090D01*
X267775Y119999D01*
X267849Y119911D01*
X267941Y119824D01*
X267991Y119787D01*
X268045Y119749D01*
X268049D01*
X268057Y119741D01*
X268074Y119732D01*
X268099Y119720D01*
X268128Y119708D01*
X268161Y119691D01*
X268199Y119678D01*
X268240Y119662D01*
X268336Y119629D01*
X268448Y119599D01*
X268569Y119579D01*
X268632Y119574D01*
X268698Y119570D01*
X268740D01*
X268769Y119574D01*
X268806Y119579D01*
X268848Y119583D01*
X268898Y119591D01*
X268948Y119599D01*
X269064Y119629D01*
X269122Y119649D01*
X269185Y119674D01*
X269247Y119703D01*
X269305Y119737D01*
X269364Y119774D01*
X269422Y119816D01*
X269426Y119820D01*
X269434Y119828D01*
X269451Y119841D01*
X269472Y119861D01*
X269493Y119886D01*
X269522Y119920D01*
X269551Y119957D01*
X269584Y119999D01*
X269617Y120049D01*
X269651Y120103D01*
X269684Y120161D01*
X269717Y120228D01*
X269746Y120298D01*
X269776Y120377D01*
X269805Y120460D01*
X269825Y120548D01*
X270333Y120419D01*
Y120411D01*
X270325Y120390D01*
X270316Y120361D01*
X270300Y120315D01*
X270283Y120265D01*
X270258Y120203D01*
X270233Y120136D01*
X270200Y120065D01*
X270162Y119986D01*
X270121Y119911D01*
X270075Y119828D01*
X270021Y119749D01*
X269963Y119674D01*
X269900Y119599D01*
X269830Y119529D01*
X269755Y119462D01*
X269751Y119458D01*
X269734Y119450D01*
X269713Y119433D01*
X269680Y119412D01*
X269642Y119387D01*
X269592Y119358D01*
X269538Y119329D01*
X269472Y119300D01*
X269401Y119271D01*
X269326Y119242D01*
X269243Y119212D01*
X269151Y119187D01*
X269056Y119167D01*
X268956Y119150D01*
X268852Y119142D01*
X268740Y119138D01*
X268681D01*
X268636Y119142D01*
X268586Y119146D01*
X268523Y119150D01*
X268457Y119158D01*
X268382Y119171D01*
X268303Y119183D01*
X268220Y119200D01*
X268137Y119221D01*
X268053Y119242D01*
X267966Y119271D01*
X267883Y119304D01*
X267804Y119341D01*
X267729Y119387D01*
X267725Y119391D01*
X267712Y119400D01*
X267691Y119412D01*
X267666Y119433D01*
X267633Y119462D01*
X267596Y119491D01*
X267554Y119529D01*
X267508Y119574D01*
X267463Y119624D01*
X267413Y119678D01*
X267367Y119737D01*
X267317Y119803D01*
X267267Y119874D01*
X267221Y119949D01*
X267180Y120032D01*
X267138Y120119D01*
X267134Y120124D01*
X267130Y120140D01*
X267121Y120169D01*
X267109Y120203D01*
X267092Y120248D01*
X267076Y120298D01*
X267059Y120361D01*
X267038Y120427D01*
X267022Y120502D01*
X267001Y120581D01*
X266984Y120664D01*
X266972Y120756D01*
X266947Y120947D01*
X266943Y121047D01*
X266938Y121147D01*
Y121155D01*
Y121172D01*
Y121205D01*
X266943Y121247D01*
X266947Y121301D01*
X266951Y121363D01*
X266959Y121430D01*
X266968Y121505D01*
X266980Y121584D01*
X266992Y121667D01*
X267034Y121846D01*
X267063Y121933D01*
X267092Y122020D01*
X267126Y122112D01*
X267167Y122195D01*
X267171Y122199D01*
X267180Y122216D01*
X267192Y122237D01*
X267209Y122270D01*
X267234Y122308D01*
X267263Y122349D01*
X267296Y122395D01*
X267334Y122449D01*
X267379Y122499D01*
X267425Y122557D01*
X267479Y122611D01*
X267537Y122669D01*
X267600Y122723D01*
X267666Y122778D01*
X267741Y122827D01*
X267816Y122873D01*
X267820Y122877D01*
X267837Y122882D01*
X267858Y122894D01*
X267891Y122911D01*
X267929Y122927D01*
X267978Y122948D01*
X268033Y122969D01*
X268091Y122990D01*
X268157Y123011D01*
X268232Y123031D01*
X268307Y123052D01*
X268390Y123069D01*
X268561Y123098D01*
X268652Y123102D01*
X268748Y123106D01*
X268802D01*
X268844Y123102D01*
D02*
G37*
G36*
X259005D02*
X259055Y123098D01*
X259113Y123090D01*
X259176Y123081D01*
X259247Y123069D01*
X259321Y123052D01*
X259401Y123036D01*
X259479Y123011D01*
X259563Y122981D01*
X259646Y122948D01*
X259725Y122907D01*
X259804Y122865D01*
X259879Y122811D01*
X259883Y122807D01*
X259895Y122798D01*
X259916Y122782D01*
X259941Y122757D01*
X259975Y122728D01*
X260012Y122690D01*
X260049Y122649D01*
X260095Y122599D01*
X260141Y122545D01*
X260187Y122482D01*
X260232Y122416D01*
X260274Y122341D01*
X260320Y122262D01*
X260357Y122174D01*
X260395Y122083D01*
X260428Y121987D01*
X259929Y121871D01*
Y121875D01*
X259921Y121887D01*
X259916Y121912D01*
X259904Y121941D01*
X259891Y121975D01*
X259871Y122012D01*
X259829Y122104D01*
X259775Y122204D01*
X259704Y122308D01*
X259629Y122403D01*
X259583Y122445D01*
X259538Y122482D01*
X259534Y122486D01*
X259525Y122491D01*
X259513Y122499D01*
X259492Y122511D01*
X259467Y122528D01*
X259438Y122545D01*
X259405Y122561D01*
X259363Y122578D01*
X259317Y122595D01*
X259272Y122611D01*
X259163Y122644D01*
X259039Y122665D01*
X258972Y122674D01*
X258860D01*
X258826Y122669D01*
X258789Y122665D01*
X258743Y122661D01*
X258693Y122657D01*
X258643Y122649D01*
X258523Y122619D01*
X258398Y122582D01*
X258335Y122557D01*
X258273Y122528D01*
X258215Y122495D01*
X258157Y122457D01*
X258153Y122453D01*
X258144Y122449D01*
X258127Y122436D01*
X258107Y122420D01*
X258086Y122399D01*
X258057Y122370D01*
X258028Y122341D01*
X257994Y122308D01*
X257961Y122266D01*
X257924Y122224D01*
X257857Y122129D01*
X257795Y122016D01*
X257741Y121887D01*
Y121883D01*
X257736Y121871D01*
X257728Y121850D01*
X257724Y121825D01*
X257716Y121792D01*
X257703Y121754D01*
X257695Y121709D01*
X257682Y121663D01*
X257670Y121609D01*
X257662Y121550D01*
X257641Y121426D01*
X257628Y121292D01*
X257624Y121151D01*
Y121147D01*
Y121130D01*
Y121105D01*
X257628Y121068D01*
Y121026D01*
X257632Y120976D01*
X257637Y120922D01*
X257641Y120860D01*
X257649Y120793D01*
X257657Y120727D01*
X257682Y120581D01*
X257720Y120436D01*
X257766Y120294D01*
Y120290D01*
X257774Y120277D01*
X257782Y120261D01*
X257791Y120236D01*
X257807Y120203D01*
X257828Y120169D01*
X257874Y120090D01*
X257936Y119999D01*
X258011Y119911D01*
X258103Y119824D01*
X258153Y119787D01*
X258207Y119749D01*
X258211D01*
X258219Y119741D01*
X258236Y119732D01*
X258261Y119720D01*
X258290Y119708D01*
X258323Y119691D01*
X258361Y119678D01*
X258402Y119662D01*
X258498Y119629D01*
X258610Y119599D01*
X258731Y119579D01*
X258793Y119574D01*
X258860Y119570D01*
X258901D01*
X258930Y119574D01*
X258968Y119579D01*
X259009Y119583D01*
X259059Y119591D01*
X259109Y119599D01*
X259226Y119629D01*
X259284Y119649D01*
X259346Y119674D01*
X259409Y119703D01*
X259467Y119737D01*
X259525Y119774D01*
X259583Y119816D01*
X259588Y119820D01*
X259596Y119828D01*
X259613Y119841D01*
X259633Y119861D01*
X259654Y119886D01*
X259683Y119920D01*
X259713Y119957D01*
X259746Y119999D01*
X259779Y120049D01*
X259812Y120103D01*
X259846Y120161D01*
X259879Y120228D01*
X259908Y120298D01*
X259937Y120377D01*
X259966Y120460D01*
X259987Y120548D01*
X260495Y120419D01*
Y120411D01*
X260486Y120390D01*
X260478Y120361D01*
X260461Y120315D01*
X260445Y120265D01*
X260420Y120203D01*
X260395Y120136D01*
X260361Y120065D01*
X260324Y119986D01*
X260282Y119911D01*
X260237Y119828D01*
X260183Y119749D01*
X260124Y119674D01*
X260062Y119599D01*
X259991Y119529D01*
X259916Y119462D01*
X259912Y119458D01*
X259895Y119450D01*
X259875Y119433D01*
X259841Y119412D01*
X259804Y119387D01*
X259754Y119358D01*
X259700Y119329D01*
X259633Y119300D01*
X259563Y119271D01*
X259488Y119242D01*
X259405Y119212D01*
X259313Y119187D01*
X259217Y119167D01*
X259118Y119150D01*
X259014Y119142D01*
X258901Y119138D01*
X258843D01*
X258797Y119142D01*
X258747Y119146D01*
X258685Y119150D01*
X258618Y119158D01*
X258543Y119171D01*
X258465Y119183D01*
X258381Y119200D01*
X258298Y119221D01*
X258215Y119242D01*
X258127Y119271D01*
X258044Y119304D01*
X257965Y119341D01*
X257890Y119387D01*
X257886Y119391D01*
X257874Y119400D01*
X257853Y119412D01*
X257828Y119433D01*
X257795Y119462D01*
X257757Y119491D01*
X257716Y119529D01*
X257670Y119574D01*
X257624Y119624D01*
X257574Y119678D01*
X257528Y119737D01*
X257479Y119803D01*
X257429Y119874D01*
X257383Y119949D01*
X257341Y120032D01*
X257300Y120119D01*
X257295Y120124D01*
X257291Y120140D01*
X257283Y120169D01*
X257271Y120203D01*
X257254Y120248D01*
X257237Y120298D01*
X257221Y120361D01*
X257200Y120427D01*
X257183Y120502D01*
X257162Y120581D01*
X257146Y120664D01*
X257133Y120756D01*
X257108Y120947D01*
X257104Y121047D01*
X257100Y121147D01*
Y121155D01*
Y121172D01*
Y121205D01*
X257104Y121247D01*
X257108Y121301D01*
X257113Y121363D01*
X257121Y121430D01*
X257129Y121505D01*
X257142Y121584D01*
X257154Y121667D01*
X257196Y121846D01*
X257225Y121933D01*
X257254Y122020D01*
X257287Y122112D01*
X257329Y122195D01*
X257333Y122199D01*
X257341Y122216D01*
X257354Y122237D01*
X257370Y122270D01*
X257395Y122308D01*
X257424Y122349D01*
X257458Y122395D01*
X257495Y122449D01*
X257541Y122499D01*
X257587Y122557D01*
X257641Y122611D01*
X257699Y122669D01*
X257761Y122723D01*
X257828Y122778D01*
X257903Y122827D01*
X257978Y122873D01*
X257982Y122877D01*
X257999Y122882D01*
X258019Y122894D01*
X258053Y122911D01*
X258090Y122927D01*
X258140Y122948D01*
X258194Y122969D01*
X258252Y122990D01*
X258319Y123011D01*
X258394Y123031D01*
X258469Y123052D01*
X258552Y123069D01*
X258722Y123098D01*
X258814Y123102D01*
X258910Y123106D01*
X258964D01*
X259005Y123102D01*
D02*
G37*
G36*
X262213Y123048D02*
X262242Y123044D01*
X262321Y123036D01*
X262408Y123019D01*
X262508Y122994D01*
X262608Y122961D01*
X262708Y122915D01*
X262712D01*
X262720Y122911D01*
X262733Y122902D01*
X262753Y122890D01*
X262799Y122861D01*
X262857Y122819D01*
X262924Y122765D01*
X262991Y122703D01*
X263057Y122632D01*
X263115Y122549D01*
Y122545D01*
X263120Y122540D01*
X263128Y122524D01*
X263136Y122507D01*
X263149Y122486D01*
X263161Y122461D01*
X263186Y122399D01*
X263211Y122324D01*
X263236Y122241D01*
X263253Y122149D01*
X263257Y122054D01*
Y122050D01*
Y122041D01*
Y122029D01*
Y122012D01*
X263248Y121962D01*
X263240Y121904D01*
X263224Y121833D01*
X263199Y121758D01*
X263165Y121679D01*
X263120Y121600D01*
Y121596D01*
X263115Y121592D01*
X263095Y121567D01*
X263065Y121530D01*
X263020Y121484D01*
X262966Y121430D01*
X262895Y121376D01*
X262816Y121326D01*
X262724Y121276D01*
X262729D01*
X262741Y121272D01*
X262758Y121267D01*
X262783Y121259D01*
X262807Y121251D01*
X262841Y121238D01*
X262920Y121205D01*
X263003Y121159D01*
X263090Y121105D01*
X263178Y121035D01*
X263253Y120947D01*
X263257Y120943D01*
X263261Y120935D01*
X263269Y120922D01*
X263282Y120901D01*
X263298Y120881D01*
X263315Y120852D01*
X263332Y120818D01*
X263348Y120777D01*
X263365Y120735D01*
X263382Y120689D01*
X263415Y120585D01*
X263436Y120465D01*
X263444Y120398D01*
Y120332D01*
Y120327D01*
Y120311D01*
X263440Y120282D01*
Y120248D01*
X263432Y120203D01*
X263423Y120153D01*
X263415Y120099D01*
X263398Y120036D01*
X263377Y119970D01*
X263352Y119903D01*
X263323Y119832D01*
X263286Y119762D01*
X263244Y119687D01*
X263194Y119616D01*
X263140Y119545D01*
X263074Y119479D01*
X263070Y119475D01*
X263057Y119462D01*
X263036Y119445D01*
X263007Y119425D01*
X262974Y119400D01*
X262928Y119371D01*
X262878Y119337D01*
X262820Y119308D01*
X262758Y119275D01*
X262687Y119242D01*
X262612Y119212D01*
X262529Y119187D01*
X262441Y119167D01*
X262350Y119150D01*
X262254Y119138D01*
X262150Y119133D01*
X262129D01*
X262100Y119138D01*
X262067D01*
X262021Y119142D01*
X261971Y119150D01*
X261917Y119158D01*
X261855Y119171D01*
X261788Y119187D01*
X261722Y119208D01*
X261651Y119229D01*
X261580Y119258D01*
X261510Y119296D01*
X261443Y119333D01*
X261372Y119379D01*
X261310Y119433D01*
X261306Y119437D01*
X261297Y119445D01*
X261281Y119462D01*
X261256Y119487D01*
X261231Y119516D01*
X261202Y119554D01*
X261173Y119595D01*
X261139Y119645D01*
X261106Y119695D01*
X261073Y119757D01*
X261039Y119820D01*
X261010Y119891D01*
X260985Y119965D01*
X260961Y120045D01*
X260944Y120128D01*
X260931Y120215D01*
X261401Y120277D01*
Y120273D01*
X261406Y120261D01*
X261410Y120240D01*
X261418Y120211D01*
X261426Y120178D01*
X261435Y120140D01*
X261464Y120053D01*
X261501Y119957D01*
X261547Y119861D01*
X261605Y119774D01*
X261639Y119737D01*
X261672Y119699D01*
X261676D01*
X261680Y119691D01*
X261693Y119683D01*
X261705Y119670D01*
X261747Y119645D01*
X261805Y119612D01*
X261876Y119579D01*
X261955Y119554D01*
X262050Y119533D01*
X262150Y119525D01*
X262183D01*
X262209Y119529D01*
X262233Y119533D01*
X262271Y119537D01*
X262346Y119554D01*
X262437Y119579D01*
X262533Y119620D01*
X262579Y119649D01*
X262625Y119678D01*
X262670Y119712D01*
X262716Y119753D01*
X262720Y119757D01*
X262724Y119766D01*
X262737Y119778D01*
X262753Y119795D01*
X262770Y119816D01*
X262787Y119845D01*
X262807Y119874D01*
X262832Y119911D01*
X262874Y119995D01*
X262907Y120090D01*
X262936Y120203D01*
X262941Y120261D01*
X262945Y120323D01*
Y120327D01*
Y120336D01*
Y120357D01*
X262941Y120377D01*
X262936Y120406D01*
X262932Y120436D01*
X262920Y120510D01*
X262891Y120598D01*
X262853Y120685D01*
X262828Y120731D01*
X262799Y120773D01*
X262766Y120814D01*
X262729Y120856D01*
X262724Y120860D01*
X262720Y120864D01*
X262708Y120877D01*
X262691Y120889D01*
X262670Y120906D01*
X262645Y120922D01*
X262583Y120964D01*
X262504Y121001D01*
X262412Y121035D01*
X262308Y121060D01*
X262250Y121064D01*
X262192Y121068D01*
X262167D01*
X262138Y121064D01*
X262100D01*
X262050Y121055D01*
X261996Y121047D01*
X261930Y121035D01*
X261859Y121018D01*
X261909Y121430D01*
X261917D01*
X261938Y121426D01*
X261963Y121421D01*
X262017D01*
X262038Y121426D01*
X262067D01*
X262096Y121430D01*
X262167Y121442D01*
X262250Y121459D01*
X262342Y121488D01*
X262437Y121525D01*
X262529Y121580D01*
X262533D01*
X262541Y121588D01*
X262550Y121596D01*
X262566Y121609D01*
X262608Y121646D01*
X262654Y121700D01*
X262695Y121767D01*
X262737Y121850D01*
X262753Y121896D01*
X262762Y121950D01*
X262770Y122004D01*
X262774Y122062D01*
Y122066D01*
Y122075D01*
Y122087D01*
X262770Y122108D01*
X262766Y122154D01*
X262753Y122216D01*
X262733Y122283D01*
X262699Y122353D01*
X262654Y122428D01*
X262629Y122461D01*
X262595Y122495D01*
X262587Y122503D01*
X262562Y122520D01*
X262525Y122549D01*
X262475Y122582D01*
X262408Y122611D01*
X262329Y122640D01*
X262242Y122657D01*
X262142Y122665D01*
X262117D01*
X262096Y122661D01*
X262071D01*
X262046Y122657D01*
X261980Y122644D01*
X261909Y122624D01*
X261830Y122590D01*
X261755Y122549D01*
X261680Y122491D01*
X261672Y122482D01*
X261651Y122457D01*
X261618Y122420D01*
X261584Y122362D01*
X261543Y122291D01*
X261505Y122199D01*
X261472Y122095D01*
X261447Y121975D01*
X260977Y122058D01*
Y122062D01*
X260981Y122079D01*
X260985Y122104D01*
X260994Y122137D01*
X261006Y122174D01*
X261019Y122220D01*
X261035Y122270D01*
X261056Y122324D01*
X261110Y122445D01*
X261139Y122503D01*
X261177Y122565D01*
X261218Y122624D01*
X261264Y122682D01*
X261314Y122740D01*
X261368Y122790D01*
X261372Y122794D01*
X261381Y122803D01*
X261401Y122815D01*
X261422Y122832D01*
X261455Y122853D01*
X261489Y122873D01*
X261530Y122898D01*
X261580Y122923D01*
X261630Y122944D01*
X261688Y122969D01*
X261751Y122990D01*
X261817Y123011D01*
X261892Y123027D01*
X261967Y123040D01*
X262046Y123048D01*
X262129Y123052D01*
X262183D01*
X262213Y123048D01*
D02*
G37*
G36*
X266730Y118135D02*
X263606D01*
Y118476D01*
X266730D01*
Y118135D01*
D02*
G37*
G36*
X121702Y81802D02*
X121747Y81798D01*
X121793Y81794D01*
X121847Y81790D01*
X121964Y81773D01*
X122093Y81748D01*
X122222Y81711D01*
X122346Y81665D01*
X122351D01*
X122359Y81656D01*
X122380Y81652D01*
X122400Y81640D01*
X122425Y81623D01*
X122459Y81607D01*
X122529Y81565D01*
X122613Y81507D01*
X122696Y81436D01*
X122775Y81357D01*
X122846Y81261D01*
X122850Y81257D01*
X122854Y81249D01*
X122862Y81236D01*
X122875Y81216D01*
X122887Y81191D01*
X122904Y81161D01*
X122916Y81124D01*
X122937Y81087D01*
X122970Y80999D01*
X123000Y80895D01*
X123024Y80783D01*
X123037Y80658D01*
X122550Y80621D01*
Y80625D01*
X122546Y80637D01*
Y80654D01*
X122542Y80679D01*
X122534Y80712D01*
X122525Y80745D01*
X122500Y80825D01*
X122467Y80912D01*
X122417Y81003D01*
X122359Y81091D01*
X122321Y81128D01*
X122280Y81166D01*
X122276Y81170D01*
X122272Y81174D01*
X122255Y81182D01*
X122238Y81195D01*
X122213Y81207D01*
X122184Y81224D01*
X122151Y81240D01*
X122113Y81261D01*
X122068Y81278D01*
X122018Y81295D01*
X121964Y81311D01*
X121905Y81324D01*
X121839Y81336D01*
X121768Y81344D01*
X121693Y81353D01*
X121573D01*
X121539Y81349D01*
X121502D01*
X121460Y81344D01*
X121410Y81340D01*
X121361Y81332D01*
X121248Y81311D01*
X121140Y81282D01*
X121036Y81240D01*
X120986Y81211D01*
X120944Y81182D01*
X120940D01*
X120936Y81174D01*
X120911Y81153D01*
X120878Y81116D01*
X120841Y81066D01*
X120803Y81007D01*
X120770Y80937D01*
X120745Y80862D01*
X120741Y80820D01*
X120737Y80775D01*
Y80770D01*
Y80766D01*
X120741Y80741D01*
X120745Y80704D01*
X120753Y80658D01*
X120774Y80604D01*
X120799Y80546D01*
X120832Y80492D01*
X120882Y80438D01*
X120890Y80433D01*
X120899Y80425D01*
X120915Y80413D01*
X120936Y80400D01*
X120961Y80388D01*
X120994Y80371D01*
X121032Y80350D01*
X121078Y80329D01*
X121132Y80309D01*
X121194Y80288D01*
X121265Y80263D01*
X121348Y80238D01*
X121435Y80213D01*
X121535Y80184D01*
X121648Y80159D01*
X121656D01*
X121677Y80155D01*
X121706Y80146D01*
X121747Y80134D01*
X121797Y80126D01*
X121855Y80109D01*
X121918Y80097D01*
X121985Y80076D01*
X122126Y80038D01*
X122267Y80001D01*
X122334Y79980D01*
X122392Y79959D01*
X122450Y79938D01*
X122496Y79918D01*
X122500D01*
X122513Y79909D01*
X122529Y79901D01*
X122550Y79888D01*
X122579Y79876D01*
X122613Y79855D01*
X122683Y79809D01*
X122767Y79755D01*
X122846Y79689D01*
X122925Y79610D01*
X122958Y79568D01*
X122991Y79527D01*
Y79522D01*
X123000Y79514D01*
X123008Y79502D01*
X123016Y79485D01*
X123029Y79464D01*
X123041Y79435D01*
X123074Y79369D01*
X123103Y79289D01*
X123128Y79198D01*
X123145Y79094D01*
X123153Y78982D01*
Y78977D01*
Y78969D01*
Y78952D01*
X123149Y78932D01*
Y78903D01*
X123145Y78873D01*
X123133Y78794D01*
X123112Y78707D01*
X123079Y78611D01*
X123033Y78512D01*
X123008Y78457D01*
X122975Y78408D01*
Y78403D01*
X122966Y78395D01*
X122958Y78383D01*
X122941Y78362D01*
X122904Y78316D01*
X122846Y78254D01*
X122775Y78187D01*
X122687Y78116D01*
X122588Y78050D01*
X122471Y77987D01*
X122467D01*
X122455Y77979D01*
X122438Y77975D01*
X122413Y77962D01*
X122384Y77954D01*
X122346Y77942D01*
X122305Y77925D01*
X122255Y77912D01*
X122205Y77900D01*
X122147Y77883D01*
X122022Y77863D01*
X121885Y77846D01*
X121735Y77838D01*
X121685D01*
X121648Y77842D01*
X121602D01*
X121552Y77846D01*
X121494Y77850D01*
X121427Y77858D01*
X121290Y77875D01*
X121144Y77900D01*
X120999Y77937D01*
X120857Y77987D01*
X120853D01*
X120841Y77996D01*
X120824Y78004D01*
X120799Y78017D01*
X120770Y78033D01*
X120737Y78050D01*
X120657Y78100D01*
X120570Y78162D01*
X120479Y78241D01*
X120387Y78333D01*
X120308Y78441D01*
X120304Y78445D01*
X120300Y78453D01*
X120291Y78470D01*
X120279Y78495D01*
X120262Y78524D01*
X120246Y78557D01*
X120225Y78599D01*
X120208Y78645D01*
X120187Y78690D01*
X120171Y78745D01*
X120137Y78865D01*
X120113Y78994D01*
X120104Y79065D01*
X120100Y79136D01*
X120578Y79177D01*
Y79173D01*
Y79165D01*
X120583Y79148D01*
X120587Y79127D01*
X120591Y79102D01*
X120595Y79077D01*
X120612Y79007D01*
X120633Y78932D01*
X120657Y78853D01*
X120691Y78774D01*
X120732Y78699D01*
X120737Y78690D01*
X120757Y78670D01*
X120786Y78636D01*
X120828Y78595D01*
X120882Y78545D01*
X120949Y78499D01*
X121028Y78449D01*
X121119Y78403D01*
X121123D01*
X121132Y78399D01*
X121144Y78395D01*
X121165Y78387D01*
X121190Y78378D01*
X121219Y78366D01*
X121252Y78358D01*
X121290Y78349D01*
X121377Y78329D01*
X121481Y78308D01*
X121589Y78295D01*
X121710Y78291D01*
X121760D01*
X121785Y78295D01*
X121814D01*
X121880Y78303D01*
X121959Y78312D01*
X122047Y78324D01*
X122134Y78345D01*
X122217Y78374D01*
X122222D01*
X122226Y78378D01*
X122238Y78383D01*
X122255Y78391D01*
X122292Y78412D01*
X122342Y78437D01*
X122396Y78470D01*
X122455Y78512D01*
X122504Y78557D01*
X122550Y78611D01*
X122554Y78620D01*
X122567Y78636D01*
X122588Y78670D01*
X122608Y78711D01*
X122625Y78761D01*
X122646Y78815D01*
X122658Y78878D01*
X122663Y78940D01*
Y78944D01*
Y78948D01*
Y78969D01*
X122658Y79007D01*
X122650Y79048D01*
X122638Y79098D01*
X122617Y79152D01*
X122592Y79206D01*
X122554Y79256D01*
X122550Y79260D01*
X122534Y79277D01*
X122509Y79302D01*
X122471Y79335D01*
X122425Y79369D01*
X122363Y79406D01*
X122292Y79443D01*
X122209Y79481D01*
X122201Y79485D01*
X122193Y79489D01*
X122176Y79493D01*
X122159Y79497D01*
X122134Y79506D01*
X122101Y79518D01*
X122068Y79527D01*
X122022Y79539D01*
X121976Y79556D01*
X121918Y79568D01*
X121855Y79585D01*
X121785Y79606D01*
X121710Y79622D01*
X121623Y79647D01*
X121527Y79668D01*
X121523D01*
X121506Y79672D01*
X121477Y79681D01*
X121444Y79689D01*
X121398Y79701D01*
X121348Y79714D01*
X121298Y79730D01*
X121240Y79747D01*
X121115Y79785D01*
X120994Y79826D01*
X120936Y79847D01*
X120882Y79868D01*
X120832Y79888D01*
X120791Y79909D01*
X120786D01*
X120778Y79918D01*
X120766Y79926D01*
X120745Y79934D01*
X120695Y79963D01*
X120637Y80005D01*
X120566Y80059D01*
X120499Y80117D01*
X120433Y80188D01*
X120379Y80263D01*
Y80267D01*
X120375Y80271D01*
X120366Y80284D01*
X120358Y80300D01*
X120337Y80346D01*
X120312Y80404D01*
X120287Y80475D01*
X120266Y80558D01*
X120250Y80650D01*
X120246Y80745D01*
Y80750D01*
Y80758D01*
Y80775D01*
X120250Y80795D01*
Y80820D01*
X120254Y80849D01*
X120266Y80924D01*
X120287Y81007D01*
X120312Y81095D01*
X120354Y81191D01*
X120408Y81286D01*
Y81290D01*
X120416Y81299D01*
X120424Y81311D01*
X120437Y81328D01*
X120479Y81374D01*
X120533Y81432D01*
X120599Y81494D01*
X120682Y81557D01*
X120778Y81619D01*
X120890Y81673D01*
X120895D01*
X120903Y81677D01*
X120924Y81686D01*
X120944Y81694D01*
X120974Y81702D01*
X121011Y81715D01*
X121053Y81727D01*
X121098Y81740D01*
X121148Y81752D01*
X121202Y81765D01*
X121319Y81785D01*
X121452Y81802D01*
X121593Y81806D01*
X121664D01*
X121702Y81802D01*
D02*
G37*
G36*
X136632D02*
X136682Y81798D01*
X136740Y81790D01*
X136802Y81781D01*
X136873Y81769D01*
X136948Y81752D01*
X137027Y81735D01*
X137106Y81711D01*
X137189Y81681D01*
X137273Y81648D01*
X137352Y81607D01*
X137431Y81565D01*
X137505Y81511D01*
X137510Y81507D01*
X137522Y81498D01*
X137543Y81482D01*
X137568Y81457D01*
X137601Y81428D01*
X137639Y81390D01*
X137676Y81349D01*
X137722Y81299D01*
X137768Y81245D01*
X137813Y81182D01*
X137859Y81116D01*
X137901Y81041D01*
X137946Y80962D01*
X137984Y80874D01*
X138021Y80783D01*
X138055Y80687D01*
X137555Y80571D01*
Y80575D01*
X137547Y80587D01*
X137543Y80612D01*
X137530Y80641D01*
X137518Y80675D01*
X137497Y80712D01*
X137455Y80804D01*
X137401Y80904D01*
X137331Y81007D01*
X137256Y81103D01*
X137210Y81145D01*
X137164Y81182D01*
X137160Y81186D01*
X137152Y81191D01*
X137139Y81199D01*
X137119Y81211D01*
X137094Y81228D01*
X137065Y81245D01*
X137031Y81261D01*
X136990Y81278D01*
X136944Y81295D01*
X136898Y81311D01*
X136790Y81344D01*
X136665Y81365D01*
X136599Y81374D01*
X136486D01*
X136453Y81369D01*
X136416Y81365D01*
X136370Y81361D01*
X136320Y81357D01*
X136270Y81349D01*
X136149Y81319D01*
X136024Y81282D01*
X135962Y81257D01*
X135900Y81228D01*
X135841Y81195D01*
X135783Y81157D01*
X135779Y81153D01*
X135771Y81149D01*
X135754Y81137D01*
X135733Y81120D01*
X135713Y81099D01*
X135683Y81070D01*
X135654Y81041D01*
X135621Y81007D01*
X135588Y80966D01*
X135550Y80924D01*
X135484Y80829D01*
X135421Y80716D01*
X135367Y80587D01*
Y80583D01*
X135363Y80571D01*
X135355Y80550D01*
X135351Y80525D01*
X135342Y80492D01*
X135330Y80454D01*
X135321Y80409D01*
X135309Y80363D01*
X135296Y80309D01*
X135288Y80250D01*
X135267Y80126D01*
X135255Y79993D01*
X135251Y79851D01*
Y79847D01*
Y79830D01*
Y79805D01*
X135255Y79768D01*
Y79726D01*
X135259Y79676D01*
X135263Y79622D01*
X135267Y79560D01*
X135276Y79493D01*
X135284Y79427D01*
X135309Y79281D01*
X135346Y79136D01*
X135392Y78994D01*
Y78990D01*
X135400Y78977D01*
X135409Y78961D01*
X135417Y78936D01*
X135434Y78903D01*
X135455Y78869D01*
X135500Y78790D01*
X135563Y78699D01*
X135638Y78611D01*
X135729Y78524D01*
X135779Y78487D01*
X135833Y78449D01*
X135837D01*
X135846Y78441D01*
X135862Y78433D01*
X135887Y78420D01*
X135916Y78408D01*
X135950Y78391D01*
X135987Y78378D01*
X136029Y78362D01*
X136124Y78329D01*
X136237Y78299D01*
X136357Y78279D01*
X136420Y78274D01*
X136486Y78270D01*
X136528D01*
X136557Y78274D01*
X136594Y78279D01*
X136636Y78283D01*
X136686Y78291D01*
X136736Y78299D01*
X136852Y78329D01*
X136911Y78349D01*
X136973Y78374D01*
X137035Y78403D01*
X137094Y78437D01*
X137152Y78474D01*
X137210Y78516D01*
X137214Y78520D01*
X137223Y78528D01*
X137239Y78541D01*
X137260Y78561D01*
X137281Y78586D01*
X137310Y78620D01*
X137339Y78657D01*
X137372Y78699D01*
X137406Y78749D01*
X137439Y78803D01*
X137472Y78861D01*
X137505Y78927D01*
X137535Y78998D01*
X137564Y79077D01*
X137593Y79160D01*
X137614Y79248D01*
X138121Y79119D01*
Y79111D01*
X138113Y79090D01*
X138104Y79061D01*
X138088Y79015D01*
X138071Y78965D01*
X138046Y78903D01*
X138021Y78836D01*
X137988Y78765D01*
X137951Y78686D01*
X137909Y78611D01*
X137863Y78528D01*
X137809Y78449D01*
X137751Y78374D01*
X137689Y78299D01*
X137618Y78229D01*
X137543Y78162D01*
X137539Y78158D01*
X137522Y78150D01*
X137501Y78133D01*
X137468Y78112D01*
X137431Y78087D01*
X137381Y78058D01*
X137327Y78029D01*
X137260Y78000D01*
X137189Y77971D01*
X137114Y77942D01*
X137031Y77912D01*
X136940Y77887D01*
X136844Y77867D01*
X136744Y77850D01*
X136640Y77842D01*
X136528Y77838D01*
X136470D01*
X136424Y77842D01*
X136374Y77846D01*
X136311Y77850D01*
X136245Y77858D01*
X136170Y77871D01*
X136091Y77883D01*
X136008Y77900D01*
X135925Y77921D01*
X135841Y77942D01*
X135754Y77971D01*
X135671Y78004D01*
X135592Y78041D01*
X135517Y78087D01*
X135513Y78091D01*
X135500Y78100D01*
X135479Y78112D01*
X135455Y78133D01*
X135421Y78162D01*
X135384Y78191D01*
X135342Y78229D01*
X135296Y78274D01*
X135251Y78324D01*
X135201Y78378D01*
X135155Y78437D01*
X135105Y78503D01*
X135055Y78574D01*
X135009Y78649D01*
X134968Y78732D01*
X134926Y78819D01*
X134922Y78824D01*
X134918Y78840D01*
X134910Y78869D01*
X134897Y78903D01*
X134880Y78948D01*
X134864Y78998D01*
X134847Y79061D01*
X134826Y79127D01*
X134810Y79202D01*
X134789Y79281D01*
X134772Y79364D01*
X134760Y79456D01*
X134735Y79647D01*
X134731Y79747D01*
X134727Y79847D01*
Y79855D01*
Y79872D01*
Y79905D01*
X134731Y79947D01*
X134735Y80001D01*
X134739Y80063D01*
X134747Y80130D01*
X134756Y80205D01*
X134768Y80284D01*
X134781Y80367D01*
X134822Y80546D01*
X134851Y80633D01*
X134880Y80721D01*
X134914Y80812D01*
X134955Y80895D01*
X134959Y80899D01*
X134968Y80916D01*
X134980Y80937D01*
X134997Y80970D01*
X135022Y81007D01*
X135051Y81049D01*
X135084Y81095D01*
X135122Y81149D01*
X135168Y81199D01*
X135213Y81257D01*
X135267Y81311D01*
X135326Y81369D01*
X135388Y81423D01*
X135455Y81478D01*
X135529Y81528D01*
X135604Y81573D01*
X135608Y81577D01*
X135625Y81582D01*
X135646Y81594D01*
X135679Y81611D01*
X135717Y81627D01*
X135767Y81648D01*
X135821Y81669D01*
X135879Y81690D01*
X135945Y81711D01*
X136020Y81731D01*
X136095Y81752D01*
X136178Y81769D01*
X136349Y81798D01*
X136441Y81802D01*
X136536Y81806D01*
X136590D01*
X136632Y81802D01*
D02*
G37*
G36*
X127384Y77900D02*
X126889D01*
X126086Y80825D01*
Y80829D01*
X126082Y80841D01*
X126078Y80858D01*
X126070Y80883D01*
X126061Y80912D01*
X126053Y80945D01*
X126032Y81020D01*
X126011Y81095D01*
X125991Y81170D01*
X125982Y81203D01*
X125974Y81232D01*
X125966Y81257D01*
X125961Y81274D01*
Y81270D01*
X125957Y81261D01*
Y81249D01*
X125949Y81228D01*
X125945Y81207D01*
X125941Y81178D01*
X125924Y81120D01*
X125907Y81049D01*
X125887Y80970D01*
X125866Y80895D01*
X125845Y80825D01*
X125038Y77900D01*
X124510D01*
X123499Y81740D01*
X124023D01*
X124601Y79219D01*
Y79215D01*
X124605Y79202D01*
X124609Y79181D01*
X124618Y79152D01*
X124626Y79115D01*
X124634Y79073D01*
X124647Y79027D01*
X124659Y78973D01*
X124672Y78915D01*
X124684Y78853D01*
X124709Y78724D01*
X124738Y78582D01*
X124763Y78437D01*
Y78445D01*
X124772Y78462D01*
X124776Y78495D01*
X124788Y78532D01*
X124797Y78582D01*
X124809Y78636D01*
X124826Y78695D01*
X124838Y78753D01*
X124872Y78878D01*
X124884Y78936D01*
X124901Y78994D01*
X124913Y79044D01*
X124921Y79086D01*
X124930Y79119D01*
X124938Y79144D01*
X125670Y81740D01*
X126282D01*
X126827Y79793D01*
X126831Y79785D01*
X126835Y79760D01*
X126848Y79722D01*
X126860Y79668D01*
X126877Y79606D01*
X126897Y79531D01*
X126918Y79448D01*
X126943Y79352D01*
X126968Y79252D01*
X126993Y79144D01*
X127018Y79031D01*
X127043Y78915D01*
X127089Y78678D01*
X127130Y78437D01*
Y78441D01*
X127135Y78453D01*
X127139Y78474D01*
X127143Y78499D01*
X127151Y78536D01*
X127160Y78578D01*
X127172Y78624D01*
X127184Y78678D01*
X127197Y78736D01*
X127209Y78799D01*
X127226Y78869D01*
X127243Y78940D01*
X127280Y79098D01*
X127322Y79269D01*
X127925Y81740D01*
X128437D01*
X127384Y77900D01*
D02*
G37*
G36*
X130492D02*
X130022D01*
Y80899D01*
X130013Y80891D01*
X129992Y80870D01*
X129955Y80841D01*
X129901Y80800D01*
X129839Y80750D01*
X129760Y80695D01*
X129672Y80637D01*
X129572Y80575D01*
X129568D01*
X129560Y80567D01*
X129547Y80558D01*
X129527Y80550D01*
X129502Y80533D01*
X129472Y80521D01*
X129406Y80483D01*
X129331Y80446D01*
X129248Y80404D01*
X129160Y80367D01*
X129077Y80334D01*
Y80787D01*
X129081Y80791D01*
X129094Y80795D01*
X129115Y80808D01*
X129144Y80820D01*
X129177Y80837D01*
X129219Y80862D01*
X129264Y80887D01*
X129310Y80912D01*
X129418Y80978D01*
X129535Y81057D01*
X129656Y81141D01*
X129768Y81236D01*
X129772Y81240D01*
X129780Y81249D01*
X129797Y81261D01*
X129818Y81282D01*
X129839Y81307D01*
X129868Y81332D01*
X129930Y81403D01*
X130001Y81478D01*
X130071Y81565D01*
X130134Y81656D01*
X130188Y81752D01*
X130492D01*
Y77900D01*
D02*
G37*
G36*
X134519Y76835D02*
X131394D01*
Y77176D01*
X134519D01*
Y76835D01*
D02*
G37*
G36*
X127343Y125316D02*
X127393Y125312D01*
X127451Y125304D01*
X127514Y125295D01*
X127584Y125283D01*
X127659Y125266D01*
X127738Y125250D01*
X127817Y125225D01*
X127900Y125196D01*
X127984Y125162D01*
X128063Y125121D01*
X128142Y125079D01*
X128217Y125025D01*
X128221Y125021D01*
X128233Y125012D01*
X128254Y124996D01*
X128279Y124971D01*
X128312Y124942D01*
X128350Y124904D01*
X128387Y124863D01*
X128433Y124813D01*
X128479Y124759D01*
X128524Y124696D01*
X128570Y124630D01*
X128612Y124555D01*
X128657Y124476D01*
X128695Y124388D01*
X128732Y124297D01*
X128766Y124201D01*
X128267Y124085D01*
Y124089D01*
X128258Y124101D01*
X128254Y124126D01*
X128242Y124155D01*
X128229Y124189D01*
X128208Y124226D01*
X128167Y124318D01*
X128112Y124417D01*
X128042Y124522D01*
X127967Y124617D01*
X127921Y124659D01*
X127875Y124696D01*
X127871Y124700D01*
X127863Y124705D01*
X127850Y124713D01*
X127830Y124725D01*
X127805Y124742D01*
X127776Y124759D01*
X127742Y124775D01*
X127701Y124792D01*
X127655Y124809D01*
X127609Y124825D01*
X127501Y124858D01*
X127376Y124879D01*
X127310Y124888D01*
X127197D01*
X127164Y124883D01*
X127127Y124879D01*
X127081Y124875D01*
X127031Y124871D01*
X126981Y124863D01*
X126860Y124834D01*
X126736Y124796D01*
X126673Y124771D01*
X126611Y124742D01*
X126552Y124709D01*
X126494Y124671D01*
X126490Y124667D01*
X126482Y124663D01*
X126465Y124651D01*
X126444Y124634D01*
X126424Y124613D01*
X126394Y124584D01*
X126365Y124555D01*
X126332Y124522D01*
X126299Y124480D01*
X126261Y124438D01*
X126195Y124343D01*
X126132Y124230D01*
X126078Y124101D01*
Y124097D01*
X126074Y124085D01*
X126066Y124064D01*
X126062Y124039D01*
X126053Y124006D01*
X126041Y123968D01*
X126032Y123923D01*
X126020Y123877D01*
X126008Y123823D01*
X125999Y123764D01*
X125978Y123640D01*
X125966Y123506D01*
X125962Y123365D01*
Y123361D01*
Y123344D01*
Y123319D01*
X125966Y123282D01*
Y123240D01*
X125970Y123190D01*
X125974Y123136D01*
X125978Y123074D01*
X125987Y123007D01*
X125995Y122941D01*
X126020Y122795D01*
X126058Y122650D01*
X126103Y122508D01*
Y122504D01*
X126112Y122492D01*
X126120Y122475D01*
X126128Y122450D01*
X126145Y122417D01*
X126166Y122383D01*
X126211Y122304D01*
X126274Y122213D01*
X126349Y122125D01*
X126440Y122038D01*
X126490Y122001D01*
X126544Y121963D01*
X126548D01*
X126557Y121955D01*
X126573Y121947D01*
X126598Y121934D01*
X126627Y121922D01*
X126661Y121905D01*
X126698Y121892D01*
X126740Y121876D01*
X126835Y121843D01*
X126948Y121813D01*
X127068Y121793D01*
X127131Y121788D01*
X127197Y121784D01*
X127239D01*
X127268Y121788D01*
X127305Y121793D01*
X127347Y121797D01*
X127397Y121805D01*
X127447Y121813D01*
X127563Y121843D01*
X127622Y121863D01*
X127684Y121888D01*
X127746Y121917D01*
X127805Y121951D01*
X127863Y121988D01*
X127921Y122030D01*
X127925Y122034D01*
X127934Y122042D01*
X127950Y122055D01*
X127971Y122075D01*
X127992Y122100D01*
X128021Y122134D01*
X128050Y122171D01*
X128083Y122213D01*
X128117Y122263D01*
X128150Y122317D01*
X128183Y122375D01*
X128217Y122441D01*
X128246Y122512D01*
X128275Y122591D01*
X128304Y122675D01*
X128325Y122762D01*
X128832Y122633D01*
Y122625D01*
X128824Y122604D01*
X128816Y122575D01*
X128799Y122529D01*
X128782Y122479D01*
X128757Y122417D01*
X128732Y122350D01*
X128699Y122279D01*
X128662Y122200D01*
X128620Y122125D01*
X128574Y122042D01*
X128520Y121963D01*
X128462Y121888D01*
X128400Y121813D01*
X128329Y121743D01*
X128254Y121676D01*
X128250Y121672D01*
X128233Y121664D01*
X128212Y121647D01*
X128179Y121626D01*
X128142Y121601D01*
X128092Y121572D01*
X128038Y121543D01*
X127971Y121514D01*
X127900Y121485D01*
X127825Y121456D01*
X127742Y121426D01*
X127651Y121402D01*
X127555Y121381D01*
X127455Y121364D01*
X127351Y121356D01*
X127239Y121352D01*
X127181D01*
X127135Y121356D01*
X127085Y121360D01*
X127023Y121364D01*
X126956Y121372D01*
X126881Y121385D01*
X126802Y121397D01*
X126719Y121414D01*
X126636Y121435D01*
X126552Y121456D01*
X126465Y121485D01*
X126382Y121518D01*
X126303Y121555D01*
X126228Y121601D01*
X126224Y121605D01*
X126211Y121614D01*
X126191Y121626D01*
X126166Y121647D01*
X126132Y121676D01*
X126095Y121705D01*
X126053Y121743D01*
X126008Y121788D01*
X125962Y121838D01*
X125912Y121892D01*
X125866Y121951D01*
X125816Y122017D01*
X125766Y122088D01*
X125721Y122163D01*
X125679Y122246D01*
X125637Y122333D01*
X125633Y122337D01*
X125629Y122354D01*
X125621Y122383D01*
X125608Y122417D01*
X125592Y122462D01*
X125575Y122512D01*
X125558Y122575D01*
X125538Y122641D01*
X125521Y122716D01*
X125500Y122795D01*
X125483Y122878D01*
X125471Y122970D01*
X125446Y123161D01*
X125442Y123261D01*
X125438Y123361D01*
Y123369D01*
Y123386D01*
Y123419D01*
X125442Y123461D01*
X125446Y123515D01*
X125450Y123577D01*
X125458Y123644D01*
X125467Y123719D01*
X125479Y123798D01*
X125492Y123881D01*
X125533Y124060D01*
X125562Y124147D01*
X125592Y124234D01*
X125625Y124326D01*
X125666Y124409D01*
X125671Y124413D01*
X125679Y124430D01*
X125691Y124451D01*
X125708Y124484D01*
X125733Y124522D01*
X125762Y124563D01*
X125795Y124609D01*
X125833Y124663D01*
X125879Y124713D01*
X125924Y124771D01*
X125978Y124825D01*
X126037Y124883D01*
X126099Y124937D01*
X126166Y124992D01*
X126241Y125041D01*
X126315Y125087D01*
X126320Y125092D01*
X126336Y125096D01*
X126357Y125108D01*
X126390Y125125D01*
X126428Y125141D01*
X126478Y125162D01*
X126532Y125183D01*
X126590Y125204D01*
X126656Y125225D01*
X126731Y125245D01*
X126806Y125266D01*
X126890Y125283D01*
X127060Y125312D01*
X127152Y125316D01*
X127247Y125320D01*
X127301D01*
X127343Y125316D01*
D02*
G37*
G36*
X121203Y121414D02*
X120733D01*
Y124413D01*
X120724Y124405D01*
X120704Y124384D01*
X120666Y124355D01*
X120612Y124313D01*
X120550Y124264D01*
X120471Y124209D01*
X120383Y124151D01*
X120283Y124089D01*
X120279D01*
X120271Y124081D01*
X120258Y124072D01*
X120238Y124064D01*
X120213Y124047D01*
X120184Y124035D01*
X120117Y123997D01*
X120042Y123960D01*
X119959Y123918D01*
X119872Y123881D01*
X119788Y123848D01*
Y124301D01*
X119792Y124305D01*
X119805Y124309D01*
X119826Y124322D01*
X119855Y124334D01*
X119888Y124351D01*
X119930Y124376D01*
X119976Y124401D01*
X120021Y124426D01*
X120130Y124492D01*
X120246Y124572D01*
X120367Y124655D01*
X120479Y124750D01*
X120483Y124755D01*
X120491Y124763D01*
X120508Y124775D01*
X120529Y124796D01*
X120550Y124821D01*
X120579Y124846D01*
X120641Y124917D01*
X120712Y124992D01*
X120783Y125079D01*
X120845Y125171D01*
X120899Y125266D01*
X121203D01*
Y121414D01*
D02*
G37*
G36*
X117188Y125316D02*
X117238Y125312D01*
X117292Y125308D01*
X117351Y125300D01*
X117417Y125287D01*
X117492Y125275D01*
X117567Y125258D01*
X117646Y125237D01*
X117729Y125212D01*
X117812Y125183D01*
X117896Y125150D01*
X117975Y125112D01*
X118058Y125066D01*
X118062Y125062D01*
X118079Y125054D01*
X118099Y125041D01*
X118129Y125021D01*
X118166Y124996D01*
X118203Y124962D01*
X118249Y124925D01*
X118299Y124883D01*
X118353Y124834D01*
X118407Y124784D01*
X118461Y124725D01*
X118515Y124663D01*
X118565Y124592D01*
X118619Y124522D01*
X118665Y124443D01*
X118711Y124359D01*
X118715Y124355D01*
X118719Y124338D01*
X118732Y124313D01*
X118744Y124280D01*
X118765Y124239D01*
X118782Y124185D01*
X118802Y124126D01*
X118823Y124060D01*
X118844Y123989D01*
X118865Y123910D01*
X118886Y123827D01*
X118902Y123735D01*
X118915Y123644D01*
X118927Y123544D01*
X118931Y123440D01*
X118936Y123336D01*
Y123332D01*
Y123315D01*
Y123290D01*
X118931Y123257D01*
Y123215D01*
X118927Y123165D01*
X118923Y123111D01*
X118919Y123053D01*
X118911Y122986D01*
X118898Y122920D01*
X118873Y122774D01*
X118840Y122629D01*
X118790Y122483D01*
Y122479D01*
X118782Y122467D01*
X118773Y122446D01*
X118761Y122421D01*
X118748Y122387D01*
X118728Y122350D01*
X118707Y122304D01*
X118682Y122258D01*
X118619Y122154D01*
X118544Y122046D01*
X118457Y121934D01*
X118353Y121826D01*
X118357Y121822D01*
X118370Y121813D01*
X118386Y121801D01*
X118416Y121784D01*
X118445Y121768D01*
X118482Y121743D01*
X118524Y121718D01*
X118570Y121689D01*
X118669Y121630D01*
X118782Y121572D01*
X118898Y121514D01*
X119010Y121468D01*
X118857Y121119D01*
X118852D01*
X118840Y121127D01*
X118815Y121135D01*
X118786Y121148D01*
X118748Y121164D01*
X118703Y121181D01*
X118653Y121206D01*
X118599Y121235D01*
X118540Y121264D01*
X118474Y121298D01*
X118336Y121377D01*
X118187Y121472D01*
X118033Y121585D01*
X118029Y121580D01*
X118012Y121576D01*
X117991Y121564D01*
X117958Y121547D01*
X117916Y121530D01*
X117871Y121510D01*
X117816Y121489D01*
X117754Y121468D01*
X117688Y121447D01*
X117613Y121426D01*
X117538Y121406D01*
X117455Y121389D01*
X117276Y121360D01*
X117184Y121356D01*
X117088Y121352D01*
X117039D01*
X117001Y121356D01*
X116955Y121360D01*
X116901Y121364D01*
X116843Y121372D01*
X116777Y121385D01*
X116706Y121397D01*
X116631Y121414D01*
X116552Y121435D01*
X116473Y121456D01*
X116390Y121485D01*
X116306Y121518D01*
X116223Y121555D01*
X116144Y121601D01*
X116140Y121605D01*
X116128Y121614D01*
X116103Y121626D01*
X116074Y121647D01*
X116040Y121672D01*
X115999Y121705D01*
X115953Y121743D01*
X115903Y121784D01*
X115853Y121830D01*
X115799Y121884D01*
X115745Y121942D01*
X115691Y122005D01*
X115637Y122071D01*
X115587Y122142D01*
X115537Y122221D01*
X115491Y122304D01*
X115487Y122308D01*
X115483Y122325D01*
X115470Y122350D01*
X115454Y122383D01*
X115437Y122429D01*
X115420Y122479D01*
X115400Y122537D01*
X115379Y122604D01*
X115354Y122679D01*
X115333Y122758D01*
X115316Y122841D01*
X115300Y122932D01*
X115283Y123024D01*
X115271Y123124D01*
X115267Y123228D01*
X115262Y123332D01*
Y123340D01*
Y123357D01*
Y123386D01*
X115267Y123427D01*
X115271Y123477D01*
X115275Y123536D01*
X115283Y123602D01*
X115291Y123677D01*
X115304Y123752D01*
X115316Y123835D01*
X115358Y124010D01*
X115387Y124097D01*
X115416Y124189D01*
X115450Y124280D01*
X115491Y124368D01*
X115495Y124372D01*
X115504Y124388D01*
X115516Y124413D01*
X115533Y124443D01*
X115558Y124484D01*
X115587Y124530D01*
X115620Y124576D01*
X115657Y124630D01*
X115703Y124688D01*
X115753Y124746D01*
X115803Y124804D01*
X115861Y124863D01*
X115928Y124921D01*
X115995Y124975D01*
X116065Y125029D01*
X116144Y125075D01*
X116148Y125079D01*
X116165Y125087D01*
X116186Y125096D01*
X116219Y125112D01*
X116261Y125133D01*
X116306Y125154D01*
X116365Y125175D01*
X116423Y125200D01*
X116494Y125220D01*
X116564Y125241D01*
X116643Y125262D01*
X116731Y125283D01*
X116818Y125300D01*
X116910Y125308D01*
X117005Y125316D01*
X117101Y125320D01*
X117151D01*
X117188Y125316D01*
D02*
G37*
G36*
X125230Y120349D02*
X122106D01*
Y120690D01*
X125230D01*
Y120349D01*
D02*
G37*
G36*
X267649Y94607D02*
X267699Y94603D01*
X267757Y94595D01*
X267819Y94587D01*
X267890Y94574D01*
X267965Y94557D01*
X268044Y94541D01*
X268123Y94516D01*
X268206Y94487D01*
X268289Y94454D01*
X268368Y94412D01*
X268447Y94370D01*
X268522Y94316D01*
X268526Y94312D01*
X268539Y94304D01*
X268560Y94287D01*
X268585Y94262D01*
X268618Y94233D01*
X268655Y94196D01*
X268693Y94154D01*
X268739Y94104D01*
X268784Y94050D01*
X268830Y93988D01*
X268876Y93921D01*
X268917Y93846D01*
X268963Y93767D01*
X269001Y93680D01*
X269038Y93588D01*
X269071Y93493D01*
X268572Y93376D01*
Y93380D01*
X268564Y93393D01*
X268560Y93418D01*
X268547Y93447D01*
X268535Y93480D01*
X268514Y93518D01*
X268472Y93609D01*
X268418Y93709D01*
X268348Y93813D01*
X268273Y93909D01*
X268227Y93950D01*
X268181Y93988D01*
X268177Y93992D01*
X268169Y93996D01*
X268156Y94004D01*
X268135Y94017D01*
X268110Y94033D01*
X268081Y94050D01*
X268048Y94067D01*
X268006Y94083D01*
X267961Y94100D01*
X267915Y94116D01*
X267807Y94150D01*
X267682Y94171D01*
X267615Y94179D01*
X267503D01*
X267470Y94175D01*
X267432Y94171D01*
X267387Y94166D01*
X267337Y94162D01*
X267287Y94154D01*
X267166Y94125D01*
X267041Y94087D01*
X266979Y94063D01*
X266916Y94033D01*
X266858Y94000D01*
X266800Y93963D01*
X266796Y93958D01*
X266788Y93954D01*
X266771Y93942D01*
X266750Y93925D01*
X266729Y93904D01*
X266700Y93875D01*
X266671Y93846D01*
X266638Y93813D01*
X266604Y93771D01*
X266567Y93730D01*
X266500Y93634D01*
X266438Y93522D01*
X266384Y93393D01*
Y93388D01*
X266380Y93376D01*
X266371Y93355D01*
X266367Y93330D01*
X266359Y93297D01*
X266347Y93260D01*
X266338Y93214D01*
X266326Y93168D01*
X266313Y93114D01*
X266305Y93056D01*
X266284Y92931D01*
X266272Y92798D01*
X266267Y92656D01*
Y92652D01*
Y92636D01*
Y92611D01*
X266272Y92573D01*
Y92532D01*
X266276Y92482D01*
X266280Y92428D01*
X266284Y92365D01*
X266293Y92299D01*
X266301Y92232D01*
X266326Y92086D01*
X266363Y91941D01*
X266409Y91799D01*
Y91795D01*
X266417Y91783D01*
X266426Y91766D01*
X266434Y91741D01*
X266451Y91708D01*
X266471Y91675D01*
X266517Y91596D01*
X266580Y91504D01*
X266654Y91417D01*
X266746Y91329D01*
X266796Y91292D01*
X266850Y91255D01*
X266854D01*
X266862Y91246D01*
X266879Y91238D01*
X266904Y91225D01*
X266933Y91213D01*
X266966Y91196D01*
X267004Y91184D01*
X267045Y91167D01*
X267141Y91134D01*
X267253Y91105D01*
X267374Y91084D01*
X267437Y91080D01*
X267503Y91076D01*
X267545D01*
X267574Y91080D01*
X267611Y91084D01*
X267653Y91088D01*
X267703Y91096D01*
X267753Y91105D01*
X267869Y91134D01*
X267927Y91155D01*
X267990Y91180D01*
X268052Y91209D01*
X268110Y91242D01*
X268169Y91279D01*
X268227Y91321D01*
X268231Y91325D01*
X268239Y91334D01*
X268256Y91346D01*
X268277Y91367D01*
X268298Y91392D01*
X268327Y91425D01*
X268356Y91462D01*
X268389Y91504D01*
X268422Y91554D01*
X268456Y91608D01*
X268489Y91666D01*
X268522Y91733D01*
X268551Y91804D01*
X268581Y91883D01*
X268610Y91966D01*
X268630Y92053D01*
X269138Y91924D01*
Y91916D01*
X269130Y91895D01*
X269121Y91866D01*
X269105Y91820D01*
X269088Y91770D01*
X269063Y91708D01*
X269038Y91641D01*
X269005Y91571D01*
X268967Y91492D01*
X268926Y91417D01*
X268880Y91334D01*
X268826Y91255D01*
X268768Y91180D01*
X268705Y91105D01*
X268635Y91034D01*
X268560Y90967D01*
X268555Y90963D01*
X268539Y90955D01*
X268518Y90938D01*
X268485Y90917D01*
X268447Y90892D01*
X268397Y90863D01*
X268343Y90834D01*
X268277Y90805D01*
X268206Y90776D01*
X268131Y90747D01*
X268048Y90718D01*
X267956Y90693D01*
X267861Y90672D01*
X267761Y90655D01*
X267657Y90647D01*
X267545Y90643D01*
X267486D01*
X267441Y90647D01*
X267391Y90651D01*
X267328Y90655D01*
X267262Y90664D01*
X267187Y90676D01*
X267108Y90689D01*
X267025Y90705D01*
X266941Y90726D01*
X266858Y90747D01*
X266771Y90776D01*
X266688Y90809D01*
X266609Y90847D01*
X266534Y90892D01*
X266530Y90897D01*
X266517Y90905D01*
X266496Y90917D01*
X266471Y90938D01*
X266438Y90967D01*
X266401Y90996D01*
X266359Y91034D01*
X266313Y91080D01*
X266267Y91130D01*
X266218Y91184D01*
X266172Y91242D01*
X266122Y91308D01*
X266072Y91379D01*
X266026Y91454D01*
X265985Y91537D01*
X265943Y91625D01*
X265939Y91629D01*
X265935Y91645D01*
X265926Y91675D01*
X265914Y91708D01*
X265897Y91754D01*
X265881Y91804D01*
X265864Y91866D01*
X265843Y91932D01*
X265827Y92007D01*
X265806Y92086D01*
X265789Y92170D01*
X265777Y92261D01*
X265752Y92453D01*
X265748Y92552D01*
X265743Y92652D01*
Y92660D01*
Y92677D01*
Y92711D01*
X265748Y92752D01*
X265752Y92806D01*
X265756Y92869D01*
X265764Y92935D01*
X265773Y93010D01*
X265785Y93089D01*
X265797Y93172D01*
X265839Y93351D01*
X265868Y93439D01*
X265897Y93526D01*
X265931Y93617D01*
X265972Y93700D01*
X265976Y93705D01*
X265985Y93721D01*
X265997Y93742D01*
X266014Y93775D01*
X266039Y93813D01*
X266068Y93854D01*
X266101Y93900D01*
X266139Y93954D01*
X266184Y94004D01*
X266230Y94063D01*
X266284Y94116D01*
X266342Y94175D01*
X266405Y94229D01*
X266471Y94283D01*
X266546Y94333D01*
X266621Y94379D01*
X266625Y94383D01*
X266642Y94387D01*
X266663Y94399D01*
X266696Y94416D01*
X266734Y94433D01*
X266783Y94454D01*
X266838Y94474D01*
X266896Y94495D01*
X266962Y94516D01*
X267037Y94537D01*
X267112Y94557D01*
X267195Y94574D01*
X267366Y94603D01*
X267457Y94607D01*
X267553Y94612D01*
X267607D01*
X267649Y94607D01*
D02*
G37*
G36*
X259079Y92328D02*
Y92319D01*
Y92303D01*
Y92274D01*
Y92232D01*
X259075Y92182D01*
X259071Y92128D01*
X259067Y92066D01*
X259062Y91995D01*
X259046Y91849D01*
X259025Y91695D01*
X258992Y91546D01*
X258971Y91475D01*
X258946Y91408D01*
Y91404D01*
X258942Y91392D01*
X258933Y91375D01*
X258921Y91350D01*
X258904Y91321D01*
X258888Y91288D01*
X258838Y91213D01*
X258809Y91167D01*
X258775Y91126D01*
X258734Y91076D01*
X258692Y91030D01*
X258642Y90984D01*
X258592Y90938D01*
X258534Y90897D01*
X258472Y90855D01*
X258468Y90851D01*
X258455Y90847D01*
X258438Y90834D01*
X258409Y90822D01*
X258376Y90805D01*
X258334Y90789D01*
X258289Y90768D01*
X258230Y90751D01*
X258172Y90730D01*
X258106Y90710D01*
X258031Y90693D01*
X257952Y90676D01*
X257864Y90664D01*
X257773Y90651D01*
X257677Y90647D01*
X257577Y90643D01*
X257523D01*
X257486Y90647D01*
X257440D01*
X257390Y90651D01*
X257328Y90660D01*
X257265Y90668D01*
X257124Y90689D01*
X256974Y90722D01*
X256828Y90768D01*
X256758Y90793D01*
X256691Y90826D01*
X256687Y90830D01*
X256675Y90834D01*
X256658Y90847D01*
X256637Y90859D01*
X256608Y90880D01*
X256575Y90905D01*
X256541Y90930D01*
X256504Y90963D01*
X256421Y91038D01*
X256342Y91130D01*
X256267Y91238D01*
X256234Y91300D01*
X256205Y91363D01*
Y91367D01*
X256200Y91379D01*
X256192Y91400D01*
X256184Y91429D01*
X256171Y91462D01*
X256159Y91508D01*
X256146Y91558D01*
X256134Y91616D01*
X256117Y91683D01*
X256105Y91754D01*
X256092Y91833D01*
X256084Y91920D01*
X256071Y92012D01*
X256067Y92111D01*
X256059Y92215D01*
Y92328D01*
Y94545D01*
X256566D01*
Y92328D01*
Y92324D01*
Y92307D01*
Y92282D01*
Y92244D01*
X256571Y92203D01*
Y92157D01*
X256575Y92103D01*
X256579Y92049D01*
X256587Y91928D01*
X256604Y91808D01*
X256629Y91691D01*
X256641Y91637D01*
X256658Y91591D01*
Y91587D01*
X256662Y91583D01*
X256666Y91571D01*
X256675Y91554D01*
X256699Y91508D01*
X256733Y91458D01*
X256774Y91396D01*
X256828Y91338D01*
X256895Y91279D01*
X256974Y91225D01*
X256978D01*
X256987Y91221D01*
X256999Y91213D01*
X257016Y91205D01*
X257036Y91196D01*
X257066Y91188D01*
X257095Y91175D01*
X257128Y91163D01*
X257211Y91142D01*
X257307Y91121D01*
X257415Y91105D01*
X257532Y91101D01*
X257586D01*
X257623Y91105D01*
X257669Y91109D01*
X257723Y91113D01*
X257781Y91121D01*
X257844Y91134D01*
X257973Y91163D01*
X258039Y91184D01*
X258106Y91209D01*
X258168Y91238D01*
X258226Y91271D01*
X258280Y91308D01*
X258330Y91354D01*
X258334Y91359D01*
X258343Y91367D01*
X258351Y91383D01*
X258368Y91404D01*
X258384Y91433D01*
X258405Y91471D01*
X258430Y91517D01*
X258451Y91571D01*
X258472Y91633D01*
X258497Y91704D01*
X258518Y91783D01*
X258534Y91870D01*
X258551Y91970D01*
X258563Y92078D01*
X258567Y92199D01*
X258572Y92328D01*
Y94545D01*
X259079D01*
Y92328D01*
D02*
G37*
G36*
X261508Y90705D02*
X261038D01*
Y93705D01*
X261030Y93696D01*
X261009Y93676D01*
X260972Y93647D01*
X260918Y93605D01*
X260855Y93555D01*
X260776Y93501D01*
X260689Y93443D01*
X260589Y93380D01*
X260585D01*
X260577Y93372D01*
X260564Y93364D01*
X260543Y93355D01*
X260518Y93339D01*
X260489Y93326D01*
X260423Y93289D01*
X260348Y93251D01*
X260265Y93210D01*
X260177Y93172D01*
X260094Y93139D01*
Y93592D01*
X260098Y93597D01*
X260111Y93601D01*
X260132Y93613D01*
X260161Y93626D01*
X260194Y93642D01*
X260236Y93667D01*
X260281Y93692D01*
X260327Y93717D01*
X260435Y93784D01*
X260552Y93863D01*
X260672Y93946D01*
X260785Y94042D01*
X260789Y94046D01*
X260797Y94054D01*
X260814Y94067D01*
X260835Y94087D01*
X260855Y94112D01*
X260884Y94137D01*
X260947Y94208D01*
X261018Y94283D01*
X261088Y94370D01*
X261151Y94462D01*
X261205Y94557D01*
X261508D01*
Y90705D01*
D02*
G37*
G36*
X265535Y89640D02*
X262411D01*
Y89982D01*
X265535D01*
Y89640D01*
D02*
G37*
G36*
X247869Y73931D02*
X247898Y73923D01*
X247944Y73906D01*
X247993Y73889D01*
X248056Y73864D01*
X248122Y73839D01*
X248193Y73806D01*
X248272Y73769D01*
X248347Y73727D01*
X248430Y73681D01*
X248509Y73627D01*
X248584Y73569D01*
X248659Y73507D01*
X248730Y73436D01*
X248796Y73361D01*
X248800Y73357D01*
X248809Y73340D01*
X248826Y73320D01*
X248846Y73286D01*
X248871Y73249D01*
X248900Y73199D01*
X248930Y73145D01*
X248959Y73078D01*
X248988Y73008D01*
X249017Y72933D01*
X249046Y72849D01*
X249071Y72758D01*
X249092Y72662D01*
X249108Y72562D01*
X249117Y72458D01*
X249121Y72346D01*
Y72288D01*
X249117Y72242D01*
X249113Y72192D01*
X249108Y72130D01*
X249100Y72063D01*
X249088Y71988D01*
X249075Y71909D01*
X249058Y71826D01*
X249038Y71743D01*
X249017Y71660D01*
X248988Y71572D01*
X248954Y71489D01*
X248917Y71410D01*
X248871Y71335D01*
X248867Y71331D01*
X248859Y71319D01*
X248846Y71298D01*
X248826Y71273D01*
X248796Y71240D01*
X248767Y71202D01*
X248730Y71160D01*
X248684Y71115D01*
X248634Y71069D01*
X248580Y71019D01*
X248522Y70973D01*
X248455Y70923D01*
X248384Y70873D01*
X248310Y70828D01*
X248226Y70786D01*
X248139Y70744D01*
X248135Y70740D01*
X248118Y70736D01*
X248089Y70728D01*
X248056Y70715D01*
X248010Y70699D01*
X247960Y70682D01*
X247898Y70665D01*
X247831Y70645D01*
X247756Y70628D01*
X247677Y70607D01*
X247594Y70591D01*
X247503Y70578D01*
X247311Y70553D01*
X247211Y70549D01*
X247112Y70545D01*
X247103D01*
X247087D01*
X247053D01*
X247012Y70549D01*
X246958Y70553D01*
X246895Y70557D01*
X246829Y70566D01*
X246754Y70574D01*
X246675Y70586D01*
X246592Y70599D01*
X246413Y70640D01*
X246325Y70670D01*
X246238Y70699D01*
X246146Y70732D01*
X246063Y70774D01*
X246059Y70778D01*
X246042Y70786D01*
X246022Y70798D01*
X245988Y70815D01*
X245951Y70840D01*
X245909Y70869D01*
X245864Y70903D01*
X245810Y70940D01*
X245760Y70986D01*
X245701Y71031D01*
X245647Y71086D01*
X245589Y71144D01*
X245535Y71206D01*
X245481Y71273D01*
X245431Y71348D01*
X245385Y71422D01*
X245381Y71427D01*
X245377Y71443D01*
X245364Y71464D01*
X245348Y71497D01*
X245331Y71535D01*
X245310Y71585D01*
X245289Y71639D01*
X245269Y71697D01*
X245248Y71764D01*
X245227Y71838D01*
X245206Y71913D01*
X245190Y71997D01*
X245161Y72167D01*
X245156Y72259D01*
X245152Y72354D01*
Y72408D01*
X245156Y72450D01*
X245161Y72500D01*
X245169Y72558D01*
X245177Y72621D01*
X245190Y72691D01*
X245206Y72766D01*
X245223Y72845D01*
X245248Y72924D01*
X245277Y73008D01*
X245310Y73091D01*
X245352Y73170D01*
X245393Y73249D01*
X245448Y73324D01*
X245452Y73328D01*
X245460Y73340D01*
X245477Y73361D01*
X245502Y73386D01*
X245531Y73419D01*
X245568Y73457D01*
X245610Y73494D01*
X245660Y73540D01*
X245714Y73586D01*
X245776Y73632D01*
X245843Y73677D01*
X245918Y73719D01*
X245997Y73765D01*
X246084Y73802D01*
X246176Y73839D01*
X246271Y73873D01*
X246388Y73374D01*
X246384D01*
X246371Y73365D01*
X246346Y73361D01*
X246317Y73349D01*
X246284Y73336D01*
X246246Y73315D01*
X246155Y73274D01*
X246055Y73220D01*
X245951Y73149D01*
X245855Y73074D01*
X245814Y73028D01*
X245776Y72983D01*
X245772Y72978D01*
X245768Y72970D01*
X245760Y72958D01*
X245747Y72937D01*
X245730Y72912D01*
X245714Y72883D01*
X245697Y72849D01*
X245680Y72808D01*
X245664Y72762D01*
X245647Y72716D01*
X245614Y72608D01*
X245593Y72483D01*
X245585Y72417D01*
Y72304D01*
X245589Y72271D01*
X245593Y72234D01*
X245597Y72188D01*
X245602Y72138D01*
X245610Y72088D01*
X245639Y71968D01*
X245676Y71843D01*
X245701Y71780D01*
X245730Y71718D01*
X245764Y71660D01*
X245801Y71601D01*
X245805Y71597D01*
X245810Y71589D01*
X245822Y71572D01*
X245839Y71552D01*
X245859Y71531D01*
X245888Y71502D01*
X245918Y71472D01*
X245951Y71439D01*
X245992Y71406D01*
X246034Y71368D01*
X246130Y71302D01*
X246242Y71240D01*
X246371Y71185D01*
X246375D01*
X246388Y71181D01*
X246409Y71173D01*
X246433Y71169D01*
X246467Y71160D01*
X246504Y71148D01*
X246550Y71140D01*
X246596Y71127D01*
X246650Y71115D01*
X246708Y71106D01*
X246833Y71086D01*
X246966Y71073D01*
X247107Y71069D01*
X247112D01*
X247128D01*
X247153D01*
X247191Y71073D01*
X247232D01*
X247282Y71077D01*
X247336Y71081D01*
X247399Y71086D01*
X247465Y71094D01*
X247532Y71102D01*
X247677Y71127D01*
X247823Y71165D01*
X247964Y71210D01*
X247969D01*
X247981Y71219D01*
X247998Y71227D01*
X248023Y71235D01*
X248056Y71252D01*
X248089Y71273D01*
X248168Y71319D01*
X248260Y71381D01*
X248347Y71456D01*
X248434Y71547D01*
X248472Y71597D01*
X248509Y71651D01*
Y71655D01*
X248518Y71664D01*
X248526Y71680D01*
X248538Y71705D01*
X248551Y71734D01*
X248568Y71768D01*
X248580Y71805D01*
X248597Y71847D01*
X248630Y71943D01*
X248659Y72055D01*
X248680Y72176D01*
X248684Y72238D01*
X248688Y72304D01*
Y72346D01*
X248684Y72375D01*
X248680Y72413D01*
X248676Y72454D01*
X248667Y72504D01*
X248659Y72554D01*
X248630Y72671D01*
X248609Y72729D01*
X248584Y72791D01*
X248555Y72854D01*
X248522Y72912D01*
X248484Y72970D01*
X248443Y73028D01*
X248439Y73032D01*
X248430Y73041D01*
X248418Y73057D01*
X248397Y73078D01*
X248372Y73099D01*
X248339Y73128D01*
X248301Y73157D01*
X248260Y73190D01*
X248210Y73224D01*
X248156Y73257D01*
X248097Y73290D01*
X248031Y73324D01*
X247960Y73353D01*
X247881Y73382D01*
X247798Y73411D01*
X247711Y73432D01*
X247840Y73939D01*
X247848D01*
X247869Y73931D01*
D02*
G37*
G36*
X250123Y67213D02*
X249782D01*
Y70337D01*
X250123D01*
Y67213D01*
D02*
G37*
G36*
X249058Y65840D02*
X246059D01*
X246067Y65832D01*
X246088Y65811D01*
X246117Y65773D01*
X246159Y65719D01*
X246209Y65657D01*
X246263Y65578D01*
X246321Y65490D01*
X246384Y65390D01*
Y65386D01*
X246392Y65378D01*
X246400Y65366D01*
X246409Y65345D01*
X246425Y65320D01*
X246438Y65291D01*
X246475Y65224D01*
X246513Y65149D01*
X246554Y65066D01*
X246592Y64979D01*
X246625Y64895D01*
X246171D01*
X246167Y64900D01*
X246163Y64912D01*
X246151Y64933D01*
X246138Y64962D01*
X246122Y64995D01*
X246096Y65037D01*
X246072Y65083D01*
X246047Y65128D01*
X245980Y65237D01*
X245901Y65353D01*
X245818Y65474D01*
X245722Y65586D01*
X245718Y65590D01*
X245710Y65598D01*
X245697Y65615D01*
X245676Y65636D01*
X245651Y65657D01*
X245626Y65686D01*
X245556Y65748D01*
X245481Y65819D01*
X245393Y65890D01*
X245302Y65952D01*
X245206Y66006D01*
Y66310D01*
X249058D01*
Y65840D01*
D02*
G37*
G36*
X247869Y64093D02*
X247898Y64084D01*
X247944Y64068D01*
X247993Y64051D01*
X248056Y64026D01*
X248122Y64001D01*
X248193Y63968D01*
X248272Y63930D01*
X248347Y63889D01*
X248430Y63843D01*
X248509Y63789D01*
X248584Y63731D01*
X248659Y63668D01*
X248730Y63598D01*
X248796Y63523D01*
X248800Y63519D01*
X248809Y63502D01*
X248826Y63481D01*
X248846Y63448D01*
X248871Y63410D01*
X248900Y63360D01*
X248930Y63306D01*
X248959Y63240D01*
X248988Y63169D01*
X249017Y63094D01*
X249046Y63011D01*
X249071Y62919D01*
X249092Y62824D01*
X249108Y62724D01*
X249117Y62620D01*
X249121Y62508D01*
Y62449D01*
X249117Y62404D01*
X249113Y62354D01*
X249108Y62291D01*
X249100Y62225D01*
X249088Y62150D01*
X249075Y62071D01*
X249058Y61988D01*
X249038Y61904D01*
X249017Y61821D01*
X248988Y61734D01*
X248954Y61651D01*
X248917Y61572D01*
X248871Y61497D01*
X248867Y61493D01*
X248859Y61480D01*
X248846Y61459D01*
X248826Y61434D01*
X248796Y61401D01*
X248767Y61364D01*
X248730Y61322D01*
X248684Y61276D01*
X248634Y61230D01*
X248580Y61181D01*
X248522Y61135D01*
X248455Y61085D01*
X248384Y61035D01*
X248310Y60989D01*
X248226Y60948D01*
X248139Y60906D01*
X248135Y60902D01*
X248118Y60898D01*
X248089Y60889D01*
X248056Y60877D01*
X248010Y60860D01*
X247960Y60844D01*
X247898Y60827D01*
X247831Y60806D01*
X247756Y60790D01*
X247677Y60769D01*
X247594Y60752D01*
X247503Y60740D01*
X247311Y60715D01*
X247211Y60711D01*
X247112Y60706D01*
X247103D01*
X247087D01*
X247053D01*
X247012Y60711D01*
X246958Y60715D01*
X246895Y60719D01*
X246829Y60727D01*
X246754Y60735D01*
X246675Y60748D01*
X246592Y60760D01*
X246413Y60802D01*
X246325Y60831D01*
X246238Y60860D01*
X246146Y60894D01*
X246063Y60935D01*
X246059Y60939D01*
X246042Y60948D01*
X246022Y60960D01*
X245988Y60977D01*
X245951Y61002D01*
X245909Y61031D01*
X245864Y61064D01*
X245810Y61102D01*
X245760Y61147D01*
X245701Y61193D01*
X245647Y61247D01*
X245589Y61305D01*
X245535Y61368D01*
X245481Y61434D01*
X245431Y61509D01*
X245385Y61584D01*
X245381Y61588D01*
X245377Y61605D01*
X245364Y61626D01*
X245348Y61659D01*
X245331Y61696D01*
X245310Y61746D01*
X245289Y61800D01*
X245269Y61859D01*
X245248Y61925D01*
X245227Y62000D01*
X245206Y62075D01*
X245190Y62158D01*
X245161Y62329D01*
X245156Y62420D01*
X245152Y62516D01*
Y62570D01*
X245156Y62612D01*
X245161Y62662D01*
X245169Y62720D01*
X245177Y62782D01*
X245190Y62853D01*
X245206Y62928D01*
X245223Y63007D01*
X245248Y63086D01*
X245277Y63169D01*
X245310Y63252D01*
X245352Y63331D01*
X245393Y63410D01*
X245448Y63485D01*
X245452Y63489D01*
X245460Y63502D01*
X245477Y63523D01*
X245502Y63548D01*
X245531Y63581D01*
X245568Y63618D01*
X245610Y63656D01*
X245660Y63702D01*
X245714Y63747D01*
X245776Y63793D01*
X245843Y63839D01*
X245918Y63880D01*
X245997Y63926D01*
X246084Y63964D01*
X246176Y64001D01*
X246271Y64034D01*
X246388Y63535D01*
X246384D01*
X246371Y63527D01*
X246346Y63523D01*
X246317Y63510D01*
X246284Y63498D01*
X246246Y63477D01*
X246155Y63435D01*
X246055Y63381D01*
X245951Y63310D01*
X245855Y63236D01*
X245814Y63190D01*
X245776Y63144D01*
X245772Y63140D01*
X245768Y63132D01*
X245760Y63119D01*
X245747Y63098D01*
X245730Y63073D01*
X245714Y63044D01*
X245697Y63011D01*
X245680Y62969D01*
X245664Y62924D01*
X245647Y62878D01*
X245614Y62770D01*
X245593Y62645D01*
X245585Y62578D01*
Y62466D01*
X245589Y62433D01*
X245593Y62395D01*
X245597Y62350D01*
X245602Y62300D01*
X245610Y62250D01*
X245639Y62129D01*
X245676Y62004D01*
X245701Y61942D01*
X245730Y61879D01*
X245764Y61821D01*
X245801Y61763D01*
X245805Y61759D01*
X245810Y61751D01*
X245822Y61734D01*
X245839Y61713D01*
X245859Y61692D01*
X245888Y61663D01*
X245918Y61634D01*
X245951Y61601D01*
X245992Y61567D01*
X246034Y61530D01*
X246130Y61463D01*
X246242Y61401D01*
X246371Y61347D01*
X246375D01*
X246388Y61343D01*
X246409Y61335D01*
X246433Y61330D01*
X246467Y61322D01*
X246504Y61310D01*
X246550Y61301D01*
X246596Y61289D01*
X246650Y61276D01*
X246708Y61268D01*
X246833Y61247D01*
X246966Y61235D01*
X247107Y61230D01*
X247112D01*
X247128D01*
X247153D01*
X247191Y61235D01*
X247232D01*
X247282Y61239D01*
X247336Y61243D01*
X247399Y61247D01*
X247465Y61256D01*
X247532Y61264D01*
X247677Y61289D01*
X247823Y61326D01*
X247964Y61372D01*
X247969D01*
X247981Y61380D01*
X247998Y61389D01*
X248023Y61397D01*
X248056Y61414D01*
X248089Y61434D01*
X248168Y61480D01*
X248260Y61542D01*
X248347Y61617D01*
X248434Y61709D01*
X248472Y61759D01*
X248509Y61813D01*
Y61817D01*
X248518Y61825D01*
X248526Y61842D01*
X248538Y61867D01*
X248551Y61896D01*
X248568Y61929D01*
X248580Y61967D01*
X248597Y62008D01*
X248630Y62104D01*
X248659Y62216D01*
X248680Y62337D01*
X248684Y62400D01*
X248688Y62466D01*
Y62508D01*
X248684Y62537D01*
X248680Y62574D01*
X248676Y62616D01*
X248667Y62666D01*
X248659Y62716D01*
X248630Y62832D01*
X248609Y62890D01*
X248584Y62953D01*
X248555Y63015D01*
X248522Y63073D01*
X248484Y63132D01*
X248443Y63190D01*
X248439Y63194D01*
X248430Y63202D01*
X248418Y63219D01*
X248397Y63240D01*
X248372Y63261D01*
X248339Y63290D01*
X248301Y63319D01*
X248260Y63352D01*
X248210Y63385D01*
X248156Y63419D01*
X248097Y63452D01*
X248031Y63485D01*
X247960Y63514D01*
X247881Y63543D01*
X247798Y63573D01*
X247711Y63593D01*
X247840Y64101D01*
X247848D01*
X247869Y64093D01*
D02*
G37*
G36*
X110127Y107241D02*
X110177Y107237D01*
X110235Y107229D01*
X110298Y107220D01*
X110368Y107208D01*
X110443Y107191D01*
X110522Y107175D01*
X110601Y107150D01*
X110685Y107121D01*
X110768Y107087D01*
X110847Y107046D01*
X110926Y107004D01*
X111001Y106950D01*
X111005Y106946D01*
X111017Y106938D01*
X111038Y106921D01*
X111063Y106896D01*
X111096Y106867D01*
X111134Y106829D01*
X111171Y106788D01*
X111217Y106738D01*
X111263Y106684D01*
X111309Y106621D01*
X111354Y106555D01*
X111396Y106480D01*
X111442Y106401D01*
X111479Y106314D01*
X111516Y106222D01*
X111550Y106126D01*
X111051Y106010D01*
Y106014D01*
X111042Y106027D01*
X111038Y106052D01*
X111026Y106081D01*
X111013Y106114D01*
X110992Y106151D01*
X110951Y106243D01*
X110897Y106343D01*
X110826Y106447D01*
X110751Y106542D01*
X110705Y106584D01*
X110660Y106621D01*
X110655Y106626D01*
X110647Y106630D01*
X110635Y106638D01*
X110614Y106651D01*
X110589Y106667D01*
X110560Y106684D01*
X110526Y106701D01*
X110485Y106717D01*
X110439Y106734D01*
X110393Y106750D01*
X110285Y106784D01*
X110160Y106805D01*
X110094Y106813D01*
X109982D01*
X109948Y106809D01*
X109911Y106805D01*
X109865Y106800D01*
X109815Y106796D01*
X109765Y106788D01*
X109644Y106759D01*
X109520Y106721D01*
X109457Y106696D01*
X109395Y106667D01*
X109337Y106634D01*
X109278Y106597D01*
X109274Y106592D01*
X109266Y106588D01*
X109249Y106576D01*
X109229Y106559D01*
X109208Y106538D01*
X109179Y106509D01*
X109150Y106480D01*
X109116Y106447D01*
X109083Y106405D01*
X109046Y106363D01*
X108979Y106268D01*
X108916Y106156D01*
X108862Y106027D01*
Y106022D01*
X108858Y106010D01*
X108850Y105989D01*
X108846Y105964D01*
X108837Y105931D01*
X108825Y105893D01*
X108817Y105848D01*
X108804Y105802D01*
X108792Y105748D01*
X108783Y105690D01*
X108763Y105565D01*
X108750Y105432D01*
X108746Y105290D01*
Y105286D01*
Y105269D01*
Y105245D01*
X108750Y105207D01*
Y105165D01*
X108754Y105115D01*
X108758Y105061D01*
X108763Y104999D01*
X108771Y104932D01*
X108779Y104866D01*
X108804Y104720D01*
X108842Y104575D01*
X108887Y104433D01*
Y104429D01*
X108896Y104417D01*
X108904Y104400D01*
X108912Y104375D01*
X108929Y104342D01*
X108950Y104308D01*
X108995Y104229D01*
X109058Y104138D01*
X109133Y104051D01*
X109224Y103963D01*
X109274Y103926D01*
X109328Y103888D01*
X109333D01*
X109341Y103880D01*
X109358Y103872D01*
X109382Y103859D01*
X109412Y103847D01*
X109445Y103830D01*
X109482Y103818D01*
X109524Y103801D01*
X109619Y103768D01*
X109732Y103739D01*
X109853Y103718D01*
X109915Y103714D01*
X109982Y103709D01*
X110023D01*
X110052Y103714D01*
X110090Y103718D01*
X110131Y103722D01*
X110181Y103730D01*
X110231Y103739D01*
X110347Y103768D01*
X110406Y103788D01*
X110468Y103813D01*
X110531Y103843D01*
X110589Y103876D01*
X110647Y103913D01*
X110705Y103955D01*
X110710Y103959D01*
X110718Y103967D01*
X110734Y103980D01*
X110755Y104001D01*
X110776Y104026D01*
X110805Y104059D01*
X110834Y104096D01*
X110868Y104138D01*
X110901Y104188D01*
X110934Y104242D01*
X110967Y104300D01*
X111001Y104367D01*
X111030Y104437D01*
X111059Y104516D01*
X111088Y104600D01*
X111109Y104687D01*
X111616Y104558D01*
Y104550D01*
X111608Y104529D01*
X111600Y104500D01*
X111583Y104454D01*
X111566Y104404D01*
X111541Y104342D01*
X111516Y104275D01*
X111483Y104204D01*
X111446Y104125D01*
X111404Y104051D01*
X111358Y103967D01*
X111304Y103888D01*
X111246Y103813D01*
X111184Y103739D01*
X111113Y103668D01*
X111038Y103601D01*
X111034Y103597D01*
X111017Y103589D01*
X110996Y103572D01*
X110963Y103551D01*
X110926Y103526D01*
X110876Y103497D01*
X110822Y103468D01*
X110755Y103439D01*
X110685Y103410D01*
X110610Y103381D01*
X110526Y103352D01*
X110435Y103327D01*
X110339Y103306D01*
X110239Y103289D01*
X110135Y103281D01*
X110023Y103277D01*
X109965D01*
X109919Y103281D01*
X109869Y103285D01*
X109807Y103289D01*
X109740Y103298D01*
X109665Y103310D01*
X109586Y103323D01*
X109503Y103339D01*
X109420Y103360D01*
X109337Y103381D01*
X109249Y103410D01*
X109166Y103443D01*
X109087Y103481D01*
X109012Y103526D01*
X109008Y103531D01*
X108995Y103539D01*
X108975Y103551D01*
X108950Y103572D01*
X108916Y103601D01*
X108879Y103630D01*
X108837Y103668D01*
X108792Y103714D01*
X108746Y103763D01*
X108696Y103818D01*
X108650Y103876D01*
X108600Y103942D01*
X108550Y104013D01*
X108505Y104088D01*
X108463Y104171D01*
X108422Y104259D01*
X108417Y104263D01*
X108413Y104279D01*
X108405Y104308D01*
X108392Y104342D01*
X108376Y104387D01*
X108359Y104437D01*
X108342Y104500D01*
X108322Y104566D01*
X108305Y104641D01*
X108284Y104720D01*
X108267Y104804D01*
X108255Y104895D01*
X108230Y105086D01*
X108226Y105186D01*
X108222Y105286D01*
Y105294D01*
Y105311D01*
Y105344D01*
X108226Y105386D01*
X108230Y105440D01*
X108234Y105502D01*
X108243Y105569D01*
X108251Y105644D01*
X108263Y105723D01*
X108276Y105806D01*
X108317Y105985D01*
X108347Y106072D01*
X108376Y106160D01*
X108409Y106251D01*
X108451Y106334D01*
X108455Y106339D01*
X108463Y106355D01*
X108475Y106376D01*
X108492Y106409D01*
X108517Y106447D01*
X108546Y106488D01*
X108580Y106534D01*
X108617Y106588D01*
X108663Y106638D01*
X108709Y106696D01*
X108763Y106750D01*
X108821Y106809D01*
X108883Y106863D01*
X108950Y106917D01*
X109025Y106967D01*
X109099Y107012D01*
X109104Y107017D01*
X109120Y107021D01*
X109141Y107033D01*
X109174Y107050D01*
X109212Y107067D01*
X109262Y107087D01*
X109316Y107108D01*
X109374Y107129D01*
X109441Y107150D01*
X109516Y107171D01*
X109590Y107191D01*
X109674Y107208D01*
X109844Y107237D01*
X109936Y107241D01*
X110031Y107245D01*
X110085D01*
X110127Y107241D01*
D02*
G37*
G36*
X101574Y104562D02*
Y104558D01*
Y104541D01*
Y104516D01*
Y104483D01*
X101570Y104442D01*
Y104396D01*
X101566Y104342D01*
X101558Y104288D01*
X101545Y104167D01*
X101524Y104042D01*
X101495Y103922D01*
X101474Y103867D01*
X101453Y103813D01*
Y103809D01*
X101449Y103801D01*
X101441Y103788D01*
X101433Y103772D01*
X101403Y103722D01*
X101362Y103664D01*
X101312Y103601D01*
X101250Y103535D01*
X101171Y103472D01*
X101083Y103414D01*
X101079D01*
X101071Y103410D01*
X101058Y103402D01*
X101038Y103393D01*
X101017Y103381D01*
X100988Y103373D01*
X100954Y103360D01*
X100917Y103348D01*
X100830Y103318D01*
X100730Y103298D01*
X100617Y103281D01*
X100493Y103277D01*
X100443D01*
X100409Y103281D01*
X100368Y103285D01*
X100318Y103293D01*
X100264Y103302D01*
X100206Y103314D01*
X100143Y103327D01*
X100081Y103348D01*
X100014Y103368D01*
X99952Y103397D01*
X99885Y103431D01*
X99827Y103468D01*
X99769Y103514D01*
X99715Y103564D01*
X99710Y103568D01*
X99702Y103576D01*
X99690Y103593D01*
X99673Y103618D01*
X99652Y103647D01*
X99631Y103684D01*
X99606Y103730D01*
X99581Y103780D01*
X99561Y103838D01*
X99536Y103901D01*
X99515Y103972D01*
X99494Y104051D01*
X99482Y104134D01*
X99469Y104225D01*
X99461Y104321D01*
Y104425D01*
X99918Y104491D01*
Y104487D01*
Y104471D01*
X99923Y104450D01*
Y104421D01*
X99927Y104383D01*
X99931Y104342D01*
X99943Y104250D01*
X99964Y104150D01*
X99993Y104051D01*
X100010Y104005D01*
X100031Y103959D01*
X100056Y103922D01*
X100081Y103888D01*
X100089Y103880D01*
X100110Y103863D01*
X100143Y103838D01*
X100189Y103809D01*
X100247Y103780D01*
X100318Y103755D01*
X100397Y103739D01*
X100488Y103730D01*
X100522D01*
X100555Y103734D01*
X100601Y103743D01*
X100655Y103751D01*
X100709Y103768D01*
X100763Y103788D01*
X100817Y103818D01*
X100825Y103822D01*
X100842Y103834D01*
X100863Y103855D01*
X100896Y103880D01*
X100925Y103913D01*
X100958Y103955D01*
X100988Y104001D01*
X101013Y104055D01*
X101017Y104063D01*
X101021Y104084D01*
X101029Y104121D01*
X101042Y104171D01*
X101050Y104238D01*
X101058Y104321D01*
X101062Y104417D01*
X101067Y104475D01*
Y104533D01*
Y107179D01*
X101574D01*
Y104562D01*
D02*
G37*
G36*
X103575Y107187D02*
X103621Y107183D01*
X103675Y107175D01*
X103737Y107166D01*
X103800Y107154D01*
X103870Y107137D01*
X103941Y107116D01*
X104016Y107091D01*
X104087Y107062D01*
X104162Y107025D01*
X104232Y106983D01*
X104299Y106938D01*
X104361Y106884D01*
X104366Y106879D01*
X104374Y106871D01*
X104390Y106850D01*
X104411Y106829D01*
X104436Y106800D01*
X104465Y106763D01*
X104494Y106721D01*
X104524Y106671D01*
X104553Y106621D01*
X104582Y106563D01*
X104611Y106501D01*
X104636Y106434D01*
X104657Y106359D01*
X104673Y106284D01*
X104682Y106205D01*
X104686Y106122D01*
Y106118D01*
Y106114D01*
Y106101D01*
Y106085D01*
X104682Y106039D01*
X104673Y105981D01*
X104661Y105910D01*
X104644Y105835D01*
X104623Y105752D01*
X104590Y105669D01*
Y105665D01*
X104586Y105660D01*
X104582Y105648D01*
X104574Y105631D01*
X104549Y105586D01*
X104515Y105527D01*
X104470Y105457D01*
X104415Y105378D01*
X104353Y105294D01*
X104274Y105203D01*
X104270Y105199D01*
X104266Y105190D01*
X104249Y105178D01*
X104232Y105157D01*
X104207Y105132D01*
X104178Y105103D01*
X104145Y105066D01*
X104103Y105028D01*
X104053Y104982D01*
X103999Y104932D01*
X103941Y104874D01*
X103875Y104816D01*
X103804Y104749D01*
X103725Y104683D01*
X103638Y104608D01*
X103546Y104529D01*
X103542Y104525D01*
X103529Y104512D01*
X103504Y104496D01*
X103479Y104471D01*
X103442Y104442D01*
X103404Y104408D01*
X103317Y104333D01*
X103226Y104254D01*
X103138Y104171D01*
X103097Y104134D01*
X103059Y104101D01*
X103026Y104067D01*
X103001Y104042D01*
X102997Y104038D01*
X102980Y104021D01*
X102959Y103997D01*
X102930Y103963D01*
X102897Y103926D01*
X102864Y103884D01*
X102797Y103793D01*
X104690D01*
Y103339D01*
X102148D01*
Y103348D01*
Y103368D01*
Y103402D01*
X102152Y103443D01*
X102156Y103493D01*
X102169Y103547D01*
X102181Y103605D01*
X102202Y103664D01*
Y103668D01*
X102206Y103676D01*
X102211Y103689D01*
X102219Y103709D01*
X102231Y103730D01*
X102244Y103759D01*
X102277Y103826D01*
X102319Y103905D01*
X102373Y103992D01*
X102435Y104084D01*
X102510Y104175D01*
X102514Y104180D01*
X102518Y104188D01*
X102531Y104200D01*
X102552Y104221D01*
X102573Y104242D01*
X102602Y104271D01*
X102631Y104304D01*
X102668Y104342D01*
X102710Y104383D01*
X102755Y104425D01*
X102805Y104475D01*
X102864Y104525D01*
X102922Y104579D01*
X102989Y104633D01*
X103055Y104691D01*
X103130Y104754D01*
X103138Y104758D01*
X103159Y104779D01*
X103188Y104804D01*
X103230Y104841D01*
X103280Y104883D01*
X103338Y104932D01*
X103404Y104987D01*
X103471Y105049D01*
X103612Y105178D01*
X103750Y105315D01*
X103816Y105382D01*
X103879Y105448D01*
X103933Y105511D01*
X103979Y105569D01*
X103983Y105573D01*
X103987Y105581D01*
X103999Y105598D01*
X104012Y105619D01*
X104033Y105648D01*
X104049Y105677D01*
X104091Y105752D01*
X104132Y105839D01*
X104170Y105935D01*
X104195Y106035D01*
X104199Y106085D01*
X104203Y106135D01*
Y106139D01*
Y106147D01*
Y106164D01*
X104199Y106181D01*
Y106205D01*
X104191Y106235D01*
X104178Y106297D01*
X104153Y106372D01*
X104116Y106451D01*
X104095Y106492D01*
X104066Y106530D01*
X104037Y106567D01*
X103999Y106605D01*
X103995Y106609D01*
X103991Y106613D01*
X103979Y106621D01*
X103962Y106634D01*
X103941Y106651D01*
X103916Y106667D01*
X103858Y106705D01*
X103779Y106738D01*
X103691Y106771D01*
X103587Y106792D01*
X103529Y106800D01*
X103438D01*
X103413Y106796D01*
X103384D01*
X103350Y106788D01*
X103276Y106775D01*
X103188Y106750D01*
X103097Y106713D01*
X103051Y106688D01*
X103005Y106663D01*
X102963Y106630D01*
X102922Y106592D01*
X102918Y106588D01*
X102914Y106584D01*
X102905Y106571D01*
X102889Y106555D01*
X102876Y106534D01*
X102859Y106509D01*
X102839Y106480D01*
X102822Y106447D01*
X102801Y106409D01*
X102785Y106368D01*
X102751Y106268D01*
X102726Y106160D01*
X102722Y106097D01*
X102718Y106031D01*
X102235Y106081D01*
Y106089D01*
X102240Y106106D01*
X102244Y106131D01*
X102248Y106168D01*
X102256Y106214D01*
X102269Y106268D01*
X102281Y106326D01*
X102302Y106388D01*
X102323Y106451D01*
X102348Y106522D01*
X102381Y106588D01*
X102414Y106655D01*
X102456Y106725D01*
X102502Y106788D01*
X102552Y106850D01*
X102610Y106904D01*
X102614Y106909D01*
X102627Y106917D01*
X102643Y106929D01*
X102668Y106950D01*
X102701Y106971D01*
X102743Y106996D01*
X102789Y107021D01*
X102843Y107050D01*
X102901Y107075D01*
X102968Y107100D01*
X103038Y107125D01*
X103118Y107146D01*
X103201Y107166D01*
X103288Y107179D01*
X103384Y107187D01*
X103483Y107191D01*
X103538D01*
X103575Y107187D01*
D02*
G37*
G36*
X108014Y102274D02*
X104890D01*
Y102615D01*
X108014D01*
Y102274D01*
D02*
G37*
G36*
X292814Y106241D02*
X292864Y106237D01*
X292922Y106229D01*
X292984Y106220D01*
X293055Y106208D01*
X293130Y106191D01*
X293209Y106175D01*
X293288Y106150D01*
X293371Y106121D01*
X293454Y106087D01*
X293533Y106046D01*
X293612Y106004D01*
X293687Y105950D01*
X293691Y105946D01*
X293704Y105938D01*
X293725Y105921D01*
X293750Y105896D01*
X293783Y105867D01*
X293820Y105829D01*
X293858Y105788D01*
X293904Y105738D01*
X293949Y105684D01*
X293995Y105621D01*
X294041Y105555D01*
X294082Y105480D01*
X294128Y105401D01*
X294166Y105314D01*
X294203Y105222D01*
X294236Y105126D01*
X293737Y105010D01*
Y105014D01*
X293729Y105027D01*
X293725Y105052D01*
X293712Y105081D01*
X293700Y105114D01*
X293679Y105151D01*
X293637Y105243D01*
X293583Y105343D01*
X293513Y105447D01*
X293438Y105542D01*
X293392Y105584D01*
X293346Y105621D01*
X293342Y105626D01*
X293334Y105630D01*
X293321Y105638D01*
X293300Y105651D01*
X293275Y105667D01*
X293246Y105684D01*
X293213Y105701D01*
X293171Y105717D01*
X293126Y105734D01*
X293080Y105750D01*
X292972Y105784D01*
X292847Y105805D01*
X292780Y105813D01*
X292668D01*
X292635Y105809D01*
X292597Y105805D01*
X292552Y105800D01*
X292502Y105796D01*
X292452Y105788D01*
X292331Y105759D01*
X292206Y105721D01*
X292144Y105696D01*
X292081Y105667D01*
X292023Y105634D01*
X291965Y105596D01*
X291961Y105592D01*
X291952Y105588D01*
X291936Y105576D01*
X291915Y105559D01*
X291894Y105538D01*
X291865Y105509D01*
X291836Y105480D01*
X291803Y105447D01*
X291770Y105405D01*
X291732Y105364D01*
X291666Y105268D01*
X291603Y105156D01*
X291549Y105027D01*
Y105022D01*
X291545Y105010D01*
X291536Y104989D01*
X291532Y104964D01*
X291524Y104931D01*
X291512Y104893D01*
X291503Y104848D01*
X291491Y104802D01*
X291478Y104748D01*
X291470Y104690D01*
X291449Y104565D01*
X291437Y104432D01*
X291432Y104290D01*
Y104286D01*
Y104269D01*
Y104244D01*
X291437Y104207D01*
Y104165D01*
X291441Y104115D01*
X291445Y104061D01*
X291449Y103999D01*
X291458Y103932D01*
X291466Y103866D01*
X291491Y103720D01*
X291528Y103575D01*
X291574Y103433D01*
Y103429D01*
X291582Y103417D01*
X291591Y103400D01*
X291599Y103375D01*
X291616Y103342D01*
X291636Y103308D01*
X291682Y103229D01*
X291744Y103138D01*
X291819Y103051D01*
X291911Y102963D01*
X291961Y102926D01*
X292015Y102888D01*
X292019D01*
X292027Y102880D01*
X292044Y102872D01*
X292069Y102859D01*
X292098Y102847D01*
X292131Y102830D01*
X292169Y102818D01*
X292210Y102801D01*
X292306Y102768D01*
X292418Y102739D01*
X292539Y102718D01*
X292601Y102714D01*
X292668Y102709D01*
X292710D01*
X292739Y102714D01*
X292776Y102718D01*
X292818Y102722D01*
X292868Y102730D01*
X292918Y102739D01*
X293034Y102768D01*
X293092Y102788D01*
X293155Y102813D01*
X293217Y102843D01*
X293275Y102876D01*
X293334Y102913D01*
X293392Y102955D01*
X293396Y102959D01*
X293404Y102967D01*
X293421Y102980D01*
X293442Y103001D01*
X293463Y103026D01*
X293492Y103059D01*
X293521Y103096D01*
X293554Y103138D01*
X293587Y103188D01*
X293621Y103242D01*
X293654Y103300D01*
X293687Y103367D01*
X293716Y103437D01*
X293745Y103516D01*
X293775Y103600D01*
X293795Y103687D01*
X294303Y103558D01*
Y103550D01*
X294295Y103529D01*
X294286Y103500D01*
X294270Y103454D01*
X294253Y103404D01*
X294228Y103342D01*
X294203Y103275D01*
X294170Y103205D01*
X294132Y103125D01*
X294091Y103051D01*
X294045Y102967D01*
X293991Y102888D01*
X293933Y102813D01*
X293870Y102739D01*
X293800Y102668D01*
X293725Y102601D01*
X293721Y102597D01*
X293704Y102589D01*
X293683Y102572D01*
X293650Y102551D01*
X293612Y102526D01*
X293562Y102497D01*
X293508Y102468D01*
X293442Y102439D01*
X293371Y102410D01*
X293296Y102381D01*
X293213Y102352D01*
X293122Y102327D01*
X293026Y102306D01*
X292926Y102289D01*
X292822Y102281D01*
X292710Y102277D01*
X292651D01*
X292606Y102281D01*
X292556Y102285D01*
X292493Y102289D01*
X292427Y102298D01*
X292352Y102310D01*
X292273Y102323D01*
X292190Y102339D01*
X292106Y102360D01*
X292023Y102381D01*
X291936Y102410D01*
X291853Y102443D01*
X291774Y102481D01*
X291699Y102526D01*
X291695Y102531D01*
X291682Y102539D01*
X291661Y102551D01*
X291636Y102572D01*
X291603Y102601D01*
X291566Y102630D01*
X291524Y102668D01*
X291478Y102714D01*
X291432Y102763D01*
X291383Y102818D01*
X291337Y102876D01*
X291287Y102942D01*
X291237Y103013D01*
X291191Y103088D01*
X291150Y103171D01*
X291108Y103259D01*
X291104Y103263D01*
X291100Y103279D01*
X291091Y103308D01*
X291079Y103342D01*
X291062Y103387D01*
X291046Y103437D01*
X291029Y103500D01*
X291008Y103566D01*
X290992Y103641D01*
X290971Y103720D01*
X290954Y103804D01*
X290942Y103895D01*
X290917Y104086D01*
X290913Y104186D01*
X290908Y104286D01*
Y104294D01*
Y104311D01*
Y104344D01*
X290913Y104386D01*
X290917Y104440D01*
X290921Y104502D01*
X290929Y104569D01*
X290937Y104644D01*
X290950Y104723D01*
X290962Y104806D01*
X291004Y104985D01*
X291033Y105072D01*
X291062Y105160D01*
X291096Y105251D01*
X291137Y105334D01*
X291141Y105339D01*
X291150Y105355D01*
X291162Y105376D01*
X291179Y105409D01*
X291204Y105447D01*
X291233Y105488D01*
X291266Y105534D01*
X291304Y105588D01*
X291349Y105638D01*
X291395Y105696D01*
X291449Y105750D01*
X291507Y105809D01*
X291570Y105863D01*
X291636Y105917D01*
X291711Y105967D01*
X291786Y106012D01*
X291790Y106017D01*
X291807Y106021D01*
X291828Y106033D01*
X291861Y106050D01*
X291898Y106067D01*
X291948Y106087D01*
X292002Y106108D01*
X292061Y106129D01*
X292127Y106150D01*
X292202Y106171D01*
X292277Y106191D01*
X292360Y106208D01*
X292531Y106237D01*
X292622Y106241D01*
X292718Y106245D01*
X292772D01*
X292814Y106241D01*
D02*
G37*
G36*
X284261Y103562D02*
Y103558D01*
Y103541D01*
Y103516D01*
Y103483D01*
X284257Y103442D01*
Y103396D01*
X284252Y103342D01*
X284244Y103288D01*
X284232Y103167D01*
X284211Y103042D01*
X284182Y102922D01*
X284161Y102867D01*
X284140Y102813D01*
Y102809D01*
X284136Y102801D01*
X284128Y102788D01*
X284119Y102772D01*
X284090Y102722D01*
X284049Y102664D01*
X283999Y102601D01*
X283936Y102535D01*
X283857Y102472D01*
X283770Y102414D01*
X283766D01*
X283757Y102410D01*
X283745Y102402D01*
X283724Y102393D01*
X283703Y102381D01*
X283674Y102373D01*
X283641Y102360D01*
X283603Y102348D01*
X283516Y102318D01*
X283416Y102298D01*
X283304Y102281D01*
X283179Y102277D01*
X283129D01*
X283096Y102281D01*
X283054Y102285D01*
X283004Y102293D01*
X282950Y102302D01*
X282892Y102314D01*
X282830Y102327D01*
X282767Y102348D01*
X282701Y102368D01*
X282638Y102397D01*
X282572Y102431D01*
X282513Y102468D01*
X282455Y102514D01*
X282401Y102564D01*
X282397Y102568D01*
X282389Y102576D01*
X282376Y102593D01*
X282360Y102618D01*
X282339Y102647D01*
X282318Y102684D01*
X282293Y102730D01*
X282268Y102780D01*
X282247Y102838D01*
X282222Y102901D01*
X282202Y102971D01*
X282181Y103051D01*
X282168Y103134D01*
X282156Y103225D01*
X282147Y103321D01*
Y103425D01*
X282605Y103491D01*
Y103487D01*
Y103471D01*
X282609Y103450D01*
Y103421D01*
X282613Y103383D01*
X282617Y103342D01*
X282630Y103250D01*
X282651Y103150D01*
X282680Y103051D01*
X282697Y103005D01*
X282717Y102959D01*
X282742Y102922D01*
X282767Y102888D01*
X282776Y102880D01*
X282796Y102863D01*
X282830Y102838D01*
X282875Y102809D01*
X282934Y102780D01*
X283004Y102755D01*
X283083Y102739D01*
X283175Y102730D01*
X283208D01*
X283242Y102734D01*
X283287Y102743D01*
X283341Y102751D01*
X283395Y102768D01*
X283450Y102788D01*
X283504Y102818D01*
X283512Y102822D01*
X283528Y102834D01*
X283549Y102855D01*
X283583Y102880D01*
X283612Y102913D01*
X283645Y102955D01*
X283674Y103001D01*
X283699Y103055D01*
X283703Y103063D01*
X283707Y103084D01*
X283716Y103121D01*
X283728Y103171D01*
X283736Y103238D01*
X283745Y103321D01*
X283749Y103417D01*
X283753Y103475D01*
Y103533D01*
Y106179D01*
X284261D01*
Y103562D01*
D02*
G37*
G36*
X286673Y102339D02*
X286203D01*
Y105339D01*
X286195Y105330D01*
X286174Y105309D01*
X286137Y105280D01*
X286083Y105239D01*
X286020Y105189D01*
X285941Y105135D01*
X285854Y105077D01*
X285754Y105014D01*
X285750D01*
X285742Y105006D01*
X285729Y104997D01*
X285708Y104989D01*
X285683Y104973D01*
X285654Y104960D01*
X285588Y104923D01*
X285513Y104885D01*
X285430Y104843D01*
X285342Y104806D01*
X285259Y104773D01*
Y105226D01*
X285263Y105230D01*
X285276Y105235D01*
X285297Y105247D01*
X285326Y105260D01*
X285359Y105276D01*
X285401Y105301D01*
X285446Y105326D01*
X285492Y105351D01*
X285600Y105418D01*
X285717Y105497D01*
X285837Y105580D01*
X285950Y105675D01*
X285954Y105680D01*
X285962Y105688D01*
X285979Y105701D01*
X286000Y105721D01*
X286020Y105746D01*
X286050Y105771D01*
X286112Y105842D01*
X286183Y105917D01*
X286253Y106004D01*
X286316Y106096D01*
X286370Y106191D01*
X286673D01*
Y102339D01*
D02*
G37*
G36*
X290700Y101274D02*
X287576D01*
Y101615D01*
X290700D01*
Y101274D01*
D02*
G37*
%LPC*%
G36*
X224724Y124440D02*
Y124436D01*
X224720Y124424D01*
X224715Y124403D01*
X224711Y124378D01*
X224703Y124340D01*
X224695Y124303D01*
X224682Y124257D01*
X224670Y124207D01*
X224657Y124153D01*
X224641Y124095D01*
X224603Y123970D01*
X224562Y123837D01*
X224516Y123700D01*
X224092Y122573D01*
X225402D01*
X224998Y123637D01*
Y123642D01*
X224990Y123658D01*
X224982Y123683D01*
X224969Y123721D01*
X224953Y123758D01*
X224936Y123808D01*
X224915Y123862D01*
X224894Y123920D01*
X224853Y124049D01*
X224807Y124182D01*
X224761Y124316D01*
X224724Y124440D01*
D02*
G37*
G36*
X117172Y124883D02*
X117076D01*
X117047Y124879D01*
X117005D01*
X116960Y124871D01*
X116901Y124863D01*
X116839Y124850D01*
X116772Y124834D01*
X116698Y124813D01*
X116623Y124788D01*
X116544Y124755D01*
X116464Y124717D01*
X116385Y124676D01*
X116311Y124621D01*
X116232Y124563D01*
X116161Y124492D01*
X116157Y124488D01*
X116144Y124476D01*
X116128Y124451D01*
X116103Y124422D01*
X116074Y124380D01*
X116044Y124330D01*
X116007Y124272D01*
X115974Y124201D01*
X115940Y124126D01*
X115907Y124039D01*
X115874Y123943D01*
X115845Y123839D01*
X115820Y123727D01*
X115803Y123602D01*
X115791Y123473D01*
X115786Y123332D01*
Y123324D01*
Y123299D01*
X115791Y123261D01*
Y123207D01*
X115799Y123145D01*
X115807Y123074D01*
X115816Y122995D01*
X115832Y122907D01*
X115853Y122816D01*
X115878Y122724D01*
X115907Y122629D01*
X115945Y122533D01*
X115986Y122437D01*
X116036Y122346D01*
X116090Y122263D01*
X116157Y122184D01*
X116161Y122179D01*
X116173Y122167D01*
X116194Y122146D01*
X116223Y122121D01*
X116261Y122092D01*
X116302Y122059D01*
X116356Y122021D01*
X116415Y121984D01*
X116477Y121947D01*
X116552Y121909D01*
X116627Y121876D01*
X116710Y121847D01*
X116802Y121822D01*
X116897Y121801D01*
X116997Y121788D01*
X117101Y121784D01*
X117147D01*
X117172Y121788D01*
X117201D01*
X117267Y121797D01*
X117347Y121809D01*
X117434Y121826D01*
X117525Y121851D01*
X117617Y121884D01*
X117613D01*
X117604Y121892D01*
X117592Y121901D01*
X117575Y121909D01*
X117554Y121922D01*
X117525Y121938D01*
X117463Y121971D01*
X117388Y122005D01*
X117305Y122042D01*
X117209Y122075D01*
X117113Y122105D01*
X117234Y122475D01*
X117238D01*
X117255Y122471D01*
X117276Y122462D01*
X117309Y122450D01*
X117347Y122437D01*
X117388Y122421D01*
X117438Y122404D01*
X117492Y122383D01*
X117604Y122329D01*
X117729Y122267D01*
X117850Y122192D01*
X117962Y122109D01*
X117966Y122113D01*
X117983Y122129D01*
X118004Y122150D01*
X118033Y122184D01*
X118066Y122229D01*
X118104Y122279D01*
X118145Y122342D01*
X118187Y122417D01*
X118228Y122496D01*
X118270Y122587D01*
X118307Y122687D01*
X118341Y122799D01*
X118370Y122920D01*
X118391Y123049D01*
X118407Y123186D01*
X118411Y123336D01*
Y123340D01*
Y123357D01*
Y123382D01*
X118407Y123415D01*
Y123457D01*
X118403Y123502D01*
X118399Y123556D01*
X118391Y123610D01*
X118374Y123740D01*
X118345Y123877D01*
X118303Y124014D01*
X118249Y124147D01*
Y124151D01*
X118241Y124164D01*
X118233Y124180D01*
X118220Y124205D01*
X118203Y124234D01*
X118183Y124268D01*
X118133Y124347D01*
X118066Y124434D01*
X117987Y124522D01*
X117896Y124609D01*
X117787Y124688D01*
X117783Y124692D01*
X117775Y124696D01*
X117758Y124705D01*
X117733Y124717D01*
X117704Y124734D01*
X117671Y124750D01*
X117633Y124767D01*
X117588Y124788D01*
X117538Y124804D01*
X117488Y124821D01*
X117371Y124854D01*
X117243Y124875D01*
X117172Y124883D01*
D02*
G37*
%LPD*%
D10*
X262608Y85236D02*
G03*
X262608Y85236I-492J0D01*
G01*
X125591Y73819D02*
G03*
X125591Y73819I-492J0D01*
G01*
D11*
X143465Y111024D02*
G03*
X143465Y111024I-10000J0D01*
G01*
D12*
X93381Y87358D02*
G03*
X93381Y87358I-394J0D01*
G01*
X301906Y69642D02*
G03*
X301906Y69642I-394J0D01*
G01*
X214469Y64567D02*
Y113779D01*
X219291Y117028D02*
X226181D01*
Y113976D02*
Y117028D01*
Y113976D02*
X227658D01*
Y115748D01*
X229626D01*
Y62599D02*
Y115748D01*
X227658Y62598D02*
X229626D01*
X227658D02*
Y64370D01*
X226181D02*
X227658D01*
X226181Y61319D02*
Y64370D01*
X219291Y61319D02*
X226181D01*
X235803Y109425D02*
X246874D01*
X235803Y116559D02*
X246874D01*
X259425Y115378D02*
X270496D01*
X259425Y108244D02*
X270496D01*
X261713Y83366D02*
X263484D01*
X261713Y75689D02*
X263484D01*
Y82972D02*
Y83366D01*
X254626D02*
X256398D01*
X254626Y75689D02*
X256398D01*
X263484D02*
Y76083D01*
X254626Y82972D02*
Y83366D01*
Y75689D02*
Y76083D01*
X126575Y71457D02*
X156102D01*
X126575Y31693D02*
Y37933D01*
Y45217D02*
Y47933D01*
Y55216D02*
Y57933D01*
Y65216D02*
Y71457D01*
Y31693D02*
X156102D01*
Y37933D01*
Y45217D02*
Y47933D01*
Y55216D02*
Y57933D01*
Y65216D02*
Y71457D01*
X248681Y79134D02*
Y83071D01*
X253681Y79134D02*
Y83071D01*
D13*
X251825Y102963D02*
X252675D01*
X251825Y107863D02*
X252675D01*
X231102Y66822D02*
Y69488D01*
X233768Y66822D01*
X234435D01*
X235101Y67489D01*
Y68822D01*
X234435Y69488D01*
X231102Y63490D02*
X235101D01*
X233102Y65490D01*
Y62824D01*
X231102Y112402D02*
Y111069D01*
Y111735D01*
X235101D01*
X234435Y112402D01*
D14*
X95547Y95823D02*
X116806D01*
X95547Y89110D02*
Y95823D01*
X116806Y89110D02*
Y95823D01*
X95547Y61177D02*
X116806D01*
Y67890D01*
X95547Y61177D02*
Y67890D01*
X277694Y61177D02*
X298954D01*
Y67890D01*
X277694Y61177D02*
Y67890D01*
Y95823D02*
X298954D01*
X277694Y89110D02*
Y95823D01*
X298954Y89110D02*
Y95823D01*
M02*
