M48
;Layer_Color=9474304
;FILE_FORMAT=2:5
INCH,LZ
;TYPE=PLATED
T1F00S00C0.00800
T2F00S00C0.01500
T3F00S00C0.02600
%
T01
X0103937Y0069642
X0105804Y0071758
X0108268Y0073622
X0107874Y0077953
X0108262Y008021
X0108698Y0082367
X0108648Y0084578
X0104724Y0085433
Y0087795
X0104507Y008054
X0103937Y0077953
X0103038Y0075645
X0118744Y0077646
X0119685Y0087402
X0131102Y0094095
X0098868Y0089473
X0222835Y0084252
X0223228Y0094488
X023189Y0096063
X0232677Y0086221
X0247198Y0082801
X024761Y0080596
X0245669Y0071653
X0240158Y0061024
X0216817Y0065409
X0223228Y0105905
X0231724Y0109656
X0249606Y0110236
X024685Y0105905
X0247661Y0103265
X0257874Y0104331
X0256711Y0111202
X0277165Y0111811
Y0092126
X028043Y0089901
X0288189Y0088583
X0290945Y0083465
X0291519Y0079484
X0291366Y0077289
X0287795Y0077559
X0285433
X0285494Y0079758
X028559Y0081956
X028546Y0073813
X0285039Y0071653
X0291339Y0072441
X0295607Y0067078
X0281327Y0067648
X02748Y0075547
X0274016Y0082677
X027126Y0084646
X0265523Y0079008
X0264173Y0088976
X029626Y009019
T02
X0133858Y004252
X0135772Y0083071
T03
X0133465Y0101024
X0143465Y0111024
X0123465
M30
