G04*
G04 #@! TF.GenerationSoftware,Altium Limited,Altium Designer,21.6.1 (37)*
G04*
G04 Layer_Color=8421504*
%FSLAX25Y25*%
%MOIN*%
G70*
G04*
G04 #@! TF.SameCoordinates,094AEC64-6FA2-4D50-AE7A-0E8442ED52D6*
G04*
G04*
G04 #@! TF.FilePolarity,Positive*
G04*
G01*
G75*
%ADD13R,0.04724X0.01968*%
%ADD14R,0.05315X0.00984*%
%ADD15R,0.02362X0.02165*%
D13*
X288583Y62008D02*
D03*
Y95472D02*
D03*
X294094Y62008D02*
D03*
Y95472D02*
D03*
X99606Y62008D02*
D03*
Y95472D02*
D03*
X105118Y62008D02*
D03*
Y95472D02*
D03*
D14*
X297146Y71240D02*
D03*
Y72815D02*
D03*
Y74390D02*
D03*
Y75965D02*
D03*
Y77539D02*
D03*
Y79114D02*
D03*
Y80689D02*
D03*
Y82264D02*
D03*
Y83839D02*
D03*
Y85413D02*
D03*
X285531Y72067D02*
D03*
Y73642D02*
D03*
Y75217D02*
D03*
Y76791D02*
D03*
Y78366D02*
D03*
Y79941D02*
D03*
Y81516D02*
D03*
Y83091D02*
D03*
Y84665D02*
D03*
Y86240D02*
D03*
X108169Y71240D02*
D03*
Y72815D02*
D03*
Y74390D02*
D03*
Y75965D02*
D03*
Y77539D02*
D03*
Y79114D02*
D03*
Y80689D02*
D03*
Y82264D02*
D03*
Y83839D02*
D03*
Y85413D02*
D03*
X96555Y72067D02*
D03*
Y73642D02*
D03*
Y75217D02*
D03*
Y76791D02*
D03*
Y78366D02*
D03*
Y79941D02*
D03*
Y81516D02*
D03*
Y83091D02*
D03*
Y84665D02*
D03*
Y86240D02*
D03*
D15*
X115827Y74500D02*
D03*
X119173D02*
D03*
X115827Y65500D02*
D03*
X119173D02*
D03*
X115827Y70000D02*
D03*
X119173D02*
D03*
M02*
