G04*
G04 #@! TF.GenerationSoftware,Altium Limited,Altium Designer,21.6.1 (37)*
G04*
G04 Layer_Color=128*
%FSLAX25Y25*%
%MOIN*%
G70*
G04*
G04 #@! TF.SameCoordinates,094AEC64-6FA2-4D50-AE7A-0E8442ED52D6*
G04*
G04*
G04 #@! TF.FilePolarity,Positive*
G04*
G01*
G75*
%ADD27R,0.04331X0.00984*%
%ADD28R,0.04331X0.01575*%
D27*
X288583Y71653D02*
D03*
X294488Y73228D02*
D03*
X288583D02*
D03*
X294488Y74803D02*
D03*
X288583D02*
D03*
X294488Y76378D02*
D03*
X288583D02*
D03*
X294488Y77953D02*
D03*
X288583D02*
D03*
X294488Y79528D02*
D03*
X288583D02*
D03*
X294488Y81102D02*
D03*
X288583D02*
D03*
X294488Y82677D02*
D03*
X288583D02*
D03*
X294488Y84252D02*
D03*
X288583D02*
D03*
X294488Y85827D02*
D03*
X288583D02*
D03*
X294488Y71653D02*
D03*
X99213Y85827D02*
D03*
X105118Y71653D02*
D03*
X99213D02*
D03*
X105118Y73228D02*
D03*
X99213D02*
D03*
X105118Y74803D02*
D03*
X99213D02*
D03*
X105118Y76378D02*
D03*
X99213D02*
D03*
X105118Y77953D02*
D03*
X99213D02*
D03*
X105118Y79528D02*
D03*
X99213D02*
D03*
X105118Y81102D02*
D03*
X99213D02*
D03*
X105118Y82677D02*
D03*
X99213D02*
D03*
X105118Y84252D02*
D03*
X99213D02*
D03*
X105118Y85827D02*
D03*
D28*
X294488Y69035D02*
D03*
X288583D02*
D03*
X294488Y88445D02*
D03*
X288583D02*
D03*
X105118Y69035D02*
D03*
X99213D02*
D03*
X105118Y88445D02*
D03*
X99213D02*
D03*
M02*
