M48
;Layer_Color=9474304
;FILE_FORMAT=2:5
INCH,LZ
;TYPE=PLATED
T1F00S00C0.00800
T2F00S00C0.02800
T3F00S00C0.03543
%
T01
X0092Y00745
Y0077
Y00792
X0091935Y0081407
X0092Y00837
X0094488Y0089764
X0096457Y0088583
X0102362Y0095472
X0110079Y0085631
X0112451Y0084892
X0112604Y008269
X0111704Y0080682
X0113386Y0079264
X0113263Y0076164
X0111951Y0074398
X0113153Y0072555
X0112288Y006894
X0108283Y0068535
X0102362Y0064173
X0111546Y0077539
X0114877Y008685
X0280709Y0083858
Y0080709
X0281102Y0078347
X0280575Y0075588
X0279528Y0071653
Y0067716
X0284744Y0066501
X0291395Y0064016
X0297665Y0066883
X0301116Y0072544
X0301575Y0074803
X0301181Y0077165
X0301154Y0079558
X0301319Y0081751
X0301069Y0084626
X0298031Y0086614
X0285531Y0085832
X029127Y0098858
T02
X0248031Y0056299
Y0062598
T03
X0137795Y007874
Y008874
X0147795
Y007874
X0157795
Y008874
X0167795
Y007874
X0177795
Y008874
X0187795
Y007874
X0197795
Y008874
X0207795
Y007874
X0217795
Y008874
X0227795
Y007874
X0237795
Y008874
X0247795
Y007874
X0257795
Y008874
M30
