G04*
G04 #@! TF.GenerationSoftware,Altium Limited,Altium Designer,22.0.2 (36)*
G04*
G04 Layer_Color=8421504*
%FSLAX25Y25*%
%MOIN*%
G70*
G04*
G04 #@! TF.SameCoordinates,213A625E-E77E-4AD6-AF68-BCCAC534D08A*
G04*
G04*
G04 #@! TF.FilePolarity,Positive*
G04*
G01*
G75*
G04:AMPARAMS|DCode=10|XSize=23.62mil|YSize=49.21mil|CornerRadius=11.81mil|HoleSize=0mil|Usage=FLASHONLY|Rotation=90.000|XOffset=0mil|YOffset=0mil|HoleType=Round|Shape=RoundedRectangle|*
%AMROUNDEDRECTD10*
21,1,0.02362,0.02559,0,0,90.0*
21,1,0.00000,0.04921,0,0,90.0*
1,1,0.02362,0.01280,0.00000*
1,1,0.02362,0.01280,0.00000*
1,1,0.02362,-0.01280,0.00000*
1,1,0.02362,-0.01280,0.00000*
%
%ADD10ROUNDEDRECTD10*%
%ADD11R,0.01968X0.04724*%
%ADD12R,0.00984X0.05315*%
%ADD13R,0.02756X0.03543*%
%ADD14R,0.01843X0.01860*%
%ADD15R,0.02598X0.02441*%
%ADD16R,0.03961X0.05151*%
%ADD17R,0.02029X0.01860*%
%ADD18R,0.01772X0.01772*%
%ADD19R,0.02200X0.01000*%
%ADD20R,0.04300X0.10800*%
%ADD21R,0.02362X0.02165*%
%ADD22R,0.02047X0.02047*%
G36*
X76444Y28194D02*
X79956D01*
Y32806D01*
X76444D01*
Y28194D01*
D02*
G37*
G36*
Y33594D02*
X79956D01*
Y38206D01*
X76444D01*
Y33594D01*
D02*
G37*
D10*
X60100Y39800D02*
D03*
X68565Y43540D02*
D03*
Y36060D02*
D03*
D11*
X101400Y49812D02*
D03*
X134865D02*
D03*
X101400Y44300D02*
D03*
X134865D02*
D03*
D12*
X110632Y41249D02*
D03*
X112207D02*
D03*
X113782D02*
D03*
X115357D02*
D03*
X116931D02*
D03*
X118506D02*
D03*
X120081D02*
D03*
X121656D02*
D03*
X123231D02*
D03*
X124805D02*
D03*
X111459Y52863D02*
D03*
X113034D02*
D03*
X114609D02*
D03*
X116183D02*
D03*
X117758D02*
D03*
X119333D02*
D03*
X120908D02*
D03*
X122483D02*
D03*
X124057D02*
D03*
X125632D02*
D03*
D13*
X67053Y54900D02*
D03*
X61147D02*
D03*
X61200Y49700D02*
D03*
X67106D02*
D03*
D14*
X88324Y27650D02*
D03*
X91490D02*
D03*
X87717Y46600D02*
D03*
X90883D02*
D03*
X76117Y44400D02*
D03*
X79283D02*
D03*
D15*
X91293Y41700D02*
D03*
X87907D02*
D03*
D16*
X87041Y34800D02*
D03*
X92759D02*
D03*
D17*
X76510Y53500D02*
D03*
X79490D02*
D03*
X59310Y29400D02*
D03*
X62290D02*
D03*
X59210Y24100D02*
D03*
X62190D02*
D03*
X54790Y29200D02*
D03*
X51810D02*
D03*
D18*
X76200Y48400D02*
D03*
X79350D02*
D03*
D19*
X82050Y28278D02*
D03*
Y30246D02*
D03*
Y32215D02*
D03*
Y34185D02*
D03*
Y36154D02*
D03*
Y38122D02*
D03*
X74350D02*
D03*
Y36154D02*
D03*
Y34185D02*
D03*
Y32215D02*
D03*
Y30246D02*
D03*
Y28278D02*
D03*
D20*
X78200Y33200D02*
D03*
D21*
X76354Y24000D02*
D03*
X79700D02*
D03*
X66727Y29500D02*
D03*
X70073D02*
D03*
X66727Y25700D02*
D03*
X70073D02*
D03*
D22*
X54875Y24000D02*
D03*
X51725D02*
D03*
M02*
