*
*
G04 PADS 9.5 Build Number: 522968 generated Gerber (RS-274-X) file*
G04 PC Version=2.1*
*
%IN "EVAL-ADF7024DBxZ Combin"*%
*
%MOIN*%
*
%FSLAX35Y35*%
*
*
*
*
G04 PC Standard Apertures*
*
*
G04 Thermal Relief Aperture macro.*
%AMTER*
1,1,$1,0,0*
1,0,$1-$2,0,0*
21,0,$3,$4,0,0,45*
21,0,$3,$4,0,0,135*
%
*
*
G04 Annular Aperture macro.*
%AMANN*
1,1,$1,0,0*
1,0,$2,0,0*
%
*
*
G04 Odd Aperture macro.*
%AMODD*
1,1,$1,0,0*
1,0,$1-0.005,0,0*
%
*
*
G04 PC Custom Aperture Macros*
*
*
*
*
*
*
G04 PC Aperture Table*
*
%ADD018C,0.01*%
%ADD041C,0.04*%
%ADD045C,0.001*%
%ADD090R,0.038X0.03*%
%ADD154C,0.00591*%
%ADD166R,0.022X0.022*%
%ADD190C,0.00787*%
%ADD318R,0.17X0.1*%
%ADD321R,0.0875X0.029*%
%ADD322R,0.029X0.0875*%
*
*
*
*
G04 PC Circuitry*
G04 Layer Name EVAL-ADF7024DBxZ Combin - circuitry*
%LPD*%
*
*
G04 PC Custom Flashes*
G04 Layer Name EVAL-ADF7024DBxZ Combin - flashes*
%LPD*%
*
*
G04 PC Circuitry*
G04 Layer Name EVAL-ADF7024DBxZ Combin - circuitry*
%LPD*%
*
G54D18*
G01X1913581Y1524450D02*
X2080510D01*
Y1674450*
X1913581*
Y1524450*
G54D41*
X1928148Y1660474D03*
Y1538426D03*
X2065943D03*
G54D45*
G54D90*
X2025441Y1643741D03*
X2031641D03*
G54D154*
X1904526Y1693938D02*
Y1694438D01*
Y1693938D02*
X1905026D01*
X1904526D02*
Y1693438D01*
Y1693938D02*
X1904026D01*
X1906026D02*
X1911026D01*
X1904526Y1692438D02*
Y1689038D01*
Y1695438D02*
Y1699938D01*
X1898526Y1693938D02*
X1903026D01*
X1907526D02*
G75*
G03X1907526I-3000J0D01*
G01X1906526D02*
G03X1906526I-2000J0D01*
G01X1904526Y1504962D02*
Y1505462D01*
Y1504962D02*
X1905026D01*
X1904526D02*
Y1504462D01*
Y1504962D02*
X1904026D01*
X1906026D02*
X1911026D01*
X1904526Y1503462D02*
Y1500062D01*
Y1506462D02*
Y1510962D01*
X1898526Y1504962D02*
X1903026D01*
X1907526D02*
G03X1907526I-3000J0D01*
G01X1906526D02*
G03X1906526I-2000J0D01*
G01X2093502Y1693938D02*
Y1694438D01*
Y1693938D02*
X2094002D01*
X2093502D02*
Y1693438D01*
Y1693938D02*
X2093002D01*
X2095002D02*
X2100002D01*
X2093502Y1692438D02*
Y1689038D01*
Y1695438D02*
Y1699938D01*
X2087502Y1693938D02*
X2092002D01*
X2096502D02*
G03X2096502I-3000J0D01*
G01X2095502D02*
G03X2095502I-2000J0D01*
G54D166*
G01X2005411Y1563064D03*
Y1559064D03*
X1991140Y1563064D03*
Y1559064D03*
X2020175Y1563064D03*
Y1559064D03*
X2025589Y1563064D03*
Y1559064D03*
G54D190*
X1900589Y1520519D02*
Y1516127D01*
Y1520519D02*
X1902566D01*
X1900589Y1518428D02*
X1901805D01*
X1900589Y1516127D02*
X1902566D01*
X1903935Y1520519D02*
X1905152Y1516127D01*
X1906369Y1520519D02*
X1905152Y1516127D01*
X1908955Y1520519D02*
X1907738Y1516127D01*
X1908955Y1520519D02*
X1910172Y1516127D01*
X1908194Y1517591D02*
X1909715D01*
X1911541Y1520519D02*
Y1516127D01*
X1913366*
X1914735Y1518009D02*
X1917473D01*
X1920059Y1520519D02*
X1918842Y1516127D01*
X1920059Y1520519D02*
X1921276Y1516127D01*
X1919298Y1517591D02*
X1920819D01*
X1922645Y1520519D02*
Y1516127D01*
Y1520519D02*
X1923710D01*
X1924166Y1520310*
X1924470Y1519892*
X1924622Y1519473*
X1924774Y1518846*
Y1517800*
X1924622Y1517173*
X1924470Y1516754*
X1924166Y1516336*
X1923710Y1516127*
X1922645*
X1926143Y1520519D02*
Y1516127D01*
Y1520519D02*
X1928121D01*
X1926143Y1518428D02*
X1927360D01*
X1931619Y1520519D02*
X1930098Y1516127D01*
X1929490Y1520519D02*
X1931619D01*
X1933901D02*
X1933445Y1520310D01*
X1933140Y1519683*
X1932988Y1518637*
Y1518009*
X1933140Y1516964*
X1933445Y1516336*
X1933901Y1516127*
X1934205*
X1934662Y1516336*
X1934966Y1516964*
X1935118Y1518009*
Y1518637*
X1934966Y1519683*
X1934662Y1520310*
X1934205Y1520519*
X1933901*
X1936639Y1519473D02*
Y1519683D01*
X1936791Y1520101*
X1936943Y1520310*
X1937247Y1520519*
X1937856*
X1938160Y1520310*
X1938312Y1520101*
X1938464Y1519683*
Y1519264*
X1938312Y1518846*
X1938008Y1518218*
X1936487Y1516127*
X1938616*
X1941507Y1520519D02*
X1939986Y1517591D01*
X1942267*
X1941507Y1520519D02*
Y1516127D01*
X1943636Y1520519D02*
Y1516127D01*
Y1520519D02*
X1944701D01*
X1945157Y1520310*
X1945462Y1519892*
X1945614Y1519473*
X1945766Y1518846*
Y1517800*
X1945614Y1517173*
X1945462Y1516754*
X1945157Y1516336*
X1944701Y1516127*
X1943636*
X1947135Y1520519D02*
Y1516127D01*
Y1520519D02*
X1948504D01*
X1948960Y1520310*
X1949112Y1520101*
X1949264Y1519683*
Y1519264*
X1949112Y1518846*
X1948960Y1518637*
X1948504Y1518428*
X1947135D02*
X1948504D01*
X1948960Y1518218*
X1949112Y1518009*
X1949264Y1517591*
Y1516964*
X1949112Y1516545*
X1948960Y1516336*
X1948504Y1516127*
X1947135*
X1950633Y1519055D02*
X1952307Y1516127D01*
Y1519055D02*
X1950633Y1516127D01*
X1955805Y1520519D02*
X1953676Y1516127D01*
Y1520519D02*
X1955805D01*
X1953676Y1516127D02*
X1955805D01*
X1962954Y1519473D02*
X1962802Y1519892D01*
X1962498Y1520310*
X1962194Y1520519*
X1961585*
X1961281Y1520310*
X1960977Y1519892*
X1960825Y1519473*
X1960673Y1518846*
Y1517800*
X1960825Y1517173*
X1960977Y1516754*
X1961281Y1516336*
X1961585Y1516127*
X1962194*
X1962498Y1516336*
X1962802Y1516754*
X1962954Y1517173*
X1965084Y1519055D02*
X1964780Y1518846D01*
X1964475Y1518428*
X1964323Y1517800*
Y1517382*
X1964475Y1516754*
X1964780Y1516336*
X1965084Y1516127*
X1965540*
X1965844Y1516336*
X1966149Y1516754*
X1966301Y1517382*
Y1517800*
X1966149Y1518428*
X1965844Y1518846*
X1965540Y1519055*
X1965084*
X1967670D02*
Y1516127D01*
Y1518218D02*
X1968126Y1518846D01*
X1968430Y1519055*
X1968887*
X1969191Y1518846*
X1969343Y1518218*
Y1516127*
Y1518218D02*
X1969799Y1518846D01*
X1970104Y1519055*
X1970560*
X1970864Y1518846*
X1971016Y1518218*
Y1516127*
X1972385Y1520519D02*
Y1516127D01*
Y1518428D02*
X1972690Y1518846D01*
X1972994Y1519055*
X1973450*
X1973754Y1518846*
X1974059Y1518428*
X1974211Y1517800*
Y1517382*
X1974059Y1516754*
X1973754Y1516336*
X1973450Y1516127*
X1972994*
X1972690Y1516336*
X1972385Y1516754*
X1975580Y1520519D02*
X1975732Y1520310D01*
X1975884Y1520519*
X1975732Y1520728*
X1975580Y1520519*
X1975732Y1519055D02*
Y1516127D01*
X1977253Y1519055D02*
Y1516127D01*
Y1518218D02*
X1977709Y1518846D01*
X1978013Y1519055*
X1978470*
X1978774Y1518846*
X1978926Y1518218*
Y1516127*
X1980295Y1517800D02*
X1982120D01*
Y1518218*
X1981968Y1518637*
X1981816Y1518846*
X1981512Y1519055*
X1981056*
X1980751Y1518846*
X1980447Y1518428*
X1980295Y1517800*
Y1517382*
X1980447Y1516754*
X1980751Y1516336*
X1981056Y1516127*
X1981512*
X1981816Y1516336*
X1982120Y1516754*
X1985315Y1520519D02*
Y1516127D01*
Y1518428D02*
X1985011Y1518846D01*
X1984706Y1519055*
X1984250*
X1983946Y1518846*
X1983642Y1518428*
X1983489Y1517800*
Y1517382*
X1983642Y1516754*
X1983946Y1516336*
X1984250Y1516127*
X1984706*
X1985011Y1516336*
X1985315Y1516754*
X1991247Y1520519D02*
Y1516127D01*
X1990182Y1520519D02*
X1992312D01*
X1993681D02*
X1995810Y1516127D01*
Y1520519D02*
X1993681Y1516127D01*
X1999918Y1521356D02*
X1997179Y1514663D01*
X2001287Y1520519D02*
Y1516127D01*
Y1520519D02*
X2002656D01*
X2003112Y1520310*
X2003264Y1520101*
X2003416Y1519683*
Y1519264*
X2003264Y1518846*
X2003112Y1518637*
X2002656Y1518428*
X2001287*
X2002351D02*
X2003416Y1516127D01*
X2004785Y1520519D02*
X2006915Y1516127D01*
Y1520519D02*
X2004785Y1516127D01*
X2011782Y1520519D02*
Y1516127D01*
Y1520519D02*
X2012999Y1516127D01*
X2014216Y1520519D02*
X2012999Y1516127D01*
X2014216Y1520519D02*
Y1516127D01*
X2017410Y1519055D02*
Y1516127D01*
Y1518428D02*
X2017106Y1518846D01*
X2016802Y1519055*
X2016346*
X2016041Y1518846*
X2015737Y1518428*
X2015585Y1517800*
Y1517382*
X2015737Y1516754*
X2016041Y1516336*
X2016346Y1516127*
X2016802*
X2017106Y1516336*
X2017410Y1516754*
X2019236Y1520519D02*
Y1516964D01*
X2019388Y1516336*
X2019692Y1516127*
X2019996*
X2018779Y1519055D02*
X2019844D01*
X2023191Y1518428D02*
X2022886Y1518846D01*
X2022582Y1519055*
X2022126*
X2021822Y1518846*
X2021517Y1518428*
X2021365Y1517800*
Y1517382*
X2021517Y1516754*
X2021822Y1516336*
X2022126Y1516127*
X2022582*
X2022886Y1516336*
X2023191Y1516754*
X2024560Y1520519D02*
Y1516127D01*
Y1518218D02*
X2025016Y1518846D01*
X2025320Y1519055*
X2025776*
X2026081Y1518846*
X2026233Y1518218*
Y1516127*
X2032165Y1521356D02*
X2031861Y1520937D01*
X2031557Y1520310*
X2031253Y1519473*
X2031100Y1518428*
Y1517591*
X2031253Y1516545*
X2031557Y1515709*
X2031861Y1515081*
X2032165Y1514663*
X2033534Y1520519D02*
Y1516127D01*
Y1520519D02*
X2034903D01*
X2035360Y1520310*
X2035512Y1520101*
X2035664Y1519683*
Y1519264*
X2035512Y1518846*
X2035360Y1518637*
X2034903Y1518428*
X2033534*
X2034599D02*
X2035664Y1516127D01*
X2037033Y1517800D02*
X2038858D01*
Y1518218*
X2038706Y1518637*
X2038554Y1518846*
X2038250Y1519055*
X2037793*
X2037489Y1518846*
X2037185Y1518428*
X2037033Y1517800*
Y1517382*
X2037185Y1516754*
X2037489Y1516336*
X2037793Y1516127*
X2038250*
X2038554Y1516336*
X2038858Y1516754*
X2040227Y1519055D02*
X2041140Y1516127D01*
X2042052Y1519055D02*
X2041140Y1516127D01*
X2044638Y1520519D02*
X2043421Y1516127D01*
X2044638Y1520519D02*
X2045855Y1516127D01*
X2043878Y1517591D02*
X2045399D01*
X2047224Y1521356D02*
X2047528Y1520937D01*
X2047833Y1520310*
X2048137Y1519473*
X2048289Y1518428*
Y1517591*
X2048137Y1516545*
X2047833Y1515709*
X2047528Y1515081*
X2047224Y1514663*
X2053157Y1518009D02*
X2055895D01*
X2061827Y1520519D02*
Y1516127D01*
X2060762Y1520519D02*
X2062892D01*
X2065021Y1519055D02*
X2064717Y1518846D01*
X2064413Y1518428*
X2064261Y1517800*
Y1517382*
X2064413Y1516754*
X2064717Y1516336*
X2065021Y1516127*
X2065478*
X2065782Y1516336*
X2066086Y1516754*
X2066238Y1517382*
Y1517800*
X2066086Y1518428*
X2065782Y1518846*
X2065478Y1519055*
X2065021*
X2067607D02*
Y1514663D01*
Y1518428D02*
X2067911Y1518846D01*
X2068216Y1519055*
X2068672*
X2068976Y1518846*
X2069280Y1518428*
X2069433Y1517800*
Y1517382*
X2069280Y1516754*
X2068976Y1516336*
X2068672Y1516127*
X2068216*
X2067911Y1516336*
X2067607Y1516754*
X2076430Y1519892D02*
X2076125Y1520310D01*
X2075669Y1520519*
X2075061*
X2074604Y1520310*
X2074300Y1519892*
Y1519473*
X2074452Y1519055*
X2074604Y1518846*
X2074909Y1518637*
X2075821Y1518218*
X2076125Y1518009*
X2076278Y1517800*
X2076430Y1517382*
Y1516754*
X2076125Y1516336*
X2075669Y1516127*
X2075061*
X2074604Y1516336*
X2074300Y1516754*
X2077799Y1520519D02*
X2077951Y1520310D01*
X2078103Y1520519*
X2077951Y1520728*
X2077799Y1520519*
X2077951Y1519055D02*
Y1516127D01*
X2081297Y1520519D02*
Y1516127D01*
Y1518428D02*
X2080993Y1518846D01*
X2080689Y1519055*
X2080232*
X2079928Y1518846*
X2079624Y1518428*
X2079472Y1517800*
Y1517382*
X2079624Y1516754*
X2079928Y1516336*
X2080232Y1516127*
X2080689*
X2080993Y1516336*
X2081297Y1516754*
X2082666Y1517800D02*
X2084492D01*
Y1518218*
X2084339Y1518637*
X2084187Y1518846*
X2083883Y1519055*
X2083427*
X2083123Y1518846*
X2082818Y1518428*
X2082666Y1517800*
Y1517382*
X2082818Y1516754*
X2083123Y1516336*
X2083427Y1516127*
X2083883*
X2084187Y1516336*
X2084492Y1516754*
X2089359Y1520519D02*
X2090576Y1516127D01*
X2091793Y1520519D02*
X2090576Y1516127D01*
X2093162Y1520519D02*
X2093314Y1520310D01*
X2093466Y1520519*
X2093314Y1520728*
X2093162Y1520519*
X2093314Y1519055D02*
Y1516127D01*
X2094835Y1517800D02*
X2096661D01*
Y1518218*
X2096508Y1518637*
X2096356Y1518846*
X2096052Y1519055*
X2095596*
X2095292Y1518846*
X2094987Y1518428*
X2094835Y1517800*
Y1517382*
X2094987Y1516754*
X2095292Y1516336*
X2095596Y1516127*
X2096052*
X2096356Y1516336*
X2096661Y1516754*
X2098030Y1519055D02*
X2098638Y1516127D01*
X2099246Y1519055D02*
X2098638Y1516127D01*
X2099246Y1519055D02*
X2099855Y1516127D01*
X2100463Y1519055D02*
X2099855Y1516127D01*
X1979329Y1508837D02*
Y1504962D01*
Y1508837D02*
X1980537D01*
X1980939Y1508653*
X1981074Y1508468*
X1981208Y1508099*
Y1507545*
X1981074Y1507176*
X1980939Y1506992*
X1980537Y1506807*
X1979329*
X1984026Y1507545D02*
Y1504962D01*
Y1506992D02*
X1983758Y1507361D01*
X1983489Y1507545*
X1983087*
X1982818Y1507361*
X1982550Y1506992*
X1982416Y1506438*
Y1506069*
X1982550Y1505515*
X1982818Y1505146*
X1983087Y1504962*
X1983489*
X1983758Y1505146*
X1984026Y1505515*
X1986711Y1506992D02*
X1986576Y1507361D01*
X1986174Y1507545*
X1985771*
X1985368Y1507361*
X1985234Y1506992*
X1985368Y1506623*
X1985637Y1506438*
X1986308Y1506254*
X1986576Y1506069*
X1986711Y1505700*
Y1505515*
X1986576Y1505146*
X1986174Y1504962*
X1985771*
X1985368Y1505146*
X1985234Y1505515*
X1988321Y1508837D02*
Y1505700D01*
X1988455Y1505146*
X1988724Y1504962*
X1988992*
X1987919Y1507545D02*
X1988858D01*
X1990200Y1506438D02*
X1991811D01*
Y1506807*
X1991677Y1507176*
X1991542Y1507361*
X1991274Y1507545*
X1990871*
X1990603Y1507361*
X1990334Y1506992*
X1990200Y1506438*
Y1506069*
X1990334Y1505515*
X1990603Y1505146*
X1990871Y1504962*
X1991274*
X1991542Y1505146*
X1991811Y1505515*
X1993019Y1507545D02*
Y1504962D01*
Y1506807D02*
X1993421Y1507361D01*
X1993690Y1507545*
X1994093*
X1994361Y1507361*
X1994495Y1506807*
Y1504962*
Y1506807D02*
X1994898Y1507361D01*
X1995166Y1507545*
X1995569*
X1995837Y1507361*
X1995972Y1506807*
Y1504962*
X1998790Y1507545D02*
Y1504962D01*
Y1506992D02*
X1998522Y1507361D01*
X1998253Y1507545*
X1997851*
X1997582Y1507361*
X1997314Y1506992*
X1997179Y1506438*
Y1506069*
X1997314Y1505515*
X1997582Y1505146*
X1997851Y1504962*
X1998253*
X1998522Y1505146*
X1998790Y1505515*
X2001474Y1506992D02*
X2001340Y1507361D01*
X2000938Y1507545*
X2000535*
X2000132Y1507361*
X1999998Y1506992*
X2000132Y1506623*
X2000401Y1506438*
X2001072Y1506254*
X2001340Y1506069*
X2001474Y1505700*
Y1505515*
X2001340Y1505146*
X2000938Y1504962*
X2000535*
X2000132Y1505146*
X1999998Y1505515*
X2002682Y1508837D02*
Y1504962D01*
X2004025Y1507545D02*
X2002682Y1505700D01*
X2003219Y1506438D02*
X2004159Y1504962D01*
X2008454Y1508837D02*
Y1504962D01*
Y1508837D02*
X2009662D01*
X2010064Y1508653*
X2010198Y1508468*
X2010333Y1508099*
Y1507730*
X2010198Y1507361*
X2010064Y1507176*
X2009662Y1506992*
X2008454D02*
X2009662D01*
X2010064Y1506807*
X2010198Y1506623*
X2010333Y1506254*
Y1505700*
X2010198Y1505331*
X2010064Y1505146*
X2009662Y1504962*
X2008454*
X2012212Y1507545D02*
X2011943Y1507361D01*
X2011675Y1506992*
X2011541Y1506438*
Y1506069*
X2011675Y1505515*
X2011943Y1505146*
X2012212Y1504962*
X2012614*
X2012883Y1505146*
X2013151Y1505515*
X2013285Y1506069*
Y1506438*
X2013151Y1506992*
X2012883Y1507361*
X2012614Y1507545*
X2012212*
X2014896Y1508837D02*
Y1505700D01*
X2015030Y1505146*
X2015299Y1504962*
X2015567*
X2014493Y1507545D02*
X2015433D01*
X2017178Y1508837D02*
Y1505700D01*
X2017312Y1505146*
X2017580Y1504962*
X2017849*
X2016775Y1507545D02*
X2017715D01*
X2019728D02*
X2019459Y1507361D01*
X2019191Y1506992*
X2019057Y1506438*
Y1506069*
X2019191Y1505515*
X2019459Y1505146*
X2019728Y1504962*
X2020130*
X2020399Y1505146*
X2020667Y1505515*
X2020802Y1506069*
Y1506438*
X2020667Y1506992*
X2020399Y1507361*
X2020130Y1507545*
X2019728*
X2022009D02*
Y1504962D01*
Y1506807D02*
X2022412Y1507361D01*
X2022681Y1507545*
X2023083*
X2023352Y1507361*
X2023486Y1506807*
Y1504962*
Y1506807D02*
X2023889Y1507361D01*
X2024157Y1507545*
X2024560*
X2024828Y1507361*
X2024962Y1506807*
Y1504962*
G54D318*
X2072010Y1601261D03*
Y1621261D03*
G54D321*
X1945692Y1576950D03*
X1935092D03*
X1945692Y1581950D03*
X1935092D03*
X1945692Y1586950D03*
X1935092D03*
X1945692Y1591950D03*
X1935092D03*
X1945692Y1596950D03*
X1935092D03*
X1945692Y1601950D03*
X1935092D03*
X1945692Y1606950D03*
X1935092D03*
X1945692Y1611950D03*
X1935092D03*
X1945692Y1616950D03*
X1935092D03*
X1945692Y1621950D03*
X1935092D03*
G54D322*
X2005392Y1654150D03*
Y1664750D03*
X2010392Y1654150D03*
Y1664750D03*
X2015392Y1654150D03*
Y1664750D03*
X2020392Y1654150D03*
Y1664750D03*
X2025392Y1654150D03*
Y1664750D03*
X2005392Y1534150D03*
Y1544750D03*
X2010392Y1534150D03*
Y1544750D03*
X2015392Y1534150D03*
Y1544750D03*
X2020392Y1534150D03*
Y1544750D03*
X2025392Y1534150D03*
Y1544750D03*
G74*
X0Y0D02*
M02*
