*
*
G04 PADS 9.5 Build Number: 522968 generated Gerber (RS-274-X) file*
G04 PC Version=2.1*
*
%IN "EVAL-ADF7024DBxZ Combin"*%
*
%MOIN*%
*
%FSLAX35Y35*%
*
*
*
*
G04 PC Standard Apertures*
*
*
G04 Thermal Relief Aperture macro.*
%AMTER*
1,1,$1,0,0*
1,0,$1-$2,0,0*
21,0,$3,$4,0,0,45*
21,0,$3,$4,0,0,135*
%
*
*
G04 Annular Aperture macro.*
%AMANN*
1,1,$1,0,0*
1,0,$2,0,0*
%
*
*
G04 Odd Aperture macro.*
%AMODD*
1,1,$1,0,0*
1,0,$1-0.005,0,0*
%
*
*
G04 PC Custom Aperture Macros*
*
*
*
*
*
*
G04 PC Aperture Table*
*
%ADD018C,0.01*%
%ADD041C,0.04*%
%ADD045C,0.001*%
%ADD087C,0.00039*%
%ADD088R,0.00787X0.00787*%
%ADD154C,0.00591*%
%ADD166R,0.022X0.022*%
%ADD167R,0.02165X0.02362*%
%ADD175R,0.02362X0.02165*%
%ADD176R,0.13386X0.13386*%
%ADD190C,0.00787*%
%ADD317R,0.05X0.03*%
%ADD318R,0.17X0.1*%
*
*
*
*
G04 PC Circuitry*
G04 Layer Name EVAL-ADF7024DBxZ Combin - circuitry*
%LPD*%
*
*
G04 PC Custom Flashes*
G04 Layer Name EVAL-ADF7024DBxZ Combin - flashes*
%LPD*%
*
*
G04 PC Circuitry*
G04 Layer Name EVAL-ADF7024DBxZ Combin - circuitry*
%LPD*%
*
G54D18*
G01X1964011Y1636286D02*
X1963162Y1635437D01*
X1964011Y1634589*
X1964859Y1635437*
X1964011Y1636286*
X1963173Y1635426D02*
X1964848D01*
X1964148Y1634726D02*
Y1636149D01*
X1961182Y1639114D02*
X1960334Y1638266D01*
X1961182Y1637417*
X1962031Y1638266*
X1961182Y1639114*
X1961173Y1637426D02*
X1961191D01*
X1960494Y1638426D02*
X1961870D01*
X1961148Y1637452D02*
Y1639080D01*
X1966963Y1648957D02*
X1966115Y1648108D01*
X1966963Y1647260*
X1967812Y1648108*
X1966963Y1648957*
X1966797Y1647426D02*
X1967130D01*
X1966433Y1648426D02*
X1967494D01*
X1966148Y1648076D02*
Y1648141D01*
X1967148Y1647444D02*
Y1648773D01*
X1964135Y1646128D02*
X1963286Y1645280D01*
X1964135Y1644431*
X1964984Y1645280*
X1964135Y1646128*
X1963433Y1645426D02*
X1964837D01*
X1964148Y1644444D02*
Y1646116D01*
X1968412Y1643551D02*
X1965222Y1640361D01*
X1967855Y1637728*
X1971046Y1640918*
X1968412Y1643551*
X1967157Y1638426D02*
X1968554D01*
X1966157Y1639426D02*
X1969554D01*
X1965287Y1640426D02*
X1970554D01*
X1966287Y1641426D02*
X1970537D01*
X1967287Y1642426D02*
X1969537D01*
X1968287Y1643426D02*
X1968537D01*
X1966148Y1639435D02*
Y1641287D01*
X1967148Y1638435D02*
Y1642287D01*
X1968148Y1638020D02*
Y1643287D01*
X1969148Y1639020D02*
Y1642816D01*
X1970148Y1640020D02*
Y1641816D01*
X1974537Y1637427D02*
X1971346Y1634237D01*
X1973980Y1631603*
X1977170Y1634793*
X1974537Y1637427*
X1973157Y1632426D02*
X1974803D01*
X1972157Y1633426D02*
X1975803D01*
X1971536Y1634426D02*
X1976803D01*
X1972536Y1635426D02*
X1976537D01*
X1973536Y1636426D02*
X1975537D01*
X1974536Y1637426D02*
X1974537D01*
X1972148Y1633435D02*
Y1635038D01*
X1973148Y1632435D02*
Y1636038D01*
X1974148Y1631771D02*
Y1637038D01*
X1975148Y1632771D02*
Y1636816D01*
X1976148Y1633771D02*
Y1635816D01*
X1977148Y1634771D02*
Y1634816D01*
X1978991Y1641881D02*
X1975801Y1638691D01*
X1978434Y1636057*
X1981625Y1639248*
X1978991Y1641881*
X1978065Y1636426D02*
X1978803D01*
X1977065Y1637426D02*
X1979803D01*
X1976065Y1638426D02*
X1980803D01*
X1976536Y1639426D02*
X1981446D01*
X1977536Y1640426D02*
X1980446D01*
X1978536Y1641426D02*
X1979446D01*
X1976148Y1638344D02*
Y1639038D01*
X1977148Y1637344D02*
Y1640038D01*
X1978148Y1636344D02*
Y1641038D01*
X1979148Y1636771D02*
Y1641724D01*
X1980148Y1637771D02*
Y1640724D01*
X1981148Y1638771D02*
Y1639724D01*
X1972866Y1648006D02*
X1969676Y1644815D01*
X1972310Y1642182*
X1975500Y1645372*
X1972866Y1648006*
X1972065Y1642426D02*
X1972554D01*
X1971065Y1643426D02*
X1973554D01*
X1970065Y1644426D02*
X1974554D01*
X1970287Y1645426D02*
X1975446D01*
X1971287Y1646426D02*
X1974446D01*
X1972287Y1647426D02*
X1973446D01*
X1970148Y1644344D02*
Y1645287D01*
X1971148Y1643344D02*
Y1646287D01*
X1972148Y1642344D02*
Y1647287D01*
X1973148Y1643020D02*
Y1647724D01*
X1974148Y1644020D02*
Y1646724D01*
X1975148Y1645020D02*
Y1645724D01*
X1983820Y1636286D02*
X1982972Y1635437D01*
X1983820Y1634589*
X1984669Y1635437*
X1983820Y1636286*
X1982982Y1635426D02*
X1984658D01*
X1983148Y1635261D02*
Y1635613D01*
X1984148Y1634916D02*
Y1635958D01*
X1986648Y1639114D02*
X1985800Y1638266D01*
X1986648Y1637417*
X1987497Y1638266*
X1986648Y1639114*
X1986639Y1637426D02*
X1986658D01*
X1985961Y1638426D02*
X1987336D01*
X1986148Y1637918D02*
Y1638613D01*
X1987148Y1637916D02*
Y1638615D01*
X1913581Y1524450D02*
X2080510D01*
Y1674450*
X1913581*
Y1524450*
G54D41*
X1928148Y1660474D03*
Y1538426D03*
X2065943D03*
G54D45*
G54D87*
X1983246Y1592560D02*
X1983247Y1592525D01*
X1983251Y1592491*
X1983256Y1592457*
X1983264Y1592423*
X1983274Y1592389*
X1983287Y1592357*
X1983301Y1592325*
X1983317Y1592294*
X1983336Y1592265*
X1983356Y1592237*
X1983378Y1592210*
X1983402Y1592184*
X1983427Y1592161*
X1983454Y1592139*
X1983482Y1592118*
X1983512Y1592100*
X1983542Y1592084*
X1983574Y1592069*
X1983607Y1592057*
X1983640Y1592047*
X1983674Y1592039*
X1983708Y1592033*
X1983743Y1592030*
X1983778Y1592029*
X1985923*
Y1593092*
X1983778*
X1983743Y1593091*
X1983708Y1593087*
X1983674Y1593082*
X1983640Y1593074*
X1983607Y1593064*
X1983574Y1593051*
X1983542Y1593037*
X1983512Y1593021*
X1983482Y1593002*
X1983454Y1592982*
X1983427Y1592960*
X1983402Y1592936*
X1983378Y1592911*
X1983356Y1592884*
X1983336Y1592856*
X1983317Y1592826*
X1983301Y1592795*
X1983287Y1592764*
X1983274Y1592731*
X1983264Y1592698*
X1983256Y1592664*
X1983251Y1592630*
X1983247Y1592595*
X1983246Y1592560*
X1983246*
X1983266Y1592417D02*
Y1592703D01*
X1983285Y1592360D02*
Y1592761D01*
X1983305Y1592317D02*
Y1592803D01*
X1983325Y1592282D02*
Y1592838D01*
X1983344Y1592253D02*
Y1592868D01*
X1983364Y1592227D02*
Y1592894D01*
X1983384Y1592203D02*
Y1592917D01*
X1983404Y1592183D02*
Y1592938D01*
X1983423Y1592164D02*
Y1592956D01*
X1983443Y1592148D02*
Y1592973D01*
X1983463Y1592132D02*
Y1592988D01*
X1983482Y1592118D02*
Y1593002D01*
X1983502Y1592106D02*
Y1593014D01*
X1983522Y1592095D02*
Y1593026D01*
X1983541Y1592084D02*
Y1593036D01*
X1983561Y1592075D02*
Y1593045D01*
X1983581Y1592067D02*
Y1593054D01*
X1983600Y1592059D02*
Y1593061D01*
X1983620Y1592053D02*
Y1593068D01*
X1983640Y1592047D02*
Y1593074D01*
X1983659Y1592042D02*
Y1593078D01*
X1983679Y1592038D02*
Y1593082D01*
X1983699Y1592035D02*
Y1593086D01*
X1983719Y1592032D02*
Y1593088D01*
X1983738Y1592030D02*
Y1593090D01*
X1983758Y1592029D02*
Y1593091D01*
X1983778Y1592029D02*
Y1593092D01*
X1983797Y1592029D02*
Y1593092D01*
X1983817Y1592029D02*
Y1593092D01*
X1983837Y1592029D02*
Y1593092D01*
X1983856Y1592029D02*
Y1593092D01*
X1983876Y1592029D02*
Y1593092D01*
X1983896Y1592029D02*
Y1593092D01*
X1983915Y1592029D02*
Y1593092D01*
X1983935Y1592029D02*
Y1593092D01*
X1983955Y1592029D02*
Y1593092D01*
X1983974Y1592029D02*
Y1593092D01*
X1983994Y1592029D02*
Y1593092D01*
X1984014Y1592029D02*
Y1593092D01*
X1984033Y1592029D02*
Y1593092D01*
X1984053Y1592029D02*
Y1593092D01*
X1984073Y1592029D02*
Y1593092D01*
X1984093Y1592029D02*
Y1593092D01*
X1984112Y1592029D02*
Y1593092D01*
X1984132Y1592029D02*
Y1593092D01*
X1984152Y1592029D02*
Y1593092D01*
X1984171Y1592029D02*
Y1593092D01*
X1984191Y1592029D02*
Y1593092D01*
X1984211Y1592029D02*
Y1593092D01*
X1984230Y1592029D02*
Y1593092D01*
X1984250Y1592029D02*
Y1593092D01*
X1984270Y1592029D02*
Y1593092D01*
X1984289Y1592029D02*
Y1593092D01*
X1984309Y1592029D02*
Y1593092D01*
X1984329Y1592029D02*
Y1593092D01*
X1984348Y1592029D02*
Y1593092D01*
X1984368Y1592029D02*
Y1593092D01*
X1984388Y1592029D02*
Y1593092D01*
X1984407Y1592029D02*
Y1593092D01*
X1984427Y1592029D02*
Y1593092D01*
X1984447Y1592029D02*
Y1593092D01*
X1984467Y1592029D02*
Y1593092D01*
X1984486Y1592029D02*
Y1593092D01*
X1984506Y1592029D02*
Y1593092D01*
X1984526Y1592029D02*
Y1593092D01*
X1984545Y1592029D02*
Y1593092D01*
X1984565Y1592029D02*
Y1593092D01*
X1984585Y1592029D02*
Y1593092D01*
X1984604Y1592029D02*
Y1593092D01*
X1984624Y1592029D02*
Y1593092D01*
X1984644Y1592029D02*
Y1593092D01*
X1984663Y1592029D02*
Y1593092D01*
X1984683Y1592029D02*
Y1593092D01*
X1984703Y1592029D02*
Y1593092D01*
X1984722Y1592029D02*
Y1593092D01*
X1984742Y1592029D02*
Y1593092D01*
X1984762Y1592029D02*
Y1593092D01*
X1984781Y1592029D02*
Y1593092D01*
X1984801Y1592029D02*
Y1593092D01*
X1984821Y1592029D02*
Y1593092D01*
X1984841Y1592029D02*
Y1593092D01*
X1984860Y1592029D02*
Y1593092D01*
X1984880Y1592029D02*
Y1593092D01*
X1984900Y1592029D02*
Y1593092D01*
X1984919Y1592029D02*
Y1593092D01*
X1984939Y1592029D02*
Y1593092D01*
X1984959Y1592029D02*
Y1593092D01*
X1984978Y1592029D02*
Y1593092D01*
X1984998Y1592029D02*
Y1593092D01*
X1985018Y1592029D02*
Y1593092D01*
X1985037Y1592029D02*
Y1593092D01*
X1985057Y1592029D02*
Y1593092D01*
X1985077Y1592029D02*
Y1593092D01*
X1985096Y1592029D02*
Y1593092D01*
X1985116Y1592029D02*
Y1593092D01*
X1985136Y1592029D02*
Y1593092D01*
X1985156Y1592029D02*
Y1593092D01*
X1985175Y1592029D02*
Y1593092D01*
X1985195Y1592029D02*
Y1593092D01*
X1985215Y1592029D02*
Y1593092D01*
X1985234Y1592029D02*
Y1593092D01*
X1985254Y1592029D02*
Y1593092D01*
X1985274Y1592029D02*
Y1593092D01*
X1985293Y1592029D02*
Y1593092D01*
X1985313Y1592029D02*
Y1593092D01*
X1985333Y1592029D02*
Y1593092D01*
X1985352Y1592029D02*
Y1593092D01*
X1985372Y1592029D02*
Y1593092D01*
X1985392Y1592029D02*
Y1593092D01*
X1985411Y1592029D02*
Y1593092D01*
X1985431Y1592029D02*
Y1593092D01*
X1985451Y1592029D02*
Y1593092D01*
X1985470Y1592029D02*
Y1593092D01*
X1985490Y1592029D02*
Y1593092D01*
X1985510Y1592029D02*
Y1593092D01*
X1985530Y1592029D02*
Y1593092D01*
X1985549Y1592029D02*
Y1593092D01*
X1985569Y1592029D02*
Y1593092D01*
X1985589Y1592029D02*
Y1593092D01*
X1985608Y1592029D02*
Y1593092D01*
X1985628Y1592029D02*
Y1593092D01*
X1985648Y1592029D02*
Y1593092D01*
X1985667Y1592029D02*
Y1593092D01*
X1985687Y1592029D02*
Y1593092D01*
X1985707Y1592029D02*
Y1593092D01*
X1985726Y1592029D02*
Y1593092D01*
X1985746Y1592029D02*
Y1593092D01*
X1985766Y1592029D02*
Y1593092D01*
X1985785Y1592029D02*
Y1593092D01*
X1985805Y1592029D02*
Y1593092D01*
X1985825Y1592029D02*
Y1593092D01*
X1985844Y1592029D02*
Y1593092D01*
X1985864Y1592029D02*
Y1593092D01*
X1985884Y1592029D02*
Y1593092D01*
X1985904Y1592029D02*
Y1593092D01*
X1981750Y1588919D02*
X1982813D01*
Y1591064*
X1982812Y1591100*
X1982808Y1591135*
X1982802Y1591170*
X1982794Y1591205*
X1982784Y1591239*
X1982771Y1591272*
X1982756Y1591304*
X1982739Y1591335*
X1982720Y1591365*
X1982699Y1591394*
X1982676Y1591421*
X1982651Y1591446*
X1982625Y1591470*
X1982597Y1591492*
X1982567Y1591512*
X1982537Y1591530*
X1982505Y1591546*
X1982473Y1591560*
X1982439Y1591572*
X1982405Y1591581*
X1982370Y1591588*
X1982335Y1591593*
X1982299Y1591595*
X1982264*
X1982228Y1591593*
X1982193Y1591588*
X1982158Y1591581*
X1982124Y1591572*
X1982090Y1591560*
X1982058Y1591546*
X1982026Y1591530*
X1981996Y1591512*
X1981966Y1591492*
X1981938Y1591470*
X1981912Y1591446*
X1981887Y1591421*
X1981864Y1591394*
X1981843Y1591365*
X1981824Y1591335*
X1981807Y1591304*
X1981792Y1591272*
X1981779Y1591239*
X1981769Y1591205*
X1981761Y1591170*
X1981755Y1591135*
X1981751Y1591100*
X1981750Y1591064*
Y1588919*
Y1591064*
X1981770Y1588919D02*
Y1591207D01*
X1981789Y1588919D02*
Y1591264D01*
X1981809Y1588919D02*
Y1591307D01*
X1981829Y1588919D02*
Y1591342D01*
X1981848Y1588919D02*
Y1591372D01*
X1981868Y1588919D02*
Y1591398D01*
X1981888Y1588919D02*
Y1591421D01*
X1981907Y1588919D02*
Y1591442D01*
X1981927Y1588919D02*
Y1591460D01*
X1981947Y1588919D02*
Y1591477D01*
X1981967Y1588919D02*
Y1591492D01*
X1981986Y1588919D02*
Y1591506D01*
X1982006Y1588919D02*
Y1591518D01*
X1982026Y1588919D02*
Y1591530D01*
X1982045Y1588919D02*
Y1591540D01*
X1982065Y1588919D02*
Y1591549D01*
X1982085Y1588919D02*
Y1591558D01*
X1982104Y1588919D02*
Y1591565D01*
X1982124Y1588919D02*
Y1591572D01*
X1982144Y1588919D02*
Y1591577D01*
X1982163Y1588919D02*
Y1591582D01*
X1982183Y1588919D02*
Y1591586D01*
X1982203Y1588919D02*
Y1591590D01*
X1982222Y1588919D02*
Y1591592D01*
X1982242Y1588919D02*
Y1591594D01*
X1982262Y1588919D02*
Y1591595D01*
X1982281Y1588919D02*
Y1591595D01*
X1982301Y1588919D02*
Y1591595D01*
X1982321Y1588919D02*
Y1591594D01*
X1982341Y1588919D02*
Y1591592D01*
X1982360Y1588919D02*
Y1591590D01*
X1982380Y1588919D02*
Y1591586D01*
X1982400Y1588919D02*
Y1591582D01*
X1982419Y1588919D02*
Y1591577D01*
X1982439Y1588919D02*
Y1591572D01*
X1982459Y1588919D02*
Y1591565D01*
X1982478Y1588919D02*
Y1591558D01*
X1982498Y1588919D02*
Y1591549D01*
X1982518Y1588919D02*
Y1591540D01*
X1982537Y1588919D02*
Y1591530D01*
X1982557Y1588919D02*
Y1591518D01*
X1982577Y1588919D02*
Y1591506D01*
X1982596Y1588919D02*
Y1591492D01*
X1982616Y1588919D02*
Y1591477D01*
X1982636Y1588919D02*
Y1591460D01*
X1982656Y1588919D02*
Y1591442D01*
X1982675Y1588919D02*
Y1591421D01*
X1982695Y1588919D02*
Y1591398D01*
X1982715Y1588919D02*
Y1591372D01*
X1982734Y1588919D02*
Y1591342D01*
X1982754Y1588919D02*
Y1591307D01*
X1982774Y1588919D02*
Y1591264D01*
X1982793Y1588919D02*
Y1591207D01*
X1983246Y1594529D02*
X1983247Y1594494D01*
X1983251Y1594459*
X1983256Y1594425*
X1983264Y1594391*
X1983274Y1594358*
X1983287Y1594325*
X1983301Y1594294*
X1983317Y1594263*
X1983336Y1594233*
X1983356Y1594205*
X1983378Y1594178*
X1983402Y1594153*
X1983427Y1594129*
X1983454Y1594107*
X1983482Y1594087*
X1983512Y1594068*
X1983542Y1594052*
X1983574Y1594038*
X1983607Y1594025*
X1983640Y1594015*
X1983674Y1594007*
X1983708Y1594002*
X1983743Y1593998*
X1983778Y1593997*
X1985923*
Y1595060*
X1983778*
X1983743Y1595059*
X1983708Y1595056*
X1983674Y1595050*
X1983640Y1595042*
X1983607Y1595032*
X1983574Y1595020*
X1983542Y1595005*
X1983512Y1594989*
X1983482Y1594971*
X1983454Y1594950*
X1983427Y1594928*
X1983402Y1594905*
X1983378Y1594879*
X1983356Y1594852*
X1983336Y1594824*
X1983317Y1594794*
X1983301Y1594764*
X1983287Y1594732*
X1983274Y1594700*
X1983264Y1594666*
X1983256Y1594632*
X1983251Y1594598*
X1983247Y1594564*
X1983247D02*
X1983246Y1594529D01*
X1983246*
X1983266Y1594386D02*
Y1594671D01*
X1983285Y1594328D02*
Y1594729D01*
X1983305Y1594286D02*
Y1594772D01*
X1983325Y1594251D02*
Y1594807D01*
X1983344Y1594221D02*
Y1594836D01*
X1983364Y1594195D02*
Y1594862D01*
X1983384Y1594172D02*
Y1594885D01*
X1983404Y1594151D02*
Y1594906D01*
X1983423Y1594133D02*
Y1594925D01*
X1983443Y1594116D02*
Y1594941D01*
X1983463Y1594101D02*
Y1594957D01*
X1983482Y1594087D02*
Y1594971D01*
X1983502Y1594075D02*
Y1594983D01*
X1983522Y1594063D02*
Y1594994D01*
X1983541Y1594053D02*
Y1595005D01*
X1983561Y1594044D02*
Y1595014D01*
X1983581Y1594035D02*
Y1595022D01*
X1983600Y1594028D02*
Y1595030D01*
X1983620Y1594021D02*
Y1595036D01*
X1983640Y1594015D02*
Y1595042D01*
X1983659Y1594011D02*
Y1595047D01*
X1983679Y1594007D02*
Y1595051D01*
X1983699Y1594003D02*
Y1595054D01*
X1983719Y1594001D02*
Y1595057D01*
X1983738Y1593999D02*
Y1595059D01*
X1983758Y1593998D02*
Y1595060D01*
X1983778Y1593997D02*
Y1595060D01*
X1983797Y1593997D02*
Y1595060D01*
X1983817Y1593997D02*
Y1595060D01*
X1983837Y1593997D02*
Y1595060D01*
X1983856Y1593997D02*
Y1595060D01*
X1983876Y1593997D02*
Y1595060D01*
X1983896Y1593997D02*
Y1595060D01*
X1983915Y1593997D02*
Y1595060D01*
X1983935Y1593997D02*
Y1595060D01*
X1983955Y1593997D02*
Y1595060D01*
X1983974Y1593997D02*
Y1595060D01*
X1983994Y1593997D02*
Y1595060D01*
X1984014Y1593997D02*
Y1595060D01*
X1984033Y1593997D02*
Y1595060D01*
X1984053Y1593997D02*
Y1595060D01*
X1984073Y1593997D02*
Y1595060D01*
X1984093Y1593997D02*
Y1595060D01*
X1984112Y1593997D02*
Y1595060D01*
X1984132Y1593997D02*
Y1595060D01*
X1984152Y1593997D02*
Y1595060D01*
X1984171Y1593997D02*
Y1595060D01*
X1984191Y1593997D02*
Y1595060D01*
X1984211Y1593997D02*
Y1595060D01*
X1984230Y1593997D02*
Y1595060D01*
X1984250Y1593997D02*
Y1595060D01*
X1984270Y1593997D02*
Y1595060D01*
X1984289Y1593997D02*
Y1595060D01*
X1984309Y1593997D02*
Y1595060D01*
X1984329Y1593997D02*
Y1595060D01*
X1984348Y1593997D02*
Y1595060D01*
X1984368Y1593997D02*
Y1595060D01*
X1984388Y1593997D02*
Y1595060D01*
X1984407Y1593997D02*
Y1595060D01*
X1984427Y1593997D02*
Y1595060D01*
X1984447Y1593997D02*
Y1595060D01*
X1984467Y1593997D02*
Y1595060D01*
X1984486Y1593997D02*
Y1595060D01*
X1984506Y1593997D02*
Y1595060D01*
X1984526Y1593997D02*
Y1595060D01*
X1984545Y1593997D02*
Y1595060D01*
X1984565Y1593997D02*
Y1595060D01*
X1984585Y1593997D02*
Y1595060D01*
X1984604Y1593997D02*
Y1595060D01*
X1984624Y1593997D02*
Y1595060D01*
X1984644Y1593997D02*
Y1595060D01*
X1984663Y1593997D02*
Y1595060D01*
X1984683Y1593997D02*
Y1595060D01*
X1984703Y1593997D02*
Y1595060D01*
X1984722Y1593997D02*
Y1595060D01*
X1984742Y1593997D02*
Y1595060D01*
X1984762Y1593997D02*
Y1595060D01*
X1984781Y1593997D02*
Y1595060D01*
X1984801Y1593997D02*
Y1595060D01*
X1984821Y1593997D02*
Y1595060D01*
X1984841Y1593997D02*
Y1595060D01*
X1984860Y1593997D02*
Y1595060D01*
X1984880Y1593997D02*
Y1595060D01*
X1984900Y1593997D02*
Y1595060D01*
X1984919Y1593997D02*
Y1595060D01*
X1984939Y1593997D02*
Y1595060D01*
X1984959Y1593997D02*
Y1595060D01*
X1984978Y1593997D02*
Y1595060D01*
X1984998Y1593997D02*
Y1595060D01*
X1985018Y1593997D02*
Y1595060D01*
X1985037Y1593997D02*
Y1595060D01*
X1985057Y1593997D02*
Y1595060D01*
X1985077Y1593997D02*
Y1595060D01*
X1985096Y1593997D02*
Y1595060D01*
X1985116Y1593997D02*
Y1595060D01*
X1985136Y1593997D02*
Y1595060D01*
X1985156Y1593997D02*
Y1595060D01*
X1985175Y1593997D02*
Y1595060D01*
X1985195Y1593997D02*
Y1595060D01*
X1985215Y1593997D02*
Y1595060D01*
X1985234Y1593997D02*
Y1595060D01*
X1985254Y1593997D02*
Y1595060D01*
X1985274Y1593997D02*
Y1595060D01*
X1985293Y1593997D02*
Y1595060D01*
X1985313Y1593997D02*
Y1595060D01*
X1985333Y1593997D02*
Y1595060D01*
X1985352Y1593997D02*
Y1595060D01*
X1985372Y1593997D02*
Y1595060D01*
X1985392Y1593997D02*
Y1595060D01*
X1985411Y1593997D02*
Y1595060D01*
X1985431Y1593997D02*
Y1595060D01*
X1985451Y1593997D02*
Y1595060D01*
X1985470Y1593997D02*
Y1595060D01*
X1985490Y1593997D02*
Y1595060D01*
X1985510Y1593997D02*
Y1595060D01*
X1985530Y1593997D02*
Y1595060D01*
X1985549Y1593997D02*
Y1595060D01*
X1985569Y1593997D02*
Y1595060D01*
X1985589Y1593997D02*
Y1595060D01*
X1985608Y1593997D02*
Y1595060D01*
X1985628Y1593997D02*
Y1595060D01*
X1985648Y1593997D02*
Y1595060D01*
X1985667Y1593997D02*
Y1595060D01*
X1985687Y1593997D02*
Y1595060D01*
X1985707Y1593997D02*
Y1595060D01*
X1985726Y1593997D02*
Y1595060D01*
X1985746Y1593997D02*
Y1595060D01*
X1985766Y1593997D02*
Y1595060D01*
X1985785Y1593997D02*
Y1595060D01*
X1985805Y1593997D02*
Y1595060D01*
X1985825Y1593997D02*
Y1595060D01*
X1985844Y1593997D02*
Y1595060D01*
X1985864Y1593997D02*
Y1595060D01*
X1985884Y1593997D02*
Y1595060D01*
X1985904Y1593997D02*
Y1595060D01*
X1983246Y1596497D02*
X1983247Y1596462D01*
X1983251Y1596428*
X1983256Y1596394*
X1983264Y1596360*
X1983274Y1596326*
X1983287Y1596294*
X1983301Y1596262*
X1983317Y1596231*
X1983336Y1596202*
X1983356Y1596174*
X1983378Y1596147*
X1983402Y1596121*
X1983427Y1596098*
X1983454Y1596076*
X1983482Y1596055*
X1983512Y1596037*
X1983542Y1596021*
X1983574Y1596006*
X1983607Y1595994*
X1983640Y1595984*
X1983674Y1595976*
X1983708Y1595970*
X1983743Y1595967*
X1983778Y1595966*
X1985923*
Y1597029*
X1983778*
X1983743Y1597028*
X1983708Y1597024*
X1983674Y1597019*
X1983640Y1597011*
X1983607Y1597001*
X1983574Y1596988*
X1983542Y1596974*
X1983512Y1596958*
X1983482Y1596939*
X1983454Y1596919*
X1983427Y1596897*
X1983402Y1596873*
X1983378Y1596848*
X1983356Y1596821*
X1983336Y1596793*
X1983317Y1596763*
X1983301Y1596732*
X1983287Y1596701*
X1983274Y1596668*
X1983264Y1596635*
X1983256Y1596601*
X1983251Y1596567*
X1983247Y1596532*
X1983246Y1596497*
X1983246*
X1983266Y1596354D02*
Y1596640D01*
X1983285Y1596297D02*
Y1596698D01*
X1983305Y1596254D02*
Y1596740D01*
X1983325Y1596219D02*
Y1596775D01*
X1983344Y1596190D02*
Y1596805D01*
X1983364Y1596164D02*
Y1596831D01*
X1983384Y1596141D02*
Y1596854D01*
X1983404Y1596120D02*
Y1596875D01*
X1983423Y1596101D02*
Y1596893D01*
X1983443Y1596085D02*
Y1596910D01*
X1983463Y1596069D02*
Y1596925D01*
X1983482Y1596055D02*
Y1596939D01*
X1983502Y1596043D02*
Y1596951D01*
X1983522Y1596032D02*
Y1596963D01*
X1983541Y1596021D02*
Y1596973D01*
X1983561Y1596012D02*
Y1596982D01*
X1983581Y1596004D02*
Y1596991D01*
X1983600Y1595996D02*
Y1596998D01*
X1983620Y1595990D02*
Y1597005D01*
X1983640Y1595984D02*
Y1597011D01*
X1983659Y1595979D02*
Y1597015D01*
X1983679Y1595975D02*
Y1597019D01*
X1983699Y1595972D02*
Y1597023D01*
X1983719Y1595969D02*
Y1597025D01*
X1983738Y1595967D02*
Y1597027D01*
X1983758Y1595966D02*
Y1597028D01*
X1983778Y1595966D02*
Y1597029D01*
X1983797Y1595966D02*
Y1597029D01*
X1983817Y1595966D02*
Y1597029D01*
X1983837Y1595966D02*
Y1597029D01*
X1983856Y1595966D02*
Y1597029D01*
X1983876Y1595966D02*
Y1597029D01*
X1983896Y1595966D02*
Y1597029D01*
X1983915Y1595966D02*
Y1597029D01*
X1983935Y1595966D02*
Y1597029D01*
X1983955Y1595966D02*
Y1597029D01*
X1983974Y1595966D02*
Y1597029D01*
X1983994Y1595966D02*
Y1597029D01*
X1984014Y1595966D02*
Y1597029D01*
X1984033Y1595966D02*
Y1597029D01*
X1984053Y1595966D02*
Y1597029D01*
X1984073Y1595966D02*
Y1597029D01*
X1984093Y1595966D02*
Y1597029D01*
X1984112Y1595966D02*
Y1597029D01*
X1984132Y1595966D02*
Y1597029D01*
X1984152Y1595966D02*
Y1597029D01*
X1984171Y1595966D02*
Y1597029D01*
X1984191Y1595966D02*
Y1597029D01*
X1984211Y1595966D02*
Y1597029D01*
X1984230Y1595966D02*
Y1597029D01*
X1984250Y1595966D02*
Y1597029D01*
X1984270Y1595966D02*
Y1597029D01*
X1984289Y1595966D02*
Y1597029D01*
X1984309Y1595966D02*
Y1597029D01*
X1984329Y1595966D02*
Y1597029D01*
X1984348Y1595966D02*
Y1597029D01*
X1984368Y1595966D02*
Y1597029D01*
X1984388Y1595966D02*
Y1597029D01*
X1984407Y1595966D02*
Y1597029D01*
X1984427Y1595966D02*
Y1597029D01*
X1984447Y1595966D02*
Y1597029D01*
X1984467Y1595966D02*
Y1597029D01*
X1984486Y1595966D02*
Y1597029D01*
X1984506Y1595966D02*
Y1597029D01*
X1984526Y1595966D02*
Y1597029D01*
X1984545Y1595966D02*
Y1597029D01*
X1984565Y1595966D02*
Y1597029D01*
X1984585Y1595966D02*
Y1597029D01*
X1984604Y1595966D02*
Y1597029D01*
X1984624Y1595966D02*
Y1597029D01*
X1984644Y1595966D02*
Y1597029D01*
X1984663Y1595966D02*
Y1597029D01*
X1984683Y1595966D02*
Y1597029D01*
X1984703Y1595966D02*
Y1597029D01*
X1984722Y1595966D02*
Y1597029D01*
X1984742Y1595966D02*
Y1597029D01*
X1984762Y1595966D02*
Y1597029D01*
X1984781Y1595966D02*
Y1597029D01*
X1984801Y1595966D02*
Y1597029D01*
X1984821Y1595966D02*
Y1597029D01*
X1984841Y1595966D02*
Y1597029D01*
X1984860Y1595966D02*
Y1597029D01*
X1984880Y1595966D02*
Y1597029D01*
X1984900Y1595966D02*
Y1597029D01*
X1984919Y1595966D02*
Y1597029D01*
X1984939Y1595966D02*
Y1597029D01*
X1984959Y1595966D02*
Y1597029D01*
X1984978Y1595966D02*
Y1597029D01*
X1984998Y1595966D02*
Y1597029D01*
X1985018Y1595966D02*
Y1597029D01*
X1985037Y1595966D02*
Y1597029D01*
X1985057Y1595966D02*
Y1597029D01*
X1985077Y1595966D02*
Y1597029D01*
X1985096Y1595966D02*
Y1597029D01*
X1985116Y1595966D02*
Y1597029D01*
X1985136Y1595966D02*
Y1597029D01*
X1985156Y1595966D02*
Y1597029D01*
X1985175Y1595966D02*
Y1597029D01*
X1985195Y1595966D02*
Y1597029D01*
X1985215Y1595966D02*
Y1597029D01*
X1985234Y1595966D02*
Y1597029D01*
X1985254Y1595966D02*
Y1597029D01*
X1985274Y1595966D02*
Y1597029D01*
X1985293Y1595966D02*
Y1597029D01*
X1985313Y1595966D02*
Y1597029D01*
X1985333Y1595966D02*
Y1597029D01*
X1985352Y1595966D02*
Y1597029D01*
X1985372Y1595966D02*
Y1597029D01*
X1985392Y1595966D02*
Y1597029D01*
X1985411Y1595966D02*
Y1597029D01*
X1985431Y1595966D02*
Y1597029D01*
X1985451Y1595966D02*
Y1597029D01*
X1985470Y1595966D02*
Y1597029D01*
X1985490Y1595966D02*
Y1597029D01*
X1985510Y1595966D02*
Y1597029D01*
X1985530Y1595966D02*
Y1597029D01*
X1985549Y1595966D02*
Y1597029D01*
X1985569Y1595966D02*
Y1597029D01*
X1985589Y1595966D02*
Y1597029D01*
X1985608Y1595966D02*
Y1597029D01*
X1985628Y1595966D02*
Y1597029D01*
X1985648Y1595966D02*
Y1597029D01*
X1985667Y1595966D02*
Y1597029D01*
X1985687Y1595966D02*
Y1597029D01*
X1985707Y1595966D02*
Y1597029D01*
X1985726Y1595966D02*
Y1597029D01*
X1985746Y1595966D02*
Y1597029D01*
X1985766Y1595966D02*
Y1597029D01*
X1985785Y1595966D02*
Y1597029D01*
X1985805Y1595966D02*
Y1597029D01*
X1985825Y1595966D02*
Y1597029D01*
X1985844Y1595966D02*
Y1597029D01*
X1985864Y1595966D02*
Y1597029D01*
X1985884Y1595966D02*
Y1597029D01*
X1985904Y1595966D02*
Y1597029D01*
X1983246Y1598466D02*
X1983247Y1598431D01*
X1983251Y1598396*
X1983256Y1598362*
X1983264Y1598328*
X1983274Y1598295*
X1983287Y1598262*
X1983301Y1598231*
X1983317Y1598200*
X1983336Y1598170*
X1983356Y1598142*
X1983378Y1598115*
X1983402Y1598090*
X1983427Y1598066*
X1983454Y1598044*
X1983482Y1598024*
X1983512Y1598005*
X1983542Y1597989*
X1983574Y1597975*
X1983607Y1597962*
X1983640Y1597952*
X1983674Y1597944*
X1983708Y1597939*
X1983743Y1597935*
X1983778Y1597934*
X1985923*
Y1598997*
X1983778*
X1983743Y1598996*
X1983708Y1598993*
X1983674Y1598987*
X1983640Y1598979*
X1983607Y1598969*
X1983574Y1598957*
X1983542Y1598942*
X1983512Y1598926*
X1983482Y1598908*
X1983454Y1598887*
X1983427Y1598865*
X1983402Y1598842*
X1983378Y1598816*
X1983356Y1598789*
X1983336Y1598761*
X1983317Y1598731*
X1983301Y1598701*
X1983287Y1598669*
X1983274Y1598637*
X1983264Y1598603*
X1983256Y1598569*
X1983251Y1598535*
X1983247Y1598501*
X1983246Y1598466*
X1983246*
X1983266Y1598323D02*
Y1598609D01*
X1983285Y1598265D02*
Y1598666D01*
X1983305Y1598223D02*
Y1598709D01*
X1983325Y1598188D02*
Y1598744D01*
X1983344Y1598158D02*
Y1598773D01*
X1983364Y1598132D02*
Y1598799D01*
X1983384Y1598109D02*
Y1598822D01*
X1983404Y1598088D02*
Y1598843D01*
X1983423Y1598070D02*
Y1598862D01*
X1983443Y1598053D02*
Y1598878D01*
X1983463Y1598038D02*
Y1598894D01*
X1983482Y1598024D02*
Y1598908D01*
X1983502Y1598012D02*
Y1598920D01*
X1983522Y1598000D02*
Y1598931D01*
X1983541Y1597990D02*
Y1598942D01*
X1983561Y1597981D02*
Y1598951D01*
X1983581Y1597972D02*
Y1598959D01*
X1983600Y1597965D02*
Y1598967D01*
X1983620Y1597958D02*
Y1598973D01*
X1983640Y1597952D02*
Y1598979D01*
X1983659Y1597948D02*
Y1598984D01*
X1983679Y1597944D02*
Y1598988D01*
X1983699Y1597940D02*
Y1598991D01*
X1983719Y1597938D02*
Y1598994D01*
X1983738Y1597936D02*
Y1598996D01*
X1983758Y1597935D02*
Y1598997D01*
X1983778Y1597934D02*
Y1598997D01*
X1983797Y1597934D02*
Y1598997D01*
X1983817Y1597934D02*
Y1598997D01*
X1983837Y1597934D02*
Y1598997D01*
X1983856Y1597934D02*
Y1598997D01*
X1983876Y1597934D02*
Y1598997D01*
X1983896Y1597934D02*
Y1598997D01*
X1983915Y1597934D02*
Y1598997D01*
X1983935Y1597934D02*
Y1598997D01*
X1983955Y1597934D02*
Y1598997D01*
X1983974Y1597934D02*
Y1598997D01*
X1983994Y1597934D02*
Y1598997D01*
X1984014Y1597934D02*
Y1598997D01*
X1984033Y1597934D02*
Y1598997D01*
X1984053Y1597934D02*
Y1598997D01*
X1984073Y1597934D02*
Y1598997D01*
X1984093Y1597934D02*
Y1598997D01*
X1984112Y1597934D02*
Y1598997D01*
X1984132Y1597934D02*
Y1598997D01*
X1984152Y1597934D02*
Y1598997D01*
X1984171Y1597934D02*
Y1598997D01*
X1984191Y1597934D02*
Y1598997D01*
X1984211Y1597934D02*
Y1598997D01*
X1984230Y1597934D02*
Y1598997D01*
X1984250Y1597934D02*
Y1598997D01*
X1984270Y1597934D02*
Y1598997D01*
X1984289Y1597934D02*
Y1598997D01*
X1984309Y1597934D02*
Y1598997D01*
X1984329Y1597934D02*
Y1598997D01*
X1984348Y1597934D02*
Y1598997D01*
X1984368Y1597934D02*
Y1598997D01*
X1984388Y1597934D02*
Y1598997D01*
X1984407Y1597934D02*
Y1598997D01*
X1984427Y1597934D02*
Y1598997D01*
X1984447Y1597934D02*
Y1598997D01*
X1984467Y1597934D02*
Y1598997D01*
X1984486Y1597934D02*
Y1598997D01*
X1984506Y1597934D02*
Y1598997D01*
X1984526Y1597934D02*
Y1598997D01*
X1984545Y1597934D02*
Y1598997D01*
X1984565Y1597934D02*
Y1598997D01*
X1984585Y1597934D02*
Y1598997D01*
X1984604Y1597934D02*
Y1598997D01*
X1984624Y1597934D02*
Y1598997D01*
X1984644Y1597934D02*
Y1598997D01*
X1984663Y1597934D02*
Y1598997D01*
X1984683Y1597934D02*
Y1598997D01*
X1984703Y1597934D02*
Y1598997D01*
X1984722Y1597934D02*
Y1598997D01*
X1984742Y1597934D02*
Y1598997D01*
X1984762Y1597934D02*
Y1598997D01*
X1984781Y1597934D02*
Y1598997D01*
X1984801Y1597934D02*
Y1598997D01*
X1984821Y1597934D02*
Y1598997D01*
X1984841Y1597934D02*
Y1598997D01*
X1984860Y1597934D02*
Y1598997D01*
X1984880Y1597934D02*
Y1598997D01*
X1984900Y1597934D02*
Y1598997D01*
X1984919Y1597934D02*
Y1598997D01*
X1984939Y1597934D02*
Y1598997D01*
X1984959Y1597934D02*
Y1598997D01*
X1984978Y1597934D02*
Y1598997D01*
X1984998Y1597934D02*
Y1598997D01*
X1985018Y1597934D02*
Y1598997D01*
X1985037Y1597934D02*
Y1598997D01*
X1985057Y1597934D02*
Y1598997D01*
X1985077Y1597934D02*
Y1598997D01*
X1985096Y1597934D02*
Y1598997D01*
X1985116Y1597934D02*
Y1598997D01*
X1985136Y1597934D02*
Y1598997D01*
X1985156Y1597934D02*
Y1598997D01*
X1985175Y1597934D02*
Y1598997D01*
X1985195Y1597934D02*
Y1598997D01*
X1985215Y1597934D02*
Y1598997D01*
X1985234Y1597934D02*
Y1598997D01*
X1985254Y1597934D02*
Y1598997D01*
X1985274Y1597934D02*
Y1598997D01*
X1985293Y1597934D02*
Y1598997D01*
X1985313Y1597934D02*
Y1598997D01*
X1985333Y1597934D02*
Y1598997D01*
X1985352Y1597934D02*
Y1598997D01*
X1985372Y1597934D02*
Y1598997D01*
X1985392Y1597934D02*
Y1598997D01*
X1985411Y1597934D02*
Y1598997D01*
X1985431Y1597934D02*
Y1598997D01*
X1985451Y1597934D02*
Y1598997D01*
X1985470Y1597934D02*
Y1598997D01*
X1985490Y1597934D02*
Y1598997D01*
X1985510Y1597934D02*
Y1598997D01*
X1985530Y1597934D02*
Y1598997D01*
X1985549Y1597934D02*
Y1598997D01*
X1985569Y1597934D02*
Y1598997D01*
X1985589Y1597934D02*
Y1598997D01*
X1985608Y1597934D02*
Y1598997D01*
X1985628Y1597934D02*
Y1598997D01*
X1985648Y1597934D02*
Y1598997D01*
X1985667Y1597934D02*
Y1598997D01*
X1985687Y1597934D02*
Y1598997D01*
X1985707Y1597934D02*
Y1598997D01*
X1985726Y1597934D02*
Y1598997D01*
X1985746Y1597934D02*
Y1598997D01*
X1985766Y1597934D02*
Y1598997D01*
X1985785Y1597934D02*
Y1598997D01*
X1985805Y1597934D02*
Y1598997D01*
X1985825Y1597934D02*
Y1598997D01*
X1985844Y1597934D02*
Y1598997D01*
X1985864Y1597934D02*
Y1598997D01*
X1985884Y1597934D02*
Y1598997D01*
X1985904Y1597934D02*
Y1598997D01*
X1983246Y1600434D02*
X1983247Y1600399D01*
X1983251Y1600365*
X1983256Y1600331*
X1983264Y1600297*
X1983274Y1600263*
X1983287Y1600231*
X1983301Y1600199*
X1983317Y1600169*
X1983336Y1600139*
X1983356Y1600111*
X1983378Y1600084*
X1983402Y1600058*
X1983427Y1600035*
X1983454Y1600013*
X1983482Y1599992*
X1983512Y1599974*
X1983542Y1599958*
X1983574Y1599943*
X1983607Y1599931*
X1983640Y1599921*
X1983674Y1599913*
X1983708Y1599907*
X1983743Y1599904*
X1983778Y1599903*
X1985923*
Y1600966*
X1983778*
X1983743Y1600965*
X1983708Y1600961*
X1983674Y1600956*
X1983640Y1600948*
X1983607Y1600938*
X1983574Y1600925*
X1983542Y1600911*
X1983512Y1600895*
X1983482Y1600876*
X1983454Y1600856*
X1983427Y1600834*
X1983402Y1600810*
X1983378Y1600785*
X1983356Y1600758*
X1983336Y1600730*
X1983317Y1600700*
X1983301Y1600669*
X1983287Y1600638*
X1983274Y1600605*
X1983264Y1600572*
X1983256Y1600538*
X1983251Y1600504*
X1983247Y1600469*
X1983246Y1600434*
X1983246*
X1983266Y1600291D02*
Y1600577D01*
X1983285Y1600234D02*
Y1600635D01*
X1983305Y1600191D02*
Y1600677D01*
X1983325Y1600156D02*
Y1600712D01*
X1983344Y1600127D02*
Y1600742D01*
X1983364Y1600101D02*
Y1600768D01*
X1983384Y1600078D02*
Y1600791D01*
X1983404Y1600057D02*
Y1600812D01*
X1983423Y1600038D02*
Y1600830D01*
X1983443Y1600022D02*
Y1600847D01*
X1983463Y1600006D02*
Y1600862D01*
X1983482Y1599992D02*
Y1600876D01*
X1983502Y1599980D02*
Y1600888D01*
X1983522Y1599969D02*
Y1600900D01*
X1983541Y1599958D02*
Y1600910D01*
X1983561Y1599949D02*
Y1600919D01*
X1983581Y1599941D02*
Y1600928D01*
X1983600Y1599933D02*
Y1600935D01*
X1983620Y1599927D02*
Y1600942D01*
X1983640Y1599921D02*
Y1600948D01*
X1983659Y1599916D02*
Y1600952D01*
X1983679Y1599912D02*
Y1600956D01*
X1983699Y1599909D02*
Y1600960D01*
X1983719Y1599906D02*
Y1600962D01*
X1983738Y1599904D02*
Y1600964D01*
X1983758Y1599903D02*
Y1600965D01*
X1983778Y1599903D02*
Y1600966D01*
X1983797Y1599903D02*
Y1600966D01*
X1983817Y1599903D02*
Y1600966D01*
X1983837Y1599903D02*
Y1600966D01*
X1983856Y1599903D02*
Y1600966D01*
X1983876Y1599903D02*
Y1600966D01*
X1983896Y1599903D02*
Y1600966D01*
X1983915Y1599903D02*
Y1600966D01*
X1983935Y1599903D02*
Y1600966D01*
X1983955Y1599903D02*
Y1600966D01*
X1983974Y1599903D02*
Y1600966D01*
X1983994Y1599903D02*
Y1600966D01*
X1984014Y1599903D02*
Y1600966D01*
X1984033Y1599903D02*
Y1600966D01*
X1984053Y1599903D02*
Y1600966D01*
X1984073Y1599903D02*
Y1600966D01*
X1984093Y1599903D02*
Y1600966D01*
X1984112Y1599903D02*
Y1600966D01*
X1984132Y1599903D02*
Y1600966D01*
X1984152Y1599903D02*
Y1600966D01*
X1984171Y1599903D02*
Y1600966D01*
X1984191Y1599903D02*
Y1600966D01*
X1984211Y1599903D02*
Y1600966D01*
X1984230Y1599903D02*
Y1600966D01*
X1984250Y1599903D02*
Y1600966D01*
X1984270Y1599903D02*
Y1600966D01*
X1984289Y1599903D02*
Y1600966D01*
X1984309Y1599903D02*
Y1600966D01*
X1984329Y1599903D02*
Y1600966D01*
X1984348Y1599903D02*
Y1600966D01*
X1984368Y1599903D02*
Y1600966D01*
X1984388Y1599903D02*
Y1600966D01*
X1984407Y1599903D02*
Y1600966D01*
X1984427Y1599903D02*
Y1600966D01*
X1984447Y1599903D02*
Y1600966D01*
X1984467Y1599903D02*
Y1600966D01*
X1984486Y1599903D02*
Y1600966D01*
X1984506Y1599903D02*
Y1600966D01*
X1984526Y1599903D02*
Y1600966D01*
X1984545Y1599903D02*
Y1600966D01*
X1984565Y1599903D02*
Y1600966D01*
X1984585Y1599903D02*
Y1600966D01*
X1984604Y1599903D02*
Y1600966D01*
X1984624Y1599903D02*
Y1600966D01*
X1984644Y1599903D02*
Y1600966D01*
X1984663Y1599903D02*
Y1600966D01*
X1984683Y1599903D02*
Y1600966D01*
X1984703Y1599903D02*
Y1600966D01*
X1984722Y1599903D02*
Y1600966D01*
X1984742Y1599903D02*
Y1600966D01*
X1984762Y1599903D02*
Y1600966D01*
X1984781Y1599903D02*
Y1600966D01*
X1984801Y1599903D02*
Y1600966D01*
X1984821Y1599903D02*
Y1600966D01*
X1984841Y1599903D02*
Y1600966D01*
X1984860Y1599903D02*
Y1600966D01*
X1984880Y1599903D02*
Y1600966D01*
X1984900Y1599903D02*
Y1600966D01*
X1984919Y1599903D02*
Y1600966D01*
X1984939Y1599903D02*
Y1600966D01*
X1984959Y1599903D02*
Y1600966D01*
X1984978Y1599903D02*
Y1600966D01*
X1984998Y1599903D02*
Y1600966D01*
X1985018Y1599903D02*
Y1600966D01*
X1985037Y1599903D02*
Y1600966D01*
X1985057Y1599903D02*
Y1600966D01*
X1985077Y1599903D02*
Y1600966D01*
X1985096Y1599903D02*
Y1600966D01*
X1985116Y1599903D02*
Y1600966D01*
X1985136Y1599903D02*
Y1600966D01*
X1985156Y1599903D02*
Y1600966D01*
X1985175Y1599903D02*
Y1600966D01*
X1985195Y1599903D02*
Y1600966D01*
X1985215Y1599903D02*
Y1600966D01*
X1985234Y1599903D02*
Y1600966D01*
X1985254Y1599903D02*
Y1600966D01*
X1985274Y1599903D02*
Y1600966D01*
X1985293Y1599903D02*
Y1600966D01*
X1985313Y1599903D02*
Y1600966D01*
X1985333Y1599903D02*
Y1600966D01*
X1985352Y1599903D02*
Y1600966D01*
X1985372Y1599903D02*
Y1600966D01*
X1985392Y1599903D02*
Y1600966D01*
X1985411Y1599903D02*
Y1600966D01*
X1985431Y1599903D02*
Y1600966D01*
X1985451Y1599903D02*
Y1600966D01*
X1985470Y1599903D02*
Y1600966D01*
X1985490Y1599903D02*
Y1600966D01*
X1985510Y1599903D02*
Y1600966D01*
X1985530Y1599903D02*
Y1600966D01*
X1985549Y1599903D02*
Y1600966D01*
X1985569Y1599903D02*
Y1600966D01*
X1985589Y1599903D02*
Y1600966D01*
X1985608Y1599903D02*
Y1600966D01*
X1985628Y1599903D02*
Y1600966D01*
X1985648Y1599903D02*
Y1600966D01*
X1985667Y1599903D02*
Y1600966D01*
X1985687Y1599903D02*
Y1600966D01*
X1985707Y1599903D02*
Y1600966D01*
X1985726Y1599903D02*
Y1600966D01*
X1985746Y1599903D02*
Y1600966D01*
X1985766Y1599903D02*
Y1600966D01*
X1985785Y1599903D02*
Y1600966D01*
X1985805Y1599903D02*
Y1600966D01*
X1985825Y1599903D02*
Y1600966D01*
X1985844Y1599903D02*
Y1600966D01*
X1985864Y1599903D02*
Y1600966D01*
X1985884Y1599903D02*
Y1600966D01*
X1985904Y1599903D02*
Y1600966D01*
X1983246Y1602403D02*
X1983247Y1602368D01*
X1983251Y1602333*
X1983256Y1602299*
X1983264Y1602265*
X1983274Y1602232*
X1983287Y1602199*
X1983301Y1602168*
X1983317Y1602137*
X1983336Y1602107*
X1983356Y1602079*
X1983378Y1602052*
X1983402Y1602027*
X1983427Y1602003*
X1983454Y1601981*
X1983482Y1601961*
X1983512Y1601942*
X1983542Y1601926*
X1983574Y1601912*
X1983607Y1601899*
X1983640Y1601889*
X1983674Y1601881*
X1983708Y1601876*
X1983743Y1601872*
X1983778Y1601871*
X1985923*
Y1602934*
X1983778*
X1983743Y1602933*
X1983708Y1602930*
X1983674Y1602924*
X1983640Y1602916*
X1983607Y1602906*
X1983574Y1602894*
X1983542Y1602879*
X1983512Y1602863*
X1983482Y1602845*
X1983454Y1602824*
X1983427Y1602802*
X1983402Y1602779*
X1983378Y1602753*
X1983356Y1602726*
X1983336Y1602698*
X1983317Y1602669*
X1983301Y1602638*
X1983287Y1602606*
X1983274Y1602574*
X1983264Y1602540*
X1983256Y1602506*
X1983251Y1602472*
X1983247Y1602438*
X1983246Y1602403*
X1983246*
X1983266Y1602260D02*
Y1602546D01*
X1983285Y1602202D02*
Y1602603D01*
X1983305Y1602160D02*
Y1602646D01*
X1983325Y1602125D02*
Y1602681D01*
X1983344Y1602095D02*
Y1602710D01*
X1983364Y1602069D02*
Y1602736D01*
X1983384Y1602046D02*
Y1602759D01*
X1983404Y1602025D02*
Y1602780D01*
X1983423Y1602007D02*
Y1602799D01*
X1983443Y1601990D02*
Y1602815D01*
X1983463Y1601975D02*
Y1602831D01*
X1983482Y1601961D02*
Y1602845D01*
X1983502Y1601949D02*
Y1602857D01*
X1983522Y1601937D02*
Y1602868D01*
X1983541Y1601927D02*
Y1602879D01*
X1983561Y1601918D02*
Y1602888D01*
X1983581Y1601909D02*
Y1602896D01*
X1983600Y1601902D02*
Y1602904D01*
X1983620Y1601895D02*
Y1602910D01*
X1983640Y1601889D02*
Y1602916D01*
X1983659Y1601885D02*
Y1602921D01*
X1983679Y1601881D02*
Y1602925D01*
X1983699Y1601877D02*
Y1602928D01*
X1983719Y1601875D02*
Y1602931D01*
X1983738Y1601873D02*
Y1602933D01*
X1983758Y1601872D02*
Y1602934D01*
X1983778Y1601871D02*
Y1602934D01*
X1983797Y1601871D02*
Y1602934D01*
X1983817Y1601871D02*
Y1602934D01*
X1983837Y1601871D02*
Y1602934D01*
X1983856Y1601871D02*
Y1602934D01*
X1983876Y1601871D02*
Y1602934D01*
X1983896Y1601871D02*
Y1602934D01*
X1983915Y1601871D02*
Y1602934D01*
X1983935Y1601871D02*
Y1602934D01*
X1983955Y1601871D02*
Y1602934D01*
X1983974Y1601871D02*
Y1602934D01*
X1983994Y1601871D02*
Y1602934D01*
X1984014Y1601871D02*
Y1602934D01*
X1984033Y1601871D02*
Y1602934D01*
X1984053Y1601871D02*
Y1602934D01*
X1984073Y1601871D02*
Y1602934D01*
X1984093Y1601871D02*
Y1602934D01*
X1984112Y1601871D02*
Y1602934D01*
X1984132Y1601871D02*
Y1602934D01*
X1984152Y1601871D02*
Y1602934D01*
X1984171Y1601871D02*
Y1602934D01*
X1984191Y1601871D02*
Y1602934D01*
X1984211Y1601871D02*
Y1602934D01*
X1984230Y1601871D02*
Y1602934D01*
X1984250Y1601871D02*
Y1602934D01*
X1984270Y1601871D02*
Y1602934D01*
X1984289Y1601871D02*
Y1602934D01*
X1984309Y1601871D02*
Y1602934D01*
X1984329Y1601871D02*
Y1602934D01*
X1984348Y1601871D02*
Y1602934D01*
X1984368Y1601871D02*
Y1602934D01*
X1984388Y1601871D02*
Y1602934D01*
X1984407Y1601871D02*
Y1602934D01*
X1984427Y1601871D02*
Y1602934D01*
X1984447Y1601871D02*
Y1602934D01*
X1984467Y1601871D02*
Y1602934D01*
X1984486Y1601871D02*
Y1602934D01*
X1984506Y1601871D02*
Y1602934D01*
X1984526Y1601871D02*
Y1602934D01*
X1984545Y1601871D02*
Y1602934D01*
X1984565Y1601871D02*
Y1602934D01*
X1984585Y1601871D02*
Y1602934D01*
X1984604Y1601871D02*
Y1602934D01*
X1984624Y1601871D02*
Y1602934D01*
X1984644Y1601871D02*
Y1602934D01*
X1984663Y1601871D02*
Y1602934D01*
X1984683Y1601871D02*
Y1602934D01*
X1984703Y1601871D02*
Y1602934D01*
X1984722Y1601871D02*
Y1602934D01*
X1984742Y1601871D02*
Y1602934D01*
X1984762Y1601871D02*
Y1602934D01*
X1984781Y1601871D02*
Y1602934D01*
X1984801Y1601871D02*
Y1602934D01*
X1984821Y1601871D02*
Y1602934D01*
X1984841Y1601871D02*
Y1602934D01*
X1984860Y1601871D02*
Y1602934D01*
X1984880Y1601871D02*
Y1602934D01*
X1984900Y1601871D02*
Y1602934D01*
X1984919Y1601871D02*
Y1602934D01*
X1984939Y1601871D02*
Y1602934D01*
X1984959Y1601871D02*
Y1602934D01*
X1984978Y1601871D02*
Y1602934D01*
X1984998Y1601871D02*
Y1602934D01*
X1985018Y1601871D02*
Y1602934D01*
X1985037Y1601871D02*
Y1602934D01*
X1985057Y1601871D02*
Y1602934D01*
X1985077Y1601871D02*
Y1602934D01*
X1985096Y1601871D02*
Y1602934D01*
X1985116Y1601871D02*
Y1602934D01*
X1985136Y1601871D02*
Y1602934D01*
X1985156Y1601871D02*
Y1602934D01*
X1985175Y1601871D02*
Y1602934D01*
X1985195Y1601871D02*
Y1602934D01*
X1985215Y1601871D02*
Y1602934D01*
X1985234Y1601871D02*
Y1602934D01*
X1985254Y1601871D02*
Y1602934D01*
X1985274Y1601871D02*
Y1602934D01*
X1985293Y1601871D02*
Y1602934D01*
X1985313Y1601871D02*
Y1602934D01*
X1985333Y1601871D02*
Y1602934D01*
X1985352Y1601871D02*
Y1602934D01*
X1985372Y1601871D02*
Y1602934D01*
X1985392Y1601871D02*
Y1602934D01*
X1985411Y1601871D02*
Y1602934D01*
X1985431Y1601871D02*
Y1602934D01*
X1985451Y1601871D02*
Y1602934D01*
X1985470Y1601871D02*
Y1602934D01*
X1985490Y1601871D02*
Y1602934D01*
X1985510Y1601871D02*
Y1602934D01*
X1985530Y1601871D02*
Y1602934D01*
X1985549Y1601871D02*
Y1602934D01*
X1985569Y1601871D02*
Y1602934D01*
X1985589Y1601871D02*
Y1602934D01*
X1985608Y1601871D02*
Y1602934D01*
X1985628Y1601871D02*
Y1602934D01*
X1985648Y1601871D02*
Y1602934D01*
X1985667Y1601871D02*
Y1602934D01*
X1985687Y1601871D02*
Y1602934D01*
X1985707Y1601871D02*
Y1602934D01*
X1985726Y1601871D02*
Y1602934D01*
X1985746Y1601871D02*
Y1602934D01*
X1985766Y1601871D02*
Y1602934D01*
X1985785Y1601871D02*
Y1602934D01*
X1985805Y1601871D02*
Y1602934D01*
X1985825Y1601871D02*
Y1602934D01*
X1985844Y1601871D02*
Y1602934D01*
X1985864Y1601871D02*
Y1602934D01*
X1985884Y1601871D02*
Y1602934D01*
X1985904Y1601871D02*
Y1602934D01*
X1983246Y1604371D02*
X1983247Y1604336D01*
X1983247D02*
X1983251Y1604302D01*
X1983256Y1604268*
X1983264Y1604234*
X1983274Y1604200*
X1983287Y1604168*
X1983301Y1604136*
X1983317Y1604106*
X1983336Y1604076*
X1983356Y1604048*
X1983378Y1604021*
X1983402Y1603995*
X1983427Y1603972*
X1983454Y1603950*
X1983482Y1603929*
X1983512Y1603911*
X1983542Y1603895*
X1983574Y1603880*
X1983607Y1603868*
X1983640Y1603858*
X1983674Y1603850*
X1983708Y1603844*
X1983743Y1603841*
X1983778Y1603840*
X1985923*
Y1604903*
X1983778*
X1983743Y1604902*
X1983708Y1604898*
X1983674Y1604893*
X1983640Y1604885*
X1983607Y1604875*
X1983574Y1604862*
X1983542Y1604848*
X1983512Y1604832*
X1983482Y1604813*
X1983454Y1604793*
X1983427Y1604771*
X1983402Y1604747*
X1983378Y1604722*
X1983356Y1604695*
X1983336Y1604667*
X1983317Y1604637*
X1983301Y1604606*
X1983287Y1604575*
X1983274Y1604542*
X1983264Y1604509*
X1983256Y1604475*
X1983251Y1604441*
X1983247Y1604406*
X1983246Y1604371*
X1983246*
X1983266Y1604229D02*
Y1604514D01*
X1983285Y1604171D02*
Y1604572D01*
X1983305Y1604128D02*
Y1604614D01*
X1983325Y1604093D02*
Y1604649D01*
X1983344Y1604064D02*
Y1604679D01*
X1983364Y1604038D02*
Y1604705D01*
X1983384Y1604015D02*
Y1604728D01*
X1983404Y1603994D02*
Y1604749D01*
X1983423Y1603975D02*
Y1604767D01*
X1983443Y1603959D02*
Y1604784D01*
X1983463Y1603943D02*
Y1604799D01*
X1983482Y1603929D02*
Y1604813D01*
X1983502Y1603917D02*
Y1604825D01*
X1983522Y1603906D02*
Y1604837D01*
X1983541Y1603895D02*
Y1604847D01*
X1983561Y1603886D02*
Y1604856D01*
X1983581Y1603878D02*
Y1604865D01*
X1983600Y1603870D02*
Y1604872D01*
X1983620Y1603864D02*
Y1604879D01*
X1983640Y1603858D02*
Y1604885D01*
X1983659Y1603853D02*
Y1604889D01*
X1983679Y1603849D02*
Y1604893D01*
X1983699Y1603846D02*
Y1604897D01*
X1983719Y1603843D02*
Y1604899D01*
X1983738Y1603841D02*
Y1604901D01*
X1983758Y1603840D02*
Y1604902D01*
X1983778Y1603840D02*
Y1604903D01*
X1983797Y1603840D02*
Y1604903D01*
X1983817Y1603840D02*
Y1604903D01*
X1983837Y1603840D02*
Y1604903D01*
X1983856Y1603840D02*
Y1604903D01*
X1983876Y1603840D02*
Y1604903D01*
X1983896Y1603840D02*
Y1604903D01*
X1983915Y1603840D02*
Y1604903D01*
X1983935Y1603840D02*
Y1604903D01*
X1983955Y1603840D02*
Y1604903D01*
X1983974Y1603840D02*
Y1604903D01*
X1983994Y1603840D02*
Y1604903D01*
X1984014Y1603840D02*
Y1604903D01*
X1984033Y1603840D02*
Y1604903D01*
X1984053Y1603840D02*
Y1604903D01*
X1984073Y1603840D02*
Y1604903D01*
X1984093Y1603840D02*
Y1604903D01*
X1984112Y1603840D02*
Y1604903D01*
X1984132Y1603840D02*
Y1604903D01*
X1984152Y1603840D02*
Y1604903D01*
X1984171Y1603840D02*
Y1604903D01*
X1984191Y1603840D02*
Y1604903D01*
X1984211Y1603840D02*
Y1604903D01*
X1984230Y1603840D02*
Y1604903D01*
X1984250Y1603840D02*
Y1604903D01*
X1984270Y1603840D02*
Y1604903D01*
X1984289Y1603840D02*
Y1604903D01*
X1984309Y1603840D02*
Y1604903D01*
X1984329Y1603840D02*
Y1604903D01*
X1984348Y1603840D02*
Y1604903D01*
X1984368Y1603840D02*
Y1604903D01*
X1984388Y1603840D02*
Y1604903D01*
X1984407Y1603840D02*
Y1604903D01*
X1984427Y1603840D02*
Y1604903D01*
X1984447Y1603840D02*
Y1604903D01*
X1984467Y1603840D02*
Y1604903D01*
X1984486Y1603840D02*
Y1604903D01*
X1984506Y1603840D02*
Y1604903D01*
X1984526Y1603840D02*
Y1604903D01*
X1984545Y1603840D02*
Y1604903D01*
X1984565Y1603840D02*
Y1604903D01*
X1984585Y1603840D02*
Y1604903D01*
X1984604Y1603840D02*
Y1604903D01*
X1984624Y1603840D02*
Y1604903D01*
X1984644Y1603840D02*
Y1604903D01*
X1984663Y1603840D02*
Y1604903D01*
X1984683Y1603840D02*
Y1604903D01*
X1984703Y1603840D02*
Y1604903D01*
X1984722Y1603840D02*
Y1604903D01*
X1984742Y1603840D02*
Y1604903D01*
X1984762Y1603840D02*
Y1604903D01*
X1984781Y1603840D02*
Y1604903D01*
X1984801Y1603840D02*
Y1604903D01*
X1984821Y1603840D02*
Y1604903D01*
X1984841Y1603840D02*
Y1604903D01*
X1984860Y1603840D02*
Y1604903D01*
X1984880Y1603840D02*
Y1604903D01*
X1984900Y1603840D02*
Y1604903D01*
X1984919Y1603840D02*
Y1604903D01*
X1984939Y1603840D02*
Y1604903D01*
X1984959Y1603840D02*
Y1604903D01*
X1984978Y1603840D02*
Y1604903D01*
X1984998Y1603840D02*
Y1604903D01*
X1985018Y1603840D02*
Y1604903D01*
X1985037Y1603840D02*
Y1604903D01*
X1985057Y1603840D02*
Y1604903D01*
X1985077Y1603840D02*
Y1604903D01*
X1985096Y1603840D02*
Y1604903D01*
X1985116Y1603840D02*
Y1604903D01*
X1985136Y1603840D02*
Y1604903D01*
X1985156Y1603840D02*
Y1604903D01*
X1985175Y1603840D02*
Y1604903D01*
X1985195Y1603840D02*
Y1604903D01*
X1985215Y1603840D02*
Y1604903D01*
X1985234Y1603840D02*
Y1604903D01*
X1985254Y1603840D02*
Y1604903D01*
X1985274Y1603840D02*
Y1604903D01*
X1985293Y1603840D02*
Y1604903D01*
X1985313Y1603840D02*
Y1604903D01*
X1985333Y1603840D02*
Y1604903D01*
X1985352Y1603840D02*
Y1604903D01*
X1985372Y1603840D02*
Y1604903D01*
X1985392Y1603840D02*
Y1604903D01*
X1985411Y1603840D02*
Y1604903D01*
X1985431Y1603840D02*
Y1604903D01*
X1985451Y1603840D02*
Y1604903D01*
X1985470Y1603840D02*
Y1604903D01*
X1985490Y1603840D02*
Y1604903D01*
X1985510Y1603840D02*
Y1604903D01*
X1985530Y1603840D02*
Y1604903D01*
X1985549Y1603840D02*
Y1604903D01*
X1985569Y1603840D02*
Y1604903D01*
X1985589Y1603840D02*
Y1604903D01*
X1985608Y1603840D02*
Y1604903D01*
X1985628Y1603840D02*
Y1604903D01*
X1985648Y1603840D02*
Y1604903D01*
X1985667Y1603840D02*
Y1604903D01*
X1985687Y1603840D02*
Y1604903D01*
X1985707Y1603840D02*
Y1604903D01*
X1985726Y1603840D02*
Y1604903D01*
X1985746Y1603840D02*
Y1604903D01*
X1985766Y1603840D02*
Y1604903D01*
X1985785Y1603840D02*
Y1604903D01*
X1985805Y1603840D02*
Y1604903D01*
X1985825Y1603840D02*
Y1604903D01*
X1985844Y1603840D02*
Y1604903D01*
X1985864Y1603840D02*
Y1604903D01*
X1985884Y1603840D02*
Y1604903D01*
X1985904Y1603840D02*
Y1604903D01*
X1983246Y1606340D02*
X1983247Y1606305D01*
X1983251Y1606270*
X1983256Y1606236*
X1983264Y1606202*
X1983274Y1606169*
X1983287Y1606136*
X1983301Y1606105*
X1983317Y1606074*
X1983336Y1606044*
X1983356Y1606016*
X1983378Y1605989*
X1983402Y1605964*
X1983427Y1605940*
X1983454Y1605918*
X1983482Y1605898*
X1983512Y1605879*
X1983542Y1605863*
X1983574Y1605849*
X1983607Y1605836*
X1983640Y1605826*
X1983674Y1605818*
X1983708Y1605813*
X1983743Y1605809*
X1983778Y1605808*
X1985923*
Y1606871*
X1983778*
X1983743Y1606870*
X1983708Y1606867*
X1983674Y1606861*
X1983640Y1606853*
X1983607Y1606843*
X1983574Y1606831*
X1983542Y1606816*
X1983512Y1606800*
X1983482Y1606782*
X1983454Y1606761*
X1983427Y1606739*
X1983402Y1606716*
X1983378Y1606690*
X1983356Y1606663*
X1983336Y1606635*
X1983317Y1606606*
X1983301Y1606575*
X1983287Y1606543*
X1983274Y1606511*
X1983264Y1606477*
X1983256Y1606443*
X1983251Y1606409*
X1983247Y1606375*
X1983246Y1606340*
X1983246*
X1983266Y1606197D02*
Y1606483D01*
X1983285Y1606139D02*
Y1606540D01*
X1983305Y1606097D02*
Y1606583D01*
X1983325Y1606062D02*
Y1606618D01*
X1983344Y1606032D02*
Y1606647D01*
X1983364Y1606006D02*
Y1606673D01*
X1983384Y1605983D02*
Y1606697D01*
X1983404Y1605962D02*
Y1606717D01*
X1983423Y1605944D02*
Y1606736D01*
X1983443Y1605927D02*
Y1606752D01*
X1983463Y1605912D02*
Y1606768D01*
X1983482Y1605898D02*
Y1606782D01*
X1983502Y1605886D02*
Y1606794D01*
X1983522Y1605874D02*
Y1606805D01*
X1983541Y1605864D02*
Y1606816D01*
X1983561Y1605855D02*
Y1606825D01*
X1983581Y1605846D02*
Y1606833D01*
X1983600Y1605839D02*
Y1606841D01*
X1983620Y1605832D02*
Y1606847D01*
X1983640Y1605826D02*
Y1606853D01*
X1983659Y1605822D02*
Y1606858D01*
X1983679Y1605818D02*
Y1606862D01*
X1983699Y1605814D02*
Y1606865D01*
X1983719Y1605812D02*
Y1606868D01*
X1983738Y1605810D02*
Y1606870D01*
X1983758Y1605809D02*
Y1606871D01*
X1983778Y1605808D02*
Y1606871D01*
X1983797Y1605808D02*
Y1606871D01*
X1983817Y1605808D02*
Y1606871D01*
X1983837Y1605808D02*
Y1606871D01*
X1983856Y1605808D02*
Y1606871D01*
X1983876Y1605808D02*
Y1606871D01*
X1983896Y1605808D02*
Y1606871D01*
X1983915Y1605808D02*
Y1606871D01*
X1983935Y1605808D02*
Y1606871D01*
X1983955Y1605808D02*
Y1606871D01*
X1983974Y1605808D02*
Y1606871D01*
X1983994Y1605808D02*
Y1606871D01*
X1984014Y1605808D02*
Y1606871D01*
X1984033Y1605808D02*
Y1606871D01*
X1984053Y1605808D02*
Y1606871D01*
X1984073Y1605808D02*
Y1606871D01*
X1984093Y1605808D02*
Y1606871D01*
X1984112Y1605808D02*
Y1606871D01*
X1984132Y1605808D02*
Y1606871D01*
X1984152Y1605808D02*
Y1606871D01*
X1984171Y1605808D02*
Y1606871D01*
X1984191Y1605808D02*
Y1606871D01*
X1984211Y1605808D02*
Y1606871D01*
X1984230Y1605808D02*
Y1606871D01*
X1984250Y1605808D02*
Y1606871D01*
X1984270Y1605808D02*
Y1606871D01*
X1984289Y1605808D02*
Y1606871D01*
X1984309Y1605808D02*
Y1606871D01*
X1984329Y1605808D02*
Y1606871D01*
X1984348Y1605808D02*
Y1606871D01*
X1984368Y1605808D02*
Y1606871D01*
X1984388Y1605808D02*
Y1606871D01*
X1984407Y1605808D02*
Y1606871D01*
X1984427Y1605808D02*
Y1606871D01*
X1984447Y1605808D02*
Y1606871D01*
X1984467Y1605808D02*
Y1606871D01*
X1984486Y1605808D02*
Y1606871D01*
X1984506Y1605808D02*
Y1606871D01*
X1984526Y1605808D02*
Y1606871D01*
X1984545Y1605808D02*
Y1606871D01*
X1984565Y1605808D02*
Y1606871D01*
X1984585Y1605808D02*
Y1606871D01*
X1984604Y1605808D02*
Y1606871D01*
X1984624Y1605808D02*
Y1606871D01*
X1984644Y1605808D02*
Y1606871D01*
X1984663Y1605808D02*
Y1606871D01*
X1984683Y1605808D02*
Y1606871D01*
X1984703Y1605808D02*
Y1606871D01*
X1984722Y1605808D02*
Y1606871D01*
X1984742Y1605808D02*
Y1606871D01*
X1984762Y1605808D02*
Y1606871D01*
X1984781Y1605808D02*
Y1606871D01*
X1984801Y1605808D02*
Y1606871D01*
X1984821Y1605808D02*
Y1606871D01*
X1984841Y1605808D02*
Y1606871D01*
X1984860Y1605808D02*
Y1606871D01*
X1984880Y1605808D02*
Y1606871D01*
X1984900Y1605808D02*
Y1606871D01*
X1984919Y1605808D02*
Y1606871D01*
X1984939Y1605808D02*
Y1606871D01*
X1984959Y1605808D02*
Y1606871D01*
X1984978Y1605808D02*
Y1606871D01*
X1984998Y1605808D02*
Y1606871D01*
X1985018Y1605808D02*
Y1606871D01*
X1985037Y1605808D02*
Y1606871D01*
X1985057Y1605808D02*
Y1606871D01*
X1985077Y1605808D02*
Y1606871D01*
X1985096Y1605808D02*
Y1606871D01*
X1985116Y1605808D02*
Y1606871D01*
X1985136Y1605808D02*
Y1606871D01*
X1985156Y1605808D02*
Y1606871D01*
X1985175Y1605808D02*
Y1606871D01*
X1985195Y1605808D02*
Y1606871D01*
X1985215Y1605808D02*
Y1606871D01*
X1985234Y1605808D02*
Y1606871D01*
X1985254Y1605808D02*
Y1606871D01*
X1985274Y1605808D02*
Y1606871D01*
X1985293Y1605808D02*
Y1606871D01*
X1985313Y1605808D02*
Y1606871D01*
X1985333Y1605808D02*
Y1606871D01*
X1985352Y1605808D02*
Y1606871D01*
X1985372Y1605808D02*
Y1606871D01*
X1985392Y1605808D02*
Y1606871D01*
X1985411Y1605808D02*
Y1606871D01*
X1985431Y1605808D02*
Y1606871D01*
X1985451Y1605808D02*
Y1606871D01*
X1985470Y1605808D02*
Y1606871D01*
X1985490Y1605808D02*
Y1606871D01*
X1985510Y1605808D02*
Y1606871D01*
X1985530Y1605808D02*
Y1606871D01*
X1985549Y1605808D02*
Y1606871D01*
X1985569Y1605808D02*
Y1606871D01*
X1985589Y1605808D02*
Y1606871D01*
X1985608Y1605808D02*
Y1606871D01*
X1985628Y1605808D02*
Y1606871D01*
X1985648Y1605808D02*
Y1606871D01*
X1985667Y1605808D02*
Y1606871D01*
X1985687Y1605808D02*
Y1606871D01*
X1985707Y1605808D02*
Y1606871D01*
X1985726Y1605808D02*
Y1606871D01*
X1985746Y1605808D02*
Y1606871D01*
X1985766Y1605808D02*
Y1606871D01*
X1985785Y1605808D02*
Y1606871D01*
X1985805Y1605808D02*
Y1606871D01*
X1985825Y1605808D02*
Y1606871D01*
X1985844Y1605808D02*
Y1606871D01*
X1985864Y1605808D02*
Y1606871D01*
X1985884Y1605808D02*
Y1606871D01*
X1985904Y1605808D02*
Y1606871D01*
X1981750Y1607836D02*
X1981751Y1607800D01*
X1981755Y1607765*
X1981761Y1607730*
X1981769Y1607695*
X1981779Y1607661*
X1981792Y1607628*
X1981807Y1607596*
X1981824Y1607565*
X1981843Y1607535*
X1981864Y1607506*
X1981887Y1607479*
X1981912Y1607454*
X1981938Y1607430*
X1981966Y1607408*
X1981996Y1607388*
X1982026Y1607370*
X1982058Y1607354*
X1982090Y1607340*
X1982124Y1607328*
X1982158Y1607319*
X1982193Y1607312*
X1982228Y1607307*
X1982264Y1607305*
X1982299*
X1982335Y1607307*
X1982370Y1607312*
X1982405Y1607319*
X1982439Y1607328*
X1982473Y1607340*
X1982505Y1607354*
X1982537Y1607370*
X1982567Y1607388*
X1982597Y1607408*
X1982625Y1607430*
X1982651Y1607454*
X1982676Y1607479*
X1982699Y1607506*
X1982720Y1607535*
X1982739Y1607565*
X1982756Y1607596*
X1982771Y1607628*
X1982784Y1607661*
X1982794Y1607695*
X1982802Y1607730*
X1982808Y1607765*
X1982812Y1607800*
X1982813Y1607836*
Y1609981*
X1981750*
Y1607836*
Y1609981*
X1981770Y1607693D02*
Y1609981D01*
X1981789Y1607636D02*
Y1609981D01*
X1981809Y1607593D02*
Y1609981D01*
X1981829Y1607558D02*
Y1609981D01*
X1981848Y1607528D02*
Y1609981D01*
X1981868Y1607502D02*
Y1609981D01*
X1981888Y1607479D02*
Y1609981D01*
X1981907Y1607458D02*
Y1609981D01*
X1981927Y1607440D02*
Y1609981D01*
X1981947Y1607423D02*
Y1609981D01*
X1981967Y1607408D02*
Y1609981D01*
X1981986Y1607394D02*
Y1609981D01*
X1982006Y1607382D02*
Y1609981D01*
X1982026Y1607370D02*
Y1609981D01*
X1982045Y1607360D02*
Y1609981D01*
X1982065Y1607351D02*
Y1609981D01*
X1982085Y1607342D02*
Y1609981D01*
X1982104Y1607335D02*
Y1609981D01*
X1982124Y1607328D02*
Y1609981D01*
X1982144Y1607323D02*
Y1609981D01*
X1982163Y1607318D02*
Y1609981D01*
X1982183Y1607314D02*
Y1609981D01*
X1982203Y1607310D02*
Y1609981D01*
X1982222Y1607308D02*
Y1609981D01*
X1982242Y1607306D02*
Y1609981D01*
X1982262Y1607305D02*
Y1609981D01*
X1982281Y1607305D02*
Y1609981D01*
X1982301Y1607305D02*
Y1609981D01*
X1982321Y1607306D02*
Y1609981D01*
X1982341Y1607308D02*
Y1609981D01*
X1982360Y1607310D02*
Y1609981D01*
X1982380Y1607314D02*
Y1609981D01*
X1982400Y1607318D02*
Y1609981D01*
X1982419Y1607323D02*
Y1609981D01*
X1982439Y1607328D02*
Y1609981D01*
X1982459Y1607335D02*
Y1609981D01*
X1982478Y1607342D02*
Y1609981D01*
X1982498Y1607351D02*
Y1609981D01*
X1982518Y1607360D02*
Y1609981D01*
X1982537Y1607370D02*
Y1609981D01*
X1982557Y1607382D02*
Y1609981D01*
X1982577Y1607394D02*
Y1609981D01*
X1982596Y1607408D02*
Y1609981D01*
X1982616Y1607423D02*
Y1609981D01*
X1982636Y1607440D02*
Y1609981D01*
X1982656Y1607458D02*
Y1609981D01*
X1982675Y1607479D02*
Y1609981D01*
X1982695Y1607502D02*
Y1609981D01*
X1982715Y1607528D02*
Y1609981D01*
X1982734Y1607558D02*
Y1609981D01*
X1982754Y1607593D02*
Y1609981D01*
X1982774Y1607636D02*
Y1609981D01*
X1982793Y1607693D02*
Y1609981D01*
X1979781Y1607836D02*
X1979783Y1607800D01*
X1979786Y1607765*
X1979792Y1607730*
X1979800Y1607695*
X1979811Y1607661*
X1979824Y1607628*
X1979839Y1607596*
X1979856Y1607565*
X1979875Y1607535*
X1979896Y1607506*
X1979919Y1607479*
X1979944Y1607454*
X1979944D02*
X1979970Y1607430D01*
X1979998Y1607408*
X1980027Y1607388*
X1980058Y1607370*
X1980089Y1607354*
X1980122Y1607340*
X1980156Y1607328*
X1980190Y1607319*
X1980225Y1607312*
X1980260Y1607307*
X1980295Y1607305*
X1980331*
X1980366Y1607307*
X1980401Y1607312*
X1980436Y1607319*
X1980470Y1607328*
X1980504Y1607340*
X1980537Y1607354*
X1980568Y1607370*
X1980599Y1607388*
X1980628Y1607408*
X1980656Y1607430*
X1980682Y1607454*
X1980707Y1607479*
X1980730Y1607506*
X1980751Y1607535*
X1980770Y1607565*
X1980787Y1607596*
X1980802Y1607628*
X1980815Y1607661*
X1980826Y1607695*
X1980834Y1607730*
X1980840Y1607765*
X1980843Y1607800*
X1980844Y1607836*
Y1609981*
X1979781*
Y1607836*
Y1609981*
X1979801Y1607693D02*
Y1609981D01*
X1979821Y1607636D02*
Y1609981D01*
X1979841Y1607593D02*
Y1609981D01*
X1979860Y1607558D02*
Y1609981D01*
X1979880Y1607528D02*
Y1609981D01*
X1979900Y1607502D02*
Y1609981D01*
X1979919Y1607479D02*
Y1609981D01*
X1979939Y1607458D02*
Y1609981D01*
X1979959Y1607440D02*
Y1609981D01*
X1979978Y1607423D02*
Y1609981D01*
X1979998Y1607408D02*
Y1609981D01*
X1980018Y1607394D02*
Y1609981D01*
X1980037Y1607382D02*
Y1609981D01*
X1980057Y1607370D02*
Y1609981D01*
X1980077Y1607360D02*
Y1609981D01*
X1980096Y1607351D02*
Y1609981D01*
X1980116Y1607342D02*
Y1609981D01*
X1980136Y1607335D02*
Y1609981D01*
X1980156Y1607328D02*
Y1609981D01*
X1980175Y1607323D02*
Y1609981D01*
X1980195Y1607318D02*
Y1609981D01*
X1980215Y1607314D02*
Y1609981D01*
X1980234Y1607310D02*
Y1609981D01*
X1980254Y1607308D02*
Y1609981D01*
X1980274Y1607306D02*
Y1609981D01*
X1980293Y1607305D02*
Y1609981D01*
X1980313Y1607305D02*
Y1609981D01*
X1980333Y1607305D02*
Y1609981D01*
X1980352Y1607306D02*
Y1609981D01*
X1980372Y1607308D02*
Y1609981D01*
X1980392Y1607310D02*
Y1609981D01*
X1980411Y1607314D02*
Y1609981D01*
X1980431Y1607318D02*
Y1609981D01*
X1980451Y1607323D02*
Y1609981D01*
X1980470Y1607328D02*
Y1609981D01*
X1980490Y1607335D02*
Y1609981D01*
X1980510Y1607342D02*
Y1609981D01*
X1980530Y1607351D02*
Y1609981D01*
X1980549Y1607360D02*
Y1609981D01*
X1980569Y1607370D02*
Y1609981D01*
X1980589Y1607382D02*
Y1609981D01*
X1980608Y1607394D02*
Y1609981D01*
X1980628Y1607408D02*
Y1609981D01*
X1980648Y1607423D02*
Y1609981D01*
X1980667Y1607440D02*
Y1609981D01*
X1980687Y1607458D02*
Y1609981D01*
X1980707Y1607479D02*
Y1609981D01*
X1980726Y1607502D02*
Y1609981D01*
X1980746Y1607528D02*
Y1609981D01*
X1980766Y1607558D02*
Y1609981D01*
X1980785Y1607593D02*
Y1609981D01*
X1980805Y1607636D02*
Y1609981D01*
X1980825Y1607693D02*
Y1609981D01*
X1977813Y1607836D02*
X1977814Y1607800D01*
X1977818Y1607765*
X1977824Y1607730*
X1977832Y1607695*
X1977842Y1607661*
X1977855Y1607628*
X1977870Y1607596*
X1977887Y1607565*
X1977906Y1607535*
X1977927Y1607506*
X1977950Y1607479*
X1977975Y1607454*
X1978001Y1607430*
X1978029Y1607408*
X1978058Y1607388*
X1978058D02*
X1978089Y1607370D01*
X1978121Y1607354*
X1978153Y1607340*
X1978187Y1607328*
X1978221Y1607319*
X1978256Y1607312*
X1978291Y1607307*
X1978327Y1607305*
X1978362*
X1978398Y1607307*
X1978433Y1607312*
X1978468Y1607319*
X1978502Y1607328*
X1978536Y1607340*
X1978568Y1607354*
X1978600Y1607370*
X1978630Y1607388*
X1978660Y1607408*
X1978688Y1607430*
X1978714Y1607454*
X1978739Y1607479*
X1978762Y1607506*
X1978783Y1607535*
X1978802Y1607565*
X1978819Y1607596*
X1978834Y1607628*
X1978847Y1607661*
X1978857Y1607695*
X1978865Y1607730*
X1978871Y1607765*
X1978875Y1607800*
X1978876Y1607836*
Y1609981*
X1977813*
Y1607836*
Y1609981*
X1977833Y1607693D02*
Y1609981D01*
X1977852Y1607636D02*
Y1609981D01*
X1977872Y1607593D02*
Y1609981D01*
X1977892Y1607558D02*
Y1609981D01*
X1977911Y1607528D02*
Y1609981D01*
X1977931Y1607502D02*
Y1609981D01*
X1977951Y1607479D02*
Y1609981D01*
X1977970Y1607458D02*
Y1609981D01*
X1977990Y1607440D02*
Y1609981D01*
X1978010Y1607423D02*
Y1609981D01*
X1978030Y1607408D02*
Y1609981D01*
X1978049Y1607394D02*
Y1609981D01*
X1978069Y1607382D02*
Y1609981D01*
X1978089Y1607370D02*
Y1609981D01*
X1978108Y1607360D02*
Y1609981D01*
X1978128Y1607351D02*
Y1609981D01*
X1978148Y1607342D02*
Y1609981D01*
X1978167Y1607335D02*
Y1609981D01*
X1978187Y1607328D02*
Y1609981D01*
X1978207Y1607323D02*
Y1609981D01*
X1978226Y1607318D02*
Y1609981D01*
X1978246Y1607314D02*
Y1609981D01*
X1978266Y1607310D02*
Y1609981D01*
X1978285Y1607308D02*
Y1609981D01*
X1978305Y1607306D02*
Y1609981D01*
X1978325Y1607305D02*
Y1609981D01*
X1978344Y1607305D02*
Y1609981D01*
X1978364Y1607305D02*
Y1609981D01*
X1978384Y1607306D02*
Y1609981D01*
X1978404Y1607308D02*
Y1609981D01*
X1978423Y1607310D02*
Y1609981D01*
X1978443Y1607314D02*
Y1609981D01*
X1978463Y1607318D02*
Y1609981D01*
X1978482Y1607323D02*
Y1609981D01*
X1978502Y1607328D02*
Y1609981D01*
X1978522Y1607335D02*
Y1609981D01*
X1978541Y1607342D02*
Y1609981D01*
X1978561Y1607351D02*
Y1609981D01*
X1978581Y1607360D02*
Y1609981D01*
X1978600Y1607370D02*
Y1609981D01*
X1978620Y1607382D02*
Y1609981D01*
X1978640Y1607394D02*
Y1609981D01*
X1978659Y1607408D02*
Y1609981D01*
X1978679Y1607423D02*
Y1609981D01*
X1978699Y1607440D02*
Y1609981D01*
X1978719Y1607458D02*
Y1609981D01*
X1978738Y1607479D02*
Y1609981D01*
X1978758Y1607502D02*
Y1609981D01*
X1978778Y1607528D02*
Y1609981D01*
X1978797Y1607558D02*
Y1609981D01*
X1978817Y1607593D02*
Y1609981D01*
X1978837Y1607636D02*
Y1609981D01*
X1978856Y1607693D02*
Y1609981D01*
X1975844Y1607836D02*
X1975846Y1607800D01*
X1975849Y1607765*
X1975855Y1607730*
X1975863Y1607695*
X1975874Y1607661*
X1975887Y1607628*
X1975902Y1607596*
X1975919Y1607565*
X1975938Y1607535*
X1975959Y1607506*
X1975982Y1607479*
X1976006Y1607454*
X1976033Y1607430*
X1976061Y1607408*
X1976090Y1607388*
X1976121Y1607370*
X1976152Y1607354*
X1976185Y1607340*
X1976219Y1607328*
X1976253Y1607319*
X1976288Y1607312*
X1976323Y1607307*
X1976358Y1607305*
X1976394*
X1976429Y1607307*
X1976464Y1607312*
X1976499Y1607319*
X1976533Y1607328*
X1976567Y1607340*
X1976600Y1607354*
X1976631Y1607370*
X1976662Y1607388*
X1976691Y1607408*
X1976719Y1607430*
X1976745Y1607454*
X1976770Y1607479*
X1976793Y1607506*
X1976814Y1607535*
X1976833Y1607565*
X1976850Y1607596*
X1976865Y1607628*
X1976878Y1607661*
X1976889Y1607695*
X1976897Y1607730*
X1976903Y1607765*
X1976906Y1607800*
X1976907Y1607836*
Y1609981*
X1975844*
Y1607836*
Y1609981*
X1975864Y1607693D02*
Y1609981D01*
X1975884Y1607636D02*
Y1609981D01*
X1975904Y1607593D02*
Y1609981D01*
X1975923Y1607558D02*
Y1609981D01*
X1975943Y1607528D02*
Y1609981D01*
X1975963Y1607502D02*
Y1609981D01*
X1975982Y1607479D02*
Y1609981D01*
X1976002Y1607458D02*
Y1609981D01*
X1976022Y1607440D02*
Y1609981D01*
X1976041Y1607423D02*
Y1609981D01*
X1976061Y1607408D02*
Y1609981D01*
X1976081Y1607394D02*
Y1609981D01*
X1976100Y1607382D02*
Y1609981D01*
X1976120Y1607370D02*
Y1609981D01*
X1976140Y1607360D02*
Y1609981D01*
X1976159Y1607351D02*
Y1609981D01*
X1976179Y1607342D02*
Y1609981D01*
X1976199Y1607335D02*
Y1609981D01*
X1976219Y1607328D02*
Y1609981D01*
X1976238Y1607323D02*
Y1609981D01*
X1976258Y1607318D02*
Y1609981D01*
X1976278Y1607314D02*
Y1609981D01*
X1976297Y1607310D02*
Y1609981D01*
X1976317Y1607308D02*
Y1609981D01*
X1976337Y1607306D02*
Y1609981D01*
X1976356Y1607305D02*
Y1609981D01*
X1976376Y1607305D02*
Y1609981D01*
X1976396Y1607305D02*
Y1609981D01*
X1976415Y1607306D02*
Y1609981D01*
X1976435Y1607308D02*
Y1609981D01*
X1976455Y1607310D02*
Y1609981D01*
X1976474Y1607314D02*
Y1609981D01*
X1976494Y1607318D02*
Y1609981D01*
X1976514Y1607323D02*
Y1609981D01*
X1976533Y1607328D02*
Y1609981D01*
X1976553Y1607335D02*
Y1609981D01*
X1976573Y1607342D02*
Y1609981D01*
X1976593Y1607351D02*
Y1609981D01*
X1976612Y1607360D02*
Y1609981D01*
X1976632Y1607370D02*
Y1609981D01*
X1976652Y1607382D02*
Y1609981D01*
X1976671Y1607394D02*
Y1609981D01*
X1976691Y1607408D02*
Y1609981D01*
X1976711Y1607423D02*
Y1609981D01*
X1976730Y1607440D02*
Y1609981D01*
X1976750Y1607458D02*
Y1609981D01*
X1976770Y1607479D02*
Y1609981D01*
X1976789Y1607502D02*
Y1609981D01*
X1976809Y1607528D02*
Y1609981D01*
X1976829Y1607558D02*
Y1609981D01*
X1976848Y1607593D02*
Y1609981D01*
X1976868Y1607636D02*
Y1609981D01*
X1976888Y1607693D02*
Y1609981D01*
X1973876Y1607836D02*
X1973877Y1607800D01*
X1973881Y1607765*
X1973887Y1607730*
X1973895Y1607695*
X1973905Y1607661*
X1973918Y1607628*
X1973933Y1607596*
X1973950Y1607565*
X1973969Y1607535*
X1973990Y1607506*
X1974013Y1607479*
X1974038Y1607454*
X1974064Y1607430*
X1974092Y1607408*
X1974121Y1607388*
X1974152Y1607370*
X1974184Y1607354*
X1974216Y1607340*
X1974250Y1607328*
X1974284Y1607319*
X1974319Y1607312*
X1974354Y1607307*
X1974390Y1607305*
X1974425*
X1974461Y1607307*
X1974496Y1607312*
X1974531Y1607319*
X1974565Y1607328*
X1974599Y1607340*
X1974631Y1607354*
X1974663Y1607370*
X1974693Y1607388*
X1974723Y1607408*
X1974751Y1607430*
X1974777Y1607454*
X1974802Y1607479*
X1974825Y1607506*
X1974846Y1607535*
X1974865Y1607565*
X1974882Y1607596*
X1974897Y1607628*
X1974910Y1607661*
X1974920Y1607695*
X1974928Y1607730*
X1974934Y1607765*
X1974938Y1607800*
X1974939Y1607836*
Y1609981*
X1973876*
Y1607836*
Y1609981*
X1973896Y1607693D02*
Y1609981D01*
X1973915Y1607636D02*
Y1609981D01*
X1973935Y1607593D02*
Y1609981D01*
X1973955Y1607558D02*
Y1609981D01*
X1973974Y1607528D02*
Y1609981D01*
X1973994Y1607502D02*
Y1609981D01*
X1974014Y1607479D02*
Y1609981D01*
X1974033Y1607458D02*
Y1609981D01*
X1974053Y1607440D02*
Y1609981D01*
X1974073Y1607423D02*
Y1609981D01*
X1974093Y1607408D02*
Y1609981D01*
X1974112Y1607394D02*
Y1609981D01*
X1974132Y1607382D02*
Y1609981D01*
X1974152Y1607370D02*
Y1609981D01*
X1974171Y1607360D02*
Y1609981D01*
X1974191Y1607351D02*
Y1609981D01*
X1974211Y1607342D02*
Y1609981D01*
X1974230Y1607335D02*
Y1609981D01*
X1974250Y1607328D02*
Y1609981D01*
X1974270Y1607323D02*
Y1609981D01*
X1974289Y1607318D02*
Y1609981D01*
X1974309Y1607314D02*
Y1609981D01*
X1974329Y1607310D02*
Y1609981D01*
X1974348Y1607308D02*
Y1609981D01*
X1974368Y1607306D02*
Y1609981D01*
X1974388Y1607305D02*
Y1609981D01*
X1974407Y1607305D02*
Y1609981D01*
X1974427Y1607305D02*
Y1609981D01*
X1974447Y1607306D02*
Y1609981D01*
X1974467Y1607308D02*
Y1609981D01*
X1974486Y1607310D02*
Y1609981D01*
X1974506Y1607314D02*
Y1609981D01*
X1974526Y1607318D02*
Y1609981D01*
X1974545Y1607323D02*
Y1609981D01*
X1974565Y1607328D02*
Y1609981D01*
X1974585Y1607335D02*
Y1609981D01*
X1974604Y1607342D02*
Y1609981D01*
X1974624Y1607351D02*
Y1609981D01*
X1974644Y1607360D02*
Y1609981D01*
X1974663Y1607370D02*
Y1609981D01*
X1974683Y1607382D02*
Y1609981D01*
X1974703Y1607394D02*
Y1609981D01*
X1974722Y1607408D02*
Y1609981D01*
X1974742Y1607423D02*
Y1609981D01*
X1974762Y1607440D02*
Y1609981D01*
X1974781Y1607458D02*
Y1609981D01*
X1974801Y1607479D02*
Y1609981D01*
X1974821Y1607502D02*
Y1609981D01*
X1974841Y1607528D02*
Y1609981D01*
X1974860Y1607558D02*
Y1609981D01*
X1974880Y1607593D02*
Y1609981D01*
X1974900Y1607636D02*
Y1609981D01*
X1974919Y1607693D02*
Y1609981D01*
X1971907Y1607836D02*
X1971909Y1607800D01*
X1971912Y1607765*
X1971918Y1607730*
X1971926Y1607695*
X1971937Y1607661*
X1971950Y1607628*
X1971965Y1607596*
X1971982Y1607565*
X1972001Y1607535*
X1972022Y1607506*
X1972045Y1607479*
X1972069Y1607454*
X1972096Y1607430*
X1972124Y1607408*
X1972153Y1607388*
X1972184Y1607370*
X1972215Y1607354*
X1972248Y1607340*
X1972282Y1607328*
X1972316Y1607319*
X1972351Y1607312*
X1972386Y1607307*
X1972421Y1607305*
X1972457*
X1972492Y1607307*
X1972527Y1607312*
X1972562Y1607319*
X1972596Y1607328*
X1972630Y1607340*
X1972663Y1607354*
X1972694Y1607370*
X1972725Y1607388*
X1972754Y1607408*
X1972782Y1607430*
X1972808Y1607454*
X1972833Y1607479*
X1972856Y1607506*
X1972877Y1607535*
X1972896Y1607565*
X1972913Y1607596*
X1972928Y1607628*
X1972941Y1607661*
X1972952Y1607695*
X1972960Y1607730*
X1972966Y1607765*
X1972969Y1607800*
X1972970Y1607836*
Y1609981*
X1971907*
Y1607836*
Y1609981*
X1971927Y1607693D02*
Y1609981D01*
X1971947Y1607636D02*
Y1609981D01*
X1971967Y1607593D02*
Y1609981D01*
X1971986Y1607558D02*
Y1609981D01*
X1972006Y1607528D02*
Y1609981D01*
X1972026Y1607502D02*
Y1609981D01*
X1972045Y1607479D02*
Y1609981D01*
X1972065Y1607458D02*
Y1609981D01*
X1972085Y1607440D02*
Y1609981D01*
X1972104Y1607423D02*
Y1609981D01*
X1972124Y1607408D02*
Y1609981D01*
X1972144Y1607394D02*
Y1609981D01*
X1972163Y1607382D02*
Y1609981D01*
X1972183Y1607370D02*
Y1609981D01*
X1972203Y1607360D02*
Y1609981D01*
X1972222Y1607351D02*
Y1609981D01*
X1972242Y1607342D02*
Y1609981D01*
X1972262Y1607335D02*
Y1609981D01*
X1972281Y1607328D02*
Y1609981D01*
X1972301Y1607323D02*
Y1609981D01*
X1972321Y1607318D02*
Y1609981D01*
X1972341Y1607314D02*
Y1609981D01*
X1972360Y1607310D02*
Y1609981D01*
X1972380Y1607308D02*
Y1609981D01*
X1972400Y1607306D02*
Y1609981D01*
X1972419Y1607305D02*
Y1609981D01*
X1972439Y1607305D02*
Y1609981D01*
X1972459Y1607305D02*
Y1609981D01*
X1972478Y1607306D02*
Y1609981D01*
X1972498Y1607308D02*
Y1609981D01*
X1972518Y1607310D02*
Y1609981D01*
X1972537Y1607314D02*
Y1609981D01*
X1972557Y1607318D02*
Y1609981D01*
X1972577Y1607323D02*
Y1609981D01*
X1972596Y1607328D02*
Y1609981D01*
X1972616Y1607335D02*
Y1609981D01*
X1972636Y1607342D02*
Y1609981D01*
X1972656Y1607351D02*
Y1609981D01*
X1972675Y1607360D02*
Y1609981D01*
X1972695Y1607370D02*
Y1609981D01*
X1972715Y1607382D02*
Y1609981D01*
X1972734Y1607394D02*
Y1609981D01*
X1972754Y1607408D02*
Y1609981D01*
X1972774Y1607423D02*
Y1609981D01*
X1972793Y1607440D02*
Y1609981D01*
X1972813Y1607458D02*
Y1609981D01*
X1972833Y1607479D02*
Y1609981D01*
X1972852Y1607502D02*
Y1609981D01*
X1972872Y1607528D02*
Y1609981D01*
X1972892Y1607558D02*
Y1609981D01*
X1972911Y1607593D02*
Y1609981D01*
X1972931Y1607636D02*
Y1609981D01*
X1972951Y1607693D02*
Y1609981D01*
X1969939Y1607836D02*
X1969940Y1607800D01*
X1969944Y1607765*
X1969950Y1607730*
X1969958Y1607695*
X1969968Y1607661*
X1969981Y1607628*
X1969996Y1607596*
X1970013Y1607565*
X1970032Y1607535*
X1970053Y1607506*
X1970076Y1607479*
X1970101Y1607454*
X1970127Y1607430*
X1970155Y1607408*
X1970184Y1607388*
X1970215Y1607370*
X1970247Y1607354*
X1970279Y1607340*
X1970313Y1607328*
X1970347Y1607319*
X1970382Y1607312*
X1970417Y1607307*
X1970453Y1607305*
X1970488*
X1970524Y1607307*
X1970559Y1607312*
X1970594Y1607319*
X1970628Y1607328*
X1970661Y1607340*
X1970694Y1607354*
X1970726Y1607370*
X1970756Y1607388*
X1970786Y1607408*
X1970814Y1607430*
X1970840Y1607454*
X1970865Y1607479*
X1970888Y1607506*
X1970909Y1607535*
X1970928Y1607565*
X1970945Y1607596*
X1970960Y1607628*
X1970973Y1607661*
X1970983Y1607695*
X1970991Y1607730*
X1970997Y1607765*
X1971001Y1607800*
X1971002Y1607836*
Y1609981*
X1969939*
Y1607836*
Y1609981*
X1969959Y1607693D02*
Y1609981D01*
X1969978Y1607636D02*
Y1609981D01*
X1969998Y1607593D02*
Y1609981D01*
X1970018Y1607558D02*
Y1609981D01*
X1970037Y1607528D02*
Y1609981D01*
X1970057Y1607502D02*
Y1609981D01*
X1970077Y1607479D02*
Y1609981D01*
X1970096Y1607458D02*
Y1609981D01*
X1970116Y1607440D02*
Y1609981D01*
X1970136Y1607423D02*
Y1609981D01*
X1970156Y1607408D02*
Y1609981D01*
X1970175Y1607394D02*
Y1609981D01*
X1970195Y1607382D02*
Y1609981D01*
X1970215Y1607370D02*
Y1609981D01*
X1970234Y1607360D02*
Y1609981D01*
X1970254Y1607351D02*
Y1609981D01*
X1970274Y1607342D02*
Y1609981D01*
X1970293Y1607335D02*
Y1609981D01*
X1970313Y1607328D02*
Y1609981D01*
X1970333Y1607323D02*
Y1609981D01*
X1970352Y1607318D02*
Y1609981D01*
X1970372Y1607314D02*
Y1609981D01*
X1970392Y1607310D02*
Y1609981D01*
X1970411Y1607308D02*
Y1609981D01*
X1970431Y1607306D02*
Y1609981D01*
X1970451Y1607305D02*
Y1609981D01*
X1970470Y1607305D02*
Y1609981D01*
X1970490Y1607305D02*
Y1609981D01*
X1970510Y1607306D02*
Y1609981D01*
X1970530Y1607308D02*
Y1609981D01*
X1970549Y1607310D02*
Y1609981D01*
X1970569Y1607314D02*
Y1609981D01*
X1970589Y1607318D02*
Y1609981D01*
X1970608Y1607323D02*
Y1609981D01*
X1970628Y1607328D02*
Y1609981D01*
X1970648Y1607335D02*
Y1609981D01*
X1970667Y1607342D02*
Y1609981D01*
X1970687Y1607351D02*
Y1609981D01*
X1970707Y1607360D02*
Y1609981D01*
X1970726Y1607370D02*
Y1609981D01*
X1970746Y1607382D02*
Y1609981D01*
X1970766Y1607394D02*
Y1609981D01*
X1970785Y1607408D02*
Y1609981D01*
X1970805Y1607423D02*
Y1609981D01*
X1970825Y1607440D02*
Y1609981D01*
X1970844Y1607458D02*
Y1609981D01*
X1970864Y1607479D02*
Y1609981D01*
X1970884Y1607502D02*
Y1609981D01*
X1970904Y1607528D02*
Y1609981D01*
X1970923Y1607558D02*
Y1609981D01*
X1970943Y1607593D02*
Y1609981D01*
X1970963Y1607636D02*
Y1609981D01*
X1970982Y1607693D02*
Y1609981D01*
X1967970Y1607836D02*
X1967972Y1607800D01*
X1967975Y1607765*
X1967981Y1607730*
X1967989Y1607695*
X1968000Y1607661*
X1968013Y1607628*
X1968028Y1607596*
X1968045Y1607565*
X1968064Y1607535*
X1968085Y1607506*
X1968108Y1607479*
X1968132Y1607454*
X1968159Y1607430*
X1968187Y1607408*
X1968216Y1607388*
X1968247Y1607370*
X1968278Y1607354*
X1968311Y1607340*
X1968344Y1607328*
X1968344D02*
X1968379Y1607319D01*
X1968414Y1607312*
X1968449Y1607307*
X1968484Y1607305*
X1968520*
X1968555Y1607307*
X1968590Y1607312*
X1968625Y1607319*
X1968659Y1607328*
X1968693Y1607340*
X1968726Y1607354*
X1968757Y1607370*
X1968788Y1607388*
X1968817Y1607408*
X1968845Y1607430*
X1968871Y1607454*
X1968896Y1607479*
X1968919Y1607506*
X1968940Y1607535*
X1968959Y1607565*
X1968976Y1607596*
X1968991Y1607628*
X1969004Y1607661*
X1969015Y1607695*
X1969023Y1607730*
X1969029Y1607765*
X1969032Y1607800*
X1969033Y1607836*
Y1609981*
X1967970*
Y1607836*
Y1609981*
X1967990Y1607693D02*
Y1609981D01*
X1968010Y1607636D02*
Y1609981D01*
X1968030Y1607593D02*
Y1609981D01*
X1968049Y1607558D02*
Y1609981D01*
X1968069Y1607528D02*
Y1609981D01*
X1968089Y1607502D02*
Y1609981D01*
X1968108Y1607479D02*
Y1609981D01*
X1968128Y1607458D02*
Y1609981D01*
X1968148Y1607440D02*
Y1609981D01*
X1968167Y1607423D02*
Y1609981D01*
X1968187Y1607408D02*
Y1609981D01*
X1968207Y1607394D02*
Y1609981D01*
X1968226Y1607382D02*
Y1609981D01*
X1968246Y1607370D02*
Y1609981D01*
X1968266Y1607360D02*
Y1609981D01*
X1968285Y1607351D02*
Y1609981D01*
X1968305Y1607342D02*
Y1609981D01*
X1968325Y1607335D02*
Y1609981D01*
X1968344Y1607328D02*
Y1609981D01*
X1968364Y1607323D02*
Y1609981D01*
X1968384Y1607318D02*
Y1609981D01*
X1968404Y1607314D02*
Y1609981D01*
X1968423Y1607310D02*
Y1609981D01*
X1968443Y1607308D02*
Y1609981D01*
X1968463Y1607306D02*
Y1609981D01*
X1968482Y1607305D02*
Y1609981D01*
X1968502Y1607305D02*
Y1609981D01*
X1968522Y1607305D02*
Y1609981D01*
X1968541Y1607306D02*
Y1609981D01*
X1968561Y1607308D02*
Y1609981D01*
X1968581Y1607310D02*
Y1609981D01*
X1968600Y1607314D02*
Y1609981D01*
X1968620Y1607318D02*
Y1609981D01*
X1968640Y1607323D02*
Y1609981D01*
X1968659Y1607328D02*
Y1609981D01*
X1968679Y1607335D02*
Y1609981D01*
X1968699Y1607342D02*
Y1609981D01*
X1968719Y1607351D02*
Y1609981D01*
X1968738Y1607360D02*
Y1609981D01*
X1968758Y1607370D02*
Y1609981D01*
X1968778Y1607382D02*
Y1609981D01*
X1968797Y1607394D02*
Y1609981D01*
X1968817Y1607408D02*
Y1609981D01*
X1968837Y1607423D02*
Y1609981D01*
X1968856Y1607440D02*
Y1609981D01*
X1968876Y1607458D02*
Y1609981D01*
X1968896Y1607479D02*
Y1609981D01*
X1968915Y1607502D02*
Y1609981D01*
X1968935Y1607528D02*
Y1609981D01*
X1968955Y1607558D02*
Y1609981D01*
X1968974Y1607593D02*
Y1609981D01*
X1968994Y1607636D02*
Y1609981D01*
X1969014Y1607693D02*
Y1609981D01*
X1964860Y1605808D02*
X1967006D01*
X1967041Y1605809*
X1967075Y1605813*
X1967110Y1605818*
X1967143Y1605826*
X1967177Y1605836*
X1967209Y1605849*
X1967241Y1605863*
X1967272Y1605879*
X1967301Y1605898*
X1967329Y1605918*
X1967356Y1605940*
X1967382Y1605964*
X1967406Y1605989*
X1967428Y1606016*
X1967448Y1606044*
X1967466Y1606074*
X1967483Y1606105*
X1967497Y1606136*
X1967509Y1606169*
X1967519Y1606202*
X1967527Y1606236*
X1967533Y1606270*
X1967536Y1606305*
X1967537Y1606340*
X1967536Y1606375*
X1967533Y1606409*
X1967527Y1606443*
X1967519Y1606477*
X1967509Y1606511*
X1967497Y1606543*
X1967483Y1606575*
X1967466Y1606606*
X1967448Y1606635*
X1967428Y1606663*
X1967406Y1606690*
X1967382Y1606716*
X1967356Y1606739*
X1967329Y1606761*
X1967301Y1606782*
X1967272Y1606800*
X1967241Y1606816*
X1967209Y1606831*
X1967177Y1606843*
X1967143Y1606853*
X1967110Y1606861*
X1967075Y1606867*
X1967041Y1606870*
X1967006Y1606871*
X1964860*
Y1605808*
Y1606871*
X1964880Y1605808D02*
Y1606871D01*
X1964900Y1605808D02*
Y1606871D01*
X1964919Y1605808D02*
Y1606871D01*
X1964939Y1605808D02*
Y1606871D01*
X1964959Y1605808D02*
Y1606871D01*
X1964978Y1605808D02*
Y1606871D01*
X1964998Y1605808D02*
Y1606871D01*
X1965018Y1605808D02*
Y1606871D01*
X1965037Y1605808D02*
Y1606871D01*
X1965057Y1605808D02*
Y1606871D01*
X1965077Y1605808D02*
Y1606871D01*
X1965096Y1605808D02*
Y1606871D01*
X1965116Y1605808D02*
Y1606871D01*
X1965136Y1605808D02*
Y1606871D01*
X1965156Y1605808D02*
Y1606871D01*
X1965175Y1605808D02*
Y1606871D01*
X1965195Y1605808D02*
Y1606871D01*
X1965215Y1605808D02*
Y1606871D01*
X1965234Y1605808D02*
Y1606871D01*
X1965254Y1605808D02*
Y1606871D01*
X1965274Y1605808D02*
Y1606871D01*
X1965293Y1605808D02*
Y1606871D01*
X1965313Y1605808D02*
Y1606871D01*
X1965333Y1605808D02*
Y1606871D01*
X1965352Y1605808D02*
Y1606871D01*
X1965372Y1605808D02*
Y1606871D01*
X1965392Y1605808D02*
Y1606871D01*
X1965411Y1605808D02*
Y1606871D01*
X1965431Y1605808D02*
Y1606871D01*
X1965451Y1605808D02*
Y1606871D01*
X1965470Y1605808D02*
Y1606871D01*
X1965490Y1605808D02*
Y1606871D01*
X1965510Y1605808D02*
Y1606871D01*
X1965530Y1605808D02*
Y1606871D01*
X1965549Y1605808D02*
Y1606871D01*
X1965569Y1605808D02*
Y1606871D01*
X1965589Y1605808D02*
Y1606871D01*
X1965608Y1605808D02*
Y1606871D01*
X1965628Y1605808D02*
Y1606871D01*
X1965648Y1605808D02*
Y1606871D01*
X1965667Y1605808D02*
Y1606871D01*
X1965687Y1605808D02*
Y1606871D01*
X1965707Y1605808D02*
Y1606871D01*
X1965726Y1605808D02*
Y1606871D01*
X1965746Y1605808D02*
Y1606871D01*
X1965766Y1605808D02*
Y1606871D01*
X1965785Y1605808D02*
Y1606871D01*
X1965805Y1605808D02*
Y1606871D01*
X1965825Y1605808D02*
Y1606871D01*
X1965844Y1605808D02*
Y1606871D01*
X1965864Y1605808D02*
Y1606871D01*
X1965884Y1605808D02*
Y1606871D01*
X1965904Y1605808D02*
Y1606871D01*
X1965923Y1605808D02*
Y1606871D01*
X1965943Y1605808D02*
Y1606871D01*
X1965963Y1605808D02*
Y1606871D01*
X1965982Y1605808D02*
Y1606871D01*
X1966002Y1605808D02*
Y1606871D01*
X1966022Y1605808D02*
Y1606871D01*
X1966041Y1605808D02*
Y1606871D01*
X1966061Y1605808D02*
Y1606871D01*
X1966081Y1605808D02*
Y1606871D01*
X1966100Y1605808D02*
Y1606871D01*
X1966120Y1605808D02*
Y1606871D01*
X1966140Y1605808D02*
Y1606871D01*
X1966159Y1605808D02*
Y1606871D01*
X1966179Y1605808D02*
Y1606871D01*
X1966199Y1605808D02*
Y1606871D01*
X1966219Y1605808D02*
Y1606871D01*
X1966238Y1605808D02*
Y1606871D01*
X1966258Y1605808D02*
Y1606871D01*
X1966278Y1605808D02*
Y1606871D01*
X1966297Y1605808D02*
Y1606871D01*
X1966317Y1605808D02*
Y1606871D01*
X1966337Y1605808D02*
Y1606871D01*
X1966356Y1605808D02*
Y1606871D01*
X1966376Y1605808D02*
Y1606871D01*
X1966396Y1605808D02*
Y1606871D01*
X1966415Y1605808D02*
Y1606871D01*
X1966435Y1605808D02*
Y1606871D01*
X1966455Y1605808D02*
Y1606871D01*
X1966474Y1605808D02*
Y1606871D01*
X1966494Y1605808D02*
Y1606871D01*
X1966514Y1605808D02*
Y1606871D01*
X1966533Y1605808D02*
Y1606871D01*
X1966553Y1605808D02*
Y1606871D01*
X1966573Y1605808D02*
Y1606871D01*
X1966593Y1605808D02*
Y1606871D01*
X1966612Y1605808D02*
Y1606871D01*
X1966632Y1605808D02*
Y1606871D01*
X1966652Y1605808D02*
Y1606871D01*
X1966671Y1605808D02*
Y1606871D01*
X1966691Y1605808D02*
Y1606871D01*
X1966711Y1605808D02*
Y1606871D01*
X1966730Y1605808D02*
Y1606871D01*
X1966750Y1605808D02*
Y1606871D01*
X1966770Y1605808D02*
Y1606871D01*
X1966789Y1605808D02*
Y1606871D01*
X1966809Y1605808D02*
Y1606871D01*
X1966829Y1605808D02*
Y1606871D01*
X1966848Y1605808D02*
Y1606871D01*
X1966868Y1605808D02*
Y1606871D01*
X1966888Y1605808D02*
Y1606871D01*
X1966907Y1605808D02*
Y1606871D01*
X1966927Y1605808D02*
Y1606871D01*
X1966947Y1605808D02*
Y1606871D01*
X1966967Y1605808D02*
Y1606871D01*
X1966986Y1605808D02*
Y1606871D01*
X1967006Y1605808D02*
Y1606871D01*
X1967026Y1605809D02*
Y1606871D01*
X1967045Y1605810D02*
Y1606870D01*
X1967065Y1605812D02*
Y1606868D01*
X1967085Y1605814D02*
Y1606865D01*
X1967104Y1605818D02*
Y1606862D01*
X1967124Y1605822D02*
Y1606858D01*
X1967144Y1605826D02*
Y1606853D01*
X1967163Y1605832D02*
Y1606847D01*
X1967183Y1605839D02*
Y1606841D01*
X1967203Y1605846D02*
Y1606833D01*
X1967222Y1605855D02*
Y1606825D01*
X1967242Y1605864D02*
Y1606816D01*
X1967262Y1605874D02*
Y1606805D01*
X1967281Y1605886D02*
Y1606794D01*
X1967301Y1605898D02*
Y1606782D01*
X1967321Y1605912D02*
Y1606768D01*
X1967341Y1605927D02*
Y1606752D01*
X1967360Y1605944D02*
Y1606736D01*
X1967380Y1605962D02*
Y1606717D01*
X1967400Y1605983D02*
Y1606697D01*
X1967419Y1606006D02*
Y1606673D01*
X1967439Y1606032D02*
Y1606647D01*
X1967459Y1606062D02*
Y1606618D01*
X1967478Y1606097D02*
Y1606583D01*
X1967498Y1606139D02*
Y1606540D01*
X1967518Y1606197D02*
Y1606483D01*
X1964860Y1603840D02*
X1967006D01*
X1967041Y1603841*
X1967075Y1603844*
X1967110Y1603850*
X1967143Y1603858*
X1967177Y1603868*
X1967209Y1603880*
X1967241Y1603895*
X1967272Y1603911*
X1967301Y1603929*
X1967329Y1603950*
X1967356Y1603972*
X1967382Y1603995*
X1967406Y1604021*
X1967428Y1604048*
X1967448Y1604076*
X1967466Y1604106*
X1967483Y1604136*
X1967497Y1604168*
X1967509Y1604200*
X1967519Y1604234*
X1967527Y1604268*
X1967533Y1604302*
X1967536Y1604336*
X1967536D02*
X1967537Y1604371D01*
X1967536Y1604406*
X1967533Y1604441*
X1967527Y1604475*
X1967519Y1604509*
X1967509Y1604542*
X1967497Y1604575*
X1967483Y1604606*
X1967466Y1604637*
X1967448Y1604667*
X1967428Y1604695*
X1967406Y1604722*
X1967382Y1604747*
X1967356Y1604771*
X1967329Y1604793*
X1967301Y1604813*
X1967272Y1604832*
X1967241Y1604848*
X1967209Y1604862*
X1967177Y1604875*
X1967143Y1604885*
X1967110Y1604893*
X1967075Y1604898*
X1967041Y1604902*
X1967006Y1604903*
X1964860*
Y1603840*
Y1604903*
X1964880Y1603840D02*
Y1604903D01*
X1964900Y1603840D02*
Y1604903D01*
X1964919Y1603840D02*
Y1604903D01*
X1964939Y1603840D02*
Y1604903D01*
X1964959Y1603840D02*
Y1604903D01*
X1964978Y1603840D02*
Y1604903D01*
X1964998Y1603840D02*
Y1604903D01*
X1965018Y1603840D02*
Y1604903D01*
X1965037Y1603840D02*
Y1604903D01*
X1965057Y1603840D02*
Y1604903D01*
X1965077Y1603840D02*
Y1604903D01*
X1965096Y1603840D02*
Y1604903D01*
X1965116Y1603840D02*
Y1604903D01*
X1965136Y1603840D02*
Y1604903D01*
X1965156Y1603840D02*
Y1604903D01*
X1965175Y1603840D02*
Y1604903D01*
X1965195Y1603840D02*
Y1604903D01*
X1965215Y1603840D02*
Y1604903D01*
X1965234Y1603840D02*
Y1604903D01*
X1965254Y1603840D02*
Y1604903D01*
X1965274Y1603840D02*
Y1604903D01*
X1965293Y1603840D02*
Y1604903D01*
X1965313Y1603840D02*
Y1604903D01*
X1965333Y1603840D02*
Y1604903D01*
X1965352Y1603840D02*
Y1604903D01*
X1965372Y1603840D02*
Y1604903D01*
X1965392Y1603840D02*
Y1604903D01*
X1965411Y1603840D02*
Y1604903D01*
X1965431Y1603840D02*
Y1604903D01*
X1965451Y1603840D02*
Y1604903D01*
X1965470Y1603840D02*
Y1604903D01*
X1965490Y1603840D02*
Y1604903D01*
X1965510Y1603840D02*
Y1604903D01*
X1965530Y1603840D02*
Y1604903D01*
X1965549Y1603840D02*
Y1604903D01*
X1965569Y1603840D02*
Y1604903D01*
X1965589Y1603840D02*
Y1604903D01*
X1965608Y1603840D02*
Y1604903D01*
X1965628Y1603840D02*
Y1604903D01*
X1965648Y1603840D02*
Y1604903D01*
X1965667Y1603840D02*
Y1604903D01*
X1965687Y1603840D02*
Y1604903D01*
X1965707Y1603840D02*
Y1604903D01*
X1965726Y1603840D02*
Y1604903D01*
X1965746Y1603840D02*
Y1604903D01*
X1965766Y1603840D02*
Y1604903D01*
X1965785Y1603840D02*
Y1604903D01*
X1965805Y1603840D02*
Y1604903D01*
X1965825Y1603840D02*
Y1604903D01*
X1965844Y1603840D02*
Y1604903D01*
X1965864Y1603840D02*
Y1604903D01*
X1965884Y1603840D02*
Y1604903D01*
X1965904Y1603840D02*
Y1604903D01*
X1965923Y1603840D02*
Y1604903D01*
X1965943Y1603840D02*
Y1604903D01*
X1965963Y1603840D02*
Y1604903D01*
X1965982Y1603840D02*
Y1604903D01*
X1966002Y1603840D02*
Y1604903D01*
X1966022Y1603840D02*
Y1604903D01*
X1966041Y1603840D02*
Y1604903D01*
X1966061Y1603840D02*
Y1604903D01*
X1966081Y1603840D02*
Y1604903D01*
X1966100Y1603840D02*
Y1604903D01*
X1966120Y1603840D02*
Y1604903D01*
X1966140Y1603840D02*
Y1604903D01*
X1966159Y1603840D02*
Y1604903D01*
X1966179Y1603840D02*
Y1604903D01*
X1966199Y1603840D02*
Y1604903D01*
X1966219Y1603840D02*
Y1604903D01*
X1966238Y1603840D02*
Y1604903D01*
X1966258Y1603840D02*
Y1604903D01*
X1966278Y1603840D02*
Y1604903D01*
X1966297Y1603840D02*
Y1604903D01*
X1966317Y1603840D02*
Y1604903D01*
X1966337Y1603840D02*
Y1604903D01*
X1966356Y1603840D02*
Y1604903D01*
X1966376Y1603840D02*
Y1604903D01*
X1966396Y1603840D02*
Y1604903D01*
X1966415Y1603840D02*
Y1604903D01*
X1966435Y1603840D02*
Y1604903D01*
X1966455Y1603840D02*
Y1604903D01*
X1966474Y1603840D02*
Y1604903D01*
X1966494Y1603840D02*
Y1604903D01*
X1966514Y1603840D02*
Y1604903D01*
X1966533Y1603840D02*
Y1604903D01*
X1966553Y1603840D02*
Y1604903D01*
X1966573Y1603840D02*
Y1604903D01*
X1966593Y1603840D02*
Y1604903D01*
X1966612Y1603840D02*
Y1604903D01*
X1966632Y1603840D02*
Y1604903D01*
X1966652Y1603840D02*
Y1604903D01*
X1966671Y1603840D02*
Y1604903D01*
X1966691Y1603840D02*
Y1604903D01*
X1966711Y1603840D02*
Y1604903D01*
X1966730Y1603840D02*
Y1604903D01*
X1966750Y1603840D02*
Y1604903D01*
X1966770Y1603840D02*
Y1604903D01*
X1966789Y1603840D02*
Y1604903D01*
X1966809Y1603840D02*
Y1604903D01*
X1966829Y1603840D02*
Y1604903D01*
X1966848Y1603840D02*
Y1604903D01*
X1966868Y1603840D02*
Y1604903D01*
X1966888Y1603840D02*
Y1604903D01*
X1966907Y1603840D02*
Y1604903D01*
X1966927Y1603840D02*
Y1604903D01*
X1966947Y1603840D02*
Y1604903D01*
X1966967Y1603840D02*
Y1604903D01*
X1966986Y1603840D02*
Y1604903D01*
X1967006Y1603840D02*
Y1604903D01*
X1967026Y1603840D02*
Y1604902D01*
X1967045Y1603841D02*
Y1604901D01*
X1967065Y1603843D02*
Y1604899D01*
X1967085Y1603846D02*
Y1604897D01*
X1967104Y1603849D02*
Y1604893D01*
X1967124Y1603853D02*
Y1604889D01*
X1967144Y1603858D02*
Y1604885D01*
X1967163Y1603864D02*
Y1604879D01*
X1967183Y1603870D02*
Y1604872D01*
X1967203Y1603878D02*
Y1604865D01*
X1967222Y1603886D02*
Y1604856D01*
X1967242Y1603895D02*
Y1604847D01*
X1967262Y1603906D02*
Y1604837D01*
X1967281Y1603917D02*
Y1604825D01*
X1967301Y1603929D02*
Y1604813D01*
X1967321Y1603943D02*
Y1604799D01*
X1967341Y1603959D02*
Y1604784D01*
X1967360Y1603975D02*
Y1604767D01*
X1967380Y1603994D02*
Y1604749D01*
X1967400Y1604015D02*
Y1604728D01*
X1967419Y1604038D02*
Y1604705D01*
X1967439Y1604064D02*
Y1604679D01*
X1967459Y1604093D02*
Y1604649D01*
X1967478Y1604128D02*
Y1604614D01*
X1967498Y1604171D02*
Y1604572D01*
X1967518Y1604229D02*
Y1604514D01*
X1964860Y1601871D02*
X1967006D01*
X1967041Y1601872*
X1967075Y1601876*
X1967110Y1601881*
X1967143Y1601889*
X1967177Y1601899*
X1967209Y1601912*
X1967241Y1601926*
X1967272Y1601942*
X1967301Y1601961*
X1967329Y1601981*
X1967356Y1602003*
X1967382Y1602027*
X1967406Y1602052*
X1967428Y1602079*
X1967448Y1602107*
X1967466Y1602137*
X1967483Y1602168*
X1967497Y1602199*
X1967509Y1602232*
X1967519Y1602265*
X1967527Y1602299*
X1967533Y1602333*
X1967536Y1602368*
X1967537Y1602403*
X1967536Y1602438*
X1967533Y1602472*
X1967527Y1602506*
X1967519Y1602540*
X1967509Y1602574*
X1967497Y1602606*
X1967483Y1602638*
X1967466Y1602669*
X1967448Y1602698*
X1967428Y1602726*
X1967406Y1602753*
X1967382Y1602779*
X1967356Y1602802*
X1967329Y1602824*
X1967301Y1602845*
X1967272Y1602863*
X1967241Y1602879*
X1967209Y1602894*
X1967177Y1602906*
X1967143Y1602916*
X1967110Y1602924*
X1967075Y1602930*
X1967041Y1602933*
X1967006Y1602934*
X1964860*
Y1601871*
Y1602934*
X1964880Y1601871D02*
Y1602934D01*
X1964900Y1601871D02*
Y1602934D01*
X1964919Y1601871D02*
Y1602934D01*
X1964939Y1601871D02*
Y1602934D01*
X1964959Y1601871D02*
Y1602934D01*
X1964978Y1601871D02*
Y1602934D01*
X1964998Y1601871D02*
Y1602934D01*
X1965018Y1601871D02*
Y1602934D01*
X1965037Y1601871D02*
Y1602934D01*
X1965057Y1601871D02*
Y1602934D01*
X1965077Y1601871D02*
Y1602934D01*
X1965096Y1601871D02*
Y1602934D01*
X1965116Y1601871D02*
Y1602934D01*
X1965136Y1601871D02*
Y1602934D01*
X1965156Y1601871D02*
Y1602934D01*
X1965175Y1601871D02*
Y1602934D01*
X1965195Y1601871D02*
Y1602934D01*
X1965215Y1601871D02*
Y1602934D01*
X1965234Y1601871D02*
Y1602934D01*
X1965254Y1601871D02*
Y1602934D01*
X1965274Y1601871D02*
Y1602934D01*
X1965293Y1601871D02*
Y1602934D01*
X1965313Y1601871D02*
Y1602934D01*
X1965333Y1601871D02*
Y1602934D01*
X1965352Y1601871D02*
Y1602934D01*
X1965372Y1601871D02*
Y1602934D01*
X1965392Y1601871D02*
Y1602934D01*
X1965411Y1601871D02*
Y1602934D01*
X1965431Y1601871D02*
Y1602934D01*
X1965451Y1601871D02*
Y1602934D01*
X1965470Y1601871D02*
Y1602934D01*
X1965490Y1601871D02*
Y1602934D01*
X1965510Y1601871D02*
Y1602934D01*
X1965530Y1601871D02*
Y1602934D01*
X1965549Y1601871D02*
Y1602934D01*
X1965569Y1601871D02*
Y1602934D01*
X1965589Y1601871D02*
Y1602934D01*
X1965608Y1601871D02*
Y1602934D01*
X1965628Y1601871D02*
Y1602934D01*
X1965648Y1601871D02*
Y1602934D01*
X1965667Y1601871D02*
Y1602934D01*
X1965687Y1601871D02*
Y1602934D01*
X1965707Y1601871D02*
Y1602934D01*
X1965726Y1601871D02*
Y1602934D01*
X1965746Y1601871D02*
Y1602934D01*
X1965766Y1601871D02*
Y1602934D01*
X1965785Y1601871D02*
Y1602934D01*
X1965805Y1601871D02*
Y1602934D01*
X1965825Y1601871D02*
Y1602934D01*
X1965844Y1601871D02*
Y1602934D01*
X1965864Y1601871D02*
Y1602934D01*
X1965884Y1601871D02*
Y1602934D01*
X1965904Y1601871D02*
Y1602934D01*
X1965923Y1601871D02*
Y1602934D01*
X1965943Y1601871D02*
Y1602934D01*
X1965963Y1601871D02*
Y1602934D01*
X1965982Y1601871D02*
Y1602934D01*
X1966002Y1601871D02*
Y1602934D01*
X1966022Y1601871D02*
Y1602934D01*
X1966041Y1601871D02*
Y1602934D01*
X1966061Y1601871D02*
Y1602934D01*
X1966081Y1601871D02*
Y1602934D01*
X1966100Y1601871D02*
Y1602934D01*
X1966120Y1601871D02*
Y1602934D01*
X1966140Y1601871D02*
Y1602934D01*
X1966159Y1601871D02*
Y1602934D01*
X1966179Y1601871D02*
Y1602934D01*
X1966199Y1601871D02*
Y1602934D01*
X1966219Y1601871D02*
Y1602934D01*
X1966238Y1601871D02*
Y1602934D01*
X1966258Y1601871D02*
Y1602934D01*
X1966278Y1601871D02*
Y1602934D01*
X1966297Y1601871D02*
Y1602934D01*
X1966317Y1601871D02*
Y1602934D01*
X1966337Y1601871D02*
Y1602934D01*
X1966356Y1601871D02*
Y1602934D01*
X1966376Y1601871D02*
Y1602934D01*
X1966396Y1601871D02*
Y1602934D01*
X1966415Y1601871D02*
Y1602934D01*
X1966435Y1601871D02*
Y1602934D01*
X1966455Y1601871D02*
Y1602934D01*
X1966474Y1601871D02*
Y1602934D01*
X1966494Y1601871D02*
Y1602934D01*
X1966514Y1601871D02*
Y1602934D01*
X1966533Y1601871D02*
Y1602934D01*
X1966553Y1601871D02*
Y1602934D01*
X1966573Y1601871D02*
Y1602934D01*
X1966593Y1601871D02*
Y1602934D01*
X1966612Y1601871D02*
Y1602934D01*
X1966632Y1601871D02*
Y1602934D01*
X1966652Y1601871D02*
Y1602934D01*
X1966671Y1601871D02*
Y1602934D01*
X1966691Y1601871D02*
Y1602934D01*
X1966711Y1601871D02*
Y1602934D01*
X1966730Y1601871D02*
Y1602934D01*
X1966750Y1601871D02*
Y1602934D01*
X1966770Y1601871D02*
Y1602934D01*
X1966789Y1601871D02*
Y1602934D01*
X1966809Y1601871D02*
Y1602934D01*
X1966829Y1601871D02*
Y1602934D01*
X1966848Y1601871D02*
Y1602934D01*
X1966868Y1601871D02*
Y1602934D01*
X1966888Y1601871D02*
Y1602934D01*
X1966907Y1601871D02*
Y1602934D01*
X1966927Y1601871D02*
Y1602934D01*
X1966947Y1601871D02*
Y1602934D01*
X1966967Y1601871D02*
Y1602934D01*
X1966986Y1601871D02*
Y1602934D01*
X1967006Y1601871D02*
Y1602934D01*
X1967026Y1601872D02*
Y1602934D01*
X1967045Y1601873D02*
Y1602933D01*
X1967065Y1601875D02*
Y1602931D01*
X1967085Y1601877D02*
Y1602928D01*
X1967104Y1601881D02*
Y1602925D01*
X1967124Y1601885D02*
Y1602921D01*
X1967144Y1601889D02*
Y1602916D01*
X1967163Y1601895D02*
Y1602910D01*
X1967183Y1601902D02*
Y1602904D01*
X1967203Y1601909D02*
Y1602896D01*
X1967222Y1601918D02*
Y1602888D01*
X1967242Y1601927D02*
Y1602879D01*
X1967262Y1601937D02*
Y1602868D01*
X1967281Y1601949D02*
Y1602857D01*
X1967301Y1601961D02*
Y1602845D01*
X1967321Y1601975D02*
Y1602831D01*
X1967341Y1601990D02*
Y1602815D01*
X1967360Y1602007D02*
Y1602799D01*
X1967380Y1602025D02*
Y1602780D01*
X1967400Y1602046D02*
Y1602759D01*
X1967419Y1602069D02*
Y1602736D01*
X1967439Y1602095D02*
Y1602710D01*
X1967459Y1602125D02*
Y1602681D01*
X1967478Y1602160D02*
Y1602646D01*
X1967498Y1602202D02*
Y1602603D01*
X1967518Y1602260D02*
Y1602546D01*
X1964860Y1599903D02*
X1967006D01*
X1967041Y1599904*
X1967075Y1599907*
X1967110Y1599913*
X1967143Y1599921*
X1967177Y1599931*
X1967209Y1599943*
X1967241Y1599958*
X1967272Y1599974*
X1967301Y1599992*
X1967329Y1600013*
X1967356Y1600035*
X1967382Y1600058*
X1967406Y1600084*
X1967428Y1600111*
X1967448Y1600139*
X1967466Y1600169*
X1967483Y1600199*
X1967497Y1600231*
X1967509Y1600263*
X1967519Y1600297*
X1967527Y1600331*
X1967533Y1600365*
X1967536Y1600399*
X1967537Y1600434*
X1967536Y1600469*
X1967533Y1600504*
X1967527Y1600538*
X1967519Y1600572*
X1967509Y1600605*
X1967497Y1600638*
X1967483Y1600669*
X1967466Y1600700*
X1967448Y1600730*
X1967428Y1600758*
X1967406Y1600785*
X1967382Y1600810*
X1967356Y1600834*
X1967329Y1600856*
X1967301Y1600876*
X1967272Y1600895*
X1967241Y1600911*
X1967209Y1600925*
X1967177Y1600938*
X1967143Y1600948*
X1967110Y1600956*
X1967075Y1600961*
X1967041Y1600965*
X1967006Y1600966*
X1964860*
Y1599903*
Y1600966*
X1964880Y1599903D02*
Y1600966D01*
X1964900Y1599903D02*
Y1600966D01*
X1964919Y1599903D02*
Y1600966D01*
X1964939Y1599903D02*
Y1600966D01*
X1964959Y1599903D02*
Y1600966D01*
X1964978Y1599903D02*
Y1600966D01*
X1964998Y1599903D02*
Y1600966D01*
X1965018Y1599903D02*
Y1600966D01*
X1965037Y1599903D02*
Y1600966D01*
X1965057Y1599903D02*
Y1600966D01*
X1965077Y1599903D02*
Y1600966D01*
X1965096Y1599903D02*
Y1600966D01*
X1965116Y1599903D02*
Y1600966D01*
X1965136Y1599903D02*
Y1600966D01*
X1965156Y1599903D02*
Y1600966D01*
X1965175Y1599903D02*
Y1600966D01*
X1965195Y1599903D02*
Y1600966D01*
X1965215Y1599903D02*
Y1600966D01*
X1965234Y1599903D02*
Y1600966D01*
X1965254Y1599903D02*
Y1600966D01*
X1965274Y1599903D02*
Y1600966D01*
X1965293Y1599903D02*
Y1600966D01*
X1965313Y1599903D02*
Y1600966D01*
X1965333Y1599903D02*
Y1600966D01*
X1965352Y1599903D02*
Y1600966D01*
X1965372Y1599903D02*
Y1600966D01*
X1965392Y1599903D02*
Y1600966D01*
X1965411Y1599903D02*
Y1600966D01*
X1965431Y1599903D02*
Y1600966D01*
X1965451Y1599903D02*
Y1600966D01*
X1965470Y1599903D02*
Y1600966D01*
X1965490Y1599903D02*
Y1600966D01*
X1965510Y1599903D02*
Y1600966D01*
X1965530Y1599903D02*
Y1600966D01*
X1965549Y1599903D02*
Y1600966D01*
X1965569Y1599903D02*
Y1600966D01*
X1965589Y1599903D02*
Y1600966D01*
X1965608Y1599903D02*
Y1600966D01*
X1965628Y1599903D02*
Y1600966D01*
X1965648Y1599903D02*
Y1600966D01*
X1965667Y1599903D02*
Y1600966D01*
X1965687Y1599903D02*
Y1600966D01*
X1965707Y1599903D02*
Y1600966D01*
X1965726Y1599903D02*
Y1600966D01*
X1965746Y1599903D02*
Y1600966D01*
X1965766Y1599903D02*
Y1600966D01*
X1965785Y1599903D02*
Y1600966D01*
X1965805Y1599903D02*
Y1600966D01*
X1965825Y1599903D02*
Y1600966D01*
X1965844Y1599903D02*
Y1600966D01*
X1965864Y1599903D02*
Y1600966D01*
X1965884Y1599903D02*
Y1600966D01*
X1965904Y1599903D02*
Y1600966D01*
X1965923Y1599903D02*
Y1600966D01*
X1965943Y1599903D02*
Y1600966D01*
X1965963Y1599903D02*
Y1600966D01*
X1965982Y1599903D02*
Y1600966D01*
X1966002Y1599903D02*
Y1600966D01*
X1966022Y1599903D02*
Y1600966D01*
X1966041Y1599903D02*
Y1600966D01*
X1966061Y1599903D02*
Y1600966D01*
X1966081Y1599903D02*
Y1600966D01*
X1966100Y1599903D02*
Y1600966D01*
X1966120Y1599903D02*
Y1600966D01*
X1966140Y1599903D02*
Y1600966D01*
X1966159Y1599903D02*
Y1600966D01*
X1966179Y1599903D02*
Y1600966D01*
X1966199Y1599903D02*
Y1600966D01*
X1966219Y1599903D02*
Y1600966D01*
X1966238Y1599903D02*
Y1600966D01*
X1966258Y1599903D02*
Y1600966D01*
X1966278Y1599903D02*
Y1600966D01*
X1966297Y1599903D02*
Y1600966D01*
X1966317Y1599903D02*
Y1600966D01*
X1966337Y1599903D02*
Y1600966D01*
X1966356Y1599903D02*
Y1600966D01*
X1966376Y1599903D02*
Y1600966D01*
X1966396Y1599903D02*
Y1600966D01*
X1966415Y1599903D02*
Y1600966D01*
X1966435Y1599903D02*
Y1600966D01*
X1966455Y1599903D02*
Y1600966D01*
X1966474Y1599903D02*
Y1600966D01*
X1966494Y1599903D02*
Y1600966D01*
X1966514Y1599903D02*
Y1600966D01*
X1966533Y1599903D02*
Y1600966D01*
X1966553Y1599903D02*
Y1600966D01*
X1966573Y1599903D02*
Y1600966D01*
X1966593Y1599903D02*
Y1600966D01*
X1966612Y1599903D02*
Y1600966D01*
X1966632Y1599903D02*
Y1600966D01*
X1966652Y1599903D02*
Y1600966D01*
X1966671Y1599903D02*
Y1600966D01*
X1966691Y1599903D02*
Y1600966D01*
X1966711Y1599903D02*
Y1600966D01*
X1966730Y1599903D02*
Y1600966D01*
X1966750Y1599903D02*
Y1600966D01*
X1966770Y1599903D02*
Y1600966D01*
X1966789Y1599903D02*
Y1600966D01*
X1966809Y1599903D02*
Y1600966D01*
X1966829Y1599903D02*
Y1600966D01*
X1966848Y1599903D02*
Y1600966D01*
X1966868Y1599903D02*
Y1600966D01*
X1966888Y1599903D02*
Y1600966D01*
X1966907Y1599903D02*
Y1600966D01*
X1966927Y1599903D02*
Y1600966D01*
X1966947Y1599903D02*
Y1600966D01*
X1966967Y1599903D02*
Y1600966D01*
X1966986Y1599903D02*
Y1600966D01*
X1967006Y1599903D02*
Y1600966D01*
X1967026Y1599903D02*
Y1600965D01*
X1967045Y1599904D02*
Y1600964D01*
X1967065Y1599906D02*
Y1600962D01*
X1967085Y1599909D02*
Y1600960D01*
X1967104Y1599912D02*
Y1600956D01*
X1967124Y1599916D02*
Y1600952D01*
X1967144Y1599921D02*
Y1600948D01*
X1967163Y1599927D02*
Y1600942D01*
X1967183Y1599933D02*
Y1600935D01*
X1967203Y1599941D02*
Y1600928D01*
X1967222Y1599949D02*
Y1600919D01*
X1967242Y1599958D02*
Y1600910D01*
X1967262Y1599969D02*
Y1600900D01*
X1967281Y1599980D02*
Y1600888D01*
X1967301Y1599992D02*
Y1600876D01*
X1967321Y1600006D02*
Y1600862D01*
X1967341Y1600022D02*
Y1600847D01*
X1967360Y1600038D02*
Y1600830D01*
X1967380Y1600057D02*
Y1600812D01*
X1967400Y1600078D02*
Y1600791D01*
X1967419Y1600101D02*
Y1600768D01*
X1967439Y1600127D02*
Y1600742D01*
X1967459Y1600156D02*
Y1600712D01*
X1967478Y1600191D02*
Y1600677D01*
X1967498Y1600234D02*
Y1600635D01*
X1967518Y1600291D02*
Y1600577D01*
X1964860Y1597934D02*
X1967006D01*
X1967041Y1597935*
X1967075Y1597939*
X1967110Y1597944*
X1967143Y1597952*
X1967177Y1597962*
X1967209Y1597975*
X1967241Y1597989*
X1967272Y1598005*
X1967301Y1598024*
X1967329Y1598044*
X1967356Y1598066*
X1967382Y1598090*
X1967406Y1598115*
X1967428Y1598142*
X1967448Y1598170*
X1967466Y1598200*
X1967483Y1598231*
X1967497Y1598262*
X1967509Y1598295*
X1967519Y1598328*
X1967527Y1598362*
X1967533Y1598396*
X1967536Y1598431*
X1967537Y1598466*
X1967536Y1598501*
X1967533Y1598535*
X1967527Y1598569*
X1967519Y1598603*
X1967509Y1598637*
X1967497Y1598669*
X1967483Y1598701*
X1967466Y1598731*
X1967448Y1598761*
X1967428Y1598789*
X1967406Y1598816*
X1967382Y1598842*
X1967356Y1598865*
X1967329Y1598887*
X1967301Y1598908*
X1967272Y1598926*
X1967241Y1598942*
X1967209Y1598957*
X1967177Y1598969*
X1967143Y1598979*
X1967110Y1598987*
X1967075Y1598993*
X1967041Y1598996*
X1967006Y1598997*
X1964860*
Y1597934*
Y1598997*
X1964880Y1597934D02*
Y1598997D01*
X1964900Y1597934D02*
Y1598997D01*
X1964919Y1597934D02*
Y1598997D01*
X1964939Y1597934D02*
Y1598997D01*
X1964959Y1597934D02*
Y1598997D01*
X1964978Y1597934D02*
Y1598997D01*
X1964998Y1597934D02*
Y1598997D01*
X1965018Y1597934D02*
Y1598997D01*
X1965037Y1597934D02*
Y1598997D01*
X1965057Y1597934D02*
Y1598997D01*
X1965077Y1597934D02*
Y1598997D01*
X1965096Y1597934D02*
Y1598997D01*
X1965116Y1597934D02*
Y1598997D01*
X1965136Y1597934D02*
Y1598997D01*
X1965156Y1597934D02*
Y1598997D01*
X1965175Y1597934D02*
Y1598997D01*
X1965195Y1597934D02*
Y1598997D01*
X1965215Y1597934D02*
Y1598997D01*
X1965234Y1597934D02*
Y1598997D01*
X1965254Y1597934D02*
Y1598997D01*
X1965274Y1597934D02*
Y1598997D01*
X1965293Y1597934D02*
Y1598997D01*
X1965313Y1597934D02*
Y1598997D01*
X1965333Y1597934D02*
Y1598997D01*
X1965352Y1597934D02*
Y1598997D01*
X1965372Y1597934D02*
Y1598997D01*
X1965392Y1597934D02*
Y1598997D01*
X1965411Y1597934D02*
Y1598997D01*
X1965431Y1597934D02*
Y1598997D01*
X1965451Y1597934D02*
Y1598997D01*
X1965470Y1597934D02*
Y1598997D01*
X1965490Y1597934D02*
Y1598997D01*
X1965510Y1597934D02*
Y1598997D01*
X1965530Y1597934D02*
Y1598997D01*
X1965549Y1597934D02*
Y1598997D01*
X1965569Y1597934D02*
Y1598997D01*
X1965589Y1597934D02*
Y1598997D01*
X1965608Y1597934D02*
Y1598997D01*
X1965628Y1597934D02*
Y1598997D01*
X1965648Y1597934D02*
Y1598997D01*
X1965667Y1597934D02*
Y1598997D01*
X1965687Y1597934D02*
Y1598997D01*
X1965707Y1597934D02*
Y1598997D01*
X1965726Y1597934D02*
Y1598997D01*
X1965746Y1597934D02*
Y1598997D01*
X1965766Y1597934D02*
Y1598997D01*
X1965785Y1597934D02*
Y1598997D01*
X1965805Y1597934D02*
Y1598997D01*
X1965825Y1597934D02*
Y1598997D01*
X1965844Y1597934D02*
Y1598997D01*
X1965864Y1597934D02*
Y1598997D01*
X1965884Y1597934D02*
Y1598997D01*
X1965904Y1597934D02*
Y1598997D01*
X1965923Y1597934D02*
Y1598997D01*
X1965943Y1597934D02*
Y1598997D01*
X1965963Y1597934D02*
Y1598997D01*
X1965982Y1597934D02*
Y1598997D01*
X1966002Y1597934D02*
Y1598997D01*
X1966022Y1597934D02*
Y1598997D01*
X1966041Y1597934D02*
Y1598997D01*
X1966061Y1597934D02*
Y1598997D01*
X1966081Y1597934D02*
Y1598997D01*
X1966100Y1597934D02*
Y1598997D01*
X1966120Y1597934D02*
Y1598997D01*
X1966140Y1597934D02*
Y1598997D01*
X1966159Y1597934D02*
Y1598997D01*
X1966179Y1597934D02*
Y1598997D01*
X1966199Y1597934D02*
Y1598997D01*
X1966219Y1597934D02*
Y1598997D01*
X1966238Y1597934D02*
Y1598997D01*
X1966258Y1597934D02*
Y1598997D01*
X1966278Y1597934D02*
Y1598997D01*
X1966297Y1597934D02*
Y1598997D01*
X1966317Y1597934D02*
Y1598997D01*
X1966337Y1597934D02*
Y1598997D01*
X1966356Y1597934D02*
Y1598997D01*
X1966376Y1597934D02*
Y1598997D01*
X1966396Y1597934D02*
Y1598997D01*
X1966415Y1597934D02*
Y1598997D01*
X1966435Y1597934D02*
Y1598997D01*
X1966455Y1597934D02*
Y1598997D01*
X1966474Y1597934D02*
Y1598997D01*
X1966494Y1597934D02*
Y1598997D01*
X1966514Y1597934D02*
Y1598997D01*
X1966533Y1597934D02*
Y1598997D01*
X1966553Y1597934D02*
Y1598997D01*
X1966573Y1597934D02*
Y1598997D01*
X1966593Y1597934D02*
Y1598997D01*
X1966612Y1597934D02*
Y1598997D01*
X1966632Y1597934D02*
Y1598997D01*
X1966652Y1597934D02*
Y1598997D01*
X1966671Y1597934D02*
Y1598997D01*
X1966691Y1597934D02*
Y1598997D01*
X1966711Y1597934D02*
Y1598997D01*
X1966730Y1597934D02*
Y1598997D01*
X1966750Y1597934D02*
Y1598997D01*
X1966770Y1597934D02*
Y1598997D01*
X1966789Y1597934D02*
Y1598997D01*
X1966809Y1597934D02*
Y1598997D01*
X1966829Y1597934D02*
Y1598997D01*
X1966848Y1597934D02*
Y1598997D01*
X1966868Y1597934D02*
Y1598997D01*
X1966888Y1597934D02*
Y1598997D01*
X1966907Y1597934D02*
Y1598997D01*
X1966927Y1597934D02*
Y1598997D01*
X1966947Y1597934D02*
Y1598997D01*
X1966967Y1597934D02*
Y1598997D01*
X1966986Y1597934D02*
Y1598997D01*
X1967006Y1597934D02*
Y1598997D01*
X1967026Y1597935D02*
Y1598997D01*
X1967045Y1597936D02*
Y1598996D01*
X1967065Y1597938D02*
Y1598994D01*
X1967085Y1597940D02*
Y1598991D01*
X1967104Y1597944D02*
Y1598988D01*
X1967124Y1597948D02*
Y1598984D01*
X1967144Y1597952D02*
Y1598979D01*
X1967163Y1597958D02*
Y1598973D01*
X1967183Y1597965D02*
Y1598967D01*
X1967203Y1597972D02*
Y1598959D01*
X1967222Y1597981D02*
Y1598951D01*
X1967242Y1597990D02*
Y1598942D01*
X1967262Y1598000D02*
Y1598931D01*
X1967281Y1598012D02*
Y1598920D01*
X1967301Y1598024D02*
Y1598908D01*
X1967321Y1598038D02*
Y1598894D01*
X1967341Y1598053D02*
Y1598878D01*
X1967360Y1598070D02*
Y1598862D01*
X1967380Y1598088D02*
Y1598843D01*
X1967400Y1598109D02*
Y1598822D01*
X1967419Y1598132D02*
Y1598799D01*
X1967439Y1598158D02*
Y1598773D01*
X1967459Y1598188D02*
Y1598744D01*
X1967478Y1598223D02*
Y1598709D01*
X1967498Y1598265D02*
Y1598666D01*
X1967518Y1598323D02*
Y1598609D01*
X1964860Y1595966D02*
X1967006D01*
X1967041Y1595967*
X1967075Y1595970*
X1967110Y1595976*
X1967143Y1595984*
X1967177Y1595994*
X1967209Y1596006*
X1967241Y1596021*
X1967272Y1596037*
X1967301Y1596055*
X1967329Y1596076*
X1967356Y1596098*
X1967382Y1596121*
X1967406Y1596147*
X1967428Y1596174*
X1967448Y1596202*
X1967466Y1596231*
X1967483Y1596262*
X1967497Y1596294*
X1967509Y1596326*
X1967519Y1596360*
X1967527Y1596394*
X1967533Y1596428*
X1967536Y1596462*
X1967537Y1596497*
X1967536Y1596532*
X1967533Y1596567*
X1967527Y1596601*
X1967519Y1596635*
X1967509Y1596668*
X1967497Y1596701*
X1967483Y1596732*
X1967466Y1596763*
X1967448Y1596793*
X1967428Y1596821*
X1967406Y1596848*
X1967382Y1596873*
X1967356Y1596897*
X1967329Y1596919*
X1967301Y1596939*
X1967272Y1596958*
X1967241Y1596974*
X1967209Y1596988*
X1967177Y1597001*
X1967143Y1597011*
X1967110Y1597019*
X1967075Y1597024*
X1967041Y1597028*
X1967006Y1597029*
X1964860*
Y1595966*
Y1597029*
X1964880Y1595966D02*
Y1597029D01*
X1964900Y1595966D02*
Y1597029D01*
X1964919Y1595966D02*
Y1597029D01*
X1964939Y1595966D02*
Y1597029D01*
X1964959Y1595966D02*
Y1597029D01*
X1964978Y1595966D02*
Y1597029D01*
X1964998Y1595966D02*
Y1597029D01*
X1965018Y1595966D02*
Y1597029D01*
X1965037Y1595966D02*
Y1597029D01*
X1965057Y1595966D02*
Y1597029D01*
X1965077Y1595966D02*
Y1597029D01*
X1965096Y1595966D02*
Y1597029D01*
X1965116Y1595966D02*
Y1597029D01*
X1965136Y1595966D02*
Y1597029D01*
X1965156Y1595966D02*
Y1597029D01*
X1965175Y1595966D02*
Y1597029D01*
X1965195Y1595966D02*
Y1597029D01*
X1965215Y1595966D02*
Y1597029D01*
X1965234Y1595966D02*
Y1597029D01*
X1965254Y1595966D02*
Y1597029D01*
X1965274Y1595966D02*
Y1597029D01*
X1965293Y1595966D02*
Y1597029D01*
X1965313Y1595966D02*
Y1597029D01*
X1965333Y1595966D02*
Y1597029D01*
X1965352Y1595966D02*
Y1597029D01*
X1965372Y1595966D02*
Y1597029D01*
X1965392Y1595966D02*
Y1597029D01*
X1965411Y1595966D02*
Y1597029D01*
X1965431Y1595966D02*
Y1597029D01*
X1965451Y1595966D02*
Y1597029D01*
X1965470Y1595966D02*
Y1597029D01*
X1965490Y1595966D02*
Y1597029D01*
X1965510Y1595966D02*
Y1597029D01*
X1965530Y1595966D02*
Y1597029D01*
X1965549Y1595966D02*
Y1597029D01*
X1965569Y1595966D02*
Y1597029D01*
X1965589Y1595966D02*
Y1597029D01*
X1965608Y1595966D02*
Y1597029D01*
X1965628Y1595966D02*
Y1597029D01*
X1965648Y1595966D02*
Y1597029D01*
X1965667Y1595966D02*
Y1597029D01*
X1965687Y1595966D02*
Y1597029D01*
X1965707Y1595966D02*
Y1597029D01*
X1965726Y1595966D02*
Y1597029D01*
X1965746Y1595966D02*
Y1597029D01*
X1965766Y1595966D02*
Y1597029D01*
X1965785Y1595966D02*
Y1597029D01*
X1965805Y1595966D02*
Y1597029D01*
X1965825Y1595966D02*
Y1597029D01*
X1965844Y1595966D02*
Y1597029D01*
X1965864Y1595966D02*
Y1597029D01*
X1965884Y1595966D02*
Y1597029D01*
X1965904Y1595966D02*
Y1597029D01*
X1965923Y1595966D02*
Y1597029D01*
X1965943Y1595966D02*
Y1597029D01*
X1965963Y1595966D02*
Y1597029D01*
X1965982Y1595966D02*
Y1597029D01*
X1966002Y1595966D02*
Y1597029D01*
X1966022Y1595966D02*
Y1597029D01*
X1966041Y1595966D02*
Y1597029D01*
X1966061Y1595966D02*
Y1597029D01*
X1966081Y1595966D02*
Y1597029D01*
X1966100Y1595966D02*
Y1597029D01*
X1966120Y1595966D02*
Y1597029D01*
X1966140Y1595966D02*
Y1597029D01*
X1966159Y1595966D02*
Y1597029D01*
X1966179Y1595966D02*
Y1597029D01*
X1966199Y1595966D02*
Y1597029D01*
X1966219Y1595966D02*
Y1597029D01*
X1966238Y1595966D02*
Y1597029D01*
X1966258Y1595966D02*
Y1597029D01*
X1966278Y1595966D02*
Y1597029D01*
X1966297Y1595966D02*
Y1597029D01*
X1966317Y1595966D02*
Y1597029D01*
X1966337Y1595966D02*
Y1597029D01*
X1966356Y1595966D02*
Y1597029D01*
X1966376Y1595966D02*
Y1597029D01*
X1966396Y1595966D02*
Y1597029D01*
X1966415Y1595966D02*
Y1597029D01*
X1966435Y1595966D02*
Y1597029D01*
X1966455Y1595966D02*
Y1597029D01*
X1966474Y1595966D02*
Y1597029D01*
X1966494Y1595966D02*
Y1597029D01*
X1966514Y1595966D02*
Y1597029D01*
X1966533Y1595966D02*
Y1597029D01*
X1966553Y1595966D02*
Y1597029D01*
X1966573Y1595966D02*
Y1597029D01*
X1966593Y1595966D02*
Y1597029D01*
X1966612Y1595966D02*
Y1597029D01*
X1966632Y1595966D02*
Y1597029D01*
X1966652Y1595966D02*
Y1597029D01*
X1966671Y1595966D02*
Y1597029D01*
X1966691Y1595966D02*
Y1597029D01*
X1966711Y1595966D02*
Y1597029D01*
X1966730Y1595966D02*
Y1597029D01*
X1966750Y1595966D02*
Y1597029D01*
X1966770Y1595966D02*
Y1597029D01*
X1966789Y1595966D02*
Y1597029D01*
X1966809Y1595966D02*
Y1597029D01*
X1966829Y1595966D02*
Y1597029D01*
X1966848Y1595966D02*
Y1597029D01*
X1966868Y1595966D02*
Y1597029D01*
X1966888Y1595966D02*
Y1597029D01*
X1966907Y1595966D02*
Y1597029D01*
X1966927Y1595966D02*
Y1597029D01*
X1966947Y1595966D02*
Y1597029D01*
X1966967Y1595966D02*
Y1597029D01*
X1966986Y1595966D02*
Y1597029D01*
X1967006Y1595966D02*
Y1597029D01*
X1967026Y1595966D02*
Y1597028D01*
X1967045Y1595967D02*
Y1597027D01*
X1967065Y1595969D02*
Y1597025D01*
X1967085Y1595972D02*
Y1597023D01*
X1967104Y1595975D02*
Y1597019D01*
X1967124Y1595979D02*
Y1597015D01*
X1967144Y1595984D02*
Y1597011D01*
X1967163Y1595990D02*
Y1597005D01*
X1967183Y1595996D02*
Y1596998D01*
X1967203Y1596004D02*
Y1596991D01*
X1967222Y1596012D02*
Y1596982D01*
X1967242Y1596021D02*
Y1596973D01*
X1967262Y1596032D02*
Y1596963D01*
X1967281Y1596043D02*
Y1596951D01*
X1967301Y1596055D02*
Y1596939D01*
X1967321Y1596069D02*
Y1596925D01*
X1967341Y1596085D02*
Y1596910D01*
X1967360Y1596101D02*
Y1596893D01*
X1967380Y1596120D02*
Y1596875D01*
X1967400Y1596141D02*
Y1596854D01*
X1967419Y1596164D02*
Y1596831D01*
X1967439Y1596190D02*
Y1596805D01*
X1967459Y1596219D02*
Y1596775D01*
X1967478Y1596254D02*
Y1596740D01*
X1967498Y1596297D02*
Y1596698D01*
X1967518Y1596354D02*
Y1596640D01*
X1964860Y1593997D02*
X1967006D01*
X1967041Y1593998*
X1967075Y1594002*
X1967110Y1594007*
X1967143Y1594015*
X1967177Y1594025*
X1967209Y1594038*
X1967241Y1594052*
X1967272Y1594068*
X1967301Y1594087*
X1967329Y1594107*
X1967356Y1594129*
X1967382Y1594153*
X1967406Y1594178*
X1967428Y1594205*
X1967448Y1594233*
X1967466Y1594263*
X1967483Y1594294*
X1967497Y1594325*
X1967509Y1594358*
X1967519Y1594391*
X1967527Y1594425*
X1967533Y1594459*
X1967536Y1594494*
X1967537Y1594529*
X1967536Y1594564*
X1967536D02*
X1967533Y1594598D01*
X1967527Y1594632*
X1967519Y1594666*
X1967509Y1594700*
X1967497Y1594732*
X1967483Y1594764*
X1967466Y1594794*
X1967448Y1594824*
X1967428Y1594852*
X1967406Y1594879*
X1967382Y1594905*
X1967356Y1594928*
X1967329Y1594950*
X1967301Y1594971*
X1967272Y1594989*
X1967241Y1595005*
X1967209Y1595020*
X1967177Y1595032*
X1967143Y1595042*
X1967110Y1595050*
X1967075Y1595056*
X1967041Y1595059*
X1967006Y1595060*
X1964860*
Y1593997*
Y1595060*
X1964880Y1593997D02*
Y1595060D01*
X1964900Y1593997D02*
Y1595060D01*
X1964919Y1593997D02*
Y1595060D01*
X1964939Y1593997D02*
Y1595060D01*
X1964959Y1593997D02*
Y1595060D01*
X1964978Y1593997D02*
Y1595060D01*
X1964998Y1593997D02*
Y1595060D01*
X1965018Y1593997D02*
Y1595060D01*
X1965037Y1593997D02*
Y1595060D01*
X1965057Y1593997D02*
Y1595060D01*
X1965077Y1593997D02*
Y1595060D01*
X1965096Y1593997D02*
Y1595060D01*
X1965116Y1593997D02*
Y1595060D01*
X1965136Y1593997D02*
Y1595060D01*
X1965156Y1593997D02*
Y1595060D01*
X1965175Y1593997D02*
Y1595060D01*
X1965195Y1593997D02*
Y1595060D01*
X1965215Y1593997D02*
Y1595060D01*
X1965234Y1593997D02*
Y1595060D01*
X1965254Y1593997D02*
Y1595060D01*
X1965274Y1593997D02*
Y1595060D01*
X1965293Y1593997D02*
Y1595060D01*
X1965313Y1593997D02*
Y1595060D01*
X1965333Y1593997D02*
Y1595060D01*
X1965352Y1593997D02*
Y1595060D01*
X1965372Y1593997D02*
Y1595060D01*
X1965392Y1593997D02*
Y1595060D01*
X1965411Y1593997D02*
Y1595060D01*
X1965431Y1593997D02*
Y1595060D01*
X1965451Y1593997D02*
Y1595060D01*
X1965470Y1593997D02*
Y1595060D01*
X1965490Y1593997D02*
Y1595060D01*
X1965510Y1593997D02*
Y1595060D01*
X1965530Y1593997D02*
Y1595060D01*
X1965549Y1593997D02*
Y1595060D01*
X1965569Y1593997D02*
Y1595060D01*
X1965589Y1593997D02*
Y1595060D01*
X1965608Y1593997D02*
Y1595060D01*
X1965628Y1593997D02*
Y1595060D01*
X1965648Y1593997D02*
Y1595060D01*
X1965667Y1593997D02*
Y1595060D01*
X1965687Y1593997D02*
Y1595060D01*
X1965707Y1593997D02*
Y1595060D01*
X1965726Y1593997D02*
Y1595060D01*
X1965746Y1593997D02*
Y1595060D01*
X1965766Y1593997D02*
Y1595060D01*
X1965785Y1593997D02*
Y1595060D01*
X1965805Y1593997D02*
Y1595060D01*
X1965825Y1593997D02*
Y1595060D01*
X1965844Y1593997D02*
Y1595060D01*
X1965864Y1593997D02*
Y1595060D01*
X1965884Y1593997D02*
Y1595060D01*
X1965904Y1593997D02*
Y1595060D01*
X1965923Y1593997D02*
Y1595060D01*
X1965943Y1593997D02*
Y1595060D01*
X1965963Y1593997D02*
Y1595060D01*
X1965982Y1593997D02*
Y1595060D01*
X1966002Y1593997D02*
Y1595060D01*
X1966022Y1593997D02*
Y1595060D01*
X1966041Y1593997D02*
Y1595060D01*
X1966061Y1593997D02*
Y1595060D01*
X1966081Y1593997D02*
Y1595060D01*
X1966100Y1593997D02*
Y1595060D01*
X1966120Y1593997D02*
Y1595060D01*
X1966140Y1593997D02*
Y1595060D01*
X1966159Y1593997D02*
Y1595060D01*
X1966179Y1593997D02*
Y1595060D01*
X1966199Y1593997D02*
Y1595060D01*
X1966219Y1593997D02*
Y1595060D01*
X1966238Y1593997D02*
Y1595060D01*
X1966258Y1593997D02*
Y1595060D01*
X1966278Y1593997D02*
Y1595060D01*
X1966297Y1593997D02*
Y1595060D01*
X1966317Y1593997D02*
Y1595060D01*
X1966337Y1593997D02*
Y1595060D01*
X1966356Y1593997D02*
Y1595060D01*
X1966376Y1593997D02*
Y1595060D01*
X1966396Y1593997D02*
Y1595060D01*
X1966415Y1593997D02*
Y1595060D01*
X1966435Y1593997D02*
Y1595060D01*
X1966455Y1593997D02*
Y1595060D01*
X1966474Y1593997D02*
Y1595060D01*
X1966494Y1593997D02*
Y1595060D01*
X1966514Y1593997D02*
Y1595060D01*
X1966533Y1593997D02*
Y1595060D01*
X1966553Y1593997D02*
Y1595060D01*
X1966573Y1593997D02*
Y1595060D01*
X1966593Y1593997D02*
Y1595060D01*
X1966612Y1593997D02*
Y1595060D01*
X1966632Y1593997D02*
Y1595060D01*
X1966652Y1593997D02*
Y1595060D01*
X1966671Y1593997D02*
Y1595060D01*
X1966691Y1593997D02*
Y1595060D01*
X1966711Y1593997D02*
Y1595060D01*
X1966730Y1593997D02*
Y1595060D01*
X1966750Y1593997D02*
Y1595060D01*
X1966770Y1593997D02*
Y1595060D01*
X1966789Y1593997D02*
Y1595060D01*
X1966809Y1593997D02*
Y1595060D01*
X1966829Y1593997D02*
Y1595060D01*
X1966848Y1593997D02*
Y1595060D01*
X1966868Y1593997D02*
Y1595060D01*
X1966888Y1593997D02*
Y1595060D01*
X1966907Y1593997D02*
Y1595060D01*
X1966927Y1593997D02*
Y1595060D01*
X1966947Y1593997D02*
Y1595060D01*
X1966967Y1593997D02*
Y1595060D01*
X1966986Y1593997D02*
Y1595060D01*
X1967006Y1593997D02*
Y1595060D01*
X1967026Y1593998D02*
Y1595060D01*
X1967045Y1593999D02*
Y1595059D01*
X1967065Y1594001D02*
Y1595057D01*
X1967085Y1594003D02*
Y1595054D01*
X1967104Y1594007D02*
Y1595051D01*
X1967124Y1594011D02*
Y1595047D01*
X1967144Y1594015D02*
Y1595042D01*
X1967163Y1594021D02*
Y1595036D01*
X1967183Y1594028D02*
Y1595030D01*
X1967203Y1594035D02*
Y1595022D01*
X1967222Y1594044D02*
Y1595014D01*
X1967242Y1594053D02*
Y1595005D01*
X1967262Y1594063D02*
Y1594994D01*
X1967281Y1594075D02*
Y1594983D01*
X1967301Y1594087D02*
Y1594971D01*
X1967321Y1594101D02*
Y1594957D01*
X1967341Y1594116D02*
Y1594941D01*
X1967360Y1594133D02*
Y1594925D01*
X1967380Y1594151D02*
Y1594906D01*
X1967400Y1594172D02*
Y1594885D01*
X1967419Y1594195D02*
Y1594862D01*
X1967439Y1594221D02*
Y1594836D01*
X1967459Y1594251D02*
Y1594807D01*
X1967478Y1594286D02*
Y1594772D01*
X1967498Y1594328D02*
Y1594729D01*
X1967518Y1594386D02*
Y1594671D01*
X1964860Y1592029D02*
X1967006D01*
X1967041Y1592030*
X1967075Y1592033*
X1967110Y1592039*
X1967143Y1592047*
X1967177Y1592057*
X1967209Y1592069*
X1967241Y1592084*
X1967272Y1592100*
X1967301Y1592118*
X1967329Y1592139*
X1967356Y1592161*
X1967382Y1592184*
X1967406Y1592210*
X1967428Y1592237*
X1967448Y1592265*
X1967466Y1592294*
X1967483Y1592325*
X1967497Y1592357*
X1967509Y1592389*
X1967519Y1592423*
X1967527Y1592457*
X1967533Y1592491*
X1967536Y1592525*
X1967537Y1592560*
X1967536Y1592595*
X1967533Y1592630*
X1967527Y1592664*
X1967519Y1592698*
X1967509Y1592731*
X1967497Y1592764*
X1967483Y1592795*
X1967466Y1592826*
X1967448Y1592856*
X1967428Y1592884*
X1967406Y1592911*
X1967382Y1592936*
X1967356Y1592960*
X1967329Y1592982*
X1967301Y1593002*
X1967272Y1593021*
X1967241Y1593037*
X1967209Y1593051*
X1967177Y1593064*
X1967143Y1593074*
X1967110Y1593082*
X1967075Y1593087*
X1967041Y1593091*
X1967006Y1593092*
X1964860*
Y1592029*
Y1593092*
X1964880Y1592029D02*
Y1593092D01*
X1964900Y1592029D02*
Y1593092D01*
X1964919Y1592029D02*
Y1593092D01*
X1964939Y1592029D02*
Y1593092D01*
X1964959Y1592029D02*
Y1593092D01*
X1964978Y1592029D02*
Y1593092D01*
X1964998Y1592029D02*
Y1593092D01*
X1965018Y1592029D02*
Y1593092D01*
X1965037Y1592029D02*
Y1593092D01*
X1965057Y1592029D02*
Y1593092D01*
X1965077Y1592029D02*
Y1593092D01*
X1965096Y1592029D02*
Y1593092D01*
X1965116Y1592029D02*
Y1593092D01*
X1965136Y1592029D02*
Y1593092D01*
X1965156Y1592029D02*
Y1593092D01*
X1965175Y1592029D02*
Y1593092D01*
X1965195Y1592029D02*
Y1593092D01*
X1965215Y1592029D02*
Y1593092D01*
X1965234Y1592029D02*
Y1593092D01*
X1965254Y1592029D02*
Y1593092D01*
X1965274Y1592029D02*
Y1593092D01*
X1965293Y1592029D02*
Y1593092D01*
X1965313Y1592029D02*
Y1593092D01*
X1965333Y1592029D02*
Y1593092D01*
X1965352Y1592029D02*
Y1593092D01*
X1965372Y1592029D02*
Y1593092D01*
X1965392Y1592029D02*
Y1593092D01*
X1965411Y1592029D02*
Y1593092D01*
X1965431Y1592029D02*
Y1593092D01*
X1965451Y1592029D02*
Y1593092D01*
X1965470Y1592029D02*
Y1593092D01*
X1965490Y1592029D02*
Y1593092D01*
X1965510Y1592029D02*
Y1593092D01*
X1965530Y1592029D02*
Y1593092D01*
X1965549Y1592029D02*
Y1593092D01*
X1965569Y1592029D02*
Y1593092D01*
X1965589Y1592029D02*
Y1593092D01*
X1965608Y1592029D02*
Y1593092D01*
X1965628Y1592029D02*
Y1593092D01*
X1965648Y1592029D02*
Y1593092D01*
X1965667Y1592029D02*
Y1593092D01*
X1965687Y1592029D02*
Y1593092D01*
X1965707Y1592029D02*
Y1593092D01*
X1965726Y1592029D02*
Y1593092D01*
X1965746Y1592029D02*
Y1593092D01*
X1965766Y1592029D02*
Y1593092D01*
X1965785Y1592029D02*
Y1593092D01*
X1965805Y1592029D02*
Y1593092D01*
X1965825Y1592029D02*
Y1593092D01*
X1965844Y1592029D02*
Y1593092D01*
X1965864Y1592029D02*
Y1593092D01*
X1965884Y1592029D02*
Y1593092D01*
X1965904Y1592029D02*
Y1593092D01*
X1965923Y1592029D02*
Y1593092D01*
X1965943Y1592029D02*
Y1593092D01*
X1965963Y1592029D02*
Y1593092D01*
X1965982Y1592029D02*
Y1593092D01*
X1966002Y1592029D02*
Y1593092D01*
X1966022Y1592029D02*
Y1593092D01*
X1966041Y1592029D02*
Y1593092D01*
X1966061Y1592029D02*
Y1593092D01*
X1966081Y1592029D02*
Y1593092D01*
X1966100Y1592029D02*
Y1593092D01*
X1966120Y1592029D02*
Y1593092D01*
X1966140Y1592029D02*
Y1593092D01*
X1966159Y1592029D02*
Y1593092D01*
X1966179Y1592029D02*
Y1593092D01*
X1966199Y1592029D02*
Y1593092D01*
X1966219Y1592029D02*
Y1593092D01*
X1966238Y1592029D02*
Y1593092D01*
X1966258Y1592029D02*
Y1593092D01*
X1966278Y1592029D02*
Y1593092D01*
X1966297Y1592029D02*
Y1593092D01*
X1966317Y1592029D02*
Y1593092D01*
X1966337Y1592029D02*
Y1593092D01*
X1966356Y1592029D02*
Y1593092D01*
X1966376Y1592029D02*
Y1593092D01*
X1966396Y1592029D02*
Y1593092D01*
X1966415Y1592029D02*
Y1593092D01*
X1966435Y1592029D02*
Y1593092D01*
X1966455Y1592029D02*
Y1593092D01*
X1966474Y1592029D02*
Y1593092D01*
X1966494Y1592029D02*
Y1593092D01*
X1966514Y1592029D02*
Y1593092D01*
X1966533Y1592029D02*
Y1593092D01*
X1966553Y1592029D02*
Y1593092D01*
X1966573Y1592029D02*
Y1593092D01*
X1966593Y1592029D02*
Y1593092D01*
X1966612Y1592029D02*
Y1593092D01*
X1966632Y1592029D02*
Y1593092D01*
X1966652Y1592029D02*
Y1593092D01*
X1966671Y1592029D02*
Y1593092D01*
X1966691Y1592029D02*
Y1593092D01*
X1966711Y1592029D02*
Y1593092D01*
X1966730Y1592029D02*
Y1593092D01*
X1966750Y1592029D02*
Y1593092D01*
X1966770Y1592029D02*
Y1593092D01*
X1966789Y1592029D02*
Y1593092D01*
X1966809Y1592029D02*
Y1593092D01*
X1966829Y1592029D02*
Y1593092D01*
X1966848Y1592029D02*
Y1593092D01*
X1966868Y1592029D02*
Y1593092D01*
X1966888Y1592029D02*
Y1593092D01*
X1966907Y1592029D02*
Y1593092D01*
X1966927Y1592029D02*
Y1593092D01*
X1966947Y1592029D02*
Y1593092D01*
X1966967Y1592029D02*
Y1593092D01*
X1966986Y1592029D02*
Y1593092D01*
X1967006Y1592029D02*
Y1593092D01*
X1967026Y1592029D02*
Y1593091D01*
X1967045Y1592030D02*
Y1593090D01*
X1967065Y1592032D02*
Y1593088D01*
X1967085Y1592035D02*
Y1593086D01*
X1967104Y1592038D02*
Y1593082D01*
X1967124Y1592042D02*
Y1593078D01*
X1967144Y1592047D02*
Y1593074D01*
X1967163Y1592053D02*
Y1593068D01*
X1967183Y1592059D02*
Y1593061D01*
X1967203Y1592067D02*
Y1593054D01*
X1967222Y1592075D02*
Y1593045D01*
X1967242Y1592084D02*
Y1593036D01*
X1967262Y1592095D02*
Y1593026D01*
X1967281Y1592106D02*
Y1593014D01*
X1967301Y1592118D02*
Y1593002D01*
X1967321Y1592132D02*
Y1592988D01*
X1967341Y1592148D02*
Y1592973D01*
X1967360Y1592164D02*
Y1592956D01*
X1967380Y1592183D02*
Y1592938D01*
X1967400Y1592203D02*
Y1592917D01*
X1967419Y1592227D02*
Y1592894D01*
X1967439Y1592253D02*
Y1592868D01*
X1967459Y1592282D02*
Y1592838D01*
X1967478Y1592317D02*
Y1592803D01*
X1967498Y1592360D02*
Y1592761D01*
X1967518Y1592417D02*
Y1592703D01*
X1967970Y1588919D02*
X1969033D01*
Y1591064*
X1969032Y1591100*
X1969029Y1591135*
X1969023Y1591170*
X1969015Y1591205*
X1969004Y1591239*
X1968991Y1591272*
X1968976Y1591304*
X1968959Y1591335*
X1968940Y1591365*
X1968919Y1591394*
X1968896Y1591421*
X1968871Y1591446*
X1968845Y1591470*
X1968817Y1591492*
X1968788Y1591512*
X1968757Y1591530*
X1968726Y1591546*
X1968693Y1591560*
X1968659Y1591572*
X1968625Y1591581*
X1968590Y1591588*
X1968555Y1591593*
X1968520Y1591595*
X1968484*
X1968449Y1591593*
X1968414Y1591588*
X1968379Y1591581*
X1968344Y1591572*
X1968344D02*
X1968311Y1591560D01*
X1968278Y1591546*
X1968247Y1591530*
X1968216Y1591512*
X1968187Y1591492*
X1968159Y1591470*
X1968132Y1591446*
X1968108Y1591421*
X1968085Y1591394*
X1968064Y1591365*
X1968045Y1591335*
X1968028Y1591304*
X1968013Y1591272*
X1968000Y1591239*
X1967989Y1591205*
X1967981Y1591170*
X1967975Y1591135*
X1967972Y1591100*
X1967970Y1591064*
Y1588919*
Y1591064*
X1967990Y1588919D02*
Y1591207D01*
X1968010Y1588919D02*
Y1591264D01*
X1968030Y1588919D02*
Y1591307D01*
X1968049Y1588919D02*
Y1591342D01*
X1968069Y1588919D02*
Y1591372D01*
X1968089Y1588919D02*
Y1591398D01*
X1968108Y1588919D02*
Y1591421D01*
X1968128Y1588919D02*
Y1591442D01*
X1968148Y1588919D02*
Y1591460D01*
X1968167Y1588919D02*
Y1591477D01*
X1968187Y1588919D02*
Y1591492D01*
X1968207Y1588919D02*
Y1591506D01*
X1968226Y1588919D02*
Y1591518D01*
X1968246Y1588919D02*
Y1591530D01*
X1968266Y1588919D02*
Y1591540D01*
X1968285Y1588919D02*
Y1591549D01*
X1968305Y1588919D02*
Y1591558D01*
X1968325Y1588919D02*
Y1591565D01*
X1968344Y1588919D02*
Y1591572D01*
X1968364Y1588919D02*
Y1591577D01*
X1968384Y1588919D02*
Y1591582D01*
X1968404Y1588919D02*
Y1591586D01*
X1968423Y1588919D02*
Y1591590D01*
X1968443Y1588919D02*
Y1591592D01*
X1968463Y1588919D02*
Y1591594D01*
X1968482Y1588919D02*
Y1591595D01*
X1968502Y1588919D02*
Y1591595D01*
X1968522Y1588919D02*
Y1591595D01*
X1968541Y1588919D02*
Y1591594D01*
X1968561Y1588919D02*
Y1591592D01*
X1968581Y1588919D02*
Y1591590D01*
X1968600Y1588919D02*
Y1591586D01*
X1968620Y1588919D02*
Y1591582D01*
X1968640Y1588919D02*
Y1591577D01*
X1968659Y1588919D02*
Y1591572D01*
X1968679Y1588919D02*
Y1591565D01*
X1968699Y1588919D02*
Y1591558D01*
X1968719Y1588919D02*
Y1591549D01*
X1968738Y1588919D02*
Y1591540D01*
X1968758Y1588919D02*
Y1591530D01*
X1968778Y1588919D02*
Y1591518D01*
X1968797Y1588919D02*
Y1591506D01*
X1968817Y1588919D02*
Y1591492D01*
X1968837Y1588919D02*
Y1591477D01*
X1968856Y1588919D02*
Y1591460D01*
X1968876Y1588919D02*
Y1591442D01*
X1968896Y1588919D02*
Y1591421D01*
X1968915Y1588919D02*
Y1591398D01*
X1968935Y1588919D02*
Y1591372D01*
X1968955Y1588919D02*
Y1591342D01*
X1968974Y1588919D02*
Y1591307D01*
X1968994Y1588919D02*
Y1591264D01*
X1969014Y1588919D02*
Y1591207D01*
X1969939Y1588919D02*
X1971002D01*
Y1591064*
X1971001Y1591100*
X1970997Y1591135*
X1970991Y1591170*
X1970983Y1591205*
X1970973Y1591239*
X1970960Y1591272*
X1970945Y1591304*
X1970928Y1591335*
X1970909Y1591365*
X1970888Y1591394*
X1970865Y1591421*
X1970840Y1591446*
X1970814Y1591470*
X1970786Y1591492*
X1970756Y1591512*
X1970726Y1591530*
X1970694Y1591546*
X1970661Y1591560*
X1970628Y1591572*
X1970594Y1591581*
X1970559Y1591588*
X1970524Y1591593*
X1970488Y1591595*
X1970453*
X1970417Y1591593*
X1970382Y1591588*
X1970347Y1591581*
X1970313Y1591572*
X1970279Y1591560*
X1970247Y1591546*
X1970215Y1591530*
X1970184Y1591512*
X1970155Y1591492*
X1970127Y1591470*
X1970101Y1591446*
X1970076Y1591421*
X1970053Y1591394*
X1970032Y1591365*
X1970013Y1591335*
X1969996Y1591304*
X1969981Y1591272*
X1969968Y1591239*
X1969958Y1591205*
X1969950Y1591170*
X1969944Y1591135*
X1969940Y1591100*
X1969939Y1591064*
Y1588919*
Y1591064*
X1969959Y1588919D02*
Y1591207D01*
X1969978Y1588919D02*
Y1591264D01*
X1969998Y1588919D02*
Y1591307D01*
X1970018Y1588919D02*
Y1591342D01*
X1970037Y1588919D02*
Y1591372D01*
X1970057Y1588919D02*
Y1591398D01*
X1970077Y1588919D02*
Y1591421D01*
X1970096Y1588919D02*
Y1591442D01*
X1970116Y1588919D02*
Y1591460D01*
X1970136Y1588919D02*
Y1591477D01*
X1970156Y1588919D02*
Y1591492D01*
X1970175Y1588919D02*
Y1591506D01*
X1970195Y1588919D02*
Y1591518D01*
X1970215Y1588919D02*
Y1591530D01*
X1970234Y1588919D02*
Y1591540D01*
X1970254Y1588919D02*
Y1591549D01*
X1970274Y1588919D02*
Y1591558D01*
X1970293Y1588919D02*
Y1591565D01*
X1970313Y1588919D02*
Y1591572D01*
X1970333Y1588919D02*
Y1591577D01*
X1970352Y1588919D02*
Y1591582D01*
X1970372Y1588919D02*
Y1591586D01*
X1970392Y1588919D02*
Y1591590D01*
X1970411Y1588919D02*
Y1591592D01*
X1970431Y1588919D02*
Y1591594D01*
X1970451Y1588919D02*
Y1591595D01*
X1970470Y1588919D02*
Y1591595D01*
X1970490Y1588919D02*
Y1591595D01*
X1970510Y1588919D02*
Y1591594D01*
X1970530Y1588919D02*
Y1591592D01*
X1970549Y1588919D02*
Y1591590D01*
X1970569Y1588919D02*
Y1591586D01*
X1970589Y1588919D02*
Y1591582D01*
X1970608Y1588919D02*
Y1591577D01*
X1970628Y1588919D02*
Y1591572D01*
X1970648Y1588919D02*
Y1591565D01*
X1970667Y1588919D02*
Y1591558D01*
X1970687Y1588919D02*
Y1591549D01*
X1970707Y1588919D02*
Y1591540D01*
X1970726Y1588919D02*
Y1591530D01*
X1970746Y1588919D02*
Y1591518D01*
X1970766Y1588919D02*
Y1591506D01*
X1970785Y1588919D02*
Y1591492D01*
X1970805Y1588919D02*
Y1591477D01*
X1970825Y1588919D02*
Y1591460D01*
X1970844Y1588919D02*
Y1591442D01*
X1970864Y1588919D02*
Y1591421D01*
X1970884Y1588919D02*
Y1591398D01*
X1970904Y1588919D02*
Y1591372D01*
X1970923Y1588919D02*
Y1591342D01*
X1970943Y1588919D02*
Y1591307D01*
X1970963Y1588919D02*
Y1591264D01*
X1970982Y1588919D02*
Y1591207D01*
X1971907Y1588919D02*
X1972970D01*
Y1591064*
X1972969Y1591100*
X1972966Y1591135*
X1972960Y1591170*
X1972952Y1591205*
X1972941Y1591239*
X1972928Y1591272*
X1972913Y1591304*
X1972896Y1591335*
X1972877Y1591365*
X1972856Y1591394*
X1972833Y1591421*
X1972808Y1591446*
X1972782Y1591470*
X1972754Y1591492*
X1972725Y1591512*
X1972694Y1591530*
X1972663Y1591546*
X1972630Y1591560*
X1972596Y1591572*
X1972562Y1591581*
X1972527Y1591588*
X1972492Y1591593*
X1972457Y1591595*
X1972421*
X1972386Y1591593*
X1972351Y1591588*
X1972316Y1591581*
X1972282Y1591572*
X1972248Y1591560*
X1972215Y1591546*
X1972184Y1591530*
X1972153Y1591512*
X1972124Y1591492*
X1972096Y1591470*
X1972069Y1591446*
X1972045Y1591421*
X1972022Y1591394*
X1972001Y1591365*
X1971982Y1591335*
X1971965Y1591304*
X1971950Y1591272*
X1971937Y1591239*
X1971926Y1591205*
X1971918Y1591170*
X1971912Y1591135*
X1971909Y1591100*
X1971907Y1591064*
Y1588919*
Y1591064*
X1971927Y1588919D02*
Y1591207D01*
X1971947Y1588919D02*
Y1591264D01*
X1971967Y1588919D02*
Y1591307D01*
X1971986Y1588919D02*
Y1591342D01*
X1972006Y1588919D02*
Y1591372D01*
X1972026Y1588919D02*
Y1591398D01*
X1972045Y1588919D02*
Y1591421D01*
X1972065Y1588919D02*
Y1591442D01*
X1972085Y1588919D02*
Y1591460D01*
X1972104Y1588919D02*
Y1591477D01*
X1972124Y1588919D02*
Y1591492D01*
X1972144Y1588919D02*
Y1591506D01*
X1972163Y1588919D02*
Y1591518D01*
X1972183Y1588919D02*
Y1591530D01*
X1972203Y1588919D02*
Y1591540D01*
X1972222Y1588919D02*
Y1591549D01*
X1972242Y1588919D02*
Y1591558D01*
X1972262Y1588919D02*
Y1591565D01*
X1972281Y1588919D02*
Y1591572D01*
X1972301Y1588919D02*
Y1591577D01*
X1972321Y1588919D02*
Y1591582D01*
X1972341Y1588919D02*
Y1591586D01*
X1972360Y1588919D02*
Y1591590D01*
X1972380Y1588919D02*
Y1591592D01*
X1972400Y1588919D02*
Y1591594D01*
X1972419Y1588919D02*
Y1591595D01*
X1972439Y1588919D02*
Y1591595D01*
X1972459Y1588919D02*
Y1591595D01*
X1972478Y1588919D02*
Y1591594D01*
X1972498Y1588919D02*
Y1591592D01*
X1972518Y1588919D02*
Y1591590D01*
X1972537Y1588919D02*
Y1591586D01*
X1972557Y1588919D02*
Y1591582D01*
X1972577Y1588919D02*
Y1591577D01*
X1972596Y1588919D02*
Y1591572D01*
X1972616Y1588919D02*
Y1591565D01*
X1972636Y1588919D02*
Y1591558D01*
X1972656Y1588919D02*
Y1591549D01*
X1972675Y1588919D02*
Y1591540D01*
X1972695Y1588919D02*
Y1591530D01*
X1972715Y1588919D02*
Y1591518D01*
X1972734Y1588919D02*
Y1591506D01*
X1972754Y1588919D02*
Y1591492D01*
X1972774Y1588919D02*
Y1591477D01*
X1972793Y1588919D02*
Y1591460D01*
X1972813Y1588919D02*
Y1591442D01*
X1972833Y1588919D02*
Y1591421D01*
X1972852Y1588919D02*
Y1591398D01*
X1972872Y1588919D02*
Y1591372D01*
X1972892Y1588919D02*
Y1591342D01*
X1972911Y1588919D02*
Y1591307D01*
X1972931Y1588919D02*
Y1591264D01*
X1972951Y1588919D02*
Y1591207D01*
X1973876Y1588919D02*
X1974939D01*
Y1591064*
X1974938Y1591100*
X1974934Y1591135*
X1974928Y1591170*
X1974920Y1591205*
X1974910Y1591239*
X1974897Y1591272*
X1974882Y1591304*
X1974865Y1591335*
X1974846Y1591365*
X1974825Y1591394*
X1974802Y1591421*
X1974777Y1591446*
X1974751Y1591470*
X1974723Y1591492*
X1974693Y1591512*
X1974663Y1591530*
X1974631Y1591546*
X1974599Y1591560*
X1974565Y1591572*
X1974531Y1591581*
X1974496Y1591588*
X1974461Y1591593*
X1974425Y1591595*
X1974390*
X1974354Y1591593*
X1974319Y1591588*
X1974284Y1591581*
X1974250Y1591572*
X1974216Y1591560*
X1974184Y1591546*
X1974152Y1591530*
X1974121Y1591512*
X1974092Y1591492*
X1974064Y1591470*
X1974038Y1591446*
X1974013Y1591421*
X1973990Y1591394*
X1973969Y1591365*
X1973950Y1591335*
X1973933Y1591304*
X1973918Y1591272*
X1973905Y1591239*
X1973895Y1591205*
X1973887Y1591170*
X1973881Y1591135*
X1973877Y1591100*
X1973876Y1591064*
Y1588919*
Y1591064*
X1973896Y1588919D02*
Y1591207D01*
X1973915Y1588919D02*
Y1591264D01*
X1973935Y1588919D02*
Y1591307D01*
X1973955Y1588919D02*
Y1591342D01*
X1973974Y1588919D02*
Y1591372D01*
X1973994Y1588919D02*
Y1591398D01*
X1974014Y1588919D02*
Y1591421D01*
X1974033Y1588919D02*
Y1591442D01*
X1974053Y1588919D02*
Y1591460D01*
X1974073Y1588919D02*
Y1591477D01*
X1974093Y1588919D02*
Y1591492D01*
X1974112Y1588919D02*
Y1591506D01*
X1974132Y1588919D02*
Y1591518D01*
X1974152Y1588919D02*
Y1591530D01*
X1974171Y1588919D02*
Y1591540D01*
X1974191Y1588919D02*
Y1591549D01*
X1974211Y1588919D02*
Y1591558D01*
X1974230Y1588919D02*
Y1591565D01*
X1974250Y1588919D02*
Y1591572D01*
X1974270Y1588919D02*
Y1591577D01*
X1974289Y1588919D02*
Y1591582D01*
X1974309Y1588919D02*
Y1591586D01*
X1974329Y1588919D02*
Y1591590D01*
X1974348Y1588919D02*
Y1591592D01*
X1974368Y1588919D02*
Y1591594D01*
X1974388Y1588919D02*
Y1591595D01*
X1974407Y1588919D02*
Y1591595D01*
X1974427Y1588919D02*
Y1591595D01*
X1974447Y1588919D02*
Y1591594D01*
X1974467Y1588919D02*
Y1591592D01*
X1974486Y1588919D02*
Y1591590D01*
X1974506Y1588919D02*
Y1591586D01*
X1974526Y1588919D02*
Y1591582D01*
X1974545Y1588919D02*
Y1591577D01*
X1974565Y1588919D02*
Y1591572D01*
X1974585Y1588919D02*
Y1591565D01*
X1974604Y1588919D02*
Y1591558D01*
X1974624Y1588919D02*
Y1591549D01*
X1974644Y1588919D02*
Y1591540D01*
X1974663Y1588919D02*
Y1591530D01*
X1974683Y1588919D02*
Y1591518D01*
X1974703Y1588919D02*
Y1591506D01*
X1974722Y1588919D02*
Y1591492D01*
X1974742Y1588919D02*
Y1591477D01*
X1974762Y1588919D02*
Y1591460D01*
X1974781Y1588919D02*
Y1591442D01*
X1974801Y1588919D02*
Y1591421D01*
X1974821Y1588919D02*
Y1591398D01*
X1974841Y1588919D02*
Y1591372D01*
X1974860Y1588919D02*
Y1591342D01*
X1974880Y1588919D02*
Y1591307D01*
X1974900Y1588919D02*
Y1591264D01*
X1974919Y1588919D02*
Y1591207D01*
X1975844Y1588919D02*
X1976907D01*
Y1591064*
X1976906Y1591100*
X1976903Y1591135*
X1976897Y1591170*
X1976889Y1591205*
X1976878Y1591239*
X1976865Y1591272*
X1976850Y1591304*
X1976833Y1591335*
X1976814Y1591365*
X1976793Y1591394*
X1976770Y1591421*
X1976745Y1591446*
X1976719Y1591470*
X1976691Y1591492*
X1976662Y1591512*
X1976631Y1591530*
X1976600Y1591546*
X1976567Y1591560*
X1976533Y1591572*
X1976499Y1591581*
X1976464Y1591588*
X1976429Y1591593*
X1976394Y1591595*
X1976358*
X1976323Y1591593*
X1976288Y1591588*
X1976253Y1591581*
X1976219Y1591572*
X1976185Y1591560*
X1976152Y1591546*
X1976121Y1591530*
X1976090Y1591512*
X1976061Y1591492*
X1976033Y1591470*
X1976006Y1591446*
X1975982Y1591421*
X1975959Y1591394*
X1975938Y1591365*
X1975919Y1591335*
X1975902Y1591304*
X1975887Y1591272*
X1975874Y1591239*
X1975863Y1591205*
X1975855Y1591170*
X1975849Y1591135*
X1975846Y1591100*
X1975844Y1591064*
Y1588919*
Y1591064*
X1975864Y1588919D02*
Y1591207D01*
X1975884Y1588919D02*
Y1591264D01*
X1975904Y1588919D02*
Y1591307D01*
X1975923Y1588919D02*
Y1591342D01*
X1975943Y1588919D02*
Y1591372D01*
X1975963Y1588919D02*
Y1591398D01*
X1975982Y1588919D02*
Y1591421D01*
X1976002Y1588919D02*
Y1591442D01*
X1976022Y1588919D02*
Y1591460D01*
X1976041Y1588919D02*
Y1591477D01*
X1976061Y1588919D02*
Y1591492D01*
X1976081Y1588919D02*
Y1591506D01*
X1976100Y1588919D02*
Y1591518D01*
X1976120Y1588919D02*
Y1591530D01*
X1976140Y1588919D02*
Y1591540D01*
X1976159Y1588919D02*
Y1591549D01*
X1976179Y1588919D02*
Y1591558D01*
X1976199Y1588919D02*
Y1591565D01*
X1976219Y1588919D02*
Y1591572D01*
X1976238Y1588919D02*
Y1591577D01*
X1976258Y1588919D02*
Y1591582D01*
X1976278Y1588919D02*
Y1591586D01*
X1976297Y1588919D02*
Y1591590D01*
X1976317Y1588919D02*
Y1591592D01*
X1976337Y1588919D02*
Y1591594D01*
X1976356Y1588919D02*
Y1591595D01*
X1976376Y1588919D02*
Y1591595D01*
X1976396Y1588919D02*
Y1591595D01*
X1976415Y1588919D02*
Y1591594D01*
X1976435Y1588919D02*
Y1591592D01*
X1976455Y1588919D02*
Y1591590D01*
X1976474Y1588919D02*
Y1591586D01*
X1976494Y1588919D02*
Y1591582D01*
X1976514Y1588919D02*
Y1591577D01*
X1976533Y1588919D02*
Y1591572D01*
X1976553Y1588919D02*
Y1591565D01*
X1976573Y1588919D02*
Y1591558D01*
X1976593Y1588919D02*
Y1591549D01*
X1976612Y1588919D02*
Y1591540D01*
X1976632Y1588919D02*
Y1591530D01*
X1976652Y1588919D02*
Y1591518D01*
X1976671Y1588919D02*
Y1591506D01*
X1976691Y1588919D02*
Y1591492D01*
X1976711Y1588919D02*
Y1591477D01*
X1976730Y1588919D02*
Y1591460D01*
X1976750Y1588919D02*
Y1591442D01*
X1976770Y1588919D02*
Y1591421D01*
X1976789Y1588919D02*
Y1591398D01*
X1976809Y1588919D02*
Y1591372D01*
X1976829Y1588919D02*
Y1591342D01*
X1976848Y1588919D02*
Y1591307D01*
X1976868Y1588919D02*
Y1591264D01*
X1976888Y1588919D02*
Y1591207D01*
X1977813Y1588919D02*
X1978876D01*
Y1591064*
X1978875Y1591100*
X1978871Y1591135*
X1978865Y1591170*
X1978857Y1591205*
X1978847Y1591239*
X1978834Y1591272*
X1978819Y1591304*
X1978802Y1591335*
X1978783Y1591365*
X1978762Y1591394*
X1978739Y1591421*
X1978714Y1591446*
X1978688Y1591470*
X1978660Y1591492*
X1978630Y1591512*
X1978600Y1591530*
X1978568Y1591546*
X1978536Y1591560*
X1978502Y1591572*
X1978468Y1591581*
X1978433Y1591588*
X1978398Y1591593*
X1978362Y1591595*
X1978327*
X1978291Y1591593*
X1978256Y1591588*
X1978221Y1591581*
X1978187Y1591572*
X1978153Y1591560*
X1978121Y1591546*
X1978089Y1591530*
X1978058Y1591512*
X1978058D02*
X1978029Y1591492D01*
X1978001Y1591470*
X1977975Y1591446*
X1977950Y1591421*
X1977927Y1591394*
X1977906Y1591365*
X1977887Y1591335*
X1977870Y1591304*
X1977855Y1591272*
X1977842Y1591239*
X1977832Y1591205*
X1977824Y1591170*
X1977818Y1591135*
X1977814Y1591100*
X1977813Y1591064*
Y1588919*
Y1591064*
X1977833Y1588919D02*
Y1591207D01*
X1977852Y1588919D02*
Y1591264D01*
X1977872Y1588919D02*
Y1591307D01*
X1977892Y1588919D02*
Y1591342D01*
X1977911Y1588919D02*
Y1591372D01*
X1977931Y1588919D02*
Y1591398D01*
X1977951Y1588919D02*
Y1591421D01*
X1977970Y1588919D02*
Y1591442D01*
X1977990Y1588919D02*
Y1591460D01*
X1978010Y1588919D02*
Y1591477D01*
X1978030Y1588919D02*
Y1591492D01*
X1978049Y1588919D02*
Y1591506D01*
X1978069Y1588919D02*
Y1591518D01*
X1978089Y1588919D02*
Y1591530D01*
X1978108Y1588919D02*
Y1591540D01*
X1978128Y1588919D02*
Y1591549D01*
X1978148Y1588919D02*
Y1591558D01*
X1978167Y1588919D02*
Y1591565D01*
X1978187Y1588919D02*
Y1591572D01*
X1978207Y1588919D02*
Y1591577D01*
X1978226Y1588919D02*
Y1591582D01*
X1978246Y1588919D02*
Y1591586D01*
X1978266Y1588919D02*
Y1591590D01*
X1978285Y1588919D02*
Y1591592D01*
X1978305Y1588919D02*
Y1591594D01*
X1978325Y1588919D02*
Y1591595D01*
X1978344Y1588919D02*
Y1591595D01*
X1978364Y1588919D02*
Y1591595D01*
X1978384Y1588919D02*
Y1591594D01*
X1978404Y1588919D02*
Y1591592D01*
X1978423Y1588919D02*
Y1591590D01*
X1978443Y1588919D02*
Y1591586D01*
X1978463Y1588919D02*
Y1591582D01*
X1978482Y1588919D02*
Y1591577D01*
X1978502Y1588919D02*
Y1591572D01*
X1978522Y1588919D02*
Y1591565D01*
X1978541Y1588919D02*
Y1591558D01*
X1978561Y1588919D02*
Y1591549D01*
X1978581Y1588919D02*
Y1591540D01*
X1978600Y1588919D02*
Y1591530D01*
X1978620Y1588919D02*
Y1591518D01*
X1978640Y1588919D02*
Y1591506D01*
X1978659Y1588919D02*
Y1591492D01*
X1978679Y1588919D02*
Y1591477D01*
X1978699Y1588919D02*
Y1591460D01*
X1978719Y1588919D02*
Y1591442D01*
X1978738Y1588919D02*
Y1591421D01*
X1978758Y1588919D02*
Y1591398D01*
X1978778Y1588919D02*
Y1591372D01*
X1978797Y1588919D02*
Y1591342D01*
X1978817Y1588919D02*
Y1591307D01*
X1978837Y1588919D02*
Y1591264D01*
X1978856Y1588919D02*
Y1591207D01*
X1979781Y1588919D02*
X1980844D01*
Y1591064*
X1980843Y1591100*
X1980840Y1591135*
X1980834Y1591170*
X1980826Y1591205*
X1980815Y1591239*
X1980802Y1591272*
X1980787Y1591304*
X1980770Y1591335*
X1980751Y1591365*
X1980730Y1591394*
X1980707Y1591421*
X1980682Y1591446*
X1980656Y1591470*
X1980628Y1591492*
X1980599Y1591512*
X1980568Y1591530*
X1980537Y1591546*
X1980504Y1591560*
X1980470Y1591572*
X1980436Y1591581*
X1980401Y1591588*
X1980366Y1591593*
X1980331Y1591595*
X1980295*
X1980260Y1591593*
X1980225Y1591588*
X1980190Y1591581*
X1980156Y1591572*
X1980122Y1591560*
X1980089Y1591546*
X1980058Y1591530*
X1980027Y1591512*
X1979998Y1591492*
X1979970Y1591470*
X1979944Y1591446*
X1979944D02*
X1979919Y1591421D01*
X1979896Y1591394*
X1979875Y1591365*
X1979856Y1591335*
X1979839Y1591304*
X1979824Y1591272*
X1979811Y1591239*
X1979800Y1591205*
X1979792Y1591170*
X1979786Y1591135*
X1979783Y1591100*
X1979781Y1591064*
Y1588919*
Y1591064*
X1979801Y1588919D02*
Y1591207D01*
X1979821Y1588919D02*
Y1591264D01*
X1979841Y1588919D02*
Y1591307D01*
X1979860Y1588919D02*
Y1591342D01*
X1979880Y1588919D02*
Y1591372D01*
X1979900Y1588919D02*
Y1591398D01*
X1979919Y1588919D02*
Y1591421D01*
X1979939Y1588919D02*
Y1591442D01*
X1979959Y1588919D02*
Y1591460D01*
X1979978Y1588919D02*
Y1591477D01*
X1979998Y1588919D02*
Y1591492D01*
X1980018Y1588919D02*
Y1591506D01*
X1980037Y1588919D02*
Y1591518D01*
X1980057Y1588919D02*
Y1591530D01*
X1980077Y1588919D02*
Y1591540D01*
X1980096Y1588919D02*
Y1591549D01*
X1980116Y1588919D02*
Y1591558D01*
X1980136Y1588919D02*
Y1591565D01*
X1980156Y1588919D02*
Y1591572D01*
X1980175Y1588919D02*
Y1591577D01*
X1980195Y1588919D02*
Y1591582D01*
X1980215Y1588919D02*
Y1591586D01*
X1980234Y1588919D02*
Y1591590D01*
X1980254Y1588919D02*
Y1591592D01*
X1980274Y1588919D02*
Y1591594D01*
X1980293Y1588919D02*
Y1591595D01*
X1980313Y1588919D02*
Y1591595D01*
X1980333Y1588919D02*
Y1591595D01*
X1980352Y1588919D02*
Y1591594D01*
X1980372Y1588919D02*
Y1591592D01*
X1980392Y1588919D02*
Y1591590D01*
X1980411Y1588919D02*
Y1591586D01*
X1980431Y1588919D02*
Y1591582D01*
X1980451Y1588919D02*
Y1591577D01*
X1980470Y1588919D02*
Y1591572D01*
X1980490Y1588919D02*
Y1591565D01*
X1980510Y1588919D02*
Y1591558D01*
X1980530Y1588919D02*
Y1591549D01*
X1980549Y1588919D02*
Y1591540D01*
X1980569Y1588919D02*
Y1591530D01*
X1980589Y1588919D02*
Y1591518D01*
X1980608Y1588919D02*
Y1591506D01*
X1980628Y1588919D02*
Y1591492D01*
X1980648Y1588919D02*
Y1591477D01*
X1980667Y1588919D02*
Y1591460D01*
X1980687Y1588919D02*
Y1591442D01*
X1980707Y1588919D02*
Y1591421D01*
X1980726Y1588919D02*
Y1591398D01*
X1980746Y1588919D02*
Y1591372D01*
X1980766Y1588919D02*
Y1591342D01*
X1980785Y1588919D02*
Y1591307D01*
X1980805Y1588919D02*
Y1591264D01*
X1980825Y1588919D02*
Y1591207D01*
G54D88*
X1984762Y1592560D03*
X1984585Y1594529D03*
Y1596497D03*
Y1598466D03*
Y1600434D03*
Y1602403D03*
Y1604371D03*
X1984762Y1606340D03*
X1982281Y1608820D03*
X1980313Y1608643D03*
X1978344D03*
X1976376D03*
X1974407D03*
X1972439D03*
X1970470D03*
X1968502Y1608820D03*
X1966022Y1606340D03*
X1966199Y1604371D03*
Y1602403D03*
Y1600434D03*
Y1598466D03*
Y1596497D03*
Y1594529D03*
X1966022Y1592560D03*
X1968502Y1590080D03*
X1970470Y1590257D03*
X1972439D03*
X1974407D03*
X1976376D03*
X1978344D03*
X1980313D03*
X1982281Y1590080D03*
G54D154*
X1904526Y1693938D02*
Y1694438D01*
Y1693938D02*
X1905026D01*
X1904526D02*
Y1693438D01*
Y1693938D02*
X1904026D01*
X1906026D02*
X1911026D01*
X1904526Y1692438D02*
Y1689038D01*
Y1695438D02*
Y1699938D01*
X1898526Y1693938D02*
X1903026D01*
X1907526D02*
G75*
G03X1907526I-3000J0D01*
G01X1906526D02*
G03X1906526I-2000J0D01*
G01X1904526Y1504962D02*
Y1505462D01*
Y1504962D02*
X1905026D01*
X1904526D02*
Y1504462D01*
Y1504962D02*
X1904026D01*
X1906026D02*
X1911026D01*
X1904526Y1503462D02*
Y1500062D01*
Y1506462D02*
Y1510962D01*
X1898526Y1504962D02*
X1903026D01*
X1907526D02*
G03X1907526I-3000J0D01*
G01X1906526D02*
G03X1906526I-2000J0D01*
G01X2093502Y1693938D02*
Y1694438D01*
Y1693938D02*
X2094002D01*
X2093502D02*
Y1693438D01*
Y1693938D02*
X2093002D01*
X2095002D02*
X2100002D01*
X2093502Y1692438D02*
Y1689038D01*
Y1695438D02*
Y1699938D01*
X2087502Y1693938D02*
X2092002D01*
X2096502D02*
G03X2096502I-3000J0D01*
G01X2095502D02*
G03X2095502I-2000J0D01*
G54D166*
G01X1996030Y1606340D03*
X2000030D03*
X1981297Y1617135D03*
Y1621135D03*
X1969486Y1617135D03*
Y1621135D03*
X1984250Y1581765D03*
Y1577765D03*
X1980313D03*
Y1581765D03*
X1997077Y1597285D03*
X1993077D03*
X1996093Y1584686D03*
X1992093D03*
X2061053Y1611261D03*
X2057053D03*
X1985234Y1617135D03*
Y1621135D03*
X1996093Y1588623D03*
X1992093D03*
X1988187Y1581765D03*
Y1577765D03*
X1976407Y1577796D03*
X1972407D03*
X1976407Y1581733D03*
X1972407D03*
X1989140Y1614214D03*
X1993140D03*
X1967518Y1581765D03*
Y1577765D03*
X1977360Y1617135D03*
Y1621135D03*
X1989140Y1618151D03*
X1993140D03*
X2004888Y1592560D03*
X2008888D03*
X2011778Y1611261D03*
X2015778D03*
X1957675Y1589639D03*
Y1585639D03*
X2043305Y1611230D03*
Y1615230D03*
X2029526Y1611230D03*
Y1615230D03*
G54D167*
X2002951Y1611261D03*
X2006888D03*
X2034447D03*
X2038384D03*
X1993108Y1601615D03*
X1997045D03*
X1996061Y1592560D03*
X1999998D03*
X2020667Y1611261D03*
X2024604D03*
X2048226D03*
X2052163D03*
G54D175*
X1998423Y1615198D03*
Y1611261D03*
G54D176*
X1975392Y1599450D03*
G54D190*
X1900589Y1520519D02*
Y1516127D01*
Y1520519D02*
X1902566D01*
X1900589Y1518428D02*
X1901805D01*
X1900589Y1516127D02*
X1902566D01*
X1903935Y1520519D02*
X1905152Y1516127D01*
X1906369Y1520519D02*
X1905152Y1516127D01*
X1908955Y1520519D02*
X1907738Y1516127D01*
X1908955Y1520519D02*
X1910172Y1516127D01*
X1908194Y1517591D02*
X1909715D01*
X1911541Y1520519D02*
Y1516127D01*
X1913366*
X1914735Y1518009D02*
X1917473D01*
X1920059Y1520519D02*
X1918842Y1516127D01*
X1920059Y1520519D02*
X1921276Y1516127D01*
X1919298Y1517591D02*
X1920819D01*
X1922645Y1520519D02*
Y1516127D01*
Y1520519D02*
X1923710D01*
X1924166Y1520310*
X1924470Y1519892*
X1924622Y1519473*
X1924774Y1518846*
Y1517800*
X1924622Y1517173*
X1924470Y1516754*
X1924166Y1516336*
X1923710Y1516127*
X1922645*
X1926143Y1520519D02*
Y1516127D01*
Y1520519D02*
X1928121D01*
X1926143Y1518428D02*
X1927360D01*
X1931619Y1520519D02*
X1930098Y1516127D01*
X1929490Y1520519D02*
X1931619D01*
X1933901D02*
X1933445Y1520310D01*
X1933140Y1519683*
X1932988Y1518637*
Y1518009*
X1933140Y1516964*
X1933445Y1516336*
X1933901Y1516127*
X1934205*
X1934662Y1516336*
X1934966Y1516964*
X1935118Y1518009*
Y1518637*
X1934966Y1519683*
X1934662Y1520310*
X1934205Y1520519*
X1933901*
X1936639Y1519473D02*
Y1519683D01*
X1936791Y1520101*
X1936943Y1520310*
X1937247Y1520519*
X1937856*
X1938160Y1520310*
X1938312Y1520101*
X1938464Y1519683*
Y1519264*
X1938312Y1518846*
X1938008Y1518218*
X1936487Y1516127*
X1938616*
X1941507Y1520519D02*
X1939986Y1517591D01*
X1942267*
X1941507Y1520519D02*
Y1516127D01*
X1943636Y1520519D02*
Y1516127D01*
Y1520519D02*
X1944701D01*
X1945157Y1520310*
X1945462Y1519892*
X1945614Y1519473*
X1945766Y1518846*
Y1517800*
X1945614Y1517173*
X1945462Y1516754*
X1945157Y1516336*
X1944701Y1516127*
X1943636*
X1947135Y1520519D02*
Y1516127D01*
Y1520519D02*
X1948504D01*
X1948960Y1520310*
X1949112Y1520101*
X1949264Y1519683*
Y1519264*
X1949112Y1518846*
X1948960Y1518637*
X1948504Y1518428*
X1947135D02*
X1948504D01*
X1948960Y1518218*
X1949112Y1518009*
X1949264Y1517591*
Y1516964*
X1949112Y1516545*
X1948960Y1516336*
X1948504Y1516127*
X1947135*
X1950633Y1519055D02*
X1952307Y1516127D01*
Y1519055D02*
X1950633Y1516127D01*
X1955805Y1520519D02*
X1953676Y1516127D01*
Y1520519D02*
X1955805D01*
X1953676Y1516127D02*
X1955805D01*
X1962954Y1519473D02*
X1962802Y1519892D01*
X1962498Y1520310*
X1962194Y1520519*
X1961585*
X1961281Y1520310*
X1960977Y1519892*
X1960825Y1519473*
X1960673Y1518846*
Y1517800*
X1960825Y1517173*
X1960977Y1516754*
X1961281Y1516336*
X1961585Y1516127*
X1962194*
X1962498Y1516336*
X1962802Y1516754*
X1962954Y1517173*
X1965084Y1519055D02*
X1964780Y1518846D01*
X1964475Y1518428*
X1964323Y1517800*
Y1517382*
X1964475Y1516754*
X1964780Y1516336*
X1965084Y1516127*
X1965540*
X1965844Y1516336*
X1966149Y1516754*
X1966301Y1517382*
Y1517800*
X1966149Y1518428*
X1965844Y1518846*
X1965540Y1519055*
X1965084*
X1967670D02*
Y1516127D01*
Y1518218D02*
X1968126Y1518846D01*
X1968430Y1519055*
X1968887*
X1969191Y1518846*
X1969343Y1518218*
Y1516127*
Y1518218D02*
X1969799Y1518846D01*
X1970104Y1519055*
X1970560*
X1970864Y1518846*
X1971016Y1518218*
Y1516127*
X1972385Y1520519D02*
Y1516127D01*
Y1518428D02*
X1972690Y1518846D01*
X1972994Y1519055*
X1973450*
X1973754Y1518846*
X1974059Y1518428*
X1974211Y1517800*
Y1517382*
X1974059Y1516754*
X1973754Y1516336*
X1973450Y1516127*
X1972994*
X1972690Y1516336*
X1972385Y1516754*
X1975580Y1520519D02*
X1975732Y1520310D01*
X1975884Y1520519*
X1975732Y1520728*
X1975580Y1520519*
X1975732Y1519055D02*
Y1516127D01*
X1977253Y1519055D02*
Y1516127D01*
Y1518218D02*
X1977709Y1518846D01*
X1978013Y1519055*
X1978470*
X1978774Y1518846*
X1978926Y1518218*
Y1516127*
X1980295Y1517800D02*
X1982120D01*
Y1518218*
X1981968Y1518637*
X1981816Y1518846*
X1981512Y1519055*
X1981056*
X1980751Y1518846*
X1980447Y1518428*
X1980295Y1517800*
Y1517382*
X1980447Y1516754*
X1980751Y1516336*
X1981056Y1516127*
X1981512*
X1981816Y1516336*
X1982120Y1516754*
X1985315Y1520519D02*
Y1516127D01*
Y1518428D02*
X1985011Y1518846D01*
X1984706Y1519055*
X1984250*
X1983946Y1518846*
X1983642Y1518428*
X1983489Y1517800*
Y1517382*
X1983642Y1516754*
X1983946Y1516336*
X1984250Y1516127*
X1984706*
X1985011Y1516336*
X1985315Y1516754*
X1991247Y1520519D02*
Y1516127D01*
X1990182Y1520519D02*
X1992312D01*
X1993681D02*
X1995810Y1516127D01*
Y1520519D02*
X1993681Y1516127D01*
X1999918Y1521356D02*
X1997179Y1514663D01*
X2001287Y1520519D02*
Y1516127D01*
Y1520519D02*
X2002656D01*
X2003112Y1520310*
X2003264Y1520101*
X2003416Y1519683*
Y1519264*
X2003264Y1518846*
X2003112Y1518637*
X2002656Y1518428*
X2001287*
X2002351D02*
X2003416Y1516127D01*
X2004785Y1520519D02*
X2006915Y1516127D01*
Y1520519D02*
X2004785Y1516127D01*
X2011782Y1520519D02*
Y1516127D01*
Y1520519D02*
X2012999Y1516127D01*
X2014216Y1520519D02*
X2012999Y1516127D01*
X2014216Y1520519D02*
Y1516127D01*
X2017410Y1519055D02*
Y1516127D01*
Y1518428D02*
X2017106Y1518846D01*
X2016802Y1519055*
X2016346*
X2016041Y1518846*
X2015737Y1518428*
X2015585Y1517800*
Y1517382*
X2015737Y1516754*
X2016041Y1516336*
X2016346Y1516127*
X2016802*
X2017106Y1516336*
X2017410Y1516754*
X2019236Y1520519D02*
Y1516964D01*
X2019388Y1516336*
X2019692Y1516127*
X2019996*
X2018779Y1519055D02*
X2019844D01*
X2023191Y1518428D02*
X2022886Y1518846D01*
X2022582Y1519055*
X2022126*
X2021822Y1518846*
X2021517Y1518428*
X2021365Y1517800*
Y1517382*
X2021517Y1516754*
X2021822Y1516336*
X2022126Y1516127*
X2022582*
X2022886Y1516336*
X2023191Y1516754*
X2024560Y1520519D02*
Y1516127D01*
Y1518218D02*
X2025016Y1518846D01*
X2025320Y1519055*
X2025776*
X2026081Y1518846*
X2026233Y1518218*
Y1516127*
X2032165Y1521356D02*
X2031861Y1520937D01*
X2031557Y1520310*
X2031253Y1519473*
X2031100Y1518428*
Y1517591*
X2031253Y1516545*
X2031557Y1515709*
X2031861Y1515081*
X2032165Y1514663*
X2033534Y1520519D02*
Y1516127D01*
Y1520519D02*
X2034903D01*
X2035360Y1520310*
X2035512Y1520101*
X2035664Y1519683*
Y1519264*
X2035512Y1518846*
X2035360Y1518637*
X2034903Y1518428*
X2033534*
X2034599D02*
X2035664Y1516127D01*
X2037033Y1517800D02*
X2038858D01*
Y1518218*
X2038706Y1518637*
X2038554Y1518846*
X2038250Y1519055*
X2037793*
X2037489Y1518846*
X2037185Y1518428*
X2037033Y1517800*
Y1517382*
X2037185Y1516754*
X2037489Y1516336*
X2037793Y1516127*
X2038250*
X2038554Y1516336*
X2038858Y1516754*
X2040227Y1519055D02*
X2041140Y1516127D01*
X2042052Y1519055D02*
X2041140Y1516127D01*
X2044638Y1520519D02*
X2043421Y1516127D01*
X2044638Y1520519D02*
X2045855Y1516127D01*
X2043878Y1517591D02*
X2045399D01*
X2047224Y1521356D02*
X2047528Y1520937D01*
X2047833Y1520310*
X2048137Y1519473*
X2048289Y1518428*
Y1517591*
X2048137Y1516545*
X2047833Y1515709*
X2047528Y1515081*
X2047224Y1514663*
X2053157Y1518009D02*
X2055895D01*
X2061827Y1520519D02*
Y1516127D01*
X2060762Y1520519D02*
X2062892D01*
X2065021Y1519055D02*
X2064717Y1518846D01*
X2064413Y1518428*
X2064261Y1517800*
Y1517382*
X2064413Y1516754*
X2064717Y1516336*
X2065021Y1516127*
X2065478*
X2065782Y1516336*
X2066086Y1516754*
X2066238Y1517382*
Y1517800*
X2066086Y1518428*
X2065782Y1518846*
X2065478Y1519055*
X2065021*
X2067607D02*
Y1514663D01*
Y1518428D02*
X2067911Y1518846D01*
X2068216Y1519055*
X2068672*
X2068976Y1518846*
X2069280Y1518428*
X2069433Y1517800*
Y1517382*
X2069280Y1516754*
X2068976Y1516336*
X2068672Y1516127*
X2068216*
X2067911Y1516336*
X2067607Y1516754*
X2076430Y1519892D02*
X2076125Y1520310D01*
X2075669Y1520519*
X2075061*
X2074604Y1520310*
X2074300Y1519892*
Y1519473*
X2074452Y1519055*
X2074604Y1518846*
X2074909Y1518637*
X2075821Y1518218*
X2076125Y1518009*
X2076278Y1517800*
X2076430Y1517382*
Y1516754*
X2076125Y1516336*
X2075669Y1516127*
X2075061*
X2074604Y1516336*
X2074300Y1516754*
X2077799Y1520519D02*
X2077951Y1520310D01*
X2078103Y1520519*
X2077951Y1520728*
X2077799Y1520519*
X2077951Y1519055D02*
Y1516127D01*
X2081297Y1520519D02*
Y1516127D01*
Y1518428D02*
X2080993Y1518846D01*
X2080689Y1519055*
X2080232*
X2079928Y1518846*
X2079624Y1518428*
X2079472Y1517800*
Y1517382*
X2079624Y1516754*
X2079928Y1516336*
X2080232Y1516127*
X2080689*
X2080993Y1516336*
X2081297Y1516754*
X2082666Y1517800D02*
X2084492D01*
Y1518218*
X2084339Y1518637*
X2084187Y1518846*
X2083883Y1519055*
X2083427*
X2083123Y1518846*
X2082818Y1518428*
X2082666Y1517800*
Y1517382*
X2082818Y1516754*
X2083123Y1516336*
X2083427Y1516127*
X2083883*
X2084187Y1516336*
X2084492Y1516754*
X2089359Y1520519D02*
X2090576Y1516127D01*
X2091793Y1520519D02*
X2090576Y1516127D01*
X2093162Y1520519D02*
X2093314Y1520310D01*
X2093466Y1520519*
X2093314Y1520728*
X2093162Y1520519*
X2093314Y1519055D02*
Y1516127D01*
X2094835Y1517800D02*
X2096661D01*
Y1518218*
X2096508Y1518637*
X2096356Y1518846*
X2096052Y1519055*
X2095596*
X2095292Y1518846*
X2094987Y1518428*
X2094835Y1517800*
Y1517382*
X2094987Y1516754*
X2095292Y1516336*
X2095596Y1516127*
X2096052*
X2096356Y1516336*
X2096661Y1516754*
X2098030Y1519055D02*
X2098638Y1516127D01*
X2099246Y1519055D02*
X2098638Y1516127D01*
X2099246Y1519055D02*
X2099855Y1516127D01*
X2100463Y1519055D02*
X2099855Y1516127D01*
X1987203Y1508837D02*
Y1504962D01*
Y1508837D02*
X1988411D01*
X1988813Y1508653*
X1988948Y1508468*
X1989082Y1508099*
Y1507545*
X1988948Y1507176*
X1988813Y1506992*
X1988411Y1506807*
X1987203*
X1991900Y1507545D02*
Y1504962D01*
Y1506992D02*
X1991632Y1507361D01*
X1991363Y1507545*
X1990961*
X1990692Y1507361*
X1990424Y1506992*
X1990290Y1506438*
Y1506069*
X1990424Y1505515*
X1990692Y1505146*
X1990961Y1504962*
X1991363*
X1991632Y1505146*
X1991900Y1505515*
X1994585Y1506992D02*
X1994450Y1507361D01*
X1994048Y1507545*
X1993645*
X1993242Y1507361*
X1993108Y1506992*
X1993242Y1506623*
X1993511Y1506438*
X1994182Y1506254*
X1994450Y1506069*
X1994585Y1505700*
Y1505515*
X1994450Y1505146*
X1994048Y1504962*
X1993645*
X1993242Y1505146*
X1993108Y1505515*
X1996195Y1508837D02*
Y1505700D01*
X1996329Y1505146*
X1996598Y1504962*
X1996866*
X1995793Y1507545D02*
X1996732D01*
X1998074Y1506438D02*
X1999685D01*
Y1506807*
X1999551Y1507176*
X1999416Y1507361*
X1999148Y1507545*
X1998745*
X1998477Y1507361*
X1998208Y1506992*
X1998074Y1506438*
Y1506069*
X1998208Y1505515*
X1998477Y1505146*
X1998745Y1504962*
X1999148*
X1999416Y1505146*
X1999685Y1505515*
X2000893Y1507545D02*
Y1504962D01*
Y1506807D02*
X2001295Y1507361D01*
X2001564Y1507545*
X2001967*
X2002235Y1507361*
X2002369Y1506807*
Y1504962*
Y1506807D02*
X2002772Y1507361D01*
X2003040Y1507545*
X2003443*
X2003711Y1507361*
X2003846Y1506807*
Y1504962*
X2006664Y1507545D02*
Y1504962D01*
Y1506992D02*
X2006396Y1507361D01*
X2006127Y1507545*
X2005725*
X2005456Y1507361*
X2005188Y1506992*
X2005054Y1506438*
Y1506069*
X2005188Y1505515*
X2005456Y1505146*
X2005725Y1504962*
X2006127*
X2006396Y1505146*
X2006664Y1505515*
X2009348Y1506992D02*
X2009214Y1507361D01*
X2008812Y1507545*
X2008409*
X2008006Y1507361*
X2007872Y1506992*
X2008006Y1506623*
X2008275Y1506438*
X2008946Y1506254*
X2009214Y1506069*
X2009348Y1505700*
Y1505515*
X2009214Y1505146*
X2008812Y1504962*
X2008409*
X2008006Y1505146*
X2007872Y1505515*
X2010556Y1508837D02*
Y1504962D01*
X2011899Y1507545D02*
X2010556Y1505700D01*
X2011093Y1506438D02*
X2012033Y1504962D01*
X2017267Y1508837D02*
Y1504962D01*
X2016328Y1508837D02*
X2018207D01*
X2020086Y1507545D02*
X2019817Y1507361D01*
X2019549Y1506992*
X2019415Y1506438*
Y1506069*
X2019549Y1505515*
X2019817Y1505146*
X2020086Y1504962*
X2020488*
X2020757Y1505146*
X2021025Y1505515*
X2021159Y1506069*
Y1506438*
X2021025Y1506992*
X2020757Y1507361*
X2020488Y1507545*
X2020086*
X2022367D02*
Y1503670D01*
Y1506992D02*
X2022636Y1507361D01*
X2022904Y1507545*
X2023307*
X2023575Y1507361*
X2023844Y1506992*
X2023978Y1506438*
Y1506069*
X2023844Y1505515*
X2023575Y1505146*
X2023307Y1504962*
X2022904*
X2022636Y1505146*
X2022367Y1505515*
G54D317*
X2078010Y1611261D03*
G54D318*
X2072010Y1601261D03*
Y1621261D03*
G74*
X0Y0D02*
M02*
