*
*
G04 PADS 9.5 Build Number: 522968 generated Gerber (RS-274-X) file*
G04 PC Version=2.1*
*
%IN "EVAL-ADF7024DBxZ Separa"*%
*
%MOIN*%
*
%FSLAX35Y35*%
*
*
*
*
G04 PC Standard Apertures*
*
*
G04 Thermal Relief Aperture macro.*
%AMTER*
1,1,$1,0,0*
1,0,$1-$2,0,0*
21,0,$3,$4,0,0,45*
21,0,$3,$4,0,0,135*
%
*
*
G04 Annular Aperture macro.*
%AMANN*
1,1,$1,0,0*
1,0,$2,0,0*
%
*
*
G04 Odd Aperture macro.*
%AMODD*
1,1,$1,0,0*
1,0,$1-0.005,0,0*
%
*
*
G04 PC Custom Aperture Macros*
*
*
*
*
*
*
G04 PC Aperture Table*
*
%ADD018C,0.01*%
%ADD041C,0.04*%
%ADD045C,0.001*%
%ADD090R,0.038X0.03*%
%ADD154C,0.00591*%
%ADD166R,0.022X0.022*%
%ADD190C,0.00787*%
%ADD318R,0.17X0.1*%
%ADD321R,0.0875X0.029*%
%ADD322R,0.029X0.0875*%
*
*
*
*
G04 PC Circuitry*
G04 Layer Name EVAL-ADF7024DBxZ Separa - circuitry*
%LPD*%
*
*
G04 PC Custom Flashes*
G04 Layer Name EVAL-ADF7024DBxZ Separa - flashes*
%LPD*%
*
*
G04 PC Circuitry*
G04 Layer Name EVAL-ADF7024DBxZ Separa - circuitry*
%LPD*%
*
G54D18*
G01X1913581Y1524450D02*
X2080510D01*
Y1674450*
X1913581*
Y1524450*
G54D41*
X1928148Y1660474D03*
Y1538426D03*
X2065943D03*
G54D45*
G54D90*
X2025441Y1643741D03*
X2031641D03*
G54D154*
X1904526Y1693938D02*
Y1694438D01*
Y1693938D02*
X1905026D01*
X1904526D02*
Y1693438D01*
Y1693938D02*
X1904026D01*
X1906026D02*
X1911026D01*
X1904526Y1692438D02*
Y1689038D01*
Y1695438D02*
Y1699938D01*
X1898526Y1693938D02*
X1903026D01*
X1907526D02*
G75*
G03X1907526I-3000J0D01*
G01X1906526D02*
G03X1906526I-2000J0D01*
G01X1904526Y1504962D02*
Y1505462D01*
Y1504962D02*
X1905026D01*
X1904526D02*
Y1504462D01*
Y1504962D02*
X1904026D01*
X1906026D02*
X1911026D01*
X1904526Y1503462D02*
Y1500062D01*
Y1506462D02*
Y1510962D01*
X1898526Y1504962D02*
X1903026D01*
X1907526D02*
G03X1907526I-3000J0D01*
G01X1906526D02*
G03X1906526I-2000J0D01*
G01X2093502Y1693938D02*
Y1694438D01*
Y1693938D02*
X2094002D01*
X2093502D02*
Y1693438D01*
Y1693938D02*
X2093002D01*
X2095002D02*
X2100002D01*
X2093502Y1692438D02*
Y1689038D01*
Y1695438D02*
Y1699938D01*
X2087502Y1693938D02*
X2092002D01*
X2096502D02*
G03X2096502I-3000J0D01*
G01X2095502D02*
G03X2095502I-2000J0D01*
G54D166*
G01X2005411Y1563064D03*
Y1559064D03*
X1991140Y1563064D03*
Y1559064D03*
X2020175Y1563064D03*
Y1559064D03*
X2025589Y1563064D03*
Y1559064D03*
G54D190*
X1900589Y1520519D02*
Y1516127D01*
Y1520519D02*
X1902566D01*
X1900589Y1518428D02*
X1901805D01*
X1900589Y1516127D02*
X1902566D01*
X1903935Y1520519D02*
X1905152Y1516127D01*
X1906369Y1520519D02*
X1905152Y1516127D01*
X1908955Y1520519D02*
X1907738Y1516127D01*
X1908955Y1520519D02*
X1910172Y1516127D01*
X1908194Y1517591D02*
X1909715D01*
X1911541Y1520519D02*
Y1516127D01*
X1913366*
X1914735Y1518009D02*
X1917473D01*
X1920059Y1520519D02*
X1918842Y1516127D01*
X1920059Y1520519D02*
X1921276Y1516127D01*
X1919298Y1517591D02*
X1920819D01*
X1922645Y1520519D02*
Y1516127D01*
Y1520519D02*
X1923710D01*
X1924166Y1520310*
X1924470Y1519892*
X1924622Y1519473*
X1924774Y1518846*
Y1517800*
X1924622Y1517173*
X1924470Y1516754*
X1924166Y1516336*
X1923710Y1516127*
X1922645*
X1926143Y1520519D02*
Y1516127D01*
Y1520519D02*
X1928121D01*
X1926143Y1518428D02*
X1927360D01*
X1931619Y1520519D02*
X1930098Y1516127D01*
X1929490Y1520519D02*
X1931619D01*
X1933901D02*
X1933445Y1520310D01*
X1933140Y1519683*
X1932988Y1518637*
Y1518009*
X1933140Y1516964*
X1933445Y1516336*
X1933901Y1516127*
X1934205*
X1934662Y1516336*
X1934966Y1516964*
X1935118Y1518009*
Y1518637*
X1934966Y1519683*
X1934662Y1520310*
X1934205Y1520519*
X1933901*
X1936639Y1519473D02*
Y1519683D01*
X1936791Y1520101*
X1936943Y1520310*
X1937247Y1520519*
X1937856*
X1938160Y1520310*
X1938312Y1520101*
X1938464Y1519683*
Y1519264*
X1938312Y1518846*
X1938008Y1518218*
X1936487Y1516127*
X1938616*
X1941507Y1520519D02*
X1939986Y1517591D01*
X1942267*
X1941507Y1520519D02*
Y1516127D01*
X1943636Y1520519D02*
Y1516127D01*
Y1520519D02*
X1944701D01*
X1945157Y1520310*
X1945462Y1519892*
X1945614Y1519473*
X1945766Y1518846*
Y1517800*
X1945614Y1517173*
X1945462Y1516754*
X1945157Y1516336*
X1944701Y1516127*
X1943636*
X1947135Y1520519D02*
Y1516127D01*
Y1520519D02*
X1948504D01*
X1948960Y1520310*
X1949112Y1520101*
X1949264Y1519683*
Y1519264*
X1949112Y1518846*
X1948960Y1518637*
X1948504Y1518428*
X1947135D02*
X1948504D01*
X1948960Y1518218*
X1949112Y1518009*
X1949264Y1517591*
Y1516964*
X1949112Y1516545*
X1948960Y1516336*
X1948504Y1516127*
X1947135*
X1950633Y1519055D02*
X1952307Y1516127D01*
Y1519055D02*
X1950633Y1516127D01*
X1955805Y1520519D02*
X1953676Y1516127D01*
Y1520519D02*
X1955805D01*
X1953676Y1516127D02*
X1955805D01*
X1962802Y1519892D02*
X1962498Y1520310D01*
X1962042Y1520519*
X1961433*
X1960977Y1520310*
X1960673Y1519892*
Y1519473*
X1960825Y1519055*
X1960977Y1518846*
X1961281Y1518637*
X1962194Y1518218*
X1962498Y1518009*
X1962650Y1517800*
X1962802Y1517382*
Y1516754*
X1962498Y1516336*
X1962042Y1516127*
X1961433*
X1960977Y1516336*
X1960673Y1516754*
X1964171Y1517800D02*
X1965997D01*
Y1518218*
X1965844Y1518637*
X1965692Y1518846*
X1965388Y1519055*
X1964932*
X1964628Y1518846*
X1964323Y1518428*
X1964171Y1517800*
Y1517382*
X1964323Y1516754*
X1964628Y1516336*
X1964932Y1516127*
X1965388*
X1965692Y1516336*
X1965997Y1516754*
X1967366Y1519055D02*
Y1514663D01*
Y1518428D02*
X1967670Y1518846D01*
X1967974Y1519055*
X1968430*
X1968735Y1518846*
X1969039Y1518428*
X1969191Y1517800*
Y1517382*
X1969039Y1516754*
X1968735Y1516336*
X1968430Y1516127*
X1967974*
X1967670Y1516336*
X1967366Y1516754*
X1972385Y1519055D02*
Y1516127D01*
Y1518428D02*
X1972081Y1518846D01*
X1971777Y1519055*
X1971321*
X1971016Y1518846*
X1970712Y1518428*
X1970560Y1517800*
Y1517382*
X1970712Y1516754*
X1971016Y1516336*
X1971321Y1516127*
X1971777*
X1972081Y1516336*
X1972385Y1516754*
X1973754Y1519055D02*
Y1516127D01*
Y1517800D02*
X1973906Y1518428D01*
X1974211Y1518846*
X1974515Y1519055*
X1974971*
X1978166D02*
Y1516127D01*
Y1518428D02*
X1977861Y1518846D01*
X1977557Y1519055*
X1977101*
X1976797Y1518846*
X1976492Y1518428*
X1976340Y1517800*
Y1517382*
X1976492Y1516754*
X1976797Y1516336*
X1977101Y1516127*
X1977557*
X1977861Y1516336*
X1978166Y1516754*
X1979991Y1520519D02*
Y1516964D01*
X1980143Y1516336*
X1980447Y1516127*
X1980751*
X1979535Y1519055D02*
X1980599D01*
X1982120Y1517800D02*
X1983946D01*
Y1518218*
X1983794Y1518637*
X1983642Y1518846*
X1983337Y1519055*
X1982881*
X1982577Y1518846*
X1982273Y1518428*
X1982120Y1517800*
Y1517382*
X1982273Y1516754*
X1982577Y1516336*
X1982881Y1516127*
X1983337*
X1983642Y1516336*
X1983946Y1516754*
X1989878Y1520519D02*
Y1516127D01*
X1988813Y1520519D02*
X1990943D01*
X1992312D02*
X1994441Y1516127D01*
Y1520519D02*
X1992312Y1516127D01*
X1998548Y1521356D02*
X1995810Y1514663D01*
X1999918Y1520519D02*
Y1516127D01*
Y1520519D02*
X2001287D01*
X2001743Y1520310*
X2001895Y1520101*
X2002047Y1519683*
Y1519264*
X2001895Y1518846*
X2001743Y1518637*
X2001287Y1518428*
X1999918*
X2000982D02*
X2002047Y1516127D01*
X2003416Y1520519D02*
X2005546Y1516127D01*
Y1520519D02*
X2003416Y1516127D01*
X2010413Y1520519D02*
Y1516127D01*
Y1520519D02*
X2011630Y1516127D01*
X2012847Y1520519D02*
X2011630Y1516127D01*
X2012847Y1520519D02*
Y1516127D01*
X2016041Y1519055D02*
Y1516127D01*
Y1518428D02*
X2015737Y1518846D01*
X2015433Y1519055*
X2014977*
X2014672Y1518846*
X2014368Y1518428*
X2014216Y1517800*
Y1517382*
X2014368Y1516754*
X2014672Y1516336*
X2014977Y1516127*
X2015433*
X2015737Y1516336*
X2016041Y1516754*
X2017867Y1520519D02*
Y1516964D01*
X2018019Y1516336*
X2018323Y1516127*
X2018627*
X2017410Y1519055D02*
X2018475D01*
X2021822Y1518428D02*
X2021517Y1518846D01*
X2021213Y1519055*
X2020757*
X2020453Y1518846*
X2020148Y1518428*
X2019996Y1517800*
Y1517382*
X2020148Y1516754*
X2020453Y1516336*
X2020757Y1516127*
X2021213*
X2021517Y1516336*
X2021822Y1516754*
X2023191Y1520519D02*
Y1516127D01*
Y1518218D02*
X2023647Y1518846D01*
X2023951Y1519055*
X2024407*
X2024712Y1518846*
X2024864Y1518218*
Y1516127*
X2030796Y1521356D02*
X2030492Y1520937D01*
X2030188Y1520310*
X2029884Y1519473*
X2029884D02*
X2029731Y1518428D01*
Y1517591*
X2029884Y1516545*
X2029884D02*
X2030188Y1515709D01*
X2030492Y1515081*
X2030796Y1514663*
X2032165Y1520519D02*
Y1516127D01*
Y1520519D02*
X2033534D01*
X2033991Y1520310*
X2034143Y1520101*
X2034295Y1519683*
Y1519264*
X2034143Y1518846*
X2033991Y1518637*
X2033534Y1518428*
X2032165*
X2033230D02*
X2034295Y1516127D01*
X2035664Y1517800D02*
X2037489D01*
Y1518218*
X2037337Y1518637*
X2037185Y1518846*
X2036881Y1519055*
X2036424*
X2036120Y1518846*
X2035816Y1518428*
X2035664Y1517800*
Y1517382*
X2035816Y1516754*
X2036120Y1516336*
X2036424Y1516127*
X2036881*
X2037185Y1516336*
X2037489Y1516754*
X2038858Y1519055D02*
X2039771Y1516127D01*
X2040683Y1519055D02*
X2039771Y1516127D01*
X2043269Y1520519D02*
X2042052Y1516127D01*
X2043269Y1520519D02*
X2044486Y1516127D01*
X2042509Y1517591D02*
X2044030D01*
X2045855Y1521356D02*
X2046159Y1520937D01*
X2046464Y1520310*
X2046768Y1519473*
X2046920Y1518428*
Y1517591*
X2046768Y1516545*
X2046464Y1515709*
X2046159Y1515081*
X2045855Y1514663*
X2051788Y1518009D02*
X2054526D01*
X2060458Y1520519D02*
Y1516127D01*
X2059393Y1520519D02*
X2061523D01*
X2063652Y1519055D02*
X2063348Y1518846D01*
X2063044Y1518428*
X2062892Y1517800*
Y1517382*
X2063044Y1516754*
X2063348Y1516336*
X2063652Y1516127*
X2064109*
X2064413Y1516336*
X2064717Y1516754*
X2064869Y1517382*
Y1517800*
X2064717Y1518428*
X2064413Y1518846*
X2064109Y1519055*
X2063652*
X2066238D02*
Y1514663D01*
Y1518428D02*
X2066542Y1518846D01*
X2066847Y1519055*
X2067303*
X2067607Y1518846*
X2067911Y1518428*
X2068064Y1517800*
Y1517382*
X2067911Y1516754*
X2067607Y1516336*
X2067303Y1516127*
X2066847*
X2066542Y1516336*
X2066238Y1516754*
X2075061Y1519892D02*
X2074756Y1520310D01*
X2074300Y1520519*
X2073692*
X2073235Y1520310*
X2072931Y1519892*
Y1519473*
X2073083Y1519055*
X2073235Y1518846*
X2073540Y1518637*
X2074452Y1518218*
X2074756Y1518009*
X2074909Y1517800*
X2075061Y1517382*
Y1516754*
X2074756Y1516336*
X2074300Y1516127*
X2073692*
X2073235Y1516336*
X2072931Y1516754*
X2076430Y1520519D02*
X2076582Y1520310D01*
X2076734Y1520519*
X2076582Y1520728*
X2076430Y1520519*
X2076582Y1519055D02*
Y1516127D01*
X2079928Y1520519D02*
Y1516127D01*
Y1518428D02*
X2079624Y1518846D01*
X2079320Y1519055*
X2078863*
X2078559Y1518846*
X2078255Y1518428*
X2078103Y1517800*
Y1517382*
X2078255Y1516754*
X2078559Y1516336*
X2078863Y1516127*
X2079320*
X2079624Y1516336*
X2079928Y1516754*
X2081297Y1517800D02*
X2083123D01*
Y1518218*
X2082970Y1518637*
X2082818Y1518846*
X2082514Y1519055*
X2082058*
X2081754Y1518846*
X2081449Y1518428*
X2081297Y1517800*
Y1517382*
X2081449Y1516754*
X2081754Y1516336*
X2082058Y1516127*
X2082514*
X2082818Y1516336*
X2083123Y1516754*
X2087990Y1520519D02*
X2089207Y1516127D01*
X2090424Y1520519D02*
X2089207Y1516127D01*
X2091793Y1520519D02*
X2091945Y1520310D01*
X2092097Y1520519*
X2091945Y1520728*
X2091793Y1520519*
X2091945Y1519055D02*
Y1516127D01*
X2093466Y1517800D02*
X2095292D01*
Y1518218*
X2095139Y1518637*
X2094987Y1518846*
X2094683Y1519055*
X2094227*
X2093923Y1518846*
X2093618Y1518428*
X2093466Y1517800*
Y1517382*
X2093618Y1516754*
X2093923Y1516336*
X2094227Y1516127*
X2094683*
X2094987Y1516336*
X2095292Y1516754*
X2096661Y1519055D02*
X2097269Y1516127D01*
X2097877Y1519055D02*
X2097269Y1516127D01*
X2097877Y1519055D02*
X2098486Y1516127D01*
X2099094Y1519055D02*
X2098486Y1516127D01*
X1979329Y1508837D02*
Y1504962D01*
Y1508837D02*
X1980537D01*
X1980939Y1508653*
X1981074Y1508468*
X1981208Y1508099*
Y1507545*
X1981074Y1507176*
X1980939Y1506992*
X1980537Y1506807*
X1979329*
X1984026Y1507545D02*
Y1504962D01*
Y1506992D02*
X1983758Y1507361D01*
X1983489Y1507545*
X1983087*
X1982818Y1507361*
X1982550Y1506992*
X1982416Y1506438*
Y1506069*
X1982550Y1505515*
X1982818Y1505146*
X1983087Y1504962*
X1983489*
X1983758Y1505146*
X1984026Y1505515*
X1986711Y1506992D02*
X1986576Y1507361D01*
X1986174Y1507545*
X1985771*
X1985368Y1507361*
X1985234Y1506992*
X1985368Y1506623*
X1985637Y1506438*
X1986308Y1506254*
X1986576Y1506069*
X1986711Y1505700*
Y1505515*
X1986576Y1505146*
X1986174Y1504962*
X1985771*
X1985368Y1505146*
X1985234Y1505515*
X1988321Y1508837D02*
Y1505700D01*
X1988455Y1505146*
X1988724Y1504962*
X1988992*
X1987919Y1507545D02*
X1988858D01*
X1990200Y1506438D02*
X1991811D01*
Y1506807*
X1991677Y1507176*
X1991542Y1507361*
X1991274Y1507545*
X1990871*
X1990603Y1507361*
X1990334Y1506992*
X1990200Y1506438*
Y1506069*
X1990334Y1505515*
X1990603Y1505146*
X1990871Y1504962*
X1991274*
X1991542Y1505146*
X1991811Y1505515*
X1993019Y1507545D02*
Y1504962D01*
Y1506807D02*
X1993421Y1507361D01*
X1993690Y1507545*
X1994093*
X1994361Y1507361*
X1994495Y1506807*
Y1504962*
Y1506807D02*
X1994898Y1507361D01*
X1995166Y1507545*
X1995569*
X1995837Y1507361*
X1995972Y1506807*
Y1504962*
X1998790Y1507545D02*
Y1504962D01*
Y1506992D02*
X1998522Y1507361D01*
X1998253Y1507545*
X1997851*
X1997582Y1507361*
X1997314Y1506992*
X1997179Y1506438*
Y1506069*
X1997314Y1505515*
X1997582Y1505146*
X1997851Y1504962*
X1998253*
X1998522Y1505146*
X1998790Y1505515*
X2001474Y1506992D02*
X2001340Y1507361D01*
X2000938Y1507545*
X2000535*
X2000132Y1507361*
X1999998Y1506992*
X2000132Y1506623*
X2000401Y1506438*
X2001072Y1506254*
X2001340Y1506069*
X2001474Y1505700*
Y1505515*
X2001340Y1505146*
X2000938Y1504962*
X2000535*
X2000132Y1505146*
X1999998Y1505515*
X2002682Y1508837D02*
Y1504962D01*
X2004025Y1507545D02*
X2002682Y1505700D01*
X2003219Y1506438D02*
X2004159Y1504962D01*
X2008454Y1508837D02*
Y1504962D01*
Y1508837D02*
X2009662D01*
X2010064Y1508653*
X2010198Y1508468*
X2010333Y1508099*
Y1507730*
X2010198Y1507361*
X2010064Y1507176*
X2009662Y1506992*
X2008454D02*
X2009662D01*
X2010064Y1506807*
X2010198Y1506623*
X2010333Y1506254*
Y1505700*
X2010198Y1505331*
X2010064Y1505146*
X2009662Y1504962*
X2008454*
X2012212Y1507545D02*
X2011943Y1507361D01*
X2011675Y1506992*
X2011541Y1506438*
Y1506069*
X2011675Y1505515*
X2011943Y1505146*
X2012212Y1504962*
X2012614*
X2012883Y1505146*
X2013151Y1505515*
X2013285Y1506069*
Y1506438*
X2013151Y1506992*
X2012883Y1507361*
X2012614Y1507545*
X2012212*
X2014896Y1508837D02*
Y1505700D01*
X2015030Y1505146*
X2015299Y1504962*
X2015567*
X2014493Y1507545D02*
X2015433D01*
X2017178Y1508837D02*
Y1505700D01*
X2017312Y1505146*
X2017580Y1504962*
X2017849*
X2016775Y1507545D02*
X2017715D01*
X2019728D02*
X2019459Y1507361D01*
X2019191Y1506992*
X2019057Y1506438*
Y1506069*
X2019191Y1505515*
X2019459Y1505146*
X2019728Y1504962*
X2020130*
X2020399Y1505146*
X2020667Y1505515*
X2020802Y1506069*
Y1506438*
X2020667Y1506992*
X2020399Y1507361*
X2020130Y1507545*
X2019728*
X2022009D02*
Y1504962D01*
Y1506807D02*
X2022412Y1507361D01*
X2022681Y1507545*
X2023083*
X2023352Y1507361*
X2023486Y1506807*
Y1504962*
Y1506807D02*
X2023889Y1507361D01*
X2024157Y1507545*
X2024560*
X2024828Y1507361*
X2024962Y1506807*
Y1504962*
G54D318*
X2072010Y1551064D03*
Y1571064D03*
Y1601261D03*
Y1621261D03*
G54D321*
X1945692Y1576950D03*
X1935092D03*
X1945692Y1581950D03*
X1935092D03*
X1945692Y1586950D03*
X1935092D03*
X1945692Y1591950D03*
X1935092D03*
X1945692Y1596950D03*
X1935092D03*
X1945692Y1601950D03*
X1935092D03*
X1945692Y1606950D03*
X1935092D03*
X1945692Y1611950D03*
X1935092D03*
X1945692Y1616950D03*
X1935092D03*
X1945692Y1621950D03*
X1935092D03*
G54D322*
X2005392Y1654150D03*
Y1664750D03*
X2010392Y1654150D03*
Y1664750D03*
X2015392Y1654150D03*
Y1664750D03*
X2020392Y1654150D03*
Y1664750D03*
X2025392Y1654150D03*
Y1664750D03*
X2005392Y1534150D03*
Y1544750D03*
X2010392Y1534150D03*
Y1544750D03*
X2015392Y1534150D03*
Y1544750D03*
X2020392Y1534150D03*
Y1544750D03*
X2025392Y1534150D03*
Y1544750D03*
G74*
X0Y0D02*
M02*
