G04*
G04 #@! TF.GenerationSoftware,Altium Limited,Altium Designer,21.9.1 (22)*
G04*
G04 Layer_Color=8388736*
%FSLAX25Y25*%
%MOIN*%
G70*
G04*
G04 #@! TF.SameCoordinates,13B4354E-90E4-473D-AD5A-126374568DC2*
G04*
G04*
G04 #@! TF.FilePolarity,Negative*
G04*
G01*
G75*
%ADD10R,0.03150X0.01378*%
%ADD11R,0.03985X0.04758*%
%ADD16R,0.13500X0.09500*%
%ADD17R,0.01575X0.01968*%
%ADD18R,0.02423X0.02254*%
%ADD25R,0.02047X0.02047*%
%ADD26R,0.02578X0.00787*%
%ADD27R,0.00787X0.02578*%
%ADD28R,0.01968X0.04724*%
%ADD29R,0.00984X0.05315*%
%ADD36R,0.04100X0.01300*%
%ADD37R,0.01968X0.01575*%
%ADD38R,0.01860X0.02029*%
%ADD39R,0.02254X0.02423*%
%ADD40R,0.01860X0.01843*%
%ADD41R,0.00984X0.01181*%
%ADD42R,0.08900X0.03500*%
%ADD43R,0.11000X0.03500*%
%ADD44R,0.02047X0.02047*%
%ADD45R,0.01772X0.02657*%
%ADD46R,0.01378X0.02264*%
%ADD47R,0.02264X0.01378*%
%ADD48R,0.03961X0.05151*%
%ADD54R,0.02044X0.05588*%
G04:AMPARAMS|DCode=55|XSize=55.88mil|YSize=20.44mil|CornerRadius=10.22mil|HoleSize=0mil|Usage=FLASHONLY|Rotation=90.000|XOffset=0mil|YOffset=0mil|HoleType=Round|Shape=RoundedRectangle|*
%AMROUNDEDRECTD55*
21,1,0.05588,0.00000,0,0,90.0*
21,1,0.03544,0.02044,0,0,90.0*
1,1,0.02044,0.00000,0.01772*
1,1,0.02044,0.00000,-0.01772*
1,1,0.02044,0.00000,-0.01772*
1,1,0.02044,0.00000,0.01772*
%
%ADD55ROUNDEDRECTD55*%
%ADD56C,0.00900*%
G04:AMPARAMS|DCode=57|XSize=23.62mil|YSize=49.21mil|CornerRadius=11.81mil|HoleSize=0mil|Usage=FLASHONLY|Rotation=180.000|XOffset=0mil|YOffset=0mil|HoleType=Round|Shape=RoundedRectangle|*
%AMROUNDEDRECTD57*
21,1,0.02362,0.02559,0,0,180.0*
21,1,0.00000,0.04921,0,0,180.0*
1,1,0.02362,0.00000,0.01280*
1,1,0.02362,0.00000,0.01280*
1,1,0.02362,0.00000,-0.01280*
1,1,0.02362,0.00000,-0.01280*
%
%ADD57ROUNDEDRECTD57*%
%ADD58R,0.04724X0.01968*%
%ADD59R,0.05315X0.00984*%
%ADD62R,0.05151X0.03961*%
%ADD64R,0.01000X0.02200*%
%ADD65R,0.10800X0.04300*%
%ADD66C,0.03000*%
%ADD69C,0.01800*%
%ADD70C,0.05000*%
%ADD74C,0.02200*%
%ADD89O,0.03950X0.01981*%
%ADD90O,0.01981X0.03950*%
%ADD91R,0.11351X0.11351*%
%ADD92R,0.03950X0.04540*%
%ADD93R,0.02965X0.03162*%
%ADD94R,0.05600X0.16400*%
%ADD95R,0.03261X0.04887*%
%ADD96R,0.05600X0.12100*%
%ADD97R,0.05600X0.04000*%
%ADD98R,0.05576X0.04587*%
%ADD99R,0.02572X0.02572*%
%ADD100R,0.03937X0.03150*%
%ADD101R,0.03937X0.03937*%
%ADD102R,0.03150X0.03937*%
%ADD103R,0.03937X0.03937*%
%ADD104R,0.04343X0.03556*%
%ADD105R,0.03241X0.03398*%
%ADD106R,0.02572X0.02572*%
%ADD107C,0.03556*%
%ADD108C,0.02769*%
%ADD109R,0.06706X0.06706*%
%ADD110C,0.06706*%
%ADD111C,0.04702*%
G36*
X669981Y640632D02*
X661082D01*
Y644132D01*
X669981D01*
Y640632D01*
D02*
G37*
G36*
X648918D02*
X640019D01*
Y644132D01*
X648918D01*
Y640632D01*
D02*
G37*
G36*
X519981D02*
X511082D01*
Y644132D01*
X519981D01*
Y640632D01*
D02*
G37*
G36*
X498918D02*
X490019D01*
Y644132D01*
X498918D01*
Y640632D01*
D02*
G37*
G36*
X369982D02*
X361082D01*
Y644132D01*
X369982D01*
Y640632D01*
D02*
G37*
G36*
X348919D02*
X340019D01*
Y644132D01*
X348919D01*
Y640632D01*
D02*
G37*
G36*
X219982D02*
X211082D01*
Y644132D01*
X219982D01*
Y640632D01*
D02*
G37*
G36*
X198918D02*
X190018D01*
Y644132D01*
X198918D01*
Y640632D01*
D02*
G37*
G36*
X669981Y635711D02*
X661082D01*
Y639211D01*
X669981D01*
Y635711D01*
D02*
G37*
G36*
X648918D02*
X640019D01*
Y639211D01*
X648918D01*
Y635711D01*
D02*
G37*
G36*
X519981D02*
X511082D01*
Y639211D01*
X519981D01*
Y635711D01*
D02*
G37*
G36*
X498918D02*
X490019D01*
Y639211D01*
X498918D01*
Y635711D01*
D02*
G37*
G36*
X369982D02*
X361082D01*
Y639211D01*
X369982D01*
Y635711D01*
D02*
G37*
G36*
X348919D02*
X340019D01*
Y639211D01*
X348919D01*
Y635711D01*
D02*
G37*
G36*
X219982D02*
X211082D01*
Y639211D01*
X219982D01*
Y635711D01*
D02*
G37*
G36*
X198918D02*
X190018D01*
Y639211D01*
X198918D01*
Y635711D01*
D02*
G37*
G36*
X669981Y630789D02*
X661082D01*
Y634289D01*
X669981D01*
Y630789D01*
D02*
G37*
G36*
X648918D02*
X640019D01*
Y634289D01*
X648918D01*
Y630789D01*
D02*
G37*
G36*
X519981D02*
X511082D01*
Y634289D01*
X519981D01*
Y630789D01*
D02*
G37*
G36*
X498918D02*
X490019D01*
Y634289D01*
X498918D01*
Y630789D01*
D02*
G37*
G36*
X369982D02*
X361082D01*
Y634289D01*
X369982D01*
Y630789D01*
D02*
G37*
G36*
X348919D02*
X340019D01*
Y634289D01*
X348919D01*
Y630789D01*
D02*
G37*
G36*
X219982D02*
X211082D01*
Y634289D01*
X219982D01*
Y630789D01*
D02*
G37*
G36*
X198918D02*
X190018D01*
Y634289D01*
X198918D01*
Y630789D01*
D02*
G37*
G36*
X669981Y625868D02*
X661082D01*
Y629368D01*
X669981D01*
Y625868D01*
D02*
G37*
G36*
X648918D02*
X640019D01*
Y629368D01*
X648918D01*
Y625868D01*
D02*
G37*
G36*
X519981D02*
X511082D01*
Y629368D01*
X519981D01*
Y625868D01*
D02*
G37*
G36*
X498918D02*
X490019D01*
Y629368D01*
X498918D01*
Y625868D01*
D02*
G37*
G36*
X369982D02*
X361082D01*
Y629368D01*
X369982D01*
Y625868D01*
D02*
G37*
G36*
X348919D02*
X340019D01*
Y629368D01*
X348919D01*
Y625868D01*
D02*
G37*
G36*
X219982D02*
X211082D01*
Y629368D01*
X219982D01*
Y625868D01*
D02*
G37*
G36*
X198918D02*
X190018D01*
Y629368D01*
X198918D01*
Y625868D01*
D02*
G37*
D10*
X476500Y372918D02*
D03*
Y370359D02*
D03*
Y367800D02*
D03*
X483705D02*
D03*
Y370359D02*
D03*
Y372918D02*
D03*
X626500D02*
D03*
Y370359D02*
D03*
Y367800D02*
D03*
X633705D02*
D03*
Y370359D02*
D03*
Y372918D02*
D03*
X476500Y522918D02*
D03*
Y520359D02*
D03*
Y517800D02*
D03*
X483705D02*
D03*
Y520359D02*
D03*
Y522918D02*
D03*
X626500D02*
D03*
Y520359D02*
D03*
Y517800D02*
D03*
X633705D02*
D03*
Y520359D02*
D03*
Y522918D02*
D03*
X542705Y175559D02*
D03*
Y173000D02*
D03*
Y170441D02*
D03*
X535500D02*
D03*
Y173000D02*
D03*
Y175559D02*
D03*
X652705D02*
D03*
Y173000D02*
D03*
Y170441D02*
D03*
X645500D02*
D03*
Y173000D02*
D03*
Y175559D02*
D03*
X542705Y285559D02*
D03*
Y283000D02*
D03*
Y280441D02*
D03*
X535500D02*
D03*
Y283000D02*
D03*
Y285559D02*
D03*
X652705D02*
D03*
Y283000D02*
D03*
Y280441D02*
D03*
X645500D02*
D03*
Y283000D02*
D03*
Y285559D02*
D03*
D11*
X468602Y367202D02*
D03*
Y373516D02*
D03*
X492602Y366702D02*
D03*
Y373016D02*
D03*
X458400Y402143D02*
D03*
Y408457D02*
D03*
X618602Y367202D02*
D03*
Y373516D02*
D03*
X642602Y366702D02*
D03*
Y373016D02*
D03*
X608400Y402143D02*
D03*
Y408457D02*
D03*
X468602Y517202D02*
D03*
Y523516D02*
D03*
X492602Y516702D02*
D03*
Y523016D02*
D03*
X458400Y552143D02*
D03*
Y558457D02*
D03*
X618602Y517202D02*
D03*
Y523516D02*
D03*
X642602Y516702D02*
D03*
Y523016D02*
D03*
X608400Y552143D02*
D03*
Y558457D02*
D03*
X549500Y176157D02*
D03*
Y169843D02*
D03*
X527500Y176157D02*
D03*
Y169843D02*
D03*
X517500Y150157D02*
D03*
Y143843D02*
D03*
X659500Y176157D02*
D03*
Y169843D02*
D03*
X637500Y176157D02*
D03*
Y169843D02*
D03*
X627500Y150157D02*
D03*
Y143843D02*
D03*
X549500Y286157D02*
D03*
Y279843D02*
D03*
X527500Y286157D02*
D03*
Y279843D02*
D03*
X517500Y260157D02*
D03*
Y253843D02*
D03*
X659500Y286157D02*
D03*
Y279843D02*
D03*
X637500Y286157D02*
D03*
Y279843D02*
D03*
X627500Y260157D02*
D03*
Y253843D02*
D03*
X154500Y628500D02*
D03*
Y622186D02*
D03*
X132984Y626615D02*
D03*
Y632929D02*
D03*
X304500Y628500D02*
D03*
Y622186D02*
D03*
X282984Y626615D02*
D03*
Y632929D02*
D03*
X454500Y628500D02*
D03*
Y622186D02*
D03*
X432984Y626615D02*
D03*
Y632929D02*
D03*
X604500Y628500D02*
D03*
Y622186D02*
D03*
X582984Y626615D02*
D03*
Y632929D02*
D03*
D16*
X476900Y416800D02*
D03*
Y393800D02*
D03*
X626900Y416800D02*
D03*
Y393800D02*
D03*
X476900Y566800D02*
D03*
Y543800D02*
D03*
X626900Y566800D02*
D03*
Y543800D02*
D03*
D17*
X506900Y390300D02*
D03*
X503750D02*
D03*
X656900D02*
D03*
X653750D02*
D03*
X506900Y540300D02*
D03*
X503750D02*
D03*
X656900D02*
D03*
X653750D02*
D03*
D18*
X494713Y390300D02*
D03*
X498087D02*
D03*
X644713D02*
D03*
X648087D02*
D03*
X494713Y540300D02*
D03*
X498087D02*
D03*
X644713D02*
D03*
X648087D02*
D03*
D25*
X318417Y483331D02*
D03*
Y486481D02*
D03*
X168417Y483331D02*
D03*
Y486481D02*
D03*
X525500Y150925D02*
D03*
Y154075D02*
D03*
X635500Y150925D02*
D03*
Y154075D02*
D03*
X525500Y260925D02*
D03*
Y264075D02*
D03*
X635500Y260925D02*
D03*
Y264075D02*
D03*
X449685Y145575D02*
D03*
Y142425D02*
D03*
X349685Y145575D02*
D03*
Y142425D02*
D03*
X249685Y145575D02*
D03*
Y142425D02*
D03*
X149685Y145575D02*
D03*
Y142425D02*
D03*
D26*
X320887Y495053D02*
D03*
Y493478D02*
D03*
X315947D02*
D03*
Y495053D02*
D03*
X170887D02*
D03*
Y493478D02*
D03*
X165947D02*
D03*
Y495053D02*
D03*
D27*
X319992Y491205D02*
D03*
X318417D02*
D03*
X316842D02*
D03*
Y497326D02*
D03*
X318417D02*
D03*
X319992D02*
D03*
X169992Y491205D02*
D03*
X168417D02*
D03*
X166842D02*
D03*
Y497326D02*
D03*
X168417D02*
D03*
X169992D02*
D03*
D28*
X337511Y514040D02*
D03*
X304047D02*
D03*
X337511Y519552D02*
D03*
X304047D02*
D03*
X337511Y325063D02*
D03*
X304047D02*
D03*
X337511Y330575D02*
D03*
X304047D02*
D03*
X187512Y514040D02*
D03*
X154047D02*
D03*
X187512Y519552D02*
D03*
X154047D02*
D03*
X187512Y325063D02*
D03*
X154047D02*
D03*
X187512Y330575D02*
D03*
X154047D02*
D03*
D29*
X328279Y522603D02*
D03*
X326704D02*
D03*
X325130D02*
D03*
X323555D02*
D03*
X321980D02*
D03*
X320405D02*
D03*
X318830D02*
D03*
X317256D02*
D03*
X315681D02*
D03*
X314106D02*
D03*
X327452Y510989D02*
D03*
X325878D02*
D03*
X324303D02*
D03*
X322728D02*
D03*
X321153D02*
D03*
X319578D02*
D03*
X318004D02*
D03*
X316429D02*
D03*
X314854D02*
D03*
X313279D02*
D03*
X328279Y333626D02*
D03*
X326704D02*
D03*
X325130D02*
D03*
X323555D02*
D03*
X321980D02*
D03*
X320405D02*
D03*
X318830D02*
D03*
X317256D02*
D03*
X315681D02*
D03*
X314106D02*
D03*
X327452Y322012D02*
D03*
X325878D02*
D03*
X324303D02*
D03*
X322728D02*
D03*
X321153D02*
D03*
X319578D02*
D03*
X318004D02*
D03*
X316429D02*
D03*
X314854D02*
D03*
X313279D02*
D03*
X178279Y522603D02*
D03*
X176704D02*
D03*
X175130D02*
D03*
X173555D02*
D03*
X171980D02*
D03*
X170405D02*
D03*
X168830D02*
D03*
X167256D02*
D03*
X165681D02*
D03*
X164106D02*
D03*
X177452Y510989D02*
D03*
X175878D02*
D03*
X174303D02*
D03*
X172728D02*
D03*
X171153D02*
D03*
X169578D02*
D03*
X168004D02*
D03*
X166429D02*
D03*
X164854D02*
D03*
X163279D02*
D03*
X178279Y333626D02*
D03*
X176704D02*
D03*
X175130D02*
D03*
X173555D02*
D03*
X171980D02*
D03*
X170405D02*
D03*
X168830D02*
D03*
X167256D02*
D03*
X165681D02*
D03*
X164106D02*
D03*
X177452Y322012D02*
D03*
X175878D02*
D03*
X174303D02*
D03*
X172728D02*
D03*
X171153D02*
D03*
X169578D02*
D03*
X168004D02*
D03*
X166429D02*
D03*
X164854D02*
D03*
X163279D02*
D03*
D36*
X544000Y148000D02*
D03*
Y150362D02*
D03*
X533724Y148000D02*
D03*
Y150362D02*
D03*
X654000Y148000D02*
D03*
Y150362D02*
D03*
X643724Y148000D02*
D03*
Y150362D02*
D03*
X544000Y258000D02*
D03*
Y260362D02*
D03*
X533724Y258000D02*
D03*
Y260362D02*
D03*
X654000Y258000D02*
D03*
Y260362D02*
D03*
X643724Y258000D02*
D03*
Y260362D02*
D03*
D37*
X526000Y143500D02*
D03*
Y146650D02*
D03*
X636000Y143500D02*
D03*
Y146650D02*
D03*
X526000Y253500D02*
D03*
Y256650D02*
D03*
X636000Y253500D02*
D03*
Y256650D02*
D03*
D38*
X551500Y149510D02*
D03*
Y152490D02*
D03*
X661500Y149510D02*
D03*
Y152490D02*
D03*
X551500Y259510D02*
D03*
Y262490D02*
D03*
X661500Y259510D02*
D03*
Y262490D02*
D03*
X420185Y167210D02*
D03*
Y170190D02*
D03*
X444285Y150010D02*
D03*
Y152990D02*
D03*
X449585Y149910D02*
D03*
Y152890D02*
D03*
X444485Y145490D02*
D03*
Y142510D02*
D03*
X320185Y167210D02*
D03*
Y170190D02*
D03*
X344285Y150010D02*
D03*
Y152990D02*
D03*
X349585Y149910D02*
D03*
Y152890D02*
D03*
X344485Y145490D02*
D03*
Y142510D02*
D03*
X220185Y167210D02*
D03*
Y170190D02*
D03*
X244285Y150010D02*
D03*
Y152990D02*
D03*
X249585Y149910D02*
D03*
Y152890D02*
D03*
X244485Y145490D02*
D03*
Y142510D02*
D03*
X120185Y167210D02*
D03*
Y170190D02*
D03*
X144285Y150010D02*
D03*
Y152990D02*
D03*
X149585Y149910D02*
D03*
Y152890D02*
D03*
X144485Y145490D02*
D03*
Y142510D02*
D03*
D39*
X214000Y666813D02*
D03*
Y670187D02*
D03*
X364000Y666813D02*
D03*
Y670187D02*
D03*
X514000Y666813D02*
D03*
Y670187D02*
D03*
X664000Y666813D02*
D03*
Y670187D02*
D03*
D40*
X214000Y662583D02*
D03*
Y659417D02*
D03*
X364000Y662583D02*
D03*
Y659417D02*
D03*
X514000Y662583D02*
D03*
Y659417D02*
D03*
X664000Y662583D02*
D03*
Y659417D02*
D03*
X446035Y179024D02*
D03*
Y182190D02*
D03*
X427085Y178417D02*
D03*
Y181583D02*
D03*
X429285Y166817D02*
D03*
Y169983D02*
D03*
X346035Y179024D02*
D03*
Y182190D02*
D03*
X327085Y178417D02*
D03*
Y181583D02*
D03*
X329285Y166817D02*
D03*
Y169983D02*
D03*
X246035Y179024D02*
D03*
Y182190D02*
D03*
X227085Y178417D02*
D03*
Y181583D02*
D03*
X229285Y166817D02*
D03*
Y169983D02*
D03*
X146035Y179024D02*
D03*
Y182190D02*
D03*
X127085Y178417D02*
D03*
Y181583D02*
D03*
X129285Y166817D02*
D03*
Y169983D02*
D03*
D41*
X216000Y618500D02*
D03*
X217870D02*
D03*
X366000D02*
D03*
X367870D02*
D03*
X516000D02*
D03*
X517870D02*
D03*
X666000D02*
D03*
X667870D02*
D03*
D42*
X215531Y642382D02*
D03*
Y637461D02*
D03*
Y632539D02*
D03*
Y627618D02*
D03*
X194468D02*
D03*
Y637461D02*
D03*
Y642382D02*
D03*
X365531D02*
D03*
Y637461D02*
D03*
Y632539D02*
D03*
Y627618D02*
D03*
X344468D02*
D03*
Y637461D02*
D03*
Y642382D02*
D03*
X515531D02*
D03*
Y637461D02*
D03*
Y632539D02*
D03*
Y627618D02*
D03*
X494468D02*
D03*
Y637461D02*
D03*
Y642382D02*
D03*
X665531D02*
D03*
Y637461D02*
D03*
Y632539D02*
D03*
Y627618D02*
D03*
X644468D02*
D03*
Y637461D02*
D03*
Y642382D02*
D03*
D43*
X195519Y632539D02*
D03*
X345518D02*
D03*
X495518D02*
D03*
X645518D02*
D03*
D44*
X183463Y643057D02*
D03*
X186612D02*
D03*
X183425Y638000D02*
D03*
X186575D02*
D03*
X132425Y678500D02*
D03*
X135575D02*
D03*
X183925Y623000D02*
D03*
X187075D02*
D03*
Y628000D02*
D03*
X183925D02*
D03*
X333463Y643057D02*
D03*
X336612D02*
D03*
X333425Y638000D02*
D03*
X336575D02*
D03*
X282425Y678500D02*
D03*
X285575D02*
D03*
X333925Y623000D02*
D03*
X337075D02*
D03*
Y628000D02*
D03*
X333925D02*
D03*
X483463Y643057D02*
D03*
X486612D02*
D03*
X483425Y638000D02*
D03*
X486575D02*
D03*
X432425Y678500D02*
D03*
X435575D02*
D03*
X483925Y623000D02*
D03*
X487075D02*
D03*
Y628000D02*
D03*
X483925D02*
D03*
X633463Y643057D02*
D03*
X636612D02*
D03*
X633425Y638000D02*
D03*
X636575D02*
D03*
X582425Y678500D02*
D03*
X585575D02*
D03*
X633925Y623000D02*
D03*
X637075D02*
D03*
Y628000D02*
D03*
X633925D02*
D03*
D45*
X183179Y633000D02*
D03*
X186821D02*
D03*
X333179D02*
D03*
X336821D02*
D03*
X483179D02*
D03*
X486821D02*
D03*
X633179D02*
D03*
X636821D02*
D03*
D46*
X167532Y637593D02*
D03*
X169500D02*
D03*
X171468D02*
D03*
Y630407D02*
D03*
X169500D02*
D03*
X167532D02*
D03*
X317531Y637593D02*
D03*
X319500D02*
D03*
X321468D02*
D03*
Y630407D02*
D03*
X319500D02*
D03*
X317531D02*
D03*
X467531Y637593D02*
D03*
X469500D02*
D03*
X471468D02*
D03*
Y630407D02*
D03*
X469500D02*
D03*
X467531D02*
D03*
X617531Y637593D02*
D03*
X619500D02*
D03*
X621468D02*
D03*
Y630407D02*
D03*
X619500D02*
D03*
X617531D02*
D03*
D47*
X174077Y636953D02*
D03*
Y634984D02*
D03*
Y633016D02*
D03*
Y631047D02*
D03*
X164923D02*
D03*
Y633016D02*
D03*
Y634984D02*
D03*
Y636953D02*
D03*
X324077D02*
D03*
Y634984D02*
D03*
Y633016D02*
D03*
Y631047D02*
D03*
X314923D02*
D03*
Y633016D02*
D03*
Y634984D02*
D03*
Y636953D02*
D03*
X474077D02*
D03*
Y634984D02*
D03*
Y633016D02*
D03*
Y631047D02*
D03*
X464923D02*
D03*
Y633016D02*
D03*
Y634984D02*
D03*
Y636953D02*
D03*
X624077D02*
D03*
Y634984D02*
D03*
Y633016D02*
D03*
Y631047D02*
D03*
X614923D02*
D03*
Y633016D02*
D03*
Y634984D02*
D03*
Y636953D02*
D03*
D48*
X140126Y635772D02*
D03*
X145843D02*
D03*
X290126D02*
D03*
X295843D02*
D03*
X440126D02*
D03*
X445843D02*
D03*
X590126D02*
D03*
X595843D02*
D03*
D54*
X132000Y643934D02*
D03*
X282000D02*
D03*
X432000D02*
D03*
X582000D02*
D03*
D55*
X137000D02*
D03*
X142000D02*
D03*
X147000D02*
D03*
Y672066D02*
D03*
X142000D02*
D03*
X137000D02*
D03*
X132000D02*
D03*
X287000Y643934D02*
D03*
X292000D02*
D03*
X297000D02*
D03*
Y672066D02*
D03*
X292000D02*
D03*
X287000D02*
D03*
X282000D02*
D03*
X437000Y643934D02*
D03*
X442000D02*
D03*
X447000D02*
D03*
Y672066D02*
D03*
X442000D02*
D03*
X437000D02*
D03*
X432000D02*
D03*
X587000Y643934D02*
D03*
X592000D02*
D03*
X597000D02*
D03*
Y672066D02*
D03*
X592000D02*
D03*
X587000D02*
D03*
X582000D02*
D03*
D56*
X140516Y626272D02*
D03*
Y628728D02*
D03*
X141500Y627500D02*
D03*
X142484Y626272D02*
D03*
Y628728D02*
D03*
X143468Y627500D02*
D03*
X144453Y626272D02*
D03*
Y628728D02*
D03*
X290516Y626272D02*
D03*
Y628728D02*
D03*
X291500Y627500D02*
D03*
X292484Y626272D02*
D03*
Y628728D02*
D03*
X293468Y627500D02*
D03*
X294453Y626272D02*
D03*
Y628728D02*
D03*
X440516Y626272D02*
D03*
Y628728D02*
D03*
X441500Y627500D02*
D03*
X442484Y626272D02*
D03*
Y628728D02*
D03*
X443469Y627500D02*
D03*
X444453Y626272D02*
D03*
Y628728D02*
D03*
X590516Y626272D02*
D03*
Y628728D02*
D03*
X591500Y627500D02*
D03*
X592484Y626272D02*
D03*
Y628728D02*
D03*
X593469Y627500D02*
D03*
X594453Y626272D02*
D03*
Y628728D02*
D03*
D57*
X433885Y150800D02*
D03*
X430145Y159265D02*
D03*
X437625D02*
D03*
X333885Y150800D02*
D03*
X330145Y159265D02*
D03*
X337625D02*
D03*
X233885Y150800D02*
D03*
X230145Y159265D02*
D03*
X237625D02*
D03*
X133885Y150800D02*
D03*
X130145Y159265D02*
D03*
X137625D02*
D03*
D58*
X423873Y192100D02*
D03*
Y225565D02*
D03*
X429385Y192100D02*
D03*
Y225565D02*
D03*
X323873Y192100D02*
D03*
Y225565D02*
D03*
X329385Y192100D02*
D03*
Y225565D02*
D03*
X223873Y192100D02*
D03*
Y225565D02*
D03*
X229385Y192100D02*
D03*
Y225565D02*
D03*
X123873Y192100D02*
D03*
Y225565D02*
D03*
X129385Y192100D02*
D03*
Y225565D02*
D03*
D59*
X432436Y201332D02*
D03*
Y202907D02*
D03*
Y204482D02*
D03*
Y206057D02*
D03*
Y207631D02*
D03*
Y209206D02*
D03*
Y210781D02*
D03*
Y212356D02*
D03*
Y213931D02*
D03*
Y215506D02*
D03*
X420822Y202159D02*
D03*
Y203734D02*
D03*
Y205309D02*
D03*
Y206884D02*
D03*
Y208458D02*
D03*
Y210033D02*
D03*
Y211608D02*
D03*
Y213183D02*
D03*
Y214757D02*
D03*
Y216332D02*
D03*
X332436Y201332D02*
D03*
Y202907D02*
D03*
Y204482D02*
D03*
Y206057D02*
D03*
Y207631D02*
D03*
Y209206D02*
D03*
Y210781D02*
D03*
Y212356D02*
D03*
Y213931D02*
D03*
Y215506D02*
D03*
X320822Y202159D02*
D03*
Y203734D02*
D03*
Y205309D02*
D03*
Y206884D02*
D03*
Y208458D02*
D03*
Y210033D02*
D03*
Y211608D02*
D03*
Y213183D02*
D03*
Y214757D02*
D03*
Y216332D02*
D03*
X232436Y201332D02*
D03*
Y202907D02*
D03*
Y204482D02*
D03*
Y206057D02*
D03*
Y207631D02*
D03*
Y209206D02*
D03*
Y210781D02*
D03*
Y212356D02*
D03*
Y213931D02*
D03*
Y215506D02*
D03*
X220822Y202159D02*
D03*
Y203734D02*
D03*
Y205309D02*
D03*
Y206884D02*
D03*
Y208458D02*
D03*
Y210033D02*
D03*
Y211608D02*
D03*
Y213183D02*
D03*
Y214757D02*
D03*
Y216332D02*
D03*
X132436Y201332D02*
D03*
Y202907D02*
D03*
Y204482D02*
D03*
Y206057D02*
D03*
Y207631D02*
D03*
Y209206D02*
D03*
Y210781D02*
D03*
Y212356D02*
D03*
Y213931D02*
D03*
Y215506D02*
D03*
X120822Y202159D02*
D03*
Y203734D02*
D03*
Y205309D02*
D03*
Y206884D02*
D03*
Y208458D02*
D03*
Y210033D02*
D03*
Y211608D02*
D03*
Y213183D02*
D03*
Y214757D02*
D03*
Y216332D02*
D03*
D62*
X438885Y177741D02*
D03*
Y183459D02*
D03*
X338885Y177741D02*
D03*
Y183459D02*
D03*
X238885Y177741D02*
D03*
Y183459D02*
D03*
X138885Y177741D02*
D03*
Y183459D02*
D03*
D64*
X445407Y172750D02*
D03*
X443438D02*
D03*
X441469D02*
D03*
X439501D02*
D03*
X437532D02*
D03*
X435563D02*
D03*
Y165050D02*
D03*
X437532D02*
D03*
X439501D02*
D03*
X441469D02*
D03*
X443438D02*
D03*
X445407D02*
D03*
X345408Y172750D02*
D03*
X343439D02*
D03*
X341470D02*
D03*
X339500D02*
D03*
X337531D02*
D03*
X335562D02*
D03*
Y165050D02*
D03*
X337531D02*
D03*
X339500D02*
D03*
X341470D02*
D03*
X343439D02*
D03*
X345408D02*
D03*
X245408Y172750D02*
D03*
X243439D02*
D03*
X241470D02*
D03*
X239500D02*
D03*
X237531D02*
D03*
X235562D02*
D03*
Y165050D02*
D03*
X237531D02*
D03*
X239500D02*
D03*
X241470D02*
D03*
X243439D02*
D03*
X245408D02*
D03*
X145407Y172750D02*
D03*
X143438D02*
D03*
X141470D02*
D03*
X139500D02*
D03*
X137531D02*
D03*
X135563D02*
D03*
Y165050D02*
D03*
X137531D02*
D03*
X139500D02*
D03*
X141470D02*
D03*
X143438D02*
D03*
X145407D02*
D03*
D65*
X440485Y168900D02*
D03*
X340485D02*
D03*
X240485D02*
D03*
X140485D02*
D03*
D66*
X371500Y480500D02*
D03*
Y485000D02*
D03*
Y489500D02*
D03*
Y380500D02*
D03*
Y385000D02*
D03*
Y389500D02*
D03*
X270000Y380500D02*
D03*
Y385000D02*
D03*
Y389500D02*
D03*
X221500Y380500D02*
D03*
Y385000D02*
D03*
Y389500D02*
D03*
X270000Y480500D02*
D03*
Y485000D02*
D03*
Y489500D02*
D03*
X221500Y480500D02*
D03*
Y485000D02*
D03*
Y489500D02*
D03*
X120000Y480500D02*
D03*
Y485000D02*
D03*
Y489500D02*
D03*
Y380500D02*
D03*
Y385000D02*
D03*
Y389500D02*
D03*
X113000Y175000D02*
D03*
Y179500D02*
D03*
Y184000D02*
D03*
X155500Y175000D02*
D03*
Y179500D02*
D03*
Y184000D02*
D03*
X213000Y175000D02*
D03*
Y179500D02*
D03*
Y184000D02*
D03*
X255500Y175000D02*
D03*
Y179500D02*
D03*
Y184000D02*
D03*
X313000Y175000D02*
D03*
Y179500D02*
D03*
Y184000D02*
D03*
X355500Y175000D02*
D03*
Y179500D02*
D03*
Y184000D02*
D03*
X413000Y175000D02*
D03*
Y179500D02*
D03*
Y184000D02*
D03*
X455500Y175000D02*
D03*
Y179500D02*
D03*
Y184000D02*
D03*
X510500Y261500D02*
D03*
Y266000D02*
D03*
Y270500D02*
D03*
X566500Y262000D02*
D03*
Y266500D02*
D03*
Y271000D02*
D03*
X544500Y307500D02*
D03*
X540000D02*
D03*
X535500D02*
D03*
X544500Y227500D02*
D03*
X540000D02*
D03*
X535500D02*
D03*
X544500Y197500D02*
D03*
X540000D02*
D03*
X535500D02*
D03*
X544500Y117500D02*
D03*
X540000D02*
D03*
X535500D02*
D03*
X510500Y150000D02*
D03*
Y154500D02*
D03*
Y159000D02*
D03*
X566500Y150000D02*
D03*
Y154500D02*
D03*
Y159000D02*
D03*
X655000Y117500D02*
D03*
X650500D02*
D03*
X646000D02*
D03*
X620500Y149500D02*
D03*
Y154000D02*
D03*
Y158500D02*
D03*
X676500Y150000D02*
D03*
Y154500D02*
D03*
Y159000D02*
D03*
X655000Y197500D02*
D03*
X650500D02*
D03*
X646000D02*
D03*
X655000Y227500D02*
D03*
X650500D02*
D03*
X646000D02*
D03*
X620500Y262000D02*
D03*
Y266500D02*
D03*
Y271000D02*
D03*
X676500Y262000D02*
D03*
Y266500D02*
D03*
Y271000D02*
D03*
X655000Y307500D02*
D03*
X650500D02*
D03*
X646000D02*
D03*
X644000Y348500D02*
D03*
X639500D02*
D03*
X635000D02*
D03*
X676500Y381000D02*
D03*
Y385500D02*
D03*
Y390000D02*
D03*
X644000Y426500D02*
D03*
X639500D02*
D03*
X635000D02*
D03*
X598500Y381000D02*
D03*
Y385500D02*
D03*
Y390000D02*
D03*
X448500Y381000D02*
D03*
Y385500D02*
D03*
Y390000D02*
D03*
X490500Y348500D02*
D03*
X486000D02*
D03*
X481500D02*
D03*
X526500Y381000D02*
D03*
Y385500D02*
D03*
Y390000D02*
D03*
X490500Y426000D02*
D03*
X486000D02*
D03*
X481500D02*
D03*
X644000Y498500D02*
D03*
X639500D02*
D03*
X635000D02*
D03*
X676500Y529500D02*
D03*
Y534000D02*
D03*
Y538500D02*
D03*
X644000Y576500D02*
D03*
X639500D02*
D03*
X635000D02*
D03*
X598500Y529000D02*
D03*
Y533500D02*
D03*
Y538000D02*
D03*
X490500Y498500D02*
D03*
X486000D02*
D03*
X481500D02*
D03*
X526500Y529500D02*
D03*
Y534000D02*
D03*
Y538500D02*
D03*
X448500Y529500D02*
D03*
Y534000D02*
D03*
Y538500D02*
D03*
X490500Y576000D02*
D03*
X486000D02*
D03*
X481500D02*
D03*
X378000Y649000D02*
D03*
Y653500D02*
D03*
Y658000D02*
D03*
X265000Y649000D02*
D03*
Y653500D02*
D03*
Y658000D02*
D03*
X228000Y649000D02*
D03*
Y653500D02*
D03*
Y658000D02*
D03*
X115000Y649000D02*
D03*
Y653500D02*
D03*
Y658000D02*
D03*
X173500Y614000D02*
D03*
X169000D02*
D03*
X164500D02*
D03*
X324500D02*
D03*
X320000D02*
D03*
X315500D02*
D03*
X173500Y697500D02*
D03*
X169000D02*
D03*
X164500D02*
D03*
X324500D02*
D03*
X320000D02*
D03*
X315500D02*
D03*
X630000Y614000D02*
D03*
X625500D02*
D03*
X621000D02*
D03*
X678000Y649000D02*
D03*
Y653500D02*
D03*
Y658000D02*
D03*
X630000Y697500D02*
D03*
X625500D02*
D03*
X621000D02*
D03*
X565000Y649000D02*
D03*
Y653500D02*
D03*
Y658000D02*
D03*
X474000Y614000D02*
D03*
X469500D02*
D03*
X465000D02*
D03*
X474000Y697500D02*
D03*
X469500D02*
D03*
X465000D02*
D03*
X528009Y648979D02*
D03*
Y653479D02*
D03*
Y657979D02*
D03*
X415000Y658000D02*
D03*
Y653500D02*
D03*
Y649000D02*
D03*
X151000Y622000D02*
D03*
X178500Y619500D02*
D03*
X301000Y622000D02*
D03*
X328500Y619500D02*
D03*
X451000Y622000D02*
D03*
X478500Y619500D02*
D03*
X601000Y622000D02*
D03*
X628500Y619500D02*
D03*
D69*
X488091Y409553D02*
D03*
X495700Y396000D02*
D03*
X497300Y387278D02*
D03*
X503788Y387413D02*
D03*
X514500Y405200D02*
D03*
X501121Y417000D02*
D03*
X492600Y361700D02*
D03*
X468600Y362500D02*
D03*
X488100Y372600D02*
D03*
X473700Y370400D02*
D03*
X638091Y409553D02*
D03*
X645700Y396000D02*
D03*
X647300Y387278D02*
D03*
X653788Y387413D02*
D03*
X664500Y405200D02*
D03*
X651121Y417000D02*
D03*
X642600Y361700D02*
D03*
X618600Y362500D02*
D03*
X638100Y372600D02*
D03*
X623700Y370400D02*
D03*
X488091Y559553D02*
D03*
X495700Y546000D02*
D03*
X497300Y537278D02*
D03*
X503788Y537413D02*
D03*
X514500Y555200D02*
D03*
X501121Y567000D02*
D03*
X492600Y511700D02*
D03*
X468600Y512500D02*
D03*
X488100Y522600D02*
D03*
X473700Y520400D02*
D03*
X638091Y559553D02*
D03*
X645700Y546000D02*
D03*
X647300Y537278D02*
D03*
X653788Y537413D02*
D03*
X664500Y555200D02*
D03*
X651121Y567000D02*
D03*
X642600Y511700D02*
D03*
X618600Y512500D02*
D03*
X638100Y522600D02*
D03*
X623700Y520400D02*
D03*
X322161Y470316D02*
D03*
X314690Y475065D02*
D03*
X172161Y470316D02*
D03*
X164690Y475065D02*
D03*
X550870Y181225D02*
D03*
X532610Y173029D02*
D03*
X556650Y169500D02*
D03*
X520350Y169203D02*
D03*
X517575Y156276D02*
D03*
X521500Y143500D02*
D03*
X530000Y158000D02*
D03*
X545000D02*
D03*
X660870Y181225D02*
D03*
X642610Y173029D02*
D03*
X666650Y169500D02*
D03*
X630350Y169203D02*
D03*
X627575Y156276D02*
D03*
X631500Y143500D02*
D03*
X640000Y158000D02*
D03*
X655000D02*
D03*
X550870Y291225D02*
D03*
X532610Y283030D02*
D03*
X556650Y279500D02*
D03*
X520350Y279203D02*
D03*
X517575Y266276D02*
D03*
X521500Y253500D02*
D03*
X530000Y268000D02*
D03*
X545000D02*
D03*
X660870Y291225D02*
D03*
X642610Y283030D02*
D03*
X666650Y279500D02*
D03*
X630350Y279203D02*
D03*
X627575Y266276D02*
D03*
X631500Y253500D02*
D03*
X640000Y268000D02*
D03*
X655000D02*
D03*
X154500Y634000D02*
D03*
X166914Y645117D02*
D03*
X168214Y643342D02*
D03*
X180000Y642000D02*
D03*
X170728Y634996D02*
D03*
X167128Y634357D02*
D03*
X187635Y619259D02*
D03*
X165500Y627500D02*
D03*
X171000Y684500D02*
D03*
X170491Y680009D02*
D03*
X171500Y676000D02*
D03*
Y667500D02*
D03*
X170450Y632651D02*
D03*
X172500Y654000D02*
D03*
X198500Y677000D02*
D03*
X202000Y666500D02*
D03*
X214000Y673000D02*
D03*
X146500Y694500D02*
D03*
X138282Y678786D02*
D03*
X145000Y683500D02*
D03*
X162500Y685900D02*
D03*
X165000Y692500D02*
D03*
X160500Y690000D02*
D03*
X183500Y680500D02*
D03*
X195217Y666583D02*
D03*
X195500Y682500D02*
D03*
X161000Y674500D02*
D03*
X199000Y674000D02*
D03*
X164617Y654409D02*
D03*
X161500Y654500D02*
D03*
X166979Y656141D02*
D03*
X214000Y618500D02*
D03*
X209000Y637000D02*
D03*
X189000Y642500D02*
D03*
X190634Y693995D02*
D03*
X203000Y637500D02*
D03*
X181000Y670000D02*
D03*
X158976Y641160D02*
D03*
X176000Y645500D02*
D03*
X133500Y639500D02*
D03*
X151528Y645472D02*
D03*
X136000Y633000D02*
D03*
X146000Y627500D02*
D03*
X304500Y634000D02*
D03*
X316915Y645117D02*
D03*
X318214Y643342D02*
D03*
X330000Y642000D02*
D03*
X320728Y634996D02*
D03*
X317128Y634357D02*
D03*
X337635Y619259D02*
D03*
X315500Y627500D02*
D03*
X321000Y684500D02*
D03*
X320491Y680009D02*
D03*
X321500Y676000D02*
D03*
Y667500D02*
D03*
X320450Y632651D02*
D03*
X322500Y654000D02*
D03*
X348500Y677000D02*
D03*
X352000Y666500D02*
D03*
X364000Y673000D02*
D03*
X296500Y694500D02*
D03*
X288282Y678786D02*
D03*
X295000Y683500D02*
D03*
X312500Y685900D02*
D03*
X315000Y692500D02*
D03*
X310500Y690000D02*
D03*
X333500Y680500D02*
D03*
X345217Y666583D02*
D03*
X345500Y682500D02*
D03*
X311000Y674500D02*
D03*
X349000Y674000D02*
D03*
X314617Y654409D02*
D03*
X311500Y654500D02*
D03*
X316979Y656141D02*
D03*
X364000Y618500D02*
D03*
X359000Y637000D02*
D03*
X339000Y642500D02*
D03*
X340634Y693995D02*
D03*
X353000Y637500D02*
D03*
X331000Y670000D02*
D03*
X308976Y641160D02*
D03*
X326000Y645500D02*
D03*
X283500Y639500D02*
D03*
X301528Y645472D02*
D03*
X286000Y633000D02*
D03*
X296000Y627500D02*
D03*
X454500Y634000D02*
D03*
X466915Y645117D02*
D03*
X468214Y643342D02*
D03*
X480000Y642000D02*
D03*
X470728Y634996D02*
D03*
X467128Y634357D02*
D03*
X487635Y619259D02*
D03*
X465500Y627500D02*
D03*
X471000Y684500D02*
D03*
X470491Y680009D02*
D03*
X471500Y676000D02*
D03*
Y667500D02*
D03*
X470450Y632651D02*
D03*
X472500Y654000D02*
D03*
X498500Y677000D02*
D03*
X502000Y666500D02*
D03*
X514000Y673000D02*
D03*
X446500Y694500D02*
D03*
X438282Y678786D02*
D03*
X445000Y683500D02*
D03*
X462500Y685900D02*
D03*
X465000Y692500D02*
D03*
X460500Y690000D02*
D03*
X483500Y680500D02*
D03*
X495217Y666583D02*
D03*
X495500Y682500D02*
D03*
X461000Y674500D02*
D03*
X499000Y674000D02*
D03*
X464617Y654409D02*
D03*
X461500Y654500D02*
D03*
X466979Y656141D02*
D03*
X514000Y618500D02*
D03*
X509000Y637000D02*
D03*
X489000Y642500D02*
D03*
X490634Y693995D02*
D03*
X503000Y637500D02*
D03*
X481000Y670000D02*
D03*
X458976Y641160D02*
D03*
X476000Y645500D02*
D03*
X433500Y639500D02*
D03*
X451528Y645472D02*
D03*
X436000Y633000D02*
D03*
X446000Y627500D02*
D03*
X604500Y634000D02*
D03*
X616915Y645117D02*
D03*
X618214Y643342D02*
D03*
X630000Y642000D02*
D03*
X620728Y634996D02*
D03*
X617128Y634357D02*
D03*
X637635Y619259D02*
D03*
X615500Y627500D02*
D03*
X621000Y684500D02*
D03*
X620491Y680009D02*
D03*
X621500Y676000D02*
D03*
Y667500D02*
D03*
X620450Y632651D02*
D03*
X622500Y654000D02*
D03*
X648500Y677000D02*
D03*
X652000Y666500D02*
D03*
X664000Y673000D02*
D03*
X596500Y694500D02*
D03*
X588282Y678786D02*
D03*
X595000Y683500D02*
D03*
X612500Y685900D02*
D03*
X615000Y692500D02*
D03*
X610500Y690000D02*
D03*
X633500Y680500D02*
D03*
X645217Y666583D02*
D03*
X645500Y682500D02*
D03*
X611000Y674500D02*
D03*
X649000Y674000D02*
D03*
X614617Y654409D02*
D03*
X611500Y654500D02*
D03*
X616979Y656141D02*
D03*
X664000Y618500D02*
D03*
X659000Y637000D02*
D03*
X639000Y642500D02*
D03*
X640634Y693995D02*
D03*
X653000Y637500D02*
D03*
X631000Y670000D02*
D03*
X608976Y641160D02*
D03*
X626000Y645500D02*
D03*
X583500Y639500D02*
D03*
X601528Y645472D02*
D03*
X586000Y633000D02*
D03*
X596000Y627500D02*
D03*
X417604Y148054D02*
D03*
X440885Y149800D02*
D03*
X435443Y156617D02*
D03*
X437785Y203400D02*
D03*
X420485Y225700D02*
D03*
X420428Y192197D02*
D03*
X417585Y200100D02*
D03*
X417024Y216739D02*
D03*
X436392Y215461D02*
D03*
X437994Y209880D02*
D03*
X437745Y207594D02*
D03*
X434340Y163321D02*
D03*
X433551Y170170D02*
D03*
X451909Y164792D02*
D03*
X433049Y175369D02*
D03*
X424985Y164200D02*
D03*
X433946Y146470D02*
D03*
X437861Y145490D02*
D03*
X317604Y148054D02*
D03*
X340885Y149800D02*
D03*
X335443Y156617D02*
D03*
X337785Y203400D02*
D03*
X320485Y225700D02*
D03*
X320428Y192197D02*
D03*
X317585Y200100D02*
D03*
X317023Y216739D02*
D03*
X336392Y215461D02*
D03*
X337994Y209880D02*
D03*
X337745Y207594D02*
D03*
X334340Y163321D02*
D03*
X333551Y170170D02*
D03*
X351909Y164792D02*
D03*
X333049Y175369D02*
D03*
X324985Y164200D02*
D03*
X333946Y146470D02*
D03*
X337861Y145490D02*
D03*
X217604Y148054D02*
D03*
X240885Y149800D02*
D03*
X235443Y156617D02*
D03*
X237785Y203400D02*
D03*
X220485Y225700D02*
D03*
X220428Y192197D02*
D03*
X217585Y200100D02*
D03*
X217023Y216739D02*
D03*
X236392Y215461D02*
D03*
X237994Y209880D02*
D03*
X237745Y207594D02*
D03*
X234340Y163321D02*
D03*
X233551Y170170D02*
D03*
X251909Y164792D02*
D03*
X233049Y175369D02*
D03*
X224985Y164200D02*
D03*
X233946Y146470D02*
D03*
X237861Y145490D02*
D03*
X117604Y148054D02*
D03*
X140885Y149800D02*
D03*
X135443Y156617D02*
D03*
X137785Y203400D02*
D03*
X120485Y225700D02*
D03*
X120428Y192197D02*
D03*
X117585Y200100D02*
D03*
X117024Y216739D02*
D03*
X136392Y215461D02*
D03*
X137994Y209880D02*
D03*
X137745Y207594D02*
D03*
X134340Y163321D02*
D03*
X133551Y170170D02*
D03*
X151909Y164792D02*
D03*
X133049Y175369D02*
D03*
X124985Y164200D02*
D03*
X133946Y146470D02*
D03*
X137861Y145490D02*
D03*
D70*
X512800Y387500D02*
D03*
X510600Y370800D02*
D03*
X457100D02*
D03*
X662800Y387500D02*
D03*
X660600Y370800D02*
D03*
X607100D02*
D03*
X512800Y537500D02*
D03*
X510600Y520800D02*
D03*
X457100D02*
D03*
X662800Y537500D02*
D03*
X660600Y520800D02*
D03*
X607100D02*
D03*
X558500Y140500D02*
D03*
X668500D02*
D03*
X558500Y250500D02*
D03*
X668500D02*
D03*
D74*
X164500Y645000D02*
D03*
X169500Y660000D02*
D03*
X152000Y685700D02*
D03*
X180000Y656000D02*
D03*
X193500Y653000D02*
D03*
X203000Y632500D02*
D03*
X152000Y682500D02*
D03*
X314500Y645000D02*
D03*
X319500Y660000D02*
D03*
X302000Y685700D02*
D03*
X330000Y656000D02*
D03*
X343500Y653000D02*
D03*
X353000Y632500D02*
D03*
X302000Y682500D02*
D03*
X464500Y645000D02*
D03*
X469500Y660000D02*
D03*
X452000Y685700D02*
D03*
X480000Y656000D02*
D03*
X493500Y653000D02*
D03*
X503000Y632500D02*
D03*
X452000Y682500D02*
D03*
X614500Y645000D02*
D03*
X619500Y660000D02*
D03*
X602000Y685700D02*
D03*
X630000Y656000D02*
D03*
X643500Y653000D02*
D03*
X653000Y632500D02*
D03*
X602000Y682500D02*
D03*
D89*
X494329Y409139D02*
D03*
Y406579D02*
D03*
Y404021D02*
D03*
Y401461D02*
D03*
X510471D02*
D03*
Y404021D02*
D03*
Y406579D02*
D03*
Y409139D02*
D03*
X644329D02*
D03*
Y406579D02*
D03*
Y404021D02*
D03*
Y401461D02*
D03*
X660471D02*
D03*
Y404021D02*
D03*
Y406579D02*
D03*
Y409139D02*
D03*
X494329Y559139D02*
D03*
Y556579D02*
D03*
Y554021D02*
D03*
Y551461D02*
D03*
X510471D02*
D03*
Y554021D02*
D03*
Y556579D02*
D03*
Y559139D02*
D03*
X644329D02*
D03*
Y556579D02*
D03*
Y554021D02*
D03*
Y551461D02*
D03*
X660471D02*
D03*
Y554021D02*
D03*
Y556579D02*
D03*
Y559139D02*
D03*
D90*
X498561Y397229D02*
D03*
X501121D02*
D03*
X503680D02*
D03*
X506239D02*
D03*
Y413371D02*
D03*
X503680D02*
D03*
X501121D02*
D03*
X498561D02*
D03*
X648561Y397229D02*
D03*
X651121D02*
D03*
X653680D02*
D03*
X656239D02*
D03*
Y413371D02*
D03*
X653680D02*
D03*
X651121D02*
D03*
X648561D02*
D03*
X498561Y547229D02*
D03*
X501121D02*
D03*
X503680D02*
D03*
X506239D02*
D03*
Y563371D02*
D03*
X503680D02*
D03*
X501121D02*
D03*
X498561D02*
D03*
X648561Y547229D02*
D03*
X651121D02*
D03*
X653680D02*
D03*
X656239D02*
D03*
Y563371D02*
D03*
X653680D02*
D03*
X651121D02*
D03*
X648561D02*
D03*
D91*
X502400Y405300D02*
D03*
X652400D02*
D03*
X502400Y555300D02*
D03*
X652400D02*
D03*
D92*
X489400Y384300D02*
D03*
X484085D02*
D03*
X639400D02*
D03*
X634085D02*
D03*
X489400Y534300D02*
D03*
X484085D02*
D03*
X639400D02*
D03*
X634085D02*
D03*
D93*
X325019Y345811D02*
D03*
Y342465D02*
D03*
X334019D02*
D03*
Y345811D02*
D03*
X329519Y342465D02*
D03*
Y345811D02*
D03*
X175019D02*
D03*
Y342465D02*
D03*
X184019D02*
D03*
Y345811D02*
D03*
X179519Y342465D02*
D03*
Y345811D02*
D03*
X148984Y628772D02*
D03*
Y625425D02*
D03*
X298984Y628772D02*
D03*
Y625425D02*
D03*
X448984Y628772D02*
D03*
Y625425D02*
D03*
X598984Y628772D02*
D03*
Y625425D02*
D03*
X449685Y167053D02*
D03*
Y170400D02*
D03*
X444185Y157427D02*
D03*
Y160773D02*
D03*
X447985Y157427D02*
D03*
Y160773D02*
D03*
X349685Y167053D02*
D03*
Y170400D02*
D03*
X344185Y157427D02*
D03*
Y160773D02*
D03*
X347985Y157427D02*
D03*
Y160773D02*
D03*
X249685Y167053D02*
D03*
Y170400D02*
D03*
X244185Y157427D02*
D03*
Y160773D02*
D03*
X247985Y157427D02*
D03*
Y160773D02*
D03*
X149685Y167053D02*
D03*
Y170400D02*
D03*
X144185Y157427D02*
D03*
Y160773D02*
D03*
X147985Y157427D02*
D03*
Y160773D02*
D03*
D94*
X543645Y138470D02*
D03*
X653645D02*
D03*
X543645Y248470D02*
D03*
X653645D02*
D03*
D95*
X538862Y153823D02*
D03*
X648862D02*
D03*
X538862Y263823D02*
D03*
X648862D02*
D03*
D96*
X534079Y136319D02*
D03*
X644079D02*
D03*
X534079Y246319D02*
D03*
X644079D02*
D03*
D97*
X534079Y144620D02*
D03*
X644079D02*
D03*
X534079Y254620D02*
D03*
X644079D02*
D03*
D98*
X543659Y154035D02*
D03*
X534065D02*
D03*
X653659D02*
D03*
X644065D02*
D03*
X543659Y264035D02*
D03*
X534065D02*
D03*
X653659D02*
D03*
X644065D02*
D03*
D99*
X149575Y680500D02*
D03*
X146425D02*
D03*
X299575D02*
D03*
X296425D02*
D03*
X449575D02*
D03*
X446425D02*
D03*
X599575D02*
D03*
X596425D02*
D03*
D100*
X190150Y691968D02*
D03*
X187000Y690000D02*
D03*
X190150Y688031D02*
D03*
X187000Y686063D02*
D03*
X190150Y684094D02*
D03*
X187000Y682126D02*
D03*
X190150Y680158D02*
D03*
X187000Y678189D02*
D03*
X190150Y676221D02*
D03*
X187000Y674252D02*
D03*
X190150Y672284D02*
D03*
X187000Y670315D02*
D03*
X190150Y668347D02*
D03*
X187000Y666378D02*
D03*
X190150Y664409D02*
D03*
X187000Y662441D02*
D03*
X190150Y660472D02*
D03*
X187000Y658504D02*
D03*
X190150Y656535D02*
D03*
X187000Y654567D02*
D03*
X190150Y652598D02*
D03*
X154717Y691968D02*
D03*
X157866Y690000D02*
D03*
X154717Y688031D02*
D03*
X157866Y686063D02*
D03*
X154717Y684094D02*
D03*
X157866Y682126D02*
D03*
X154717Y680158D02*
D03*
X157866Y678189D02*
D03*
X154717Y676221D02*
D03*
X157866Y674252D02*
D03*
X154717Y672284D02*
D03*
X157866Y670315D02*
D03*
X154717Y668347D02*
D03*
X157866Y666378D02*
D03*
X154717Y664409D02*
D03*
X157866Y662441D02*
D03*
X154717Y660472D02*
D03*
X157866Y658504D02*
D03*
X154717Y656535D02*
D03*
X157866Y654567D02*
D03*
X154717Y652598D02*
D03*
X340150Y691968D02*
D03*
X337000Y690000D02*
D03*
X340150Y688031D02*
D03*
X337000Y686063D02*
D03*
X340150Y684094D02*
D03*
X337000Y682126D02*
D03*
X340150Y680158D02*
D03*
X337000Y678189D02*
D03*
X340150Y676221D02*
D03*
X337000Y674252D02*
D03*
X340150Y672284D02*
D03*
X337000Y670315D02*
D03*
X340150Y668347D02*
D03*
X337000Y666378D02*
D03*
X340150Y664409D02*
D03*
X337000Y662441D02*
D03*
X340150Y660472D02*
D03*
X337000Y658504D02*
D03*
X340150Y656535D02*
D03*
X337000Y654567D02*
D03*
X340150Y652598D02*
D03*
X304716Y691968D02*
D03*
X307866Y690000D02*
D03*
X304716Y688031D02*
D03*
X307866Y686063D02*
D03*
X304716Y684094D02*
D03*
X307866Y682126D02*
D03*
X304716Y680158D02*
D03*
X307866Y678189D02*
D03*
X304716Y676221D02*
D03*
X307866Y674252D02*
D03*
X304716Y672284D02*
D03*
X307866Y670315D02*
D03*
X304716Y668347D02*
D03*
X307866Y666378D02*
D03*
X304716Y664409D02*
D03*
X307866Y662441D02*
D03*
X304716Y660472D02*
D03*
X307866Y658504D02*
D03*
X304716Y656535D02*
D03*
X307866Y654567D02*
D03*
X304716Y652598D02*
D03*
X490150Y691968D02*
D03*
X487000Y690000D02*
D03*
X490150Y688031D02*
D03*
X487000Y686063D02*
D03*
X490150Y684094D02*
D03*
X487000Y682126D02*
D03*
X490150Y680158D02*
D03*
X487000Y678189D02*
D03*
X490150Y676221D02*
D03*
X487000Y674252D02*
D03*
X490150Y672284D02*
D03*
X487000Y670315D02*
D03*
X490150Y668347D02*
D03*
X487000Y666378D02*
D03*
X490150Y664409D02*
D03*
X487000Y662441D02*
D03*
X490150Y660472D02*
D03*
X487000Y658504D02*
D03*
X490150Y656535D02*
D03*
X487000Y654567D02*
D03*
X490150Y652598D02*
D03*
X454716Y691968D02*
D03*
X457866Y690000D02*
D03*
X454716Y688031D02*
D03*
X457866Y686063D02*
D03*
X454716Y684094D02*
D03*
X457866Y682126D02*
D03*
X454716Y680158D02*
D03*
X457866Y678189D02*
D03*
X454716Y676221D02*
D03*
X457866Y674252D02*
D03*
X454716Y672284D02*
D03*
X457866Y670315D02*
D03*
X454716Y668347D02*
D03*
X457866Y666378D02*
D03*
X454716Y664409D02*
D03*
X457866Y662441D02*
D03*
X454716Y660472D02*
D03*
X457866Y658504D02*
D03*
X454716Y656535D02*
D03*
X457866Y654567D02*
D03*
X454716Y652598D02*
D03*
X640150Y691968D02*
D03*
X637000Y690000D02*
D03*
X640150Y688031D02*
D03*
X637000Y686063D02*
D03*
X640150Y684094D02*
D03*
X637000Y682126D02*
D03*
X640150Y680158D02*
D03*
X637000Y678189D02*
D03*
X640150Y676221D02*
D03*
X637000Y674252D02*
D03*
X640150Y672284D02*
D03*
X637000Y670315D02*
D03*
X640150Y668347D02*
D03*
X637000Y666378D02*
D03*
X640150Y664409D02*
D03*
X637000Y662441D02*
D03*
X640150Y660472D02*
D03*
X637000Y658504D02*
D03*
X640150Y656535D02*
D03*
X637000Y654567D02*
D03*
X640150Y652598D02*
D03*
X604716Y691968D02*
D03*
X607866Y690000D02*
D03*
X604716Y688031D02*
D03*
X607866Y686063D02*
D03*
X604716Y684094D02*
D03*
X607866Y682126D02*
D03*
X604716Y680158D02*
D03*
X607866Y678189D02*
D03*
X604716Y676221D02*
D03*
X607866Y674252D02*
D03*
X604716Y672284D02*
D03*
X607866Y670315D02*
D03*
X604716Y668347D02*
D03*
X607866Y666378D02*
D03*
X604716Y664409D02*
D03*
X607866Y662441D02*
D03*
X604716Y660472D02*
D03*
X607866Y658504D02*
D03*
X604716Y656535D02*
D03*
X607866Y654567D02*
D03*
X604716Y652598D02*
D03*
D101*
X190150Y648661D02*
D03*
X340150D02*
D03*
X490150D02*
D03*
X640150D02*
D03*
D102*
X186213D02*
D03*
X184244Y651811D02*
D03*
X182276Y648661D02*
D03*
X180307Y651811D02*
D03*
X178339Y648661D02*
D03*
X176370Y651811D02*
D03*
X174402Y648661D02*
D03*
X172433Y651811D02*
D03*
X168496D02*
D03*
X164559D02*
D03*
X162591Y648661D02*
D03*
X170465D02*
D03*
X166528D02*
D03*
X160622Y651811D02*
D03*
X158653Y648661D02*
D03*
X336213D02*
D03*
X334244Y651811D02*
D03*
X332276Y648661D02*
D03*
X330307Y651811D02*
D03*
X328339Y648661D02*
D03*
X326370Y651811D02*
D03*
X324402Y648661D02*
D03*
X322433Y651811D02*
D03*
X318496D02*
D03*
X314559D02*
D03*
X312591Y648661D02*
D03*
X320465D02*
D03*
X316528D02*
D03*
X310622Y651811D02*
D03*
X308653Y648661D02*
D03*
X486213D02*
D03*
X484244Y651811D02*
D03*
X482276Y648661D02*
D03*
X480307Y651811D02*
D03*
X478339Y648661D02*
D03*
X476370Y651811D02*
D03*
X474402Y648661D02*
D03*
X472433Y651811D02*
D03*
X468496D02*
D03*
X464559D02*
D03*
X462591Y648661D02*
D03*
X470465D02*
D03*
X466528D02*
D03*
X460622Y651811D02*
D03*
X458653Y648661D02*
D03*
X636213D02*
D03*
X634244Y651811D02*
D03*
X632276Y648661D02*
D03*
X630307Y651811D02*
D03*
X628339Y648661D02*
D03*
X626370Y651811D02*
D03*
X624402Y648661D02*
D03*
X622433Y651811D02*
D03*
X618496D02*
D03*
X614559D02*
D03*
X612591Y648661D02*
D03*
X620465D02*
D03*
X616528D02*
D03*
X610622Y651811D02*
D03*
X608653Y648661D02*
D03*
D103*
X154717D02*
D03*
X304716D02*
D03*
X454716D02*
D03*
X604716D02*
D03*
D104*
X418785Y157753D02*
D03*
Y151847D02*
D03*
X423985Y151900D02*
D03*
Y157806D02*
D03*
X318785Y157753D02*
D03*
Y151847D02*
D03*
X323985Y151900D02*
D03*
Y157806D02*
D03*
X218785Y157753D02*
D03*
Y151847D02*
D03*
X223985Y151900D02*
D03*
Y157806D02*
D03*
X118785Y157753D02*
D03*
Y151847D02*
D03*
X123985Y151900D02*
D03*
Y157806D02*
D03*
D105*
X431985Y181993D02*
D03*
Y178607D02*
D03*
X331985Y181993D02*
D03*
Y178607D02*
D03*
X231985Y181993D02*
D03*
Y178607D02*
D03*
X131985Y181993D02*
D03*
Y178607D02*
D03*
D106*
X425285Y166900D02*
D03*
Y170050D02*
D03*
X325285Y166900D02*
D03*
Y170050D02*
D03*
X225285Y166900D02*
D03*
Y170050D02*
D03*
X125285Y166900D02*
D03*
Y170050D02*
D03*
D107*
X454900Y420400D02*
D03*
X508000Y422200D02*
D03*
X502600Y422000D02*
D03*
X521100Y382600D02*
D03*
Y389000D02*
D03*
X521300Y396500D02*
D03*
Y402200D02*
D03*
Y374300D02*
D03*
X454100Y377500D02*
D03*
X497800Y380800D02*
D03*
X459000Y420400D02*
D03*
X604900D02*
D03*
X658000Y422200D02*
D03*
X652600Y422000D02*
D03*
X671100Y382600D02*
D03*
Y389000D02*
D03*
X671300Y396500D02*
D03*
Y402200D02*
D03*
Y374300D02*
D03*
X604100Y377500D02*
D03*
X647800Y380800D02*
D03*
X609000Y420400D02*
D03*
X454900Y570400D02*
D03*
X508000Y572200D02*
D03*
X502600Y572000D02*
D03*
X521100Y532600D02*
D03*
Y539000D02*
D03*
X521300Y546500D02*
D03*
Y552200D02*
D03*
Y524300D02*
D03*
X454100Y527500D02*
D03*
X497800Y530800D02*
D03*
X459000Y570400D02*
D03*
X604900D02*
D03*
X658000Y572200D02*
D03*
X652600Y572000D02*
D03*
X671100Y532600D02*
D03*
Y539000D02*
D03*
X671300Y546500D02*
D03*
Y552200D02*
D03*
Y524300D02*
D03*
X604100Y527500D02*
D03*
X647800Y530800D02*
D03*
X609000Y570400D02*
D03*
X559500Y176500D02*
D03*
X540000Y190500D02*
D03*
X517000Y177000D02*
D03*
X540500Y123500D02*
D03*
X533000D02*
D03*
X669500Y176500D02*
D03*
X650000Y190500D02*
D03*
X627000Y177000D02*
D03*
X650500Y123500D02*
D03*
X643000D02*
D03*
X559500Y286500D02*
D03*
X540000Y300500D02*
D03*
X517000Y287000D02*
D03*
X540500Y233500D02*
D03*
X533000D02*
D03*
X669500Y286500D02*
D03*
X650000Y300500D02*
D03*
X627000Y287000D02*
D03*
X650500Y233500D02*
D03*
X643000D02*
D03*
X201591Y659500D02*
D03*
X197000D02*
D03*
X146800Y618500D02*
D03*
X143000D02*
D03*
X138000D02*
D03*
X134000D02*
D03*
Y686500D02*
D03*
X125000Y647000D02*
D03*
Y673500D02*
D03*
Y680000D02*
D03*
X139500Y686500D02*
D03*
X219500Y672500D02*
D03*
X125000Y669500D02*
D03*
Y688000D02*
D03*
Y692000D02*
D03*
Y684000D02*
D03*
Y665500D02*
D03*
Y635000D02*
D03*
Y660500D02*
D03*
Y639000D02*
D03*
Y656500D02*
D03*
Y652500D02*
D03*
Y643000D02*
D03*
X219500Y684500D02*
D03*
Y688500D02*
D03*
Y676500D02*
D03*
X351590Y659500D02*
D03*
X347000D02*
D03*
X296800Y618500D02*
D03*
X293000D02*
D03*
X288000D02*
D03*
X284000D02*
D03*
Y686500D02*
D03*
X275000Y647000D02*
D03*
Y673500D02*
D03*
Y680000D02*
D03*
X289500Y686500D02*
D03*
X369500Y672500D02*
D03*
X275000Y669500D02*
D03*
Y688000D02*
D03*
Y692000D02*
D03*
Y684000D02*
D03*
Y665500D02*
D03*
Y635000D02*
D03*
Y660500D02*
D03*
Y639000D02*
D03*
Y656500D02*
D03*
Y652500D02*
D03*
Y643000D02*
D03*
X369500Y684500D02*
D03*
Y688500D02*
D03*
Y676500D02*
D03*
X501590Y659500D02*
D03*
X497000D02*
D03*
X446800Y618500D02*
D03*
X443000D02*
D03*
X438000D02*
D03*
X434000D02*
D03*
Y686500D02*
D03*
X425000Y647000D02*
D03*
Y673500D02*
D03*
Y680000D02*
D03*
X439500Y686500D02*
D03*
X519500Y672500D02*
D03*
X425000Y669500D02*
D03*
Y688000D02*
D03*
Y692000D02*
D03*
Y684000D02*
D03*
Y665500D02*
D03*
Y635000D02*
D03*
Y660500D02*
D03*
Y639000D02*
D03*
Y656500D02*
D03*
Y652500D02*
D03*
Y643000D02*
D03*
X519500Y684500D02*
D03*
Y688500D02*
D03*
Y676500D02*
D03*
X651590Y659500D02*
D03*
X647000D02*
D03*
X596800Y618500D02*
D03*
X593000D02*
D03*
X588000D02*
D03*
X584000D02*
D03*
Y686500D02*
D03*
X575000Y647000D02*
D03*
Y673500D02*
D03*
Y680000D02*
D03*
X589500Y686500D02*
D03*
X669500Y672500D02*
D03*
X575000Y669500D02*
D03*
Y688000D02*
D03*
Y692000D02*
D03*
Y684000D02*
D03*
Y665500D02*
D03*
Y635000D02*
D03*
Y660500D02*
D03*
Y639000D02*
D03*
Y656500D02*
D03*
Y652500D02*
D03*
Y643000D02*
D03*
X669500Y684500D02*
D03*
Y688500D02*
D03*
Y676500D02*
D03*
X447885Y187800D02*
D03*
X432585Y140900D02*
D03*
X419385Y162600D02*
D03*
X417885Y174800D02*
D03*
X426885Y140800D02*
D03*
X347885Y187800D02*
D03*
X332585Y140900D02*
D03*
X319385Y162600D02*
D03*
X317885Y174800D02*
D03*
X326885Y140800D02*
D03*
X247885Y187800D02*
D03*
X232585Y140900D02*
D03*
X219385Y162600D02*
D03*
X217885Y174800D02*
D03*
X226885Y140800D02*
D03*
X147885Y187800D02*
D03*
X132585Y140900D02*
D03*
X119385Y162600D02*
D03*
X117885Y174800D02*
D03*
X126885Y140800D02*
D03*
D108*
X500235Y407465D02*
D03*
X504565D02*
D03*
X500235Y403135D02*
D03*
X504565D02*
D03*
X500206Y403155D02*
D03*
X504536D02*
D03*
X500206Y407486D02*
D03*
X504536D02*
D03*
X650235Y407465D02*
D03*
X654565D02*
D03*
X650235Y403135D02*
D03*
X654565D02*
D03*
X650206Y403155D02*
D03*
X654536D02*
D03*
X650206Y407486D02*
D03*
X654536D02*
D03*
X500235Y557465D02*
D03*
X504565D02*
D03*
X500235Y553135D02*
D03*
X504565D02*
D03*
X500206Y553155D02*
D03*
X504536D02*
D03*
X500206Y557486D02*
D03*
X504536D02*
D03*
X650235Y557465D02*
D03*
X654565D02*
D03*
X650235Y553135D02*
D03*
X654565D02*
D03*
X650206Y553155D02*
D03*
X654536D02*
D03*
X650206Y557486D02*
D03*
X654536D02*
D03*
D109*
X323929Y387583D02*
D03*
X173929D02*
D03*
D110*
X313929D02*
D03*
X323929Y397583D02*
D03*
X313929D02*
D03*
X323929Y407583D02*
D03*
X313929D02*
D03*
X323929Y417583D02*
D03*
X313929D02*
D03*
X323929Y427583D02*
D03*
X313929D02*
D03*
X323929Y437583D02*
D03*
X313929D02*
D03*
X323929Y447583D02*
D03*
X313929D02*
D03*
X323929Y457583D02*
D03*
X313929D02*
D03*
X163929Y387583D02*
D03*
X173929Y397583D02*
D03*
X163929D02*
D03*
X173929Y407583D02*
D03*
X163929D02*
D03*
X173929Y417583D02*
D03*
X163929D02*
D03*
X173929Y427583D02*
D03*
X163929D02*
D03*
X173929Y437583D02*
D03*
X163929D02*
D03*
X173929Y447583D02*
D03*
X163929D02*
D03*
X173929Y457583D02*
D03*
X163929D02*
D03*
D111*
X202000Y684000D02*
D03*
X210000D02*
D03*
X206000Y664000D02*
D03*
X352000Y684000D02*
D03*
X360000D02*
D03*
X356000Y664000D02*
D03*
X502000Y684000D02*
D03*
X510000D02*
D03*
X506000Y664000D02*
D03*
X652000Y684000D02*
D03*
X660000D02*
D03*
X656000Y664000D02*
D03*
M02*
