G04*
G04 #@! TF.GenerationSoftware,Altium Limited,Altium Designer,21.9.1 (22)*
G04*
G04 Layer_Color=16711935*
%FSLAX25Y25*%
%MOIN*%
G70*
G04*
G04 #@! TF.SameCoordinates,E458D0F7-5290-4F59-A4BE-1509BFD772E4*
G04*
G04*
G04 #@! TF.FilePolarity,Positive*
G04*
G01*
G75*
%ADD20C,0.01000*%
%ADD21C,0.00600*%
%ADD30C,0.00500*%
%ADD84C,0.00394*%
%ADD119C,0.00100*%
%ADD120C,0.00400*%
D20*
X701500Y721000D02*
X716000D01*
X701500Y100000D02*
X716000D01*
X100000Y722500D02*
Y787000D01*
X700000Y722500D02*
Y787000D01*
D21*
X712601Y393905D02*
X713601Y391905D01*
X715600Y389906D01*
X717599D01*
X718599Y390906D01*
Y392905D01*
X717599Y393905D01*
X716600D01*
X715600Y392905D01*
Y389906D01*
X718599Y399903D02*
Y395904D01*
X714600Y399903D01*
X713601D01*
X712601Y398903D01*
Y396904D01*
X713601Y395904D01*
X718599Y401902D02*
Y403902D01*
Y402902D01*
X712601D01*
X713601Y401902D01*
Y406901D02*
X712601Y407900D01*
Y409900D01*
X713601Y410899D01*
X717599D01*
X718599Y409900D01*
Y407900D01*
X717599Y406901D01*
X713601D01*
X718599Y412899D02*
X717599D01*
Y413898D01*
X718599D01*
Y412899D01*
X713601Y417897D02*
X712601Y418897D01*
Y420896D01*
X713601Y421896D01*
X717599D01*
X718599Y420896D01*
Y418897D01*
X717599Y417897D01*
X713601D01*
Y423895D02*
X712601Y424895D01*
Y426894D01*
X713601Y427894D01*
X717599D01*
X718599Y426894D01*
Y424895D01*
X717599Y423895D01*
X713601D01*
X382905Y788399D02*
X380906Y787399D01*
X378906Y785400D01*
Y783401D01*
X379906Y782401D01*
X381905D01*
X382905Y783401D01*
Y784400D01*
X381905Y785400D01*
X378906D01*
X384904Y787399D02*
X385904Y788399D01*
X387903D01*
X388903Y787399D01*
Y783401D01*
X387903Y782401D01*
X385904D01*
X384904Y783401D01*
Y787399D01*
X390902D02*
X391902Y788399D01*
X393901D01*
X394901Y787399D01*
Y783401D01*
X393901Y782401D01*
X391902D01*
X390902Y783401D01*
Y787399D01*
X396901D02*
X397900Y788399D01*
X399900D01*
X400899Y787399D01*
Y783401D01*
X399900Y782401D01*
X397900D01*
X396901Y783401D01*
Y787399D01*
X402899Y782401D02*
Y783401D01*
X403898D01*
Y782401D01*
X402899D01*
X407897Y787399D02*
X408897Y788399D01*
X410896D01*
X411896Y787399D01*
Y783401D01*
X410896Y782401D01*
X408897D01*
X407897Y783401D01*
Y787399D01*
X413895D02*
X414895Y788399D01*
X416894D01*
X417894Y787399D01*
Y783401D01*
X416894Y782401D01*
X414895D01*
X413895Y783401D01*
Y787399D01*
D30*
X715000Y721000D02*
X716333Y717000D01*
X713667D02*
X715000Y721000D01*
X713667Y104000D02*
X715000Y100000D01*
X716333Y104000D01*
X715000Y429494D02*
Y721000D01*
Y100000D02*
Y388306D01*
X100000Y786000D02*
X104000Y787333D01*
X100000Y786000D02*
X104000Y784667D01*
X696000D02*
X700000Y786000D01*
X696000Y787333D02*
X700000Y786000D01*
X100000D02*
X377306D01*
X419494D02*
X700000D01*
D84*
X190150Y698465D02*
Y703189D01*
X154717Y698465D02*
Y703189D01*
X190150D01*
X154717Y698465D02*
X190150D01*
X340150D02*
Y703189D01*
X304716Y698465D02*
Y703189D01*
X340150D01*
X304716Y698465D02*
X340150D01*
X490150D02*
Y703189D01*
X454716Y698465D02*
Y703189D01*
X490150D01*
X454716Y698465D02*
X490150D01*
X640150D02*
Y703189D01*
X604716Y698465D02*
Y703189D01*
X640150D01*
X604716Y698465D02*
X640150D01*
D119*
X281015Y528615D02*
G03*
X271567Y518764I0J-9457D01*
G01*
X370000Y519158D02*
G03*
X360149Y528607I-9457J0D01*
G01*
X360543Y316000D02*
G03*
X369992Y325851I0J9457D01*
G01*
X271558Y325457D02*
G03*
X281409Y316008I9457J0D01*
G01*
X360535D02*
X281409D01*
X370000Y325859D02*
Y519158D01*
X360141Y528615D02*
X281015D01*
X271558Y325457D02*
Y518756D01*
X131015Y528615D02*
G03*
X121567Y518764I0J-9457D01*
G01*
X220000Y519158D02*
G03*
X210149Y528607I-9457J0D01*
G01*
X210543Y316000D02*
G03*
X219992Y325851I0J9457D01*
G01*
X121558Y325457D02*
G03*
X131409Y316008I9457J0D01*
G01*
X210535D02*
X131409D01*
X220000Y325859D02*
Y519158D01*
X210141Y528615D02*
X131015D01*
X121558Y325457D02*
Y518756D01*
D120*
X454000Y136000D02*
Y230200D01*
X414630Y136000D02*
Y230200D01*
X454000D02*
X414630D01*
X454000Y136000D02*
X414630D01*
X354000D02*
Y230200D01*
X314630Y136000D02*
Y230200D01*
X354000D02*
X314630D01*
X354000Y136000D02*
X314630D01*
X254000D02*
Y230200D01*
X214630Y136000D02*
Y230200D01*
X254000D02*
X214630D01*
X254000Y136000D02*
X214630D01*
X154000D02*
Y230200D01*
X114630Y136000D02*
Y230200D01*
X154000D02*
X114630D01*
X154000Y136000D02*
X114630D01*
M02*
