G04*
G04 #@! TF.GenerationSoftware,Altium Limited,Altium Designer,21.9.1 (22)*
G04*
G04 Layer_Color=8421504*
%FSLAX25Y25*%
%MOIN*%
G70*
G04*
G04 #@! TF.SameCoordinates,13B4354E-90E4-473D-AD5A-126374568DC2*
G04*
G04*
G04 #@! TF.FilePolarity,Positive*
G04*
G01*
G75*
%ADD10R,0.03150X0.01378*%
%ADD11R,0.03985X0.04758*%
%ADD12O,0.03150X0.01181*%
%ADD13O,0.01181X0.03150*%
%ADD14R,0.10551X0.10551*%
%ADD15R,0.03150X0.03740*%
%ADD16R,0.13500X0.09500*%
%ADD17R,0.01575X0.01968*%
%ADD18R,0.02423X0.02254*%
%ADD24R,0.02165X0.02362*%
%ADD25R,0.02047X0.02047*%
%ADD26R,0.02578X0.00787*%
%ADD27R,0.00787X0.02578*%
%ADD28R,0.01968X0.04724*%
%ADD29R,0.00984X0.05315*%
%ADD31R,0.04800X0.15600*%
%ADD32R,0.02461X0.04087*%
%ADD33R,0.04800X0.11300*%
%ADD34R,0.04800X0.03200*%
%ADD35R,0.04776X0.03787*%
%ADD36R,0.04100X0.01300*%
%ADD37R,0.01968X0.01575*%
%ADD38R,0.01860X0.02029*%
%ADD39R,0.02254X0.02423*%
%ADD40R,0.01860X0.01843*%
%ADD41R,0.00984X0.01181*%
%ADD43R,0.11000X0.03500*%
%ADD44R,0.02047X0.02047*%
%ADD45R,0.01772X0.02657*%
%ADD46R,0.01378X0.02264*%
%ADD47R,0.02264X0.01378*%
%ADD48R,0.03961X0.05151*%
%ADD49R,0.01772X0.01772*%
%ADD50R,0.02362X0.01575*%
%ADD51R,0.02362X0.02362*%
%ADD52R,0.01575X0.02362*%
%ADD53R,0.02362X0.02362*%
%ADD54R,0.02044X0.05588*%
G04:AMPARAMS|DCode=55|XSize=55.88mil|YSize=20.44mil|CornerRadius=10.22mil|HoleSize=0mil|Usage=FLASHONLY|Rotation=90.000|XOffset=0mil|YOffset=0mil|HoleType=Round|Shape=RoundedRectangle|*
%AMROUNDEDRECTD55*
21,1,0.05588,0.00000,0,0,90.0*
21,1,0.03544,0.02044,0,0,90.0*
1,1,0.02044,0.00000,0.01772*
1,1,0.02044,0.00000,-0.01772*
1,1,0.02044,0.00000,-0.01772*
1,1,0.02044,0.00000,0.01772*
%
%ADD55ROUNDEDRECTD55*%
%ADD56C,0.00900*%
G04:AMPARAMS|DCode=57|XSize=23.62mil|YSize=49.21mil|CornerRadius=11.81mil|HoleSize=0mil|Usage=FLASHONLY|Rotation=180.000|XOffset=0mil|YOffset=0mil|HoleType=Round|Shape=RoundedRectangle|*
%AMROUNDEDRECTD57*
21,1,0.02362,0.02559,0,0,180.0*
21,1,0.00000,0.04921,0,0,180.0*
1,1,0.02362,0.00000,0.01280*
1,1,0.02362,0.00000,0.01280*
1,1,0.02362,0.00000,-0.01280*
1,1,0.02362,0.00000,-0.01280*
%
%ADD57ROUNDEDRECTD57*%
%ADD58R,0.04724X0.01968*%
%ADD59R,0.05315X0.00984*%
%ADD60R,0.03543X0.02756*%
%ADD61R,0.02441X0.02598*%
%ADD62R,0.05151X0.03961*%
%ADD63R,0.01772X0.01772*%
%ADD64R,0.01000X0.02200*%
%ADD65R,0.10800X0.04300*%
G36*
X669981Y640632D02*
X661082D01*
Y644132D01*
X669981D01*
Y640632D01*
D02*
G37*
G36*
X648918D02*
X640019D01*
Y644132D01*
X648918D01*
Y640632D01*
D02*
G37*
G36*
X519981D02*
X511082D01*
Y644132D01*
X519981D01*
Y640632D01*
D02*
G37*
G36*
X498918D02*
X490019D01*
Y644132D01*
X498918D01*
Y640632D01*
D02*
G37*
G36*
X369982D02*
X361082D01*
Y644132D01*
X369982D01*
Y640632D01*
D02*
G37*
G36*
X348919D02*
X340019D01*
Y644132D01*
X348919D01*
Y640632D01*
D02*
G37*
G36*
X219982D02*
X211082D01*
Y644132D01*
X219982D01*
Y640632D01*
D02*
G37*
G36*
X198918D02*
X190018D01*
Y644132D01*
X198918D01*
Y640632D01*
D02*
G37*
G36*
X669981Y635711D02*
X661082D01*
Y639211D01*
X669981D01*
Y635711D01*
D02*
G37*
G36*
X648918D02*
X640019D01*
Y639211D01*
X648918D01*
Y635711D01*
D02*
G37*
G36*
X519981D02*
X511082D01*
Y639211D01*
X519981D01*
Y635711D01*
D02*
G37*
G36*
X498918D02*
X490019D01*
Y639211D01*
X498918D01*
Y635711D01*
D02*
G37*
G36*
X369982D02*
X361082D01*
Y639211D01*
X369982D01*
Y635711D01*
D02*
G37*
G36*
X348919D02*
X340019D01*
Y639211D01*
X348919D01*
Y635711D01*
D02*
G37*
G36*
X219982D02*
X211082D01*
Y639211D01*
X219982D01*
Y635711D01*
D02*
G37*
G36*
X198918D02*
X190018D01*
Y639211D01*
X198918D01*
Y635711D01*
D02*
G37*
G36*
X669981Y630789D02*
X661082D01*
Y634289D01*
X669981D01*
Y630789D01*
D02*
G37*
G36*
X648918D02*
X640019D01*
Y634289D01*
X648918D01*
Y630789D01*
D02*
G37*
G36*
X519981D02*
X511082D01*
Y634289D01*
X519981D01*
Y630789D01*
D02*
G37*
G36*
X498918D02*
X490019D01*
Y634289D01*
X498918D01*
Y630789D01*
D02*
G37*
G36*
X369982D02*
X361082D01*
Y634289D01*
X369982D01*
Y630789D01*
D02*
G37*
G36*
X348919D02*
X340019D01*
Y634289D01*
X348919D01*
Y630789D01*
D02*
G37*
G36*
X219982D02*
X211082D01*
Y634289D01*
X219982D01*
Y630789D01*
D02*
G37*
G36*
X198918D02*
X190018D01*
Y634289D01*
X198918D01*
Y630789D01*
D02*
G37*
G36*
X669981Y625868D02*
X661082D01*
Y629368D01*
X669981D01*
Y625868D01*
D02*
G37*
G36*
X648918D02*
X640019D01*
Y629368D01*
X648918D01*
Y625868D01*
D02*
G37*
G36*
X519981D02*
X511082D01*
Y629368D01*
X519981D01*
Y625868D01*
D02*
G37*
G36*
X498918D02*
X490019D01*
Y629368D01*
X498918D01*
Y625868D01*
D02*
G37*
G36*
X369982D02*
X361082D01*
Y629368D01*
X369982D01*
Y625868D01*
D02*
G37*
G36*
X348919D02*
X340019D01*
Y629368D01*
X348919D01*
Y625868D01*
D02*
G37*
G36*
X219982D02*
X211082D01*
Y629368D01*
X219982D01*
Y625868D01*
D02*
G37*
G36*
X198918D02*
X190018D01*
Y629368D01*
X198918D01*
Y625868D01*
D02*
G37*
G36*
X445491Y167144D02*
X440879D01*
Y170656D01*
X445491D01*
Y167144D01*
D02*
G37*
G36*
X440091D02*
X435479D01*
Y170656D01*
X440091D01*
Y167144D01*
D02*
G37*
G36*
X345491D02*
X340879D01*
Y170656D01*
X345491D01*
Y167144D01*
D02*
G37*
G36*
X340091D02*
X335479D01*
Y170656D01*
X340091D01*
Y167144D01*
D02*
G37*
G36*
X245491D02*
X240879D01*
Y170656D01*
X245491D01*
Y167144D01*
D02*
G37*
G36*
X240091D02*
X235479D01*
Y170656D01*
X240091D01*
Y167144D01*
D02*
G37*
G36*
X145491D02*
X140879D01*
Y170656D01*
X145491D01*
Y167144D01*
D02*
G37*
G36*
X140091D02*
X135479D01*
Y170656D01*
X140091D01*
Y167144D01*
D02*
G37*
D10*
X476500Y372918D02*
D03*
Y370359D02*
D03*
Y367800D02*
D03*
X483705D02*
D03*
Y370359D02*
D03*
Y372918D02*
D03*
X626500D02*
D03*
Y370359D02*
D03*
Y367800D02*
D03*
X633705D02*
D03*
Y370359D02*
D03*
Y372918D02*
D03*
X476500Y522918D02*
D03*
Y520359D02*
D03*
Y517800D02*
D03*
X483705D02*
D03*
Y520359D02*
D03*
Y522918D02*
D03*
X626500D02*
D03*
Y520359D02*
D03*
Y517800D02*
D03*
X633705D02*
D03*
Y520359D02*
D03*
Y522918D02*
D03*
X542705Y175559D02*
D03*
Y173000D02*
D03*
Y170441D02*
D03*
X535500D02*
D03*
Y173000D02*
D03*
Y175559D02*
D03*
X652705D02*
D03*
Y173000D02*
D03*
Y170441D02*
D03*
X645500D02*
D03*
Y173000D02*
D03*
Y175559D02*
D03*
X542705Y285559D02*
D03*
Y283000D02*
D03*
Y280441D02*
D03*
X535500D02*
D03*
Y283000D02*
D03*
Y285559D02*
D03*
X652705D02*
D03*
Y283000D02*
D03*
Y280441D02*
D03*
X645500D02*
D03*
Y283000D02*
D03*
Y285559D02*
D03*
D11*
X468602Y367202D02*
D03*
Y373516D02*
D03*
X492602Y366702D02*
D03*
Y373016D02*
D03*
X458400Y402143D02*
D03*
Y408457D02*
D03*
X618602Y367202D02*
D03*
Y373516D02*
D03*
X642602Y366702D02*
D03*
Y373016D02*
D03*
X608400Y402143D02*
D03*
Y408457D02*
D03*
X468602Y517202D02*
D03*
Y523516D02*
D03*
X492602Y516702D02*
D03*
Y523016D02*
D03*
X458400Y552143D02*
D03*
Y558457D02*
D03*
X618602Y517202D02*
D03*
Y523516D02*
D03*
X642602Y516702D02*
D03*
Y523016D02*
D03*
X608400Y552143D02*
D03*
Y558457D02*
D03*
X549500Y176157D02*
D03*
Y169843D02*
D03*
X527500Y176157D02*
D03*
Y169843D02*
D03*
X517500Y150157D02*
D03*
Y143843D02*
D03*
X659500Y176157D02*
D03*
Y169843D02*
D03*
X637500Y176157D02*
D03*
Y169843D02*
D03*
X627500Y150157D02*
D03*
Y143843D02*
D03*
X549500Y286157D02*
D03*
Y279843D02*
D03*
X527500Y286157D02*
D03*
Y279843D02*
D03*
X517500Y260157D02*
D03*
Y253843D02*
D03*
X659500Y286157D02*
D03*
Y279843D02*
D03*
X637500Y286157D02*
D03*
Y279843D02*
D03*
X627500Y260157D02*
D03*
Y253843D02*
D03*
X154500Y628500D02*
D03*
Y622186D02*
D03*
X132984Y626615D02*
D03*
Y632929D02*
D03*
X304500Y628500D02*
D03*
Y622186D02*
D03*
X282984Y626615D02*
D03*
Y632929D02*
D03*
X454500Y628500D02*
D03*
Y622186D02*
D03*
X432984Y626615D02*
D03*
Y632929D02*
D03*
X604500Y628500D02*
D03*
Y622186D02*
D03*
X582984Y626615D02*
D03*
Y632929D02*
D03*
D12*
X494329Y409139D02*
D03*
Y406579D02*
D03*
Y404021D02*
D03*
Y401461D02*
D03*
X510471D02*
D03*
Y404021D02*
D03*
Y406579D02*
D03*
Y409139D02*
D03*
X644329D02*
D03*
Y406579D02*
D03*
Y404021D02*
D03*
Y401461D02*
D03*
X660471D02*
D03*
Y404021D02*
D03*
Y406579D02*
D03*
Y409139D02*
D03*
X494329Y559139D02*
D03*
Y556579D02*
D03*
Y554021D02*
D03*
Y551461D02*
D03*
X510471D02*
D03*
Y554021D02*
D03*
Y556579D02*
D03*
Y559139D02*
D03*
X644329D02*
D03*
Y556579D02*
D03*
Y554021D02*
D03*
Y551461D02*
D03*
X660471D02*
D03*
Y554021D02*
D03*
Y556579D02*
D03*
Y559139D02*
D03*
D13*
X498561Y397229D02*
D03*
X501121D02*
D03*
X503680D02*
D03*
X506239D02*
D03*
Y413371D02*
D03*
X503680D02*
D03*
X501121D02*
D03*
X498561D02*
D03*
X648561Y397229D02*
D03*
X651121D02*
D03*
X653680D02*
D03*
X656239D02*
D03*
Y413371D02*
D03*
X653680D02*
D03*
X651121D02*
D03*
X648561D02*
D03*
X498561Y547229D02*
D03*
X501121D02*
D03*
X503680D02*
D03*
X506239D02*
D03*
Y563371D02*
D03*
X503680D02*
D03*
X501121D02*
D03*
X498561D02*
D03*
X648561Y547229D02*
D03*
X651121D02*
D03*
X653680D02*
D03*
X656239D02*
D03*
Y563371D02*
D03*
X653680D02*
D03*
X651121D02*
D03*
X648561D02*
D03*
D14*
X502400Y405300D02*
D03*
X652400D02*
D03*
X502400Y555300D02*
D03*
X652400D02*
D03*
D15*
X489400Y384300D02*
D03*
X484085D02*
D03*
X639400D02*
D03*
X634085D02*
D03*
X489400Y534300D02*
D03*
X484085D02*
D03*
X639400D02*
D03*
X634085D02*
D03*
D16*
X476900Y416800D02*
D03*
Y393800D02*
D03*
X626900Y416800D02*
D03*
Y393800D02*
D03*
X476900Y566800D02*
D03*
Y543800D02*
D03*
X626900Y566800D02*
D03*
Y543800D02*
D03*
D17*
X506900Y390300D02*
D03*
X503750D02*
D03*
X656900D02*
D03*
X653750D02*
D03*
X506900Y540300D02*
D03*
X503750D02*
D03*
X656900D02*
D03*
X653750D02*
D03*
D18*
X494713Y390300D02*
D03*
X498087D02*
D03*
X644713D02*
D03*
X648087D02*
D03*
X494713Y540300D02*
D03*
X498087D02*
D03*
X644713D02*
D03*
X648087D02*
D03*
D24*
X325019Y345811D02*
D03*
Y342465D02*
D03*
X334019D02*
D03*
Y345811D02*
D03*
X329519Y342465D02*
D03*
Y345811D02*
D03*
X175019D02*
D03*
Y342465D02*
D03*
X184019D02*
D03*
Y345811D02*
D03*
X179519Y342465D02*
D03*
Y345811D02*
D03*
X148984Y628772D02*
D03*
Y625425D02*
D03*
X298984Y628772D02*
D03*
Y625425D02*
D03*
X448984Y628772D02*
D03*
Y625425D02*
D03*
X598984Y628772D02*
D03*
Y625425D02*
D03*
X449685Y167053D02*
D03*
Y170400D02*
D03*
X444185Y157427D02*
D03*
Y160773D02*
D03*
X447985Y157427D02*
D03*
Y160773D02*
D03*
X349685Y167053D02*
D03*
Y170400D02*
D03*
X344185Y157427D02*
D03*
Y160773D02*
D03*
X347985Y157427D02*
D03*
Y160773D02*
D03*
X249685Y167053D02*
D03*
Y170400D02*
D03*
X244185Y157427D02*
D03*
Y160773D02*
D03*
X247985Y157427D02*
D03*
Y160773D02*
D03*
X149685Y167053D02*
D03*
Y170400D02*
D03*
X144185Y157427D02*
D03*
Y160773D02*
D03*
X147985Y157427D02*
D03*
Y160773D02*
D03*
D25*
X318417Y483331D02*
D03*
Y486481D02*
D03*
X168417Y483331D02*
D03*
Y486481D02*
D03*
X525500Y150925D02*
D03*
Y154075D02*
D03*
X635500Y150925D02*
D03*
Y154075D02*
D03*
X525500Y260925D02*
D03*
Y264075D02*
D03*
X635500Y260925D02*
D03*
Y264075D02*
D03*
X449685Y145575D02*
D03*
Y142425D02*
D03*
X349685Y145575D02*
D03*
Y142425D02*
D03*
X249685Y145575D02*
D03*
Y142425D02*
D03*
X149685Y145575D02*
D03*
Y142425D02*
D03*
D26*
X320887Y495053D02*
D03*
Y493478D02*
D03*
X315947D02*
D03*
Y495053D02*
D03*
X170887D02*
D03*
Y493478D02*
D03*
X165947D02*
D03*
Y495053D02*
D03*
D27*
X319992Y491205D02*
D03*
X318417D02*
D03*
X316842D02*
D03*
Y497326D02*
D03*
X318417D02*
D03*
X319992D02*
D03*
X169992Y491205D02*
D03*
X168417D02*
D03*
X166842D02*
D03*
Y497326D02*
D03*
X168417D02*
D03*
X169992D02*
D03*
D28*
X337511Y514040D02*
D03*
X304047D02*
D03*
X337511Y519552D02*
D03*
X304047D02*
D03*
X337511Y325063D02*
D03*
X304047D02*
D03*
X337511Y330575D02*
D03*
X304047D02*
D03*
X187512Y514040D02*
D03*
X154047D02*
D03*
X187512Y519552D02*
D03*
X154047D02*
D03*
X187512Y325063D02*
D03*
X154047D02*
D03*
X187512Y330575D02*
D03*
X154047D02*
D03*
D29*
X328279Y522603D02*
D03*
X326704D02*
D03*
X325130D02*
D03*
X323555D02*
D03*
X321980D02*
D03*
X320405D02*
D03*
X318830D02*
D03*
X317256D02*
D03*
X315681D02*
D03*
X314106D02*
D03*
X327452Y510989D02*
D03*
X325878D02*
D03*
X324303D02*
D03*
X322728D02*
D03*
X321153D02*
D03*
X319578D02*
D03*
X318004D02*
D03*
X316429D02*
D03*
X314854D02*
D03*
X313279D02*
D03*
X328279Y333626D02*
D03*
X326704D02*
D03*
X325130D02*
D03*
X323555D02*
D03*
X321980D02*
D03*
X320405D02*
D03*
X318830D02*
D03*
X317256D02*
D03*
X315681D02*
D03*
X314106D02*
D03*
X327452Y322012D02*
D03*
X325878D02*
D03*
X324303D02*
D03*
X322728D02*
D03*
X321153D02*
D03*
X319578D02*
D03*
X318004D02*
D03*
X316429D02*
D03*
X314854D02*
D03*
X313279D02*
D03*
X178279Y522603D02*
D03*
X176704D02*
D03*
X175130D02*
D03*
X173555D02*
D03*
X171980D02*
D03*
X170405D02*
D03*
X168830D02*
D03*
X167256D02*
D03*
X165681D02*
D03*
X164106D02*
D03*
X177452Y510989D02*
D03*
X175878D02*
D03*
X174303D02*
D03*
X172728D02*
D03*
X171153D02*
D03*
X169578D02*
D03*
X168004D02*
D03*
X166429D02*
D03*
X164854D02*
D03*
X163279D02*
D03*
X178279Y333626D02*
D03*
X176704D02*
D03*
X175130D02*
D03*
X173555D02*
D03*
X171980D02*
D03*
X170405D02*
D03*
X168830D02*
D03*
X167256D02*
D03*
X165681D02*
D03*
X164106D02*
D03*
X177452Y322012D02*
D03*
X175878D02*
D03*
X174303D02*
D03*
X172728D02*
D03*
X171153D02*
D03*
X169578D02*
D03*
X168004D02*
D03*
X166429D02*
D03*
X164854D02*
D03*
X163279D02*
D03*
D31*
X543645Y138470D02*
D03*
X653645D02*
D03*
X543645Y248470D02*
D03*
X653645D02*
D03*
D32*
X538862Y153823D02*
D03*
X648862D02*
D03*
X538862Y263823D02*
D03*
X648862D02*
D03*
D33*
X534079Y136319D02*
D03*
X644079D02*
D03*
X534079Y246319D02*
D03*
X644079D02*
D03*
D34*
X534079Y144620D02*
D03*
X644079D02*
D03*
X534079Y254620D02*
D03*
X644079D02*
D03*
D35*
X543659Y154035D02*
D03*
X534065D02*
D03*
X653659D02*
D03*
X644065D02*
D03*
X543659Y264035D02*
D03*
X534065D02*
D03*
X653659D02*
D03*
X644065D02*
D03*
D36*
X544000Y148000D02*
D03*
Y150362D02*
D03*
X533724Y148000D02*
D03*
Y150362D02*
D03*
X654000Y148000D02*
D03*
Y150362D02*
D03*
X643724Y148000D02*
D03*
Y150362D02*
D03*
X544000Y258000D02*
D03*
Y260362D02*
D03*
X533724Y258000D02*
D03*
Y260362D02*
D03*
X654000Y258000D02*
D03*
Y260362D02*
D03*
X643724Y258000D02*
D03*
Y260362D02*
D03*
D37*
X526000Y143500D02*
D03*
Y146650D02*
D03*
X636000Y143500D02*
D03*
Y146650D02*
D03*
X526000Y253500D02*
D03*
Y256650D02*
D03*
X636000Y253500D02*
D03*
Y256650D02*
D03*
D38*
X551500Y149510D02*
D03*
Y152490D02*
D03*
X661500Y149510D02*
D03*
Y152490D02*
D03*
X551500Y259510D02*
D03*
Y262490D02*
D03*
X661500Y259510D02*
D03*
Y262490D02*
D03*
X420185Y167210D02*
D03*
Y170190D02*
D03*
X444285Y150010D02*
D03*
Y152990D02*
D03*
X449585Y149910D02*
D03*
Y152890D02*
D03*
X444485Y145490D02*
D03*
Y142510D02*
D03*
X320185Y167210D02*
D03*
Y170190D02*
D03*
X344285Y150010D02*
D03*
Y152990D02*
D03*
X349585Y149910D02*
D03*
Y152890D02*
D03*
X344485Y145490D02*
D03*
Y142510D02*
D03*
X220185Y167210D02*
D03*
Y170190D02*
D03*
X244285Y150010D02*
D03*
Y152990D02*
D03*
X249585Y149910D02*
D03*
Y152890D02*
D03*
X244485Y145490D02*
D03*
Y142510D02*
D03*
X120185Y167210D02*
D03*
Y170190D02*
D03*
X144285Y150010D02*
D03*
Y152990D02*
D03*
X149585Y149910D02*
D03*
Y152890D02*
D03*
X144485Y145490D02*
D03*
Y142510D02*
D03*
D39*
X214000Y666813D02*
D03*
Y670187D02*
D03*
X364000Y666813D02*
D03*
Y670187D02*
D03*
X514000Y666813D02*
D03*
Y670187D02*
D03*
X664000Y666813D02*
D03*
Y670187D02*
D03*
D40*
X214000Y662583D02*
D03*
Y659417D02*
D03*
X364000Y662583D02*
D03*
Y659417D02*
D03*
X514000Y662583D02*
D03*
Y659417D02*
D03*
X664000Y662583D02*
D03*
Y659417D02*
D03*
X446035Y179024D02*
D03*
Y182190D02*
D03*
X427085Y178417D02*
D03*
Y181583D02*
D03*
X429285Y166817D02*
D03*
Y169983D02*
D03*
X346035Y179024D02*
D03*
Y182190D02*
D03*
X327085Y178417D02*
D03*
Y181583D02*
D03*
X329285Y166817D02*
D03*
Y169983D02*
D03*
X246035Y179024D02*
D03*
Y182190D02*
D03*
X227085Y178417D02*
D03*
Y181583D02*
D03*
X229285Y166817D02*
D03*
Y169983D02*
D03*
X146035Y179024D02*
D03*
Y182190D02*
D03*
X127085Y178417D02*
D03*
Y181583D02*
D03*
X129285Y166817D02*
D03*
Y169983D02*
D03*
D41*
X216000Y618500D02*
D03*
X217870D02*
D03*
X366000D02*
D03*
X367870D02*
D03*
X516000D02*
D03*
X517870D02*
D03*
X666000D02*
D03*
X667870D02*
D03*
D43*
X195519Y632539D02*
D03*
X345518D02*
D03*
X495518D02*
D03*
X645518D02*
D03*
D44*
X183463Y643057D02*
D03*
X186612D02*
D03*
X183425Y638000D02*
D03*
X186575D02*
D03*
X132425Y678500D02*
D03*
X135575D02*
D03*
X183925Y623000D02*
D03*
X187075D02*
D03*
Y628000D02*
D03*
X183925D02*
D03*
X333463Y643057D02*
D03*
X336612D02*
D03*
X333425Y638000D02*
D03*
X336575D02*
D03*
X282425Y678500D02*
D03*
X285575D02*
D03*
X333925Y623000D02*
D03*
X337075D02*
D03*
Y628000D02*
D03*
X333925D02*
D03*
X483463Y643057D02*
D03*
X486612D02*
D03*
X483425Y638000D02*
D03*
X486575D02*
D03*
X432425Y678500D02*
D03*
X435575D02*
D03*
X483925Y623000D02*
D03*
X487075D02*
D03*
Y628000D02*
D03*
X483925D02*
D03*
X633463Y643057D02*
D03*
X636612D02*
D03*
X633425Y638000D02*
D03*
X636575D02*
D03*
X582425Y678500D02*
D03*
X585575D02*
D03*
X633925Y623000D02*
D03*
X637075D02*
D03*
Y628000D02*
D03*
X633925D02*
D03*
D45*
X183179Y633000D02*
D03*
X186821D02*
D03*
X333179D02*
D03*
X336821D02*
D03*
X483179D02*
D03*
X486821D02*
D03*
X633179D02*
D03*
X636821D02*
D03*
D46*
X167532Y637593D02*
D03*
X169500D02*
D03*
X171468D02*
D03*
Y630407D02*
D03*
X169500D02*
D03*
X167532D02*
D03*
X317531Y637593D02*
D03*
X319500D02*
D03*
X321468D02*
D03*
Y630407D02*
D03*
X319500D02*
D03*
X317531D02*
D03*
X467531Y637593D02*
D03*
X469500D02*
D03*
X471468D02*
D03*
Y630407D02*
D03*
X469500D02*
D03*
X467531D02*
D03*
X617531Y637593D02*
D03*
X619500D02*
D03*
X621468D02*
D03*
Y630407D02*
D03*
X619500D02*
D03*
X617531D02*
D03*
D47*
X174077Y636953D02*
D03*
Y634984D02*
D03*
Y633016D02*
D03*
Y631047D02*
D03*
X164923D02*
D03*
Y633016D02*
D03*
Y634984D02*
D03*
Y636953D02*
D03*
X324077D02*
D03*
Y634984D02*
D03*
Y633016D02*
D03*
Y631047D02*
D03*
X314923D02*
D03*
Y633016D02*
D03*
Y634984D02*
D03*
Y636953D02*
D03*
X474077D02*
D03*
Y634984D02*
D03*
Y633016D02*
D03*
Y631047D02*
D03*
X464923D02*
D03*
Y633016D02*
D03*
Y634984D02*
D03*
Y636953D02*
D03*
X624077D02*
D03*
Y634984D02*
D03*
Y633016D02*
D03*
Y631047D02*
D03*
X614923D02*
D03*
Y633016D02*
D03*
Y634984D02*
D03*
Y636953D02*
D03*
D48*
X140126Y635772D02*
D03*
X145843D02*
D03*
X290126D02*
D03*
X295843D02*
D03*
X440126D02*
D03*
X445843D02*
D03*
X590126D02*
D03*
X595843D02*
D03*
D49*
X149575Y680500D02*
D03*
X146425D02*
D03*
X299575D02*
D03*
X296425D02*
D03*
X449575D02*
D03*
X446425D02*
D03*
X599575D02*
D03*
X596425D02*
D03*
D50*
X190150Y691968D02*
D03*
X187000Y690000D02*
D03*
X190150Y688031D02*
D03*
X187000Y686063D02*
D03*
X190150Y684094D02*
D03*
X187000Y682126D02*
D03*
X190150Y680158D02*
D03*
X187000Y678189D02*
D03*
X190150Y676221D02*
D03*
X187000Y674252D02*
D03*
X190150Y672284D02*
D03*
X187000Y670315D02*
D03*
X190150Y668347D02*
D03*
X187000Y666378D02*
D03*
X190150Y664409D02*
D03*
X187000Y662441D02*
D03*
X190150Y660472D02*
D03*
X187000Y658504D02*
D03*
X190150Y656535D02*
D03*
X187000Y654567D02*
D03*
X190150Y652598D02*
D03*
X154717Y691968D02*
D03*
X157866Y690000D02*
D03*
X154717Y688031D02*
D03*
X157866Y686063D02*
D03*
X154717Y684094D02*
D03*
X157866Y682126D02*
D03*
X154717Y680158D02*
D03*
X157866Y678189D02*
D03*
X154717Y676221D02*
D03*
X157866Y674252D02*
D03*
X154717Y672284D02*
D03*
X157866Y670315D02*
D03*
X154717Y668347D02*
D03*
X157866Y666378D02*
D03*
X154717Y664409D02*
D03*
X157866Y662441D02*
D03*
X154717Y660472D02*
D03*
X157866Y658504D02*
D03*
X154717Y656535D02*
D03*
X157866Y654567D02*
D03*
X154717Y652598D02*
D03*
X340150Y691968D02*
D03*
X337000Y690000D02*
D03*
X340150Y688031D02*
D03*
X337000Y686063D02*
D03*
X340150Y684094D02*
D03*
X337000Y682126D02*
D03*
X340150Y680158D02*
D03*
X337000Y678189D02*
D03*
X340150Y676221D02*
D03*
X337000Y674252D02*
D03*
X340150Y672284D02*
D03*
X337000Y670315D02*
D03*
X340150Y668347D02*
D03*
X337000Y666378D02*
D03*
X340150Y664409D02*
D03*
X337000Y662441D02*
D03*
X340150Y660472D02*
D03*
X337000Y658504D02*
D03*
X340150Y656535D02*
D03*
X337000Y654567D02*
D03*
X340150Y652598D02*
D03*
X304716Y691968D02*
D03*
X307866Y690000D02*
D03*
X304716Y688031D02*
D03*
X307866Y686063D02*
D03*
X304716Y684094D02*
D03*
X307866Y682126D02*
D03*
X304716Y680158D02*
D03*
X307866Y678189D02*
D03*
X304716Y676221D02*
D03*
X307866Y674252D02*
D03*
X304716Y672284D02*
D03*
X307866Y670315D02*
D03*
X304716Y668347D02*
D03*
X307866Y666378D02*
D03*
X304716Y664409D02*
D03*
X307866Y662441D02*
D03*
X304716Y660472D02*
D03*
X307866Y658504D02*
D03*
X304716Y656535D02*
D03*
X307866Y654567D02*
D03*
X304716Y652598D02*
D03*
X490150Y691968D02*
D03*
X487000Y690000D02*
D03*
X490150Y688031D02*
D03*
X487000Y686063D02*
D03*
X490150Y684094D02*
D03*
X487000Y682126D02*
D03*
X490150Y680158D02*
D03*
X487000Y678189D02*
D03*
X490150Y676221D02*
D03*
X487000Y674252D02*
D03*
X490150Y672284D02*
D03*
X487000Y670315D02*
D03*
X490150Y668347D02*
D03*
X487000Y666378D02*
D03*
X490150Y664409D02*
D03*
X487000Y662441D02*
D03*
X490150Y660472D02*
D03*
X487000Y658504D02*
D03*
X490150Y656535D02*
D03*
X487000Y654567D02*
D03*
X490150Y652598D02*
D03*
X454716Y691968D02*
D03*
X457866Y690000D02*
D03*
X454716Y688031D02*
D03*
X457866Y686063D02*
D03*
X454716Y684094D02*
D03*
X457866Y682126D02*
D03*
X454716Y680158D02*
D03*
X457866Y678189D02*
D03*
X454716Y676221D02*
D03*
X457866Y674252D02*
D03*
X454716Y672284D02*
D03*
X457866Y670315D02*
D03*
X454716Y668347D02*
D03*
X457866Y666378D02*
D03*
X454716Y664409D02*
D03*
X457866Y662441D02*
D03*
X454716Y660472D02*
D03*
X457866Y658504D02*
D03*
X454716Y656535D02*
D03*
X457866Y654567D02*
D03*
X454716Y652598D02*
D03*
X640150Y691968D02*
D03*
X637000Y690000D02*
D03*
X640150Y688031D02*
D03*
X637000Y686063D02*
D03*
X640150Y684094D02*
D03*
X637000Y682126D02*
D03*
X640150Y680158D02*
D03*
X637000Y678189D02*
D03*
X640150Y676221D02*
D03*
X637000Y674252D02*
D03*
X640150Y672284D02*
D03*
X637000Y670315D02*
D03*
X640150Y668347D02*
D03*
X637000Y666378D02*
D03*
X640150Y664409D02*
D03*
X637000Y662441D02*
D03*
X640150Y660472D02*
D03*
X637000Y658504D02*
D03*
X640150Y656535D02*
D03*
X637000Y654567D02*
D03*
X640150Y652598D02*
D03*
X604716Y691968D02*
D03*
X607866Y690000D02*
D03*
X604716Y688031D02*
D03*
X607866Y686063D02*
D03*
X604716Y684094D02*
D03*
X607866Y682126D02*
D03*
X604716Y680158D02*
D03*
X607866Y678189D02*
D03*
X604716Y676221D02*
D03*
X607866Y674252D02*
D03*
X604716Y672284D02*
D03*
X607866Y670315D02*
D03*
X604716Y668347D02*
D03*
X607866Y666378D02*
D03*
X604716Y664409D02*
D03*
X607866Y662441D02*
D03*
X604716Y660472D02*
D03*
X607866Y658504D02*
D03*
X604716Y656535D02*
D03*
X607866Y654567D02*
D03*
X604716Y652598D02*
D03*
D51*
X190150Y648661D02*
D03*
X340150D02*
D03*
X490150D02*
D03*
X640150D02*
D03*
D52*
X186213D02*
D03*
X184244Y651811D02*
D03*
X182276Y648661D02*
D03*
X180307Y651811D02*
D03*
X178339Y648661D02*
D03*
X176370Y651811D02*
D03*
X174402Y648661D02*
D03*
X172433Y651811D02*
D03*
X168496D02*
D03*
X164559D02*
D03*
X162591Y648661D02*
D03*
X170465D02*
D03*
X166528D02*
D03*
X160622Y651811D02*
D03*
X158653Y648661D02*
D03*
X336213D02*
D03*
X334244Y651811D02*
D03*
X332276Y648661D02*
D03*
X330307Y651811D02*
D03*
X328339Y648661D02*
D03*
X326370Y651811D02*
D03*
X324402Y648661D02*
D03*
X322433Y651811D02*
D03*
X318496D02*
D03*
X314559D02*
D03*
X312591Y648661D02*
D03*
X320465D02*
D03*
X316528D02*
D03*
X310622Y651811D02*
D03*
X308653Y648661D02*
D03*
X486213D02*
D03*
X484244Y651811D02*
D03*
X482276Y648661D02*
D03*
X480307Y651811D02*
D03*
X478339Y648661D02*
D03*
X476370Y651811D02*
D03*
X474402Y648661D02*
D03*
X472433Y651811D02*
D03*
X468496D02*
D03*
X464559D02*
D03*
X462591Y648661D02*
D03*
X470465D02*
D03*
X466528D02*
D03*
X460622Y651811D02*
D03*
X458653Y648661D02*
D03*
X636213D02*
D03*
X634244Y651811D02*
D03*
X632276Y648661D02*
D03*
X630307Y651811D02*
D03*
X628339Y648661D02*
D03*
X626370Y651811D02*
D03*
X624402Y648661D02*
D03*
X622433Y651811D02*
D03*
X618496D02*
D03*
X614559D02*
D03*
X612591Y648661D02*
D03*
X620465D02*
D03*
X616528D02*
D03*
X610622Y651811D02*
D03*
X608653Y648661D02*
D03*
D53*
X154717D02*
D03*
X304716D02*
D03*
X454716D02*
D03*
X604716D02*
D03*
D54*
X132000Y643934D02*
D03*
X282000D02*
D03*
X432000D02*
D03*
X582000D02*
D03*
D55*
X137000D02*
D03*
X142000D02*
D03*
X147000D02*
D03*
Y672066D02*
D03*
X142000D02*
D03*
X137000D02*
D03*
X132000D02*
D03*
X287000Y643934D02*
D03*
X292000D02*
D03*
X297000D02*
D03*
Y672066D02*
D03*
X292000D02*
D03*
X287000D02*
D03*
X282000D02*
D03*
X437000Y643934D02*
D03*
X442000D02*
D03*
X447000D02*
D03*
Y672066D02*
D03*
X442000D02*
D03*
X437000D02*
D03*
X432000D02*
D03*
X587000Y643934D02*
D03*
X592000D02*
D03*
X597000D02*
D03*
Y672066D02*
D03*
X592000D02*
D03*
X587000D02*
D03*
X582000D02*
D03*
D56*
X140516Y626272D02*
D03*
Y628728D02*
D03*
X141500Y627500D02*
D03*
X142484Y626272D02*
D03*
Y628728D02*
D03*
X143468Y627500D02*
D03*
X144453Y626272D02*
D03*
Y628728D02*
D03*
X290516Y626272D02*
D03*
Y628728D02*
D03*
X291500Y627500D02*
D03*
X292484Y626272D02*
D03*
Y628728D02*
D03*
X293468Y627500D02*
D03*
X294453Y626272D02*
D03*
Y628728D02*
D03*
X440516Y626272D02*
D03*
Y628728D02*
D03*
X441500Y627500D02*
D03*
X442484Y626272D02*
D03*
Y628728D02*
D03*
X443469Y627500D02*
D03*
X444453Y626272D02*
D03*
Y628728D02*
D03*
X590516Y626272D02*
D03*
Y628728D02*
D03*
X591500Y627500D02*
D03*
X592484Y626272D02*
D03*
Y628728D02*
D03*
X593469Y627500D02*
D03*
X594453Y626272D02*
D03*
Y628728D02*
D03*
D57*
X433885Y150800D02*
D03*
X430145Y159265D02*
D03*
X437625D02*
D03*
X333885Y150800D02*
D03*
X330145Y159265D02*
D03*
X337625D02*
D03*
X233885Y150800D02*
D03*
X230145Y159265D02*
D03*
X237625D02*
D03*
X133885Y150800D02*
D03*
X130145Y159265D02*
D03*
X137625D02*
D03*
D58*
X423873Y192100D02*
D03*
Y225565D02*
D03*
X429385Y192100D02*
D03*
Y225565D02*
D03*
X323873Y192100D02*
D03*
Y225565D02*
D03*
X329385Y192100D02*
D03*
Y225565D02*
D03*
X223873Y192100D02*
D03*
Y225565D02*
D03*
X229385Y192100D02*
D03*
Y225565D02*
D03*
X123873Y192100D02*
D03*
Y225565D02*
D03*
X129385Y192100D02*
D03*
Y225565D02*
D03*
D59*
X432436Y201332D02*
D03*
Y202907D02*
D03*
Y204482D02*
D03*
Y206057D02*
D03*
Y207631D02*
D03*
Y209206D02*
D03*
Y210781D02*
D03*
Y212356D02*
D03*
Y213931D02*
D03*
Y215506D02*
D03*
X420822Y202159D02*
D03*
Y203734D02*
D03*
Y205309D02*
D03*
Y206884D02*
D03*
Y208458D02*
D03*
Y210033D02*
D03*
Y211608D02*
D03*
Y213183D02*
D03*
Y214757D02*
D03*
Y216332D02*
D03*
X332436Y201332D02*
D03*
Y202907D02*
D03*
Y204482D02*
D03*
Y206057D02*
D03*
Y207631D02*
D03*
Y209206D02*
D03*
Y210781D02*
D03*
Y212356D02*
D03*
Y213931D02*
D03*
Y215506D02*
D03*
X320822Y202159D02*
D03*
Y203734D02*
D03*
Y205309D02*
D03*
Y206884D02*
D03*
Y208458D02*
D03*
Y210033D02*
D03*
Y211608D02*
D03*
Y213183D02*
D03*
Y214757D02*
D03*
Y216332D02*
D03*
X232436Y201332D02*
D03*
Y202907D02*
D03*
Y204482D02*
D03*
Y206057D02*
D03*
Y207631D02*
D03*
Y209206D02*
D03*
Y210781D02*
D03*
Y212356D02*
D03*
Y213931D02*
D03*
Y215506D02*
D03*
X220822Y202159D02*
D03*
Y203734D02*
D03*
Y205309D02*
D03*
Y206884D02*
D03*
Y208458D02*
D03*
Y210033D02*
D03*
Y211608D02*
D03*
Y213183D02*
D03*
Y214757D02*
D03*
Y216332D02*
D03*
X132436Y201332D02*
D03*
Y202907D02*
D03*
Y204482D02*
D03*
Y206057D02*
D03*
Y207631D02*
D03*
Y209206D02*
D03*
Y210781D02*
D03*
Y212356D02*
D03*
Y213931D02*
D03*
Y215506D02*
D03*
X120822Y202159D02*
D03*
Y203734D02*
D03*
Y205309D02*
D03*
Y206884D02*
D03*
Y208458D02*
D03*
Y210033D02*
D03*
Y211608D02*
D03*
Y213183D02*
D03*
Y214757D02*
D03*
Y216332D02*
D03*
D60*
X418785Y157753D02*
D03*
Y151847D02*
D03*
X423985Y151900D02*
D03*
Y157806D02*
D03*
X318785Y157753D02*
D03*
Y151847D02*
D03*
X323985Y151900D02*
D03*
Y157806D02*
D03*
X218785Y157753D02*
D03*
Y151847D02*
D03*
X223985Y151900D02*
D03*
Y157806D02*
D03*
X118785Y157753D02*
D03*
Y151847D02*
D03*
X123985Y151900D02*
D03*
Y157806D02*
D03*
D61*
X431985Y181993D02*
D03*
Y178607D02*
D03*
X331985Y181993D02*
D03*
Y178607D02*
D03*
X231985Y181993D02*
D03*
Y178607D02*
D03*
X131985Y181993D02*
D03*
Y178607D02*
D03*
D62*
X438885Y177741D02*
D03*
Y183459D02*
D03*
X338885Y177741D02*
D03*
Y183459D02*
D03*
X238885Y177741D02*
D03*
Y183459D02*
D03*
X138885Y177741D02*
D03*
Y183459D02*
D03*
D63*
X425285Y166900D02*
D03*
Y170050D02*
D03*
X325285Y166900D02*
D03*
Y170050D02*
D03*
X225285Y166900D02*
D03*
Y170050D02*
D03*
X125285Y166900D02*
D03*
Y170050D02*
D03*
D64*
X445407Y172750D02*
D03*
X443438D02*
D03*
X441469D02*
D03*
X439501D02*
D03*
X437532D02*
D03*
X435563D02*
D03*
Y165050D02*
D03*
X437532D02*
D03*
X439501D02*
D03*
X441469D02*
D03*
X443438D02*
D03*
X445407D02*
D03*
X345408Y172750D02*
D03*
X343439D02*
D03*
X341470D02*
D03*
X339500D02*
D03*
X337531D02*
D03*
X335562D02*
D03*
Y165050D02*
D03*
X337531D02*
D03*
X339500D02*
D03*
X341470D02*
D03*
X343439D02*
D03*
X345408D02*
D03*
X245408Y172750D02*
D03*
X243439D02*
D03*
X241470D02*
D03*
X239500D02*
D03*
X237531D02*
D03*
X235562D02*
D03*
Y165050D02*
D03*
X237531D02*
D03*
X239500D02*
D03*
X241470D02*
D03*
X243439D02*
D03*
X245408D02*
D03*
X145407Y172750D02*
D03*
X143438D02*
D03*
X141470D02*
D03*
X139500D02*
D03*
X137531D02*
D03*
X135563D02*
D03*
Y165050D02*
D03*
X137531D02*
D03*
X139500D02*
D03*
X141470D02*
D03*
X143438D02*
D03*
X145407D02*
D03*
D65*
X440485Y168900D02*
D03*
X340485D02*
D03*
X240485D02*
D03*
X140485D02*
D03*
M02*
