M48
;Layer_Color=9474304
;FILE_FORMAT=2:5
INCH,LZ
;TYPE=PLATED
T1F00S00C0.00787
T2F00S00C0.00800
T3F00S00C0.01200
T4F00S00C0.01968
T5F00S00C0.02800
T6F00S00C0.03000
T7F00S00C0.03543
T8F00S00C0.05000
;TYPE=NON_PLATED
T9F00S00C0.03902
%
T01
X0500206Y0403155
X0500235Y0403135
X0504536Y0403155
X0504565Y0403135
Y0407465
X0504536Y0407486
X0500235Y0407465
X0500206Y0407486
X0650206
X0650235Y0407465
X0654536Y0407486
X0654565Y0407465
Y0403135
X0654536Y0403155
X0650235Y0403135
X0650206Y0403155
Y0553155
X0650235Y0553135
X0654536Y0553155
X0654565Y0553135
Y0557465
X0654536Y0557486
X0650235Y0557465
X0650206Y0557486
X0504565Y0557465
X0504536Y0557486
X0500235Y0557465
X0500206Y0557486
Y0553155
X0500235Y0553135
X0504536Y0553155
X0504565Y0553135
T02
X0117604Y0148054
X0133946Y014647
X0137861Y014549
X0140885Y01498
X0217604Y0148054
X0233946Y014647
X0237861Y014549
X0240885Y01498
X0317604Y0148054
X0333946Y014647
X0337861Y014549
X0340885Y01498
X0417604Y0148054
X0433946Y014647
X0437861Y014549
X0440885Y01498
X05215Y01435
X06315
X0627575Y0156276
X064Y0158
X0655
X066665Y01695
X066087Y0181225
X064261Y0173029
X063035Y0169203
X06315Y02535
X0627575Y0266276
X064Y0268
X0655
X066665Y02795
X066087Y0291225
X064261Y028303
X063035Y0279203
X055665Y02795
X055087Y0291225
X053261Y028303
X052035Y0279203
X0517575Y0266276
X053Y0268
X0545
X05215Y02535
X052035Y0169203
X0517575Y0156276
X053Y0158
X0545
X055665Y01695
X055087Y0181225
X053261Y0173029
X0451909Y0164792
X043434Y0163321
X0433551Y017017
X0433049Y0175369
X0424985Y01642
X0435443Y0156617
X0437785Y02034
X0437745Y0207594
X0437994Y020988
X0436392Y0215461
X0417024Y0216739
X0420485Y02257
X0417585Y02001
X0420428Y0192197
X0337785Y02034
X0337745Y0207594
X0337994Y020988
X0336392Y0215461
X0317023Y0216739
X0320485Y02257
X0317585Y02001
X0320428Y0192197
X0333049Y0175369
X0333551Y017017
X033434Y0163321
X0335443Y0156617
X0324985Y01642
X0351909Y0164792
X0251909
X023434Y0163321
X0233551Y017017
X0233049Y0175369
X0224985Y01642
X0235443Y0156617
X0237785Y02034
X0237745Y0207594
X0237994Y020988
X0236392Y0215461
X0217023Y0216739
X0220485Y02257
X0217585Y02001
X0220428Y0192197
X0137785Y02034
X0137745Y0207594
X0137994Y020988
X0136392Y0215461
X0117024Y0216739
X0120485Y02257
X0117585Y02001
X0120428Y0192197
X0133049Y0175369
X0133551Y017017
X013434Y0163321
X0135443Y0156617
X0124985Y01642
X0151909Y0164792
X0156212Y0327819
X0161187Y03277
X0159731Y0320339
X0165819Y0317457
X0168113Y0317392
X0170319Y0317457
X0172519
X0175019
X0175122Y0337408
X0176964Y033861
X0173356Y033872
X017198Y0337003
X0168855Y0337182
X0166837Y0338058
X016448Y0338055
X0170386Y0338843
X0180579Y0337745
X0185346Y0327819
X0306212
X0311187Y03277
X0309731Y0320339
X0170779Y0443174
Y0467977
X0320779
Y0443174
X0320386Y0338843
X0323356Y033872
X0325122Y0337408
X0326964Y033861
X0330579Y0337745
X032198Y0337003
X0318855Y0337182
X0316837Y0338058
X031448Y0338055
X0315819Y0317457
X0318113Y0317392
X0320319Y0317457
X0322519
X0325019
X0335346Y0327819
X04686Y03625
X04737Y03704
X04881Y03726
X04926Y03617
X04973Y0387278
X0503788Y0387413
X04957Y0396
X0488091Y0409553
X0501121Y0417
X05145Y04052
X06237Y03704
X06186Y03625
X06426Y03617
X06381Y03726
X06473Y0387278
X0653788Y0387413
X06457Y0396
X0638091Y0409553
X0651121Y0417
X06645Y04052
X06426Y05117
X06381Y05226
X06473Y0537278
X0653788Y0537413
X06457Y0546
X0638091Y0559553
X0651121Y0567
X06645Y05552
X0664Y06185
X0637635Y0619259
X06237Y05204
X06186Y05125
X04926Y05117
X04881Y05226
X04737Y05204
X04973Y0537278
X0503788Y0537413
X04957Y0546
X0488091Y0559553
X0501121Y0567
X05145Y05552
X0514Y06185
X0487635Y0619259
X0364Y06185
X0337635Y0619259
X0331803Y0525063
X0331015Y0522307
X0323929Y0527032
X0321378Y0527388
X0319154Y052717
X0316963Y052737
X0316055Y0506166
X0318811Y0505772
X0320853Y0504955
X0320914Y0501482
X0319992Y0499473
X0324443Y0504197
X0323141Y0506559
X0326291
X0329047Y0510496
X0340071Y0516796
X0318417Y0488449
Y0480575
X031469Y0475065
X0322161Y0470316
X04686Y05125
X0311724Y051089
X0312118Y0524276
X0308181Y0521914
X0301094Y0516796
X019007
X0181015Y0522307
X0181803Y0525063
X0173929Y0527032
X0171378Y0527388
X0169154Y052717
X0166963Y052737
X0162118Y0524276
X0158181Y0521914
X0161724Y051089
X0166055Y0506166
X0168811Y0505772
X0170853Y0504955
X0170914Y0501482
X0169992Y0499473
X0174443Y0504197
X0173141Y0506559
X0176291
X0179047Y0510496
X0168417Y0488449
Y0480575
X016469Y0475065
X0172161Y0470316
X0187635Y0619259
X0214Y06185
X0151094Y0516796
X0146Y06275
X01545Y0634
X0151528Y0645472
X01335Y06395
X0136Y0633
X0138282Y0678786
X0145Y06835
X01465Y06945
X01605Y069
X01625Y06859
X0165Y06925
X0171Y06845
X0170491Y0680009
X01715Y0676
Y06675
X0181Y067
X01835Y06805
X01955Y06825
X01985Y0677
X0199Y0674
X0202Y06665
X0195217Y0666583
X0214Y0673
X0209Y0637
X0203Y06375
X0189Y06425
X018Y0642
X0176Y06455
X0166914Y0645117
X0168214Y0643342
X0167128Y0634357
X0170728Y0634996
X017045Y0632651
X01655Y06275
X0158976Y064116
X01615Y06545
X0164617Y0654409
X0166979Y0656141
X01725Y0654
X0161Y06745
X0190634Y0693995
X02965Y06945
X0295Y06835
X0288282Y0678786
X0311Y06745
X03105Y069
X03115Y06545
X0308976Y064116
X03045Y0634
X0301528Y0645472
X0296Y06275
X0286Y0633
X02835Y06395
X0318214Y0643342
X0316915Y0645117
X0326Y06455
X033Y0642
X0339Y06425
X0353Y06375
X0359Y0637
X0352Y06665
X0345217Y0666583
X0349Y0674
X03485Y0677
X03455Y06825
X03335Y06805
X0331Y067
X03215Y06675
Y0676
X0320491Y0680009
X0321Y06845
X03125Y06859
X0315Y06925
X0340634Y0693995
X0364Y0673
X03225Y0654
X0316979Y0656141
X0314617Y0654409
X0317128Y0634357
X0320728Y0634996
X032045Y0632651
X03155Y06275
X0436Y0633
X04335Y06395
X0451528Y0645472
X0458976Y064116
X0468214Y0643342
X0466915Y0645117
X0467128Y0634357
X04655Y06275
X04545Y0634
X0446Y06275
X04615Y06545
X0464617Y0654409
X0466979Y0656141
X0461Y06745
X04625Y06859
X04605Y069
X0465Y06925
X04465Y06945
X0445Y06835
X0438282Y0678786
X0470491Y0680009
X0471Y06845
X04715Y0676
Y06675
X0481Y067
X04835Y06805
X04955Y06825
X04985Y0677
X0499Y0674
X0502Y06665
X0495217Y0666583
X0514Y0673
X0509Y0637
X0503Y06375
X0489Y06425
X048Y0642
X0476Y06455
X04725Y0654
X0470728Y0634996
X047045Y0632651
X0490634Y0693995
X05965Y06945
X0595Y06835
X0588282Y0678786
X0611Y06745
X06215Y0676
X0620491Y0680009
X0621Y06845
X06125Y06859
X06105Y069
X0615Y06925
X06215Y06675
X06225Y0654
X0616979Y0656141
X0614617Y0654409
X06115Y06545
X0616915Y0645117
X0618214Y0643342
X0617128Y0634357
X0620728Y0634996
X062045Y0632651
X06155Y06275
X06045Y0634
X0608976Y064116
X0601528Y0645472
X0596Y06275
X0586Y0633
X05835Y06395
X0626Y06455
X063Y0642
X0639Y06425
X0653Y06375
X0659Y0637
X0652Y06665
X0645217Y0666583
X0649Y0674
X06485Y0677
X06455Y06825
X06335Y06805
X0631Y067
X0640634Y0693995
X0664Y0673
T03
X06285Y06195
X0601Y0622
X04785Y06195
X0451Y0622
X03285Y06195
X0301Y0622
X01785Y06195
X0151Y0622
X0152Y06825
Y06857
X01695Y066
X018Y0656
X01935Y0653
X0203Y06325
X01645Y0645
X0302Y06825
Y06857
X03195Y066
X033Y0656
X03435Y0653
X0353Y06325
X03145Y0645
X04645
X0452Y06825
Y06857
X04695Y066
X048Y0656
X04935Y0653
X0503Y06325
X06145Y0645
X06195Y066
X0602Y06825
Y06857
X063Y0656
X06435Y0653
X0653Y06325
T04
X0126885Y01408
X0132585Y01409
X0226885Y01408
X0232585Y01409
X0326885Y01408
X0332585Y01409
X0426885Y01408
X0432585Y01409
X0533Y01235
X05405
X0643
X06505
X065Y01905
X06695Y01765
X0627Y0177
X0643Y02335
X06505
X065Y03005
X06695Y02865
X0627Y0287
X05595Y02865
X054Y03005
X0517Y0287
X0533Y02335
X05405
X054Y01905
X05595Y01765
X0517Y0177
X0447885Y01878
X0417885Y01748
X0419385Y01626
X0347885Y01878
X0317885Y01748
X0319385Y01626
X0247885Y01878
X0217885Y01748
X0219385Y01626
X0147885Y01878
X0117885Y01748
X0119385Y01626
X04541Y03775
X04549Y04204
X0459
X05026Y0422
X0508Y04222
X05213Y04022
Y03965
X05211Y0389
Y03826
X05213Y03743
X04978Y03808
X06041Y03775
X06049Y04204
X0609
X06526Y0422
X0658Y04222
X06713Y04022
Y03965
X06711Y0389
Y03826
X06713Y03743
X06478Y03808
Y05308
X06711Y05326
Y0539
X06713Y05465
Y05522
Y05243
X0658Y05722
X06526Y0572
X0609Y05704
X06049
X06041Y05275
X05213Y05243
X05211Y05326
Y0539
X05213Y05465
Y05522
X0508Y05722
X05026Y0572
X04978Y05308
X0584Y06185
X0588
X0593
X05968
X04468
X0443
X0438
X0434
X04549Y05704
X0459
X04541Y05275
X02968Y06185
X0293
X0288
X0284
X01468
X0143
X0138
X0134
X0125Y0635
Y0639
Y0643
Y0647
Y06525
Y06565
Y06605
Y06655
Y06695
Y06735
Y068
Y0684
Y0688
Y0692
X0134Y06865
X01395
X02195Y06845
Y06885
Y06765
Y06725
X0201591Y06595
X0197
X0275Y06605
Y06565
Y06525
Y0647
Y0643
Y0639
Y0635
Y06655
Y06695
Y06735
Y068
Y0684
Y0688
Y0692
X0284Y06865
X02895
X03695Y06845
Y06885
Y06765
Y06725
X035159Y06595
X0347
X0425Y06605
Y06565
Y06525
Y0647
Y0643
Y0639
Y0635
Y06655
Y06695
Y06735
Y068
Y0684
Y0688
Y0692
X0434Y06865
X04395
X05195Y06845
Y06885
Y06765
Y06725
X050159Y06595
X0497
X0575Y06605
Y06565
Y06525
Y0647
Y0643
Y0639
Y0635
Y06655
Y06695
Y06735
Y068
Y0684
Y0688
Y0692
X0584Y06865
X05895
X06695Y06845
Y06885
Y06765
Y06725
X065159Y06595
X0647
T05
X05585Y01405
X06685
Y02505
X05585
X05128Y03875
X06628
Y05375
X05128
T06
X05355Y01175
X054
X05445
X05665Y015
Y01545
X06205Y0154
Y01495
X05105Y015
Y01545
X06765
Y015
X0655Y01175
X06505
X0646
X06765Y0159
X0655Y01975
X06505
X0646
Y02275
X06505
X0655
X06765Y0262
Y02665
Y0271
X0655Y03075
X06505
X0646
X06205Y0271
Y02665
Y0262
X05665
Y02665
Y0271
X05105Y02705
Y0266
Y02615
X05355Y02275
X054
X05445
Y01975
X054
X05355
X05105Y0159
X05665
X06205Y01585
X05445Y03075
X054
X05355
X04555Y0184
Y01795
Y0175
X0413
Y01795
Y0184
X03555
Y01795
Y0175
X0313
Y01795
Y0184
X02555
Y01795
Y0175
X0213
Y01795
Y0184
X01555
Y01795
Y0175
X0113
Y01795
Y0184
X012Y03805
Y0385
Y03895
X02215
Y0385
Y03805
X027
Y0385
Y03895
X03715
Y0385
Y03805
X04485Y0381
Y03855
Y039
X04815Y0426
X0486
X04905
X05265Y039
Y03855
Y0381
X04905Y03485
X0486
X04815
X05985Y0381
Y03855
Y039
X0635Y04265
X06395
X0644
X06765Y039
Y03855
Y0381
X0644Y03485
X06395
X0635
Y04985
X06395
X0644
X06765Y05295
Y0534
Y05385
X0644Y05765
X06395
X0635
X063Y0614
X06255
X0621
X05985Y0538
Y05335
Y0529
X05265Y05295
Y0534
Y05385
X04905Y0576
X0486
X04815
X0474Y0614
X04695
X04815Y04985
X0486
X04905
X04485Y05295
Y0534
Y05385
X0465Y0614
X03245
X032
X03155
X03715Y04895
Y0485
Y04805
X027
Y0485
Y04895
X02215
Y0485
Y04805
X01735Y0614
X0169
X01645
X012Y04895
Y0485
Y04805
X0115Y0649
Y06535
Y0658
X01645Y06975
X0169
X01735
X0228Y0658
Y06535
Y0649
X0265
Y06535
Y0658
X03155Y06975
X032
X03245
X0378Y0658
Y06535
Y0649
X0415
Y06535
Y0658
X0465Y06975
X04695
X0474
X0528009Y0657979
Y0653479
Y0648979
X0565Y0649
Y06535
Y0658
X0621Y06975
X06255
X063
X0678Y0658
Y06535
Y0649
T07
X0163929Y0387583
X0173929
Y0397583
X0163929
Y0407583
X0173929
Y0417583
X0163929
Y0427583
X0173929
Y0437583
X0163929
Y0447583
X0173929
Y0457583
X0163929
X0313929
Y0447583
Y0437583
Y0427583
Y0417583
Y0407583
Y0397583
Y0387583
X0323929
Y0397583
Y0407583
Y0417583
Y0427583
Y0437583
Y0447583
Y0457583
T08
X04571Y03708
X05106
X06071
X06606
Y05208
X06071
X05106
X04571
T09
X0206Y0664
X0202Y0684
X021
X0352
X036
X0356Y0664
X0506
X0502Y0684
X051
X0652
X066
X0656Y0664
M30
