G04*
G04 #@! TF.GenerationSoftware,Altium Limited,Altium Designer,21.9.1 (22)*
G04*
G04 Layer_Color=16711935*
%FSLAX25Y25*%
%MOIN*%
G70*
G04*
G04 #@! TF.SameCoordinates,13B4354E-90E4-473D-AD5A-126374568DC2*
G04*
G04*
G04 #@! TF.FilePolarity,Negative*
G04*
G01*
G75*
%ADD11R,0.03985X0.04758*%
%ADD16R,0.13500X0.09500*%
%ADD17R,0.01575X0.01968*%
%ADD18R,0.02423X0.02254*%
%ADD66C,0.03000*%
%ADD69C,0.01800*%
%ADD70C,0.05000*%
%ADD74C,0.02200*%
%ADD75R,0.09500X0.13500*%
%ADD79R,0.02648X0.01860*%
%ADD89O,0.03950X0.01981*%
%ADD90O,0.01981X0.03950*%
%ADD91R,0.11351X0.11351*%
%ADD92R,0.03950X0.04540*%
%ADD107C,0.03556*%
%ADD108C,0.02769*%
%ADD109R,0.06706X0.06706*%
%ADD110C,0.06706*%
%ADD111C,0.04702*%
%ADD112R,0.02375X0.05131*%
%ADD113R,0.01784X0.05131*%
%ADD114C,0.03898*%
%ADD115R,0.08280X0.05918*%
%ADD116R,0.05131X0.01784*%
%ADD117R,0.05131X0.02375*%
D11*
X458400Y402143D02*
D03*
Y408457D02*
D03*
X608400Y402143D02*
D03*
Y408457D02*
D03*
X458400Y552143D02*
D03*
Y558457D02*
D03*
X608400Y552143D02*
D03*
Y558457D02*
D03*
D16*
X477100Y390500D02*
D03*
Y413500D02*
D03*
X627100Y390500D02*
D03*
Y413500D02*
D03*
X477100Y540500D02*
D03*
Y563500D02*
D03*
X627100Y540500D02*
D03*
Y563500D02*
D03*
D17*
X516825Y413500D02*
D03*
X519975D02*
D03*
X666825D02*
D03*
X669975D02*
D03*
X516825Y563500D02*
D03*
X519975D02*
D03*
X666825D02*
D03*
X669975D02*
D03*
D18*
X493313Y417200D02*
D03*
X496687D02*
D03*
X643313D02*
D03*
X646687D02*
D03*
X493313Y567200D02*
D03*
X496687D02*
D03*
X643313D02*
D03*
X646687D02*
D03*
D66*
X371500Y480500D02*
D03*
Y485000D02*
D03*
Y489500D02*
D03*
Y380500D02*
D03*
Y385000D02*
D03*
Y389500D02*
D03*
X270000Y380500D02*
D03*
Y385000D02*
D03*
Y389500D02*
D03*
X221500Y380500D02*
D03*
Y385000D02*
D03*
Y389500D02*
D03*
X270000Y480500D02*
D03*
Y485000D02*
D03*
Y489500D02*
D03*
X221500Y480500D02*
D03*
Y485000D02*
D03*
Y489500D02*
D03*
X120000Y480500D02*
D03*
Y485000D02*
D03*
Y489500D02*
D03*
Y380500D02*
D03*
Y385000D02*
D03*
Y389500D02*
D03*
X113000Y175000D02*
D03*
Y179500D02*
D03*
Y184000D02*
D03*
X155500Y175000D02*
D03*
Y179500D02*
D03*
Y184000D02*
D03*
X213000Y175000D02*
D03*
Y179500D02*
D03*
Y184000D02*
D03*
X255500Y175000D02*
D03*
Y179500D02*
D03*
Y184000D02*
D03*
X313000Y175000D02*
D03*
Y179500D02*
D03*
Y184000D02*
D03*
X355500Y175000D02*
D03*
Y179500D02*
D03*
Y184000D02*
D03*
X413000Y175000D02*
D03*
Y179500D02*
D03*
Y184000D02*
D03*
X455500Y175000D02*
D03*
Y179500D02*
D03*
Y184000D02*
D03*
X510500Y261500D02*
D03*
Y266000D02*
D03*
Y270500D02*
D03*
X566500Y262000D02*
D03*
Y266500D02*
D03*
Y271000D02*
D03*
X544500Y307500D02*
D03*
X540000D02*
D03*
X535500D02*
D03*
X544500Y227500D02*
D03*
X540000D02*
D03*
X535500D02*
D03*
X544500Y197500D02*
D03*
X540000D02*
D03*
X535500D02*
D03*
X544500Y117500D02*
D03*
X540000D02*
D03*
X535500D02*
D03*
X510500Y150000D02*
D03*
Y154500D02*
D03*
Y159000D02*
D03*
X566500Y150000D02*
D03*
Y154500D02*
D03*
Y159000D02*
D03*
X655000Y117500D02*
D03*
X650500D02*
D03*
X646000D02*
D03*
X620500Y149500D02*
D03*
Y154000D02*
D03*
Y158500D02*
D03*
X676500Y150000D02*
D03*
Y154500D02*
D03*
Y159000D02*
D03*
X655000Y197500D02*
D03*
X650500D02*
D03*
X646000D02*
D03*
X655000Y227500D02*
D03*
X650500D02*
D03*
X646000D02*
D03*
X620500Y262000D02*
D03*
Y266500D02*
D03*
Y271000D02*
D03*
X676500Y262000D02*
D03*
Y266500D02*
D03*
Y271000D02*
D03*
X655000Y307500D02*
D03*
X650500D02*
D03*
X646000D02*
D03*
X644000Y348500D02*
D03*
X639500D02*
D03*
X635000D02*
D03*
X676500Y381000D02*
D03*
Y385500D02*
D03*
Y390000D02*
D03*
X644000Y426500D02*
D03*
X639500D02*
D03*
X635000D02*
D03*
X598500Y381000D02*
D03*
Y385500D02*
D03*
Y390000D02*
D03*
X448500Y381000D02*
D03*
Y385500D02*
D03*
Y390000D02*
D03*
X490500Y348500D02*
D03*
X486000D02*
D03*
X481500D02*
D03*
X526500Y381000D02*
D03*
Y385500D02*
D03*
Y390000D02*
D03*
X490500Y426000D02*
D03*
X486000D02*
D03*
X481500D02*
D03*
X644000Y498500D02*
D03*
X639500D02*
D03*
X635000D02*
D03*
X676500Y529500D02*
D03*
Y534000D02*
D03*
Y538500D02*
D03*
X644000Y576500D02*
D03*
X639500D02*
D03*
X635000D02*
D03*
X598500Y529000D02*
D03*
Y533500D02*
D03*
Y538000D02*
D03*
X490500Y498500D02*
D03*
X486000D02*
D03*
X481500D02*
D03*
X526500Y529500D02*
D03*
Y534000D02*
D03*
Y538500D02*
D03*
X448500Y529500D02*
D03*
Y534000D02*
D03*
Y538500D02*
D03*
X490500Y576000D02*
D03*
X486000D02*
D03*
X481500D02*
D03*
X378000Y649000D02*
D03*
Y653500D02*
D03*
Y658000D02*
D03*
X265000Y649000D02*
D03*
Y653500D02*
D03*
Y658000D02*
D03*
X228000Y649000D02*
D03*
Y653500D02*
D03*
Y658000D02*
D03*
X115000Y649000D02*
D03*
Y653500D02*
D03*
Y658000D02*
D03*
X173500Y614000D02*
D03*
X169000D02*
D03*
X164500D02*
D03*
X324500D02*
D03*
X320000D02*
D03*
X315500D02*
D03*
X173500Y697500D02*
D03*
X169000D02*
D03*
X164500D02*
D03*
X324500D02*
D03*
X320000D02*
D03*
X315500D02*
D03*
X630000Y614000D02*
D03*
X625500D02*
D03*
X621000D02*
D03*
X678000Y649000D02*
D03*
Y653500D02*
D03*
Y658000D02*
D03*
X630000Y697500D02*
D03*
X625500D02*
D03*
X621000D02*
D03*
X565000Y649000D02*
D03*
Y653500D02*
D03*
Y658000D02*
D03*
X474000Y614000D02*
D03*
X469500D02*
D03*
X465000D02*
D03*
X474000Y697500D02*
D03*
X469500D02*
D03*
X465000D02*
D03*
X528009Y648979D02*
D03*
Y653479D02*
D03*
Y657979D02*
D03*
X415000Y658000D02*
D03*
Y653500D02*
D03*
Y649000D02*
D03*
X151000Y622000D02*
D03*
X178500Y619500D02*
D03*
X301000Y622000D02*
D03*
X328500Y619500D02*
D03*
X451000Y622000D02*
D03*
X478500Y619500D02*
D03*
X601000Y622000D02*
D03*
X628500Y619500D02*
D03*
D69*
X488091Y409553D02*
D03*
X495700Y396000D02*
D03*
X497300Y387278D02*
D03*
X503788Y387413D02*
D03*
X514500Y405200D02*
D03*
X501121Y417000D02*
D03*
X492600Y361700D02*
D03*
X468600Y362500D02*
D03*
X488100Y372600D02*
D03*
X473700Y370400D02*
D03*
X638091Y409553D02*
D03*
X645700Y396000D02*
D03*
X647300Y387278D02*
D03*
X653788Y387413D02*
D03*
X664500Y405200D02*
D03*
X651121Y417000D02*
D03*
X642600Y361700D02*
D03*
X618600Y362500D02*
D03*
X638100Y372600D02*
D03*
X623700Y370400D02*
D03*
X488091Y559553D02*
D03*
X495700Y546000D02*
D03*
X497300Y537278D02*
D03*
X503788Y537413D02*
D03*
X514500Y555200D02*
D03*
X501121Y567000D02*
D03*
X492600Y511700D02*
D03*
X468600Y512500D02*
D03*
X488100Y522600D02*
D03*
X473700Y520400D02*
D03*
X638091Y559553D02*
D03*
X645700Y546000D02*
D03*
X647300Y537278D02*
D03*
X653788Y537413D02*
D03*
X664500Y555200D02*
D03*
X651121Y567000D02*
D03*
X642600Y511700D02*
D03*
X618600Y512500D02*
D03*
X638100Y522600D02*
D03*
X623700Y520400D02*
D03*
X322161Y470316D02*
D03*
X314690Y475065D02*
D03*
X172161Y470316D02*
D03*
X164690Y475065D02*
D03*
X550870Y181225D02*
D03*
X532610Y173029D02*
D03*
X556650Y169500D02*
D03*
X520350Y169203D02*
D03*
X517575Y156276D02*
D03*
X521500Y143500D02*
D03*
X530000Y158000D02*
D03*
X545000D02*
D03*
X660870Y181225D02*
D03*
X642610Y173029D02*
D03*
X666650Y169500D02*
D03*
X630350Y169203D02*
D03*
X627575Y156276D02*
D03*
X631500Y143500D02*
D03*
X640000Y158000D02*
D03*
X655000D02*
D03*
X550870Y291225D02*
D03*
X532610Y283030D02*
D03*
X556650Y279500D02*
D03*
X520350Y279203D02*
D03*
X517575Y266276D02*
D03*
X521500Y253500D02*
D03*
X530000Y268000D02*
D03*
X545000D02*
D03*
X660870Y291225D02*
D03*
X642610Y283030D02*
D03*
X666650Y279500D02*
D03*
X630350Y279203D02*
D03*
X627575Y266276D02*
D03*
X631500Y253500D02*
D03*
X640000Y268000D02*
D03*
X655000D02*
D03*
X154500Y634000D02*
D03*
X166914Y645117D02*
D03*
X168214Y643342D02*
D03*
X180000Y642000D02*
D03*
X170728Y634996D02*
D03*
X167128Y634357D02*
D03*
X187635Y619259D02*
D03*
X165500Y627500D02*
D03*
X171000Y684500D02*
D03*
X170491Y680009D02*
D03*
X171500Y676000D02*
D03*
Y667500D02*
D03*
X170450Y632651D02*
D03*
X172500Y654000D02*
D03*
X198500Y677000D02*
D03*
X202000Y666500D02*
D03*
X214000Y673000D02*
D03*
X146500Y694500D02*
D03*
X138282Y678786D02*
D03*
X145000Y683500D02*
D03*
X162500Y685900D02*
D03*
X165000Y692500D02*
D03*
X160500Y690000D02*
D03*
X183500Y680500D02*
D03*
X195217Y666583D02*
D03*
X195500Y682500D02*
D03*
X161000Y674500D02*
D03*
X199000Y674000D02*
D03*
X164617Y654409D02*
D03*
X161500Y654500D02*
D03*
X166979Y656141D02*
D03*
X214000Y618500D02*
D03*
X209000Y637000D02*
D03*
X189000Y642500D02*
D03*
X190634Y693995D02*
D03*
X203000Y637500D02*
D03*
X181000Y670000D02*
D03*
X158976Y641160D02*
D03*
X176000Y645500D02*
D03*
X133500Y639500D02*
D03*
X151528Y645472D02*
D03*
X136000Y633000D02*
D03*
X146000Y627500D02*
D03*
X304500Y634000D02*
D03*
X316915Y645117D02*
D03*
X318214Y643342D02*
D03*
X330000Y642000D02*
D03*
X320728Y634996D02*
D03*
X317128Y634357D02*
D03*
X337635Y619259D02*
D03*
X315500Y627500D02*
D03*
X321000Y684500D02*
D03*
X320491Y680009D02*
D03*
X321500Y676000D02*
D03*
Y667500D02*
D03*
X320450Y632651D02*
D03*
X322500Y654000D02*
D03*
X348500Y677000D02*
D03*
X352000Y666500D02*
D03*
X364000Y673000D02*
D03*
X296500Y694500D02*
D03*
X288282Y678786D02*
D03*
X295000Y683500D02*
D03*
X312500Y685900D02*
D03*
X315000Y692500D02*
D03*
X310500Y690000D02*
D03*
X333500Y680500D02*
D03*
X345217Y666583D02*
D03*
X345500Y682500D02*
D03*
X311000Y674500D02*
D03*
X349000Y674000D02*
D03*
X314617Y654409D02*
D03*
X311500Y654500D02*
D03*
X316979Y656141D02*
D03*
X364000Y618500D02*
D03*
X359000Y637000D02*
D03*
X339000Y642500D02*
D03*
X340634Y693995D02*
D03*
X353000Y637500D02*
D03*
X331000Y670000D02*
D03*
X308976Y641160D02*
D03*
X326000Y645500D02*
D03*
X283500Y639500D02*
D03*
X301528Y645472D02*
D03*
X286000Y633000D02*
D03*
X296000Y627500D02*
D03*
X454500Y634000D02*
D03*
X466915Y645117D02*
D03*
X468214Y643342D02*
D03*
X480000Y642000D02*
D03*
X470728Y634996D02*
D03*
X467128Y634357D02*
D03*
X487635Y619259D02*
D03*
X465500Y627500D02*
D03*
X471000Y684500D02*
D03*
X470491Y680009D02*
D03*
X471500Y676000D02*
D03*
Y667500D02*
D03*
X470450Y632651D02*
D03*
X472500Y654000D02*
D03*
X498500Y677000D02*
D03*
X502000Y666500D02*
D03*
X514000Y673000D02*
D03*
X446500Y694500D02*
D03*
X438282Y678786D02*
D03*
X445000Y683500D02*
D03*
X462500Y685900D02*
D03*
X465000Y692500D02*
D03*
X460500Y690000D02*
D03*
X483500Y680500D02*
D03*
X495217Y666583D02*
D03*
X495500Y682500D02*
D03*
X461000Y674500D02*
D03*
X499000Y674000D02*
D03*
X464617Y654409D02*
D03*
X461500Y654500D02*
D03*
X466979Y656141D02*
D03*
X514000Y618500D02*
D03*
X509000Y637000D02*
D03*
X489000Y642500D02*
D03*
X490634Y693995D02*
D03*
X503000Y637500D02*
D03*
X481000Y670000D02*
D03*
X458976Y641160D02*
D03*
X476000Y645500D02*
D03*
X433500Y639500D02*
D03*
X451528Y645472D02*
D03*
X436000Y633000D02*
D03*
X446000Y627500D02*
D03*
X604500Y634000D02*
D03*
X616915Y645117D02*
D03*
X618214Y643342D02*
D03*
X630000Y642000D02*
D03*
X620728Y634996D02*
D03*
X617128Y634357D02*
D03*
X637635Y619259D02*
D03*
X615500Y627500D02*
D03*
X621000Y684500D02*
D03*
X620491Y680009D02*
D03*
X621500Y676000D02*
D03*
Y667500D02*
D03*
X620450Y632651D02*
D03*
X622500Y654000D02*
D03*
X648500Y677000D02*
D03*
X652000Y666500D02*
D03*
X664000Y673000D02*
D03*
X596500Y694500D02*
D03*
X588282Y678786D02*
D03*
X595000Y683500D02*
D03*
X612500Y685900D02*
D03*
X615000Y692500D02*
D03*
X610500Y690000D02*
D03*
X633500Y680500D02*
D03*
X645217Y666583D02*
D03*
X645500Y682500D02*
D03*
X611000Y674500D02*
D03*
X649000Y674000D02*
D03*
X614617Y654409D02*
D03*
X611500Y654500D02*
D03*
X616979Y656141D02*
D03*
X664000Y618500D02*
D03*
X659000Y637000D02*
D03*
X639000Y642500D02*
D03*
X640634Y693995D02*
D03*
X653000Y637500D02*
D03*
X631000Y670000D02*
D03*
X608976Y641160D02*
D03*
X626000Y645500D02*
D03*
X583500Y639500D02*
D03*
X601528Y645472D02*
D03*
X586000Y633000D02*
D03*
X596000Y627500D02*
D03*
X417604Y148054D02*
D03*
X440885Y149800D02*
D03*
X435443Y156617D02*
D03*
X437785Y203400D02*
D03*
X420485Y225700D02*
D03*
X420428Y192197D02*
D03*
X417585Y200100D02*
D03*
X417024Y216739D02*
D03*
X436392Y215461D02*
D03*
X437994Y209880D02*
D03*
X437745Y207594D02*
D03*
X434340Y163321D02*
D03*
X433551Y170170D02*
D03*
X451909Y164792D02*
D03*
X433049Y175369D02*
D03*
X424985Y164200D02*
D03*
X433946Y146470D02*
D03*
X437861Y145490D02*
D03*
X317604Y148054D02*
D03*
X340885Y149800D02*
D03*
X335443Y156617D02*
D03*
X337785Y203400D02*
D03*
X320485Y225700D02*
D03*
X320428Y192197D02*
D03*
X317585Y200100D02*
D03*
X317023Y216739D02*
D03*
X336392Y215461D02*
D03*
X337994Y209880D02*
D03*
X337745Y207594D02*
D03*
X334340Y163321D02*
D03*
X333551Y170170D02*
D03*
X351909Y164792D02*
D03*
X333049Y175369D02*
D03*
X324985Y164200D02*
D03*
X333946Y146470D02*
D03*
X337861Y145490D02*
D03*
X217604Y148054D02*
D03*
X240885Y149800D02*
D03*
X235443Y156617D02*
D03*
X237785Y203400D02*
D03*
X220485Y225700D02*
D03*
X220428Y192197D02*
D03*
X217585Y200100D02*
D03*
X217023Y216739D02*
D03*
X236392Y215461D02*
D03*
X237994Y209880D02*
D03*
X237745Y207594D02*
D03*
X234340Y163321D02*
D03*
X233551Y170170D02*
D03*
X251909Y164792D02*
D03*
X233049Y175369D02*
D03*
X224985Y164200D02*
D03*
X233946Y146470D02*
D03*
X237861Y145490D02*
D03*
X117604Y148054D02*
D03*
X140885Y149800D02*
D03*
X135443Y156617D02*
D03*
X137785Y203400D02*
D03*
X120485Y225700D02*
D03*
X120428Y192197D02*
D03*
X117585Y200100D02*
D03*
X117024Y216739D02*
D03*
X136392Y215461D02*
D03*
X137994Y209880D02*
D03*
X137745Y207594D02*
D03*
X134340Y163321D02*
D03*
X133551Y170170D02*
D03*
X151909Y164792D02*
D03*
X133049Y175369D02*
D03*
X124985Y164200D02*
D03*
X133946Y146470D02*
D03*
X137861Y145490D02*
D03*
D70*
X512800Y387500D02*
D03*
X510600Y370800D02*
D03*
X457100D02*
D03*
X662800Y387500D02*
D03*
X660600Y370800D02*
D03*
X607100D02*
D03*
X512800Y537500D02*
D03*
X510600Y520800D02*
D03*
X457100D02*
D03*
X662800Y537500D02*
D03*
X660600Y520800D02*
D03*
X607100D02*
D03*
X558500Y140500D02*
D03*
X668500D02*
D03*
X558500Y250500D02*
D03*
X668500D02*
D03*
D74*
X164500Y645000D02*
D03*
X169500Y660000D02*
D03*
X152000Y685700D02*
D03*
X180000Y656000D02*
D03*
X193500Y653000D02*
D03*
X203000Y632500D02*
D03*
X152000Y682500D02*
D03*
X314500Y645000D02*
D03*
X319500Y660000D02*
D03*
X302000Y685700D02*
D03*
X330000Y656000D02*
D03*
X343500Y653000D02*
D03*
X353000Y632500D02*
D03*
X302000Y682500D02*
D03*
X464500Y645000D02*
D03*
X469500Y660000D02*
D03*
X452000Y685700D02*
D03*
X480000Y656000D02*
D03*
X493500Y653000D02*
D03*
X503000Y632500D02*
D03*
X452000Y682500D02*
D03*
X614500Y645000D02*
D03*
X619500Y660000D02*
D03*
X602000Y685700D02*
D03*
X630000Y656000D02*
D03*
X643500Y653000D02*
D03*
X653000Y632500D02*
D03*
X602000Y682500D02*
D03*
D75*
X491102Y370859D02*
D03*
X468102D02*
D03*
X641102D02*
D03*
X618102D02*
D03*
X491102Y520859D02*
D03*
X468102D02*
D03*
X641102D02*
D03*
X618102D02*
D03*
X550500Y141000D02*
D03*
X527500D02*
D03*
X527000Y173500D02*
D03*
X550000D02*
D03*
X660500Y141000D02*
D03*
X637500D02*
D03*
X637000Y173500D02*
D03*
X660000D02*
D03*
X550500Y251000D02*
D03*
X527500D02*
D03*
X527000Y283500D02*
D03*
X550000D02*
D03*
X660500Y251000D02*
D03*
X637500D02*
D03*
X637000Y283500D02*
D03*
X660000D02*
D03*
D79*
X185500Y664862D02*
D03*
Y660138D02*
D03*
X155673Y659514D02*
D03*
Y664238D02*
D03*
X335500Y664862D02*
D03*
Y660138D02*
D03*
X305673Y659514D02*
D03*
Y664238D02*
D03*
X485500Y664862D02*
D03*
Y660138D02*
D03*
X455673Y659514D02*
D03*
Y664238D02*
D03*
X635500Y664862D02*
D03*
Y660138D02*
D03*
X605673Y659514D02*
D03*
Y664238D02*
D03*
D89*
X494300Y401482D02*
D03*
Y404041D02*
D03*
Y406600D02*
D03*
Y409159D02*
D03*
X510442D02*
D03*
Y406600D02*
D03*
Y404041D02*
D03*
Y401482D02*
D03*
X644300D02*
D03*
Y404041D02*
D03*
Y406600D02*
D03*
Y409159D02*
D03*
X660442D02*
D03*
Y406600D02*
D03*
Y404041D02*
D03*
Y401482D02*
D03*
X494300Y551482D02*
D03*
Y554041D02*
D03*
Y556600D02*
D03*
Y559159D02*
D03*
X510442D02*
D03*
Y556600D02*
D03*
Y554041D02*
D03*
Y551482D02*
D03*
X644300D02*
D03*
Y554041D02*
D03*
Y556600D02*
D03*
Y559159D02*
D03*
X660442D02*
D03*
Y556600D02*
D03*
Y554041D02*
D03*
Y551482D02*
D03*
D90*
X498532Y413391D02*
D03*
X501091D02*
D03*
X503650D02*
D03*
X506210D02*
D03*
Y397250D02*
D03*
X503650D02*
D03*
X501091D02*
D03*
X498532D02*
D03*
X648532Y413391D02*
D03*
X651091D02*
D03*
X653650D02*
D03*
X656210D02*
D03*
Y397250D02*
D03*
X653650D02*
D03*
X651091D02*
D03*
X648532D02*
D03*
X498532Y563391D02*
D03*
X501091D02*
D03*
X503650D02*
D03*
X506210D02*
D03*
Y547250D02*
D03*
X503650D02*
D03*
X501091D02*
D03*
X498532D02*
D03*
X648532Y563391D02*
D03*
X651091D02*
D03*
X653650D02*
D03*
X656210D02*
D03*
Y547250D02*
D03*
X653650D02*
D03*
X651091D02*
D03*
X648532D02*
D03*
D91*
X502371Y405321D02*
D03*
X652371D02*
D03*
X502371Y555321D02*
D03*
X652371D02*
D03*
D92*
X482358Y421200D02*
D03*
X477042D02*
D03*
X632358D02*
D03*
X627042D02*
D03*
X482358Y571200D02*
D03*
X477042D02*
D03*
X632358D02*
D03*
X627042D02*
D03*
D107*
X454900Y420400D02*
D03*
X508000Y422200D02*
D03*
X502600Y422000D02*
D03*
X521100Y382600D02*
D03*
Y389000D02*
D03*
X521300Y396500D02*
D03*
Y402200D02*
D03*
Y374300D02*
D03*
X454100Y377500D02*
D03*
X497800Y380800D02*
D03*
X459000Y420400D02*
D03*
X604900D02*
D03*
X658000Y422200D02*
D03*
X652600Y422000D02*
D03*
X671100Y382600D02*
D03*
Y389000D02*
D03*
X671300Y396500D02*
D03*
Y402200D02*
D03*
Y374300D02*
D03*
X604100Y377500D02*
D03*
X647800Y380800D02*
D03*
X609000Y420400D02*
D03*
X454900Y570400D02*
D03*
X508000Y572200D02*
D03*
X502600Y572000D02*
D03*
X521100Y532600D02*
D03*
Y539000D02*
D03*
X521300Y546500D02*
D03*
Y552200D02*
D03*
Y524300D02*
D03*
X454100Y527500D02*
D03*
X497800Y530800D02*
D03*
X459000Y570400D02*
D03*
X604900D02*
D03*
X658000Y572200D02*
D03*
X652600Y572000D02*
D03*
X671100Y532600D02*
D03*
Y539000D02*
D03*
X671300Y546500D02*
D03*
Y552200D02*
D03*
Y524300D02*
D03*
X604100Y527500D02*
D03*
X647800Y530800D02*
D03*
X609000Y570400D02*
D03*
X559500Y176500D02*
D03*
X540000Y190500D02*
D03*
X517000Y177000D02*
D03*
X540500Y123500D02*
D03*
X533000D02*
D03*
X669500Y176500D02*
D03*
X650000Y190500D02*
D03*
X627000Y177000D02*
D03*
X650500Y123500D02*
D03*
X643000D02*
D03*
X559500Y286500D02*
D03*
X540000Y300500D02*
D03*
X517000Y287000D02*
D03*
X540500Y233500D02*
D03*
X533000D02*
D03*
X669500Y286500D02*
D03*
X650000Y300500D02*
D03*
X627000Y287000D02*
D03*
X650500Y233500D02*
D03*
X643000D02*
D03*
X201591Y659500D02*
D03*
X197000D02*
D03*
X146800Y618500D02*
D03*
X143000D02*
D03*
X138000D02*
D03*
X134000D02*
D03*
Y686500D02*
D03*
X125000Y647000D02*
D03*
Y673500D02*
D03*
Y680000D02*
D03*
X139500Y686500D02*
D03*
X219500Y672500D02*
D03*
X125000Y669500D02*
D03*
Y688000D02*
D03*
Y692000D02*
D03*
Y684000D02*
D03*
Y665500D02*
D03*
Y635000D02*
D03*
Y660500D02*
D03*
Y639000D02*
D03*
Y656500D02*
D03*
Y652500D02*
D03*
Y643000D02*
D03*
X219500Y684500D02*
D03*
Y688500D02*
D03*
Y676500D02*
D03*
X351590Y659500D02*
D03*
X347000D02*
D03*
X296800Y618500D02*
D03*
X293000D02*
D03*
X288000D02*
D03*
X284000D02*
D03*
Y686500D02*
D03*
X275000Y647000D02*
D03*
Y673500D02*
D03*
Y680000D02*
D03*
X289500Y686500D02*
D03*
X369500Y672500D02*
D03*
X275000Y669500D02*
D03*
Y688000D02*
D03*
Y692000D02*
D03*
Y684000D02*
D03*
Y665500D02*
D03*
Y635000D02*
D03*
Y660500D02*
D03*
Y639000D02*
D03*
Y656500D02*
D03*
Y652500D02*
D03*
Y643000D02*
D03*
X369500Y684500D02*
D03*
Y688500D02*
D03*
Y676500D02*
D03*
X501590Y659500D02*
D03*
X497000D02*
D03*
X446800Y618500D02*
D03*
X443000D02*
D03*
X438000D02*
D03*
X434000D02*
D03*
Y686500D02*
D03*
X425000Y647000D02*
D03*
Y673500D02*
D03*
Y680000D02*
D03*
X439500Y686500D02*
D03*
X519500Y672500D02*
D03*
X425000Y669500D02*
D03*
Y688000D02*
D03*
Y692000D02*
D03*
Y684000D02*
D03*
Y665500D02*
D03*
Y635000D02*
D03*
Y660500D02*
D03*
Y639000D02*
D03*
Y656500D02*
D03*
Y652500D02*
D03*
Y643000D02*
D03*
X519500Y684500D02*
D03*
Y688500D02*
D03*
Y676500D02*
D03*
X651590Y659500D02*
D03*
X647000D02*
D03*
X596800Y618500D02*
D03*
X593000D02*
D03*
X588000D02*
D03*
X584000D02*
D03*
Y686500D02*
D03*
X575000Y647000D02*
D03*
Y673500D02*
D03*
Y680000D02*
D03*
X589500Y686500D02*
D03*
X669500Y672500D02*
D03*
X575000Y669500D02*
D03*
Y688000D02*
D03*
Y692000D02*
D03*
Y684000D02*
D03*
Y665500D02*
D03*
Y635000D02*
D03*
Y660500D02*
D03*
Y639000D02*
D03*
Y656500D02*
D03*
Y652500D02*
D03*
Y643000D02*
D03*
X669500Y684500D02*
D03*
Y688500D02*
D03*
Y676500D02*
D03*
X447885Y187800D02*
D03*
X432585Y140900D02*
D03*
X419385Y162600D02*
D03*
X417885Y174800D02*
D03*
X426885Y140800D02*
D03*
X347885Y187800D02*
D03*
X332585Y140900D02*
D03*
X319385Y162600D02*
D03*
X317885Y174800D02*
D03*
X326885Y140800D02*
D03*
X247885Y187800D02*
D03*
X232585Y140900D02*
D03*
X219385Y162600D02*
D03*
X217885Y174800D02*
D03*
X226885Y140800D02*
D03*
X147885Y187800D02*
D03*
X132585Y140900D02*
D03*
X119385Y162600D02*
D03*
X117885Y174800D02*
D03*
X126885Y140800D02*
D03*
D108*
X500235Y407465D02*
D03*
X504565D02*
D03*
X500235Y403135D02*
D03*
X504565D02*
D03*
X500206Y403155D02*
D03*
X504536D02*
D03*
X500206Y407486D02*
D03*
X504536D02*
D03*
X650235Y407465D02*
D03*
X654565D02*
D03*
X650235Y403135D02*
D03*
X654565D02*
D03*
X650206Y403155D02*
D03*
X654536D02*
D03*
X650206Y407486D02*
D03*
X654536D02*
D03*
X500235Y557465D02*
D03*
X504565D02*
D03*
X500235Y553135D02*
D03*
X504565D02*
D03*
X500206Y553155D02*
D03*
X504536D02*
D03*
X500206Y557486D02*
D03*
X504536D02*
D03*
X650235Y557465D02*
D03*
X654565D02*
D03*
X650235Y553135D02*
D03*
X654565D02*
D03*
X650206Y553155D02*
D03*
X654536D02*
D03*
X650206Y557486D02*
D03*
X654536D02*
D03*
D109*
X323929Y387583D02*
D03*
X173929D02*
D03*
D110*
X313929D02*
D03*
X323929Y397583D02*
D03*
X313929D02*
D03*
X323929Y407583D02*
D03*
X313929D02*
D03*
X323929Y417583D02*
D03*
X313929D02*
D03*
X323929Y427583D02*
D03*
X313929D02*
D03*
X323929Y437583D02*
D03*
X313929D02*
D03*
X323929Y447583D02*
D03*
X313929D02*
D03*
X323929Y457583D02*
D03*
X313929D02*
D03*
X163929Y387583D02*
D03*
X173929Y397583D02*
D03*
X163929D02*
D03*
X173929Y407583D02*
D03*
X163929D02*
D03*
X173929Y417583D02*
D03*
X163929D02*
D03*
X173929Y427583D02*
D03*
X163929D02*
D03*
X173929Y437583D02*
D03*
X163929D02*
D03*
X173929Y447583D02*
D03*
X163929D02*
D03*
X173929Y457583D02*
D03*
X163929D02*
D03*
D111*
X202000Y684000D02*
D03*
X210000D02*
D03*
X206000Y664000D02*
D03*
X352000Y684000D02*
D03*
X360000D02*
D03*
X356000Y664000D02*
D03*
X502000Y684000D02*
D03*
X510000D02*
D03*
X506000Y664000D02*
D03*
X652000Y684000D02*
D03*
X660000D02*
D03*
X656000Y664000D02*
D03*
D112*
X330484Y330575D02*
D03*
Y324670D02*
D03*
X311074Y330575D02*
D03*
Y324670D02*
D03*
X311074Y514040D02*
D03*
Y519945D02*
D03*
X330484Y514040D02*
D03*
Y519945D02*
D03*
X180484Y330575D02*
D03*
Y324670D02*
D03*
X161074Y330575D02*
D03*
Y324670D02*
D03*
X161074Y514040D02*
D03*
Y519945D02*
D03*
X180484Y514040D02*
D03*
Y519945D02*
D03*
D113*
X313693Y324670D02*
D03*
X327866Y330575D02*
D03*
Y324670D02*
D03*
X326291Y330575D02*
D03*
Y324670D02*
D03*
X324716Y330575D02*
D03*
Y324670D02*
D03*
X323141Y330575D02*
D03*
Y324670D02*
D03*
X321567Y330575D02*
D03*
Y324670D02*
D03*
X319992Y330575D02*
D03*
Y324670D02*
D03*
X318417Y330575D02*
D03*
Y324670D02*
D03*
X316842Y330575D02*
D03*
Y324670D02*
D03*
X315267Y330575D02*
D03*
Y324670D02*
D03*
X313693Y330575D02*
D03*
X327866Y519945D02*
D03*
X313693Y514040D02*
D03*
Y519945D02*
D03*
X315267Y514040D02*
D03*
Y519945D02*
D03*
X316842Y514040D02*
D03*
Y519945D02*
D03*
X318417Y514040D02*
D03*
Y519945D02*
D03*
X319992Y514040D02*
D03*
Y519945D02*
D03*
X321567Y514040D02*
D03*
Y519945D02*
D03*
X323141Y514040D02*
D03*
Y519945D02*
D03*
X324716Y514040D02*
D03*
Y519945D02*
D03*
X326291Y514040D02*
D03*
Y519945D02*
D03*
X327866Y514040D02*
D03*
X163693Y324670D02*
D03*
X177866Y330575D02*
D03*
Y324670D02*
D03*
X176291Y330575D02*
D03*
Y324670D02*
D03*
X174716Y330575D02*
D03*
Y324670D02*
D03*
X173141Y330575D02*
D03*
Y324670D02*
D03*
X171567Y330575D02*
D03*
Y324670D02*
D03*
X169992Y330575D02*
D03*
Y324670D02*
D03*
X168417Y330575D02*
D03*
Y324670D02*
D03*
X166842Y330575D02*
D03*
Y324670D02*
D03*
X165267Y330575D02*
D03*
Y324670D02*
D03*
X163693Y330575D02*
D03*
X177866Y519945D02*
D03*
X163693Y514040D02*
D03*
Y519945D02*
D03*
X165267Y514040D02*
D03*
Y519945D02*
D03*
X166842Y514040D02*
D03*
Y519945D02*
D03*
X168417Y514040D02*
D03*
Y519945D02*
D03*
X169992Y514040D02*
D03*
Y519945D02*
D03*
X171567Y514040D02*
D03*
Y519945D02*
D03*
X173141Y514040D02*
D03*
Y519945D02*
D03*
X174716Y514040D02*
D03*
Y519945D02*
D03*
X176291Y514040D02*
D03*
Y519945D02*
D03*
X177866Y514040D02*
D03*
D114*
X208500Y679000D02*
D03*
X203500D02*
D03*
X208500Y674000D02*
D03*
X203500D02*
D03*
X208500Y669000D02*
D03*
X203500D02*
D03*
X358500Y679000D02*
D03*
X353500D02*
D03*
X358500Y674000D02*
D03*
X353500D02*
D03*
X358500Y669000D02*
D03*
X353500D02*
D03*
X508500Y679000D02*
D03*
X503500D02*
D03*
X508500Y674000D02*
D03*
X503500D02*
D03*
X508500Y669000D02*
D03*
X503500D02*
D03*
X658500Y679000D02*
D03*
X653500D02*
D03*
X658500Y674000D02*
D03*
X653500D02*
D03*
X658500Y669000D02*
D03*
X653500D02*
D03*
D115*
X177000Y660000D02*
D03*
X164402D02*
D03*
X177000Y681653D02*
D03*
X164402D02*
D03*
X327000Y660000D02*
D03*
X314402D02*
D03*
X327000Y681653D02*
D03*
X314402D02*
D03*
X477000Y660000D02*
D03*
X464402D02*
D03*
X477000Y681653D02*
D03*
X464402D02*
D03*
X627000Y660000D02*
D03*
X614402D02*
D03*
X627000Y681653D02*
D03*
X614402D02*
D03*
D116*
X423685Y201724D02*
D03*
X429591Y203298D02*
D03*
X423685D02*
D03*
X429591Y204873D02*
D03*
X423685D02*
D03*
X429591Y206448D02*
D03*
X423685D02*
D03*
X429591Y208023D02*
D03*
X423685D02*
D03*
X429591Y209598D02*
D03*
X423685D02*
D03*
X429591Y211172D02*
D03*
X423685D02*
D03*
X429591Y212747D02*
D03*
X423685D02*
D03*
X429591Y214322D02*
D03*
X423685D02*
D03*
X429591Y215897D02*
D03*
X423685D02*
D03*
X429591Y201724D02*
D03*
X323685D02*
D03*
X329591Y203298D02*
D03*
X323685D02*
D03*
X329591Y204873D02*
D03*
X323685D02*
D03*
X329591Y206448D02*
D03*
X323685D02*
D03*
X329591Y208023D02*
D03*
X323685D02*
D03*
X329591Y209598D02*
D03*
X323685D02*
D03*
X329591Y211172D02*
D03*
X323685D02*
D03*
X329591Y212747D02*
D03*
X323685D02*
D03*
X329591Y214322D02*
D03*
X323685D02*
D03*
X329591Y215897D02*
D03*
X323685D02*
D03*
X329591Y201724D02*
D03*
X223685D02*
D03*
X229591Y203298D02*
D03*
X223685D02*
D03*
X229591Y204873D02*
D03*
X223685D02*
D03*
X229591Y206448D02*
D03*
X223685D02*
D03*
X229591Y208023D02*
D03*
X223685D02*
D03*
X229591Y209598D02*
D03*
X223685D02*
D03*
X229591Y211172D02*
D03*
X223685D02*
D03*
X229591Y212747D02*
D03*
X223685D02*
D03*
X229591Y214322D02*
D03*
X223685D02*
D03*
X229591Y215897D02*
D03*
X223685D02*
D03*
X229591Y201724D02*
D03*
X123685D02*
D03*
X129591Y203298D02*
D03*
X123685D02*
D03*
X129591Y204873D02*
D03*
X123685D02*
D03*
X129591Y206448D02*
D03*
X123685D02*
D03*
X129591Y208023D02*
D03*
X123685D02*
D03*
X129591Y209598D02*
D03*
X123685D02*
D03*
X129591Y211172D02*
D03*
X123685D02*
D03*
X129591Y212747D02*
D03*
X123685D02*
D03*
X129591Y214322D02*
D03*
X123685D02*
D03*
X129591Y215897D02*
D03*
X123685D02*
D03*
X129591Y201724D02*
D03*
D117*
X429591Y199106D02*
D03*
X423685D02*
D03*
X429591Y218515D02*
D03*
X423685D02*
D03*
X329591Y199106D02*
D03*
X323685D02*
D03*
X329591Y218515D02*
D03*
X323685D02*
D03*
X229591Y199106D02*
D03*
X223685D02*
D03*
X229591Y218515D02*
D03*
X223685D02*
D03*
X129591Y199106D02*
D03*
X123685D02*
D03*
X129591Y218515D02*
D03*
X123685D02*
D03*
M02*
